<?xml version="1.0" encoding="iso-8859-1"?>
<!-- Generator: Adobe Illustrator 19.0.0, SVG Export Plug-In . SVG Version: 6.00 Build 0)  -->
<svg version="1.1" id="Capa_1" xmlns="http://www.w3.org/2000/svg" xmlns:xlink="http://www.w3.org/1999/xlink" x="0px" y="0px"
	 viewBox="0 0 472 472" style="enable-background:new 0 0 472 472;" xml:space="preserve">
<path style="fill:#F40E34;" d="M360,52.001v16h-32v-16c0-8.8-7.2-16-16-16h-32.64c-7.52-13.04-19.52-23.2-34-28.24
	c5.76-2.4,12-3.76,18.64-3.76h48C338.48,4.001,360,25.521,360,52.001z"/>
<path style="fill:#313DD1;" d="M208,68.001h120c17.673,0,32,14.327,32,32v176c0,17.673-14.327,32-32,32H208
	c-17.673,0-32-14.327-32-32v-176C176,82.328,190.327,68.001,208,68.001z"/>
<g>
	<path style="fill:#E7B900;" d="M184,438.881v-34.88v-32h-48v24h24v16h-24v16h-8c-17.68,0-32,14.32-32,32v8h56h16h8v-8
		C176,451.921,179.04,444.561,184,438.881z"/>
	<path style="fill:#E7B900;" d="M216,428.001h-8c-9.6,0-18.16,4.24-24,10.88c-4.96,5.68-8,13.04-8,21.12v8h8h80v-80h-48V428.001z"/>
</g>
<path style="fill:#D4C8B8;" d="M144,132.001c-13.255,0-24,10.745-24,24v48l-40,40l32,32l48-48v-24h24v64l-48,48v56h48v-40l16-16
	l16,8v64h48v-40l32-32v-184H144z"/>
<rect x="136" y="396.001" style="fill:#5AAAE7;" width="24" height="16"/>
<path style="fill:#EBE5DD;" d="M271.84,92.401c4.64,0,8.96-1.28,12.64-3.52c-8.72,25.28-32.72,43.36-60.96,43.12
	c-35.36-0.24-63.76-29.12-63.52-64.48c0-1.68,0.08-3.28,0.32-4.88c2.64-33.12,30.48-58.88,64.16-58.64
	c7.28,0.08,14.32,1.36,20.88,3.76c14.48,5.04,26.48,15.2,34,28.24c2.24,3.76,4.08,7.84,5.44,12.08c-3.68-2.24-8-3.68-12.64-3.68
	c-7.44-0.08-14.16,3.2-18.56,8.56c-3.36,4.08-5.44,9.28-5.6,15.04v0.24c-0.08,5.84,2,11.12,5.36,15.28
	C257.68,88.881,264.4,92.321,271.84,92.401z"/>
<path style="fill:#D4C8B8;" d="M296,68.001c0,8.64-4.56,16.16-11.36,20.4c-3.68,2.24-8,3.6-12.64,3.6c-7.44,0-14.16-3.36-18.48-8.72
	c-3.44-4.16-5.52-9.44-5.52-15.28c0-5.84,2.08-11.12,5.52-15.28c4.32-5.36,11.04-8.72,18.48-8.72c4.64,0,8.96,1.36,12.64,3.6
	C291.44,51.841,296,59.361,296,68.001z"/>
<path style="fill:#5AAAE7;" d="M248,68.001c0,5.84,2.08,11.12,5.52,15.28c-6.4,18.96-24.4,32.72-45.52,32.72
	c-26.48,0-48-21.52-48-48c0-1.68,0.08-3.28,0.24-4.88c2.48-24.24,22.96-43.12,47.76-43.12c21.12,0,39.12,13.76,45.52,32.72
	C250.08,56.881,248,62.16,248,68.001z"/>
<path style="fill:#FFFFFF;" d="M184,52.001h-16c0-0.828,0.039-1.625,0.117-2.43c1.234-12.102,11.719-21.57,23.883-21.57v16
	c-3.984,0-7.563,3.227-7.961,7.188C184.008,51.454,184,51.72,184,52.001z"/>
<path style="fill:#D4C8B8;" d="M328,156.001v64l-56,56l-32-32l40-40v-72h24C317.255,132.001,328,142.746,328,156.001z"/>
<g>
	<path style="fill:#EBE5DD;" d="M240,244.001l-16,16c-4.418,4.418-4.418,11.582,0,16h0l-16,16l16,16c4.418,4.418,11.582,4.418,16,0
		l32-32L240,244.001z"/>
	<path style="fill:#EBE5DD;" d="M80,244.001l-16,16c-4.418,4.418-4.418,11.582,0,16h0l-16,16l16,16c4.418,4.418,11.582,4.418,16,0
		l32-32L80,244.001z"/>
</g>
<path style="fill:#161E81;" d="M312,308.001h64c17.673,0,32-14.327,32-32v-176c0-17.673-14.327-32-32-32h-64h16
	c17.673,0,32,14.327,32,32v176c0,17.673-14.327,32-32,32H312z"/>
<rect x="168" y="60.001" style="fill:#FFFFFF;" width="16" height="16"/>
<rect x="260.716" y="216.668" transform="matrix(-0.7071 0.7071 -0.7071 -0.7071 625.5865 196.8328)" style="fill:#F40E34;" width="22.624" height="22.624"/>
<rect x="304" y="164.001" style="fill:#FFD422;" width="24" height="32"/>
<rect x="240" y="412.001" style="fill:#5AAAE7;" width="24" height="16"/>
<rect x="384" y="164.001" style="fill:#F40E34;" width="24" height="16"/>
<rect x="384" y="196.001" style="fill:#FFD422;" width="24" height="16"/>
<rect x="384" y="228.001" style="fill:#5AAAE7;" width="24" height="16"/>
<rect x="104.002" y="216.685" transform="matrix(-0.7071 0.7071 -0.7071 -0.7071 352.4181 310.0179)" style="fill:#F40E34;" width="16" height="22.624"/>
<g>
	<path style="fill:#FFD422;" d="M416.023,444.001c-3.375,0-6.664-0.516-9.813-1.523l4.906-15.234
		c3.133,1.008,6.703,1.008,9.883-0.039l4.953,15.219C422.766,443.462,419.422,443.993,416.023,444.001z M390.211,430.946
		c-4.016-5.461-6.164-11.945-6.203-18.75l16-0.094c0.023,3.406,1.086,6.641,3.094,9.359L390.211,430.946z M441.914,430.782
		l-12.953-9.391c1.992-2.742,3.039-5.992,3.039-9.391l16-0.281v0.281C448,418.798,445.898,425.29,441.914,430.782z M402.992,402.688
		l-13.016-9.313c3.906-5.453,9.539-9.617,15.875-11.734l5.078,15.172C407.766,397.876,404.945,399.962,402.992,402.688z
		 M428.859,402.477c-2.047-2.742-4.828-4.727-8.055-5.742l4.797-15.266c6.453,2.031,12.016,5.984,16.086,11.445L428.859,402.477z"/>
	<rect x="32" y="372.001" style="fill:#FFD422;" width="16" height="16"/>
	<rect x="32" y="404.001" style="fill:#FFD422;" width="16" height="16"/>
	<rect x="48" y="388.001" style="fill:#FFD422;" width="16" height="16"/>
	<rect x="16" y="388.001" style="fill:#FFD422;" width="16" height="16"/>
	<polygon style="fill:#FFD422;" points="32,196.001 24,196.001 24,188.001 8,188.001 8,196.001 0,196.001 0,212.001 8,212.001 
		8,220.001 24,220.001 24,212.001 32,212.001 	"/>
	<polygon style="fill:#FFD422;" points="464,28.001 456,28.001 456,20.001 440,20.001 440,28.001 432,28.001 432,44.001 440,44.001 
		440,52.001 456,52.001 456,44.001 464,44.001 	"/>
	<rect x="456" y="212.001" style="fill:#FFD422;" width="16" height="16"/>
	<polygon style="fill:#FFD422;" points="67.215,36.001 88,72.001 46.431,72.001 	"/>
</g>
<g>
	<circle style="fill:#EBE5DD;" cx="280" cy="68.001" r="16"/>
	<rect x="152" y="164.001" style="fill:#EBE5DD;" width="64" height="64"/>
</g>
<rect x="176" y="188.001" style="fill:#F40E34;" width="16" height="16"/>
<rect x="216" y="164.001" style="fill:#FFD422;" width="24" height="64"/>
<g>
	<polygon style="fill:#EBE5DD;" points="136,372.001 136,316.001 184,268.001 208,268.001 160,316.001 160,372.001 	"/>
	<polygon style="fill:#EBE5DD;" points="216,388.001 216,324.001 224,316.001 256,316.001 240,332.001 240,388.001 	"/>
	
		<rect x="84.69" y="232.689" transform="matrix(-0.7071 0.7071 -0.7071 -0.7071 336.4206 348.6514)" style="fill:#EBE5DD;" width="22.624" height="22.624"/>
	<path style="fill:#EBE5DD;" d="M112,212.001l16,16l16-16v-80h-8c-8.837,0-16,7.163-16,16v56L112,212.001z"/>
	
		<rect x="244.716" y="232.687" transform="matrix(-0.7071 0.7071 -0.7071 -0.7071 609.6003 235.4935)" style="fill:#EBE5DD;" width="22.624" height="22.624"/>
	<path style="fill:#EBE5DD;" d="M272,212.001l16,16l16-16v-80h-8c-8.837,0-16,7.163-16,16v56L272,212.001z"/>
</g>
<g>
	<rect x="216" y="388.001" style="fill:#FFD422;" width="24" height="40"/>
	<rect x="136" y="372.001" style="fill:#FFD422;" width="24" height="24"/>
	<rect x="136" y="412.001" style="fill:#FFD422;" width="24" height="16"/>
	<path style="fill:#FFD422;" d="M136,428.001c0,0-16,0-16,16s0,24,0,24H96v-8c0-17.673,14.327-32,32-32H136z"/>
	<path style="fill:#FFD422;" d="M216,428.001c0,0-16,0-16,16s0,24,0,24h-24v-8c0-17.673,14.327-32,32-32H216z"/>
</g>
<g>
</g>
<g>
</g>
<g>
</g>
<g>
</g>
<g>
</g>
<g>
</g>
<g>
</g>
<g>
</g>
<g>
</g>
<g>
</g>
<g>
</g>
<g>
</g>
<g>
</g>
<g>
</g>
<g>
</g>
</svg>
