<?xml version="1.0" encoding="iso-8859-1"?>
<!-- Generator: Adobe Illustrator 19.0.0, SVG Export Plug-In . SVG Version: 6.00 Build 0)  -->
<svg version="1.1" id="Capa_1" xmlns="http://www.w3.org/2000/svg" xmlns:xlink="http://www.w3.org/1999/xlink" x="0px" y="0px"
	 viewBox="0 0 512.001 512.001" style="enable-background:new 0 0 512.001 512.001;" xml:space="preserve">
<g>
	<path style="fill:#FFC850;" d="M231.002,157.744L118.979,269.768l-110.44-9.735c-7.897-0.696-11.399-10.297-5.798-15.897l0,0
		c47.454-47.454,110.203-76.549,177.126-82.128L231.002,157.744z"/>
	<path style="fill:#FFC850;" d="M354.214,280.956L242.191,392.979l9.771,110.476c0.699,7.899,10.304,11.405,15.904,5.805l0,0
		c47.454-47.454,76.539-110.213,82.1-177.154L354.214,280.956z"/>
</g>
<g>
	<path style="fill:#F9B428;" d="M23.564,245.252L23.564,245.252c39.424-39.424,88.433-67.389,142.035-81.677
		c-61.537,8.275-118.793,36.495-162.858,80.56l0,0c-5.6,5.6-2.098,15.201,5.798,15.897l16.397,1.445
		C20.002,257.729,18.708,250.108,23.564,245.252z"/>
	<path style="fill:#F9B428;" d="M273.996,498.248l-11.138-125.935l-20.667,20.667l9.771,110.476
		c0.698,7.899,10.304,11.405,15.904,5.805l0,0c2.404-2.404,4.747-4.856,7.056-7.337
		C274.439,500.805,274.114,499.578,273.996,498.248z"/>
</g>
<path style="fill:#E4EAF8;" d="M502.651,0.303l-88.293,25.809l-65.226,19.066c-5.369,1.569-10.256,4.465-14.211,8.42L97.423,291.095
	c-3.011,3.011-3.011,7.894,0,10.905l47.564,47.564l17.449,17.449l47.061,47.061c3.289,3.289,8.623,3.289,11.912,0l132.805-133.118
	l103.491-103.198c4.412-4.4,7.642-9.842,9.39-15.822L511.698,9.35C513.314,3.819,508.181-1.314,502.651,0.303z"/>
<path style="fill:#D8DCE5;" d="M133.742,284.531L347.385,70.889c3.268-3.268,7.307-5.661,11.743-6.958l149.378-43.664
	c0.487-1.666,2.705-9.253,3.191-10.917c0.013-0.043,0.016-0.085,0.028-0.128c1.514-5.536-3.641-10.509-9.075-8.919L348.392,45.394
	c-4.884,1.428-9.331,4.063-12.929,7.661l-238.04,238.04c-2.985,2.985-3.009,7.897,0,10.905l9.425,9.425L133.742,284.531z"/>
<circle style="fill:#707487;" cx="349.29" cy="162.71" r="43.774"/>
<path style="fill:#5B5D6E;" d="M338.947,131.753c5.907-5.907,13.083-9.77,20.65-11.595c-14.331-3.456-30.068,0.407-41.255,11.595
	c-17.095,17.095-17.095,44.811,0,61.906c11.187,11.188,26.924,15.051,41.255,11.595C326.585,197.293,314.729,155.97,338.947,131.753
	z"/>
<path style="fill:#707487;" d="M163.44,366.234l-17.673-17.673l-33.137-33.137l-24.811,24.811c-4.486,4.486-4.486,11.827,0,16.314
	c6.749,6.749,26.245,26.245,33.817,33.817c7.285,7.285,26.481,26.48,33.817,33.817c4.486,4.486,11.827,4.486,16.314,0l24.811-24.811
	L163.44,366.234z"/>
<path style="fill:#5B5D6E;" d="M99.087,358.23l28.174-28.174l-14.632-14.632l-24.811,24.811c-4.486,4.486-4.486,11.827,0,16.314
	l7.792,7.792C96.191,362.098,97.34,359.977,99.087,358.23z"/>
<path style="fill:#C3C8D1;" d="M189.33,340.119l-17.449-17.449l-53.017-53.017l-21.442,21.442c-3.011,3.012-3.011,7.894,0,10.905
	l47.564,47.564l17.449,17.449l47.061,47.061c3.289,3.289,8.623,3.289,11.912,0l20.939-20.938L189.33,340.119z"/>
<path style="fill:#B0B3B7;" d="M97.423,302l9.425,9.425l26.894-26.894l-14.878-14.878l-21.442,21.442
	C94.412,294.106,94.412,298.989,97.423,302z"/>
<g>
	<path style="fill:#E4EAF8;" d="M32.611,408.924c-3.018-3.017-3.018-7.91,0-10.927l26.272-26.272c3.017-3.017,7.91-3.017,10.927,0
		c3.018,3.017,3.018,7.91,0,10.927l-26.272,26.272C40.52,411.942,35.628,411.941,32.611,408.924z"/>
	<path style="fill:#E4EAF8;" d="M58.169,434.482c-3.018-3.017-3.018-7.91,0-10.927l26.272-26.271c3.018-3.018,7.91-3.018,10.927,0
		c3.018,3.017,3.018,7.91,0,10.927l-26.272,26.271C66.079,437.499,61.187,437.5,58.169,434.482z"/>
	<path style="fill:#E4EAF8;" d="M109.284,485.597c-3.018-3.017-3.018-7.91,0-10.927l26.272-26.272c3.017-3.017,7.91-3.017,10.927,0
		c3.018,3.017,3.018,7.91,0,10.927l-26.272,26.272C117.193,488.615,112.301,488.615,109.284,485.597z"/>
	<path style="fill:#E4EAF8;" d="M83.726,460.039c-3.017-3.017-3.017-7.91,0-10.927l26.272-26.271c3.017-3.018,7.91-3.018,10.927,0
		c3.018,3.017,3.018,7.91,0,10.927l-26.272,26.271C91.637,463.056,86.745,463.058,83.726,460.039z"/>
</g>
<path style="fill:#FF5050;" d="M502.65,0.303l-88.293,25.809l71.532,71.532L511.698,9.35C513.314,3.819,508.181-1.314,502.65,0.303z
	"/>
<path style="fill:#ED3A3A;" d="M502.651,0.303l-28.989,8.474l-59.304,17.335l16.773,16.773l77.377-22.618l3.191-10.916
	C513.315,3.819,508.181-1.313,502.651,0.303z"/>
<path id="SVGCleanerId_0" style="fill:#FFC850;" d="M121.786,391.46l-1.246-1.246c-4.474-4.474-4.474-11.728,0-16.202
	l155.264-155.264c4.474-4.474,11.728-4.474,16.202,0l1.246,1.246c4.474,4.474,4.474,11.728,0,16.202L137.989,391.46
	C133.515,395.935,126.261,395.935,121.786,391.46z"/>
<g>
	<path id="SVGCleanerId_0_1_" style="fill:#FFC850;" d="M121.786,391.46l-1.246-1.246c-4.474-4.474-4.474-11.728,0-16.202
		l155.264-155.264c4.474-4.474,11.728-4.474,16.202,0l1.246,1.246c4.474,4.474,4.474,11.728,0,16.202L137.989,391.46
		C133.515,395.935,126.261,395.935,121.786,391.46z"/>
</g>
<path style="fill:#F9B428;" d="M131.341,380.088l154.773-154.773c2.36-2.36,5.47-3.503,8.563-3.447
	c-0.468-0.751-1.017-1.465-1.67-2.118l-0.756-0.756c-4.61-4.609-12.083-4.609-16.693,0L120.785,373.767
	c-4.609,4.609-4.609,12.083,0,16.693l0.756,0.756c2.249,2.25,5.181,3.393,8.129,3.447
	C126.834,390.108,127.384,384.045,131.341,380.088z"/>
<g>
</g>
<g>
</g>
<g>
</g>
<g>
</g>
<g>
</g>
<g>
</g>
<g>
</g>
<g>
</g>
<g>
</g>
<g>
</g>
<g>
</g>
<g>
</g>
<g>
</g>
<g>
</g>
<g>
</g>
</svg>
