<svg id="Group_6" data-name="Group 6" xmlns="http://www.w3.org/2000/svg" width="512" height="512" viewBox="0 0 512 512">
  <g id="Group_5" data-name="Group 5">
    <g id="Group_4" data-name="Group 4">
      <g id="Group_3" data-name="Group 3">
        <g id="rocket" transform="translate(0 0)">
          <path id="Path_8" data-name="Path 8" d="M352.913,199.615l33.894,24.08,30.34-30.34-48.216-11.7a2,2,0,0,0-1.886.529l-14.387,14.387a2,2,0,0,0,.255,3.046Z" transform="translate(-257.219 0)" fill="#f1f1f1"/>
          <path id="Path_9" data-name="Path 9" d="M323.365,237.452l35.222,35.222a6,6,0,0,0,8.485,0l28.281-28.281-43.707-43.707-28.281,28.281a6,6,0,0,0,0,8.485Z" transform="translate(-204.961 0)" fill="#497285"/>
          <path id="Path_10" data-name="Path 10" d="M395.353,222.539l-32.524,32.524-17.611-17.611a6,6,0,0,1,0-8.485L373.5,200.686Z" transform="translate(-226.814 0)" fill="#426778"/>
          <path id="Path_11" data-name="Path 11" d="M445.134,342.333l-8.806,4.682a177.733,177.733,0,0,0-94.4,156.9v5.219A2.866,2.866,0,0,0,344.792,512h3.449a178.329,178.329,0,0,0,149.576-81.123L512,409.037Z" transform="translate(-341.923 0)" fill="#ffd54f"/>
          <path id="Path_12" data-name="Path 12" d="M491.867,347.015l8.806-4.682L512,353.633a177.688,177.688,0,0,0-83.016,150.285v5.219a2.837,2.837,0,0,0,.2,1.028A178.668,178.668,0,0,1,403.78,512h-3.449a2.866,2.866,0,0,1-2.869-2.862v-5.219A177.733,177.733,0,0,1,491.867,347.015Z" transform="translate(-397.462 0)" fill="#ffc128"/>
          <path id="Path_13" data-name="Path 13" d="M303.916,345.252l65.557,65.557c2.946,2.946,8.108,2.068,10.412-1.77l32.679-54.431L360.116,302.16l-54.431,32.679c-3.837,2.3-4.715,7.467-1.769,10.413Z" transform="translate(-202.725 0)" fill="#497285"/>
          <path id="Path_14" data-name="Path 14" d="M336.28,334.84l54.431-32.679,21.853,21.853-54.431,32.679c-3.838,2.3-4.715,7.467-1.77,10.412L334.51,345.252C331.564,342.306,332.442,337.144,336.28,334.84Z" transform="translate(-233.319 0)" fill="#426778"/>
          <path id="Path_15" data-name="Path 15" d="M171.785,211.356l43.707,43.707L370.753,99.8A18.1,18.1,0,0,0,355,69.237L318.66,75.068A39.381,39.381,0,0,0,297.041,86.1Z" transform="translate(-35.77 0)" fill="#f1f1f1"/>
          <path id="Path_16" data-name="Path 16" d="M318.677,75.068l36.342-5.831a18.121,18.121,0,0,1,20.475,22.074L340.53,96.92a39.38,39.38,0,0,0-21.619,11.032L193.655,233.208,171.8,211.355,297.058,86.1a39.38,39.38,0,0,1,21.619-11.032Z" transform="translate(-35.787 0)" fill="#e2e2e2"/>
          <path id="Path_17" data-name="Path 17" d="M211.658,86.1a39.38,39.38,0,0,1,21.619-11.032l30.639-4.916L229.85,104.218a18.7,18.7,0,0,1-26.448,0l-4.931-4.931Z" transform="translate(49.613 0)" fill="#426778"/>
          <path id="Path_18" data-name="Path 18" d="M1.866,297.949l68.21,68.21a6.368,6.368,0,0,0,9.006,0L352.033,93.207a54.6,54.6,0,0,0-77.215-77.215L1.866,288.944A6.367,6.367,0,0,0,1.866,297.949Z" transform="translate(143.975 0)" fill="#f1f1f1"/>
          <path id="Path_19" data-name="Path 19" d="M358.676,15.992A54.564,54.564,0,0,1,368.024,28.5a54.612,54.612,0,0,0-64.71,9.348L30.362,310.8a6.368,6.368,0,0,0,0,9.006L8.509,297.95a6.368,6.368,0,0,1,0-9.006L281.461,15.992a54.6,54.6,0,0,1,77.215,0Z" transform="translate(137.332 0)" fill="#e2e2e2"/>
          <path id="Path_20" data-name="Path 20" d="M0,133.9H109.183V0H0Z" transform="translate(285.898 303.353) rotate(-135)" fill="#f55632"/>
          <path id="Path_21" data-name="Path 21" d="M0,133.9H30.9V0H0Z" transform="translate(230.54 248.001) rotate(-135)" fill="#e13629"/>
          <path id="Path_22" data-name="Path 22" d="M256.385,233.33l21.733,21.733,71.392-71.392a15.368,15.368,0,0,0-21.733-21.733Z" transform="translate(-98.396 0)" fill="#63e5ff"/>
          <g id="Group_2" data-name="Group 2" transform="translate(211.344 89.471)">
            <path id="Path_23" data-name="Path 23" d="M258.939,288.882l28.913-28.914a7.5,7.5,0,0,1,10.607,10.606l-28.913,28.914a7.5,7.5,0,1,1-10.607-10.606Z" transform="translate(-256.742 -89.471)" fill="#426778"/>
            <path id="Path_24" data-name="Path 24" d="M133.543,149.495l15.914,15.914a7.5,7.5,0,0,1-10.608,10.606L122.935,160.1a7.5,7.5,0,1,1,10.608-10.606Z" transform="translate(28.264 -89.471)" fill="#426778"/>
            <path id="Path_25" data-name="Path 25" d="M106.649,133.208a7.5,7.5,0,0,1,10.606,0l15.913,15.914a7.5,7.5,0,0,1-10.608,10.606l-15.913-15.914A7.5,7.5,0,0,1,106.649,133.208Z" transform="translate(60.84 -89.471)" fill="#426778"/>
            <path id="Path_26" data-name="Path 26" d="M65.108,120.582,94.021,91.668a7.5,7.5,0,0,1,10.607,10.606L75.715,131.188a7.5,7.5,0,1,1-10.607-10.606Z" transform="translate(130.92 -89.471)" fill="#426778"/>
          </g>
        </g>
      </g>
    </g>
  </g>
</svg>
