<svg id="Capa_1" enable-background="new 0 0 512 512" height="512" viewBox="0 0 512 512" width="512" xmlns="http://www.w3.org/2000/svg"><g><g><path d="m355.52 371.24-99.52 37.76h30c26.13 0 48.41 19.78 56.62 43.13l61.13-3.34c-6.03-30.6-23.72-60.07-48.23-77.55z" fill="#8690a6"/><path d="m156.48 371.24c-24.51 17.48-42.2 46.95-48.23 77.55l61.13 3.34c8.21-23.35 30.49-43.13 56.62-43.13h30z" fill="#8690a6"/><g fill="#eceeff"><path d="m256 10c-82.84 0-150 70.16-150 153v33h300v-33c0-82.84-67.16-153-150-153z"/><path d="m436 502h-120c0-33.141 26.861-60 60-60 33.069 0 60 26.786 60 60z"/><path d="m106 256c0 82.957 67.285 153 150 153 83.133 0 150-70.475 150-153z"/></g><path d="m376 196v60c-12.21 0-226.325 0-240 0v-60z" fill="#8690a6"/><path d="m196 256h120v63h-120z" fill="#acb8ff"/><circle cx="256" cy="103" fill="#ff9256" r="30"/><path d="m196 502h-120c0-33.198 26.915-60 60-60 33.136 0 60 26.857 60 60z" fill="#eceeff"/></g><g><path d="m256 143c22.056 0 40-17.944 40-40s-17.944-40-40-40-40 17.944-40 40 17.944 40 40 40zm0-60c11.028 0 20 8.972 20 20s-8.972 20-20 20-20-8.972-20-20 8.972-20 20-20z"/><path d="m481.418 340.13c-4.279-33.664-32.544-59.928-67.078-61.071 1.091-7.598 1.66-15.3 1.66-23.059 0-5.523-4.477-10-10-10h-20v-40h20c5.523 0 10-4.477 10-10v-33c0-88.557-71.646-163-160-163-88.198 0-160 74.294-160 163v33c0 5.523 4.477 10 10 10h20v40h-20c-5.523 0-10 4.477-10 10 0 7.754.572 15.457 1.666 23.059-34.537 1.139-62.806 27.405-67.085 61.071-17.524 4.248-30.581 20.058-30.581 38.87 0 5.523 4.477 10 10 10s10-4.477 10-10c0-11.028 8.972-20 20-20s20 8.972 20 20c0 5.523 4.477 10 10 10s10-4.477 10-10c0-18.335-12.404-33.817-29.258-38.523 4.058-23.522 24.594-41.477 49.258-41.477h1.816c7.238 26.39 21.048 50.839 40.316 70.857-20.622 17.948-36.118 44.119-42.705 72.445-20.736 12.688-33.427 35.142-33.427 59.698 0 5.523 4.477 10 10 10h120c5.523 0 10-4.477 10-10 0-20.563-8.981-39.86-24.37-53.088 8.025-15.735 24.529-29.912 44.37-29.912h60c19.841 0 36.345 14.177 44.37 29.912-15.389 13.228-24.37 32.525-24.37 53.088 0 5.523 4.477 10 10 10h120c5.523 0 10-4.477 10-10 0-24.556-12.691-47.01-33.426-59.698-6.586-28.322-22.079-54.49-42.698-72.438 19.29-20.031 33.099-44.46 40.33-70.864h1.794c24.664 0 45.2 17.955 49.258 41.477-16.854 4.706-29.258 20.188-29.258 38.523 0 5.523 4.477 10 10 10s10-4.477 10-10c0-11.028 8.972-20 20-20s20 8.972 20 20c0 5.523 4.477 10 10 10s10-4.477 10-10c0-18.812-13.057-34.622-30.582-38.87zm-270.419-134.13c5.523 0 10-4.477 10-10s-4.477-10-10-10h-94.999v-23c0-77.514 64.112-143 140-143s140 65.486 140 143v23h-95c-5.523 0-10 4.477-10 10s4.477 10 10 10h65v40c-23.968 0-195.563 0-220 0v-40zm-4.999 60h100v43h-100zm-20 0v53c0 5.523 4.477 10 10 10h120c5.523 0 10-4.477 10-10v-53.01h69.648c-5.224 74.169-66.921 133.01-139.648 133.01-73.716 0-134.47-59.827-139.646-133zm-99 226c4.688-23.151 25.089-40 49-40 24.194 0 44.34 17.141 48.994 40zm77.644-53.877c-8.957-4.021-18.679-6.123-28.644-6.123-4.399 0-8.787.424-13.093 1.242 7.071-19.71 19.066-37.334 34.051-49.748 11.896 9.661 24.948 17.484 38.761 23.297-12.827 6.825-23.846 17.763-31.075 31.332zm162.362 53.877c4.666-22.92 24.86-40 48.994-40 23.853 0 44.302 16.796 49 40zm62.087-58.758c-4.306-.818-8.694-1.242-13.093-1.242-9.964 0-19.685 2.102-28.644 6.124-7.233-13.578-18.262-24.522-31.1-31.346 13.822-5.814 26.893-13.624 38.791-23.28 14.983 12.414 26.976 30.036 34.046 49.744z"/><circle cx="256" cy="196" r="10"/></g></g></svg>