<svg id="af5b343a-82c7-478a-b8e6-51372e9de3d4" data-name="bc050b60-1e78-498a-abd3-4d4979c0e959" xmlns="http://www.w3.org/2000/svg" xmlns:xlink="http://www.w3.org/1999/xlink" viewBox="0 0 171.34 113.4"><defs><style>.a1dcbaec-48cb-45b0-9bd6-c178fa75ace9,.b11c13d3-68f4-4041-92dc-a1c96d2d1421,.bf92e54b-1798-42dc-bcab-a95295a49212{fill:none;}.e8845b4a-7ca4-4d53-b6d1-00eb3a440da0{fill:url(#a709324e-875f-4aab-98df-cd2eb24115db);}.a8305e7a-455f-4902-bf1b-40ff0f81558a{fill:url(#b99d3d53-df84-4081-822b-07b3300d4398);}.ec0a1cfc-b7f6-47ff-a6ba-ba3857d59f52{fill:url(#ecfebca0-ea24-47aa-b029-f4d5d2837b35);}.e6055299-d0bc-4fb6-815f-277912190eea{fill:#c79be7;}.ac4b51c8-e14f-4037-b8b2-e3e762f9a13b{fill:url(#e1e73ba8-b1bc-4f6e-bb19-7615ce0d415d);}.e35a94c7-193c-42f1-8067-551c0725ab8b{fill:url(#aa7cdc35-f7be-4451-b465-a709550444f2);}.ab10a6aa-4f1d-4dd6-a26f-1201e7dc400d,.e5bbe11b-145e-4ec5-b71d-f6fbd3a4c513{fill:#f29440;}.ef03a4f9-8243-47a8-bf39-57dabb97be09{fill:#454c53;}.b11c13d3-68f4-4041-92dc-a1c96d2d1421{stroke:#454c53;stroke-width:3px;}.b11c13d3-68f4-4041-92dc-a1c96d2d1421,.bf92e54b-1798-42dc-bcab-a95295a49212,.e5bbe11b-145e-4ec5-b71d-f6fbd3a4c513{stroke-linecap:round;}.b11c13d3-68f4-4041-92dc-a1c96d2d1421,.bf92e54b-1798-42dc-bcab-a95295a49212{stroke-miterlimit:10;}.bf92e54b-1798-42dc-bcab-a95295a49212,.e5bbe11b-145e-4ec5-b71d-f6fbd3a4c513{stroke:#f29440;}.e5bbe11b-145e-4ec5-b71d-f6fbd3a4c513{stroke-linejoin:round;stroke-width:2px;}.b8b95802-d0c1-490d-bf58-21e489229655{clip-path:url(#f9b574b7-8580-4485-9298-5e882d7eaf6e);}.b8a24261-c2c7-410d-a97e-935b7f05bbc5{fill:#ffea8a;}.b2b9b270-118c-4313-a596-c7050077c26a{fill:url(#b6506612-b6d9-4770-8b8c-147c783a714d);}.bf92e54b-1798-42dc-bcab-a95295a49212{stroke-width:0.75px;}</style><linearGradient id="a709324e-875f-4aab-98df-cd2eb24115db" x1="-1612.82" y1="62.68" x2="-1612.79" y2="62.3" gradientTransform="matrix(16.5, 0, 0, -23.47, 26681.9, 1564.85)" gradientUnits="userSpaceOnUse"><stop offset="0" stop-color="#f26f40"/><stop offset="1" stop-color="#f29440"/></linearGradient><linearGradient id="b99d3d53-df84-4081-822b-07b3300d4398" x1="-1628.45" y1="61.48" x2="-1628.35" y2="60.79" gradientTransform="matrix(19.01, 0, 0, -23.05, 31039.97, 1501.71)" xlink:href="#a709324e-875f-4aab-98df-cd2eb24115db"/><linearGradient id="ecfebca0-ea24-47aa-b029-f4d5d2837b35" x1="-1630.82" y1="62.11" x2="-1631.22" y2="61.61" gradientTransform="matrix(19.52, 0, 0, -23.29, 31888.43, 1450.57)" gradientUnits="userSpaceOnUse"><stop offset="0" stop-color="#666c72"/><stop offset="1" stop-color="#454c53"/></linearGradient><linearGradient id="e1e73ba8-b1bc-4f6e-bb19-7615ce0d415d" x1="-1704.66" y1="81.13" x2="-1704.44" y2="80.43" gradientTransform="matrix(74.89, 0, 0, -29.34, 127736.25, 2455.36)" gradientUnits="userSpaceOnUse"><stop offset="0" stop-color="#f2564d"/><stop offset="1" stop-color="#f29440"/></linearGradient><linearGradient id="aa7cdc35-f7be-4451-b465-a709550444f2" x1="-1712.47" y1="125.34" x2="-1712.03" y2="124.76" gradientTransform="matrix(105.89, 0, 0, -73.08, 181366.07, 9192.3)" gradientUnits="userSpaceOnUse"><stop offset="0" stop-color="#ffe363"/><stop offset="1" stop-color="#ffcb05"/></linearGradient><clipPath id="f9b574b7-8580-4485-9298-5e882d7eaf6e"><path class="a1dcbaec-48cb-45b0-9bd6-c178fa75ace9" d="M118.19,55.7c1.74,14.49-15,32.86-45.31,39.6C49,100.7,21.79,89.42,14.25,68.54,7.33,49.4,20.35,20.16,48.53,23.89s24.72,38.81,34.82,33S116.23,39.52,118.19,55.7Z"/></clipPath><linearGradient id="b6506612-b6d9-4770-8b8c-147c783a714d" x1="-1610.15" y1="-16.31" x2="-1609.15" y2="-16.31" gradientTransform="matrix(12.66, 0, 0, -12.66, 20011.91, -113.8)" gradientUnits="userSpaceOnUse"><stop offset="0" stop-color="#ffcb05"/><stop offset="0.58" stop-color="#ffea8a"/></linearGradient></defs><g id="a599d7a2-158d-4854-8009-712193132b3a" data-name="e2935062-65c7-46c7-9df5-b9ab756e6813"><g id="b371700b-56a4-4456-999e-79309ffe3f34" data-name="a9fab173-82f3-4cfd-9bfb-970dff88b5a7"><g id="ada40a11-8ead-4164-9118-1599e5a5dc55" data-name="ebc25159-65c7-4162-8910-548fd4361ed7"><g id="f312b2d7-f72b-4669-8fde-d40f670197dc" data-name="f7e41972-1c0c-405b-8a69-ef60f589adc3"><g id="a6020035-5752-45a8-82f2-eea2944eea35" data-name="e5dfd11e-10b5-4397-bae5-e3420c47a247"><path id="b588d752-6e4f-411e-8f4c-56051d690e16" data-name="efbce69f-e4f7-4e6f-8157-59f6a12e99a0" class="e8845b4a-7ca4-4d53-b6d1-00eb3a440da0" d="M64,89.28a33.71,33.71,0,0,0,2.16,8.27,16.19,16.19,0,0,0,2.34,4,4.94,4.94,0,0,0,2.5,1.55c.6-.27,1.23-.48,1.8-.73,1.1-.47,2.39-1.71,3.63-1.5a1.29,1.29,0,0,1,1.1,1.39c0,1.42-1.82,2.34-3,2.77h.13c1.1.2,2.18-.25,3.25,0a1.12,1.12,0,0,1,1,1.23h0a1,1,0,0,1-.2.5c-1.29,1.89-4.38,1.16-6.39-.14a8.32,8.32,0,0,0,.6.94,14.52,14.52,0,0,0,2.74,2.32,1.3,1.3,0,0,1,.22,1.8,1.31,1.31,0,0,1-1.14.48c-2.72-.39-4.5-3.2-4.82-5.86-2.53-.6-4.6-3.8-5.6-5.85-1.6-3.3-2.51-7.8-1.45-11.37C63,88.54,63.91,88.7,64,89.28Z"/><path id="f77a16e5-510d-460e-a12a-3b6566cc90d0" data-name="aa58c446-e940-4486-a3a4-8542483c2e29" class="a8305e7a-455f-4902-bf1b-40ff0f81558a" d="M76.57,90.43c.14-.22.46-.06.44.18-.21,3,1,5.66,2.35,8.3a9.91,9.91,0,0,0,7.45,5.5h.06a4.6,4.6,0,0,0,1.78-.71c.93-.68,1.3-1.85,2.22-2.55a1.2,1.2,0,0,1,1.68.23,1.18,1.18,0,0,1,.23.54c.22,1.91-1.31,3.71-3.16,4.48,1.56.07,3.27-.34,4.57.41a1.13,1.13,0,0,1,.23,1.58h0c-1.18,1.46-3.8,1.27-5.68.24.59.8,1.31,1.46,1.94,2.22,1.2,1.46-.78,3.24-2.24,2.26a9,9,0,0,1-3.31-5.93c-3-.23-5.77-3.56-7.14-5.79C76.17,98.49,74.49,93.57,76.57,90.43Z"/></g><path id="b84fa918-22a6-49d5-a563-e4f482eec120" data-name="e80c547e-40cc-40a7-8ca0-56be8cacbf97" class="ec0a1cfc-b7f6-47ff-a6ba-ba3857d59f52" d="M45.46,25.23a7.06,7.06,0,0,1,1.45-.14,6.2,6.2,0,0,1,3.38.91c4.91-5.3,10.6-11.64,10.48-15.3-.15-4.33-2.14-5.26-4-4.34-4.22,2.08-5.49,5.79-6.71,10a19.78,19.78,0,0,0-.71,1.95,76.94,76.94,0,0,0-.49-11.15c-.47-3.55-3-6.27-5.9-2.8-3.31,4-1,11,.38,15.25C43.65,20.48,44.65,23.19,45.46,25.23Z"/><path id="b6728239-8de4-4645-9de1-d8c52f8a3361" data-name="be418de7-b4cf-4d32-a096-af4b324c6878" class="e6055299-d0bc-4fb6-815f-277912190eea" d="M40.65.16h-.07c0-.06.06-.1.08-.15S40.65.12,40.65.16Z"/><g id="bc97e6ae-c996-4454-a747-e8d84fbb8fa5" data-name="ebd0efd7-5c6c-40a7-970a-4ba8da21fa4d"><path id="af9c8db1-6ce0-4cd0-ba95-d0c296f800b9" data-name="b707b214-cc44-4a47-bbc2-59aeb5c97416" class="ac4b51c8-e14f-4037-b8b2-e3e762f9a13b" d="M89.2,69.6s40.93-4.78,26,13.29-42,17.81-66.11,11.89,39-25.18,39-25.18"/><path id="ad86a25e-f75a-4725-80fb-6ebf27cfeb54" data-name="a6456e33-9d2d-4fb2-ba51-b9e629d73d30" class="e35a94c7-193c-42f1-8067-551c0725ab8b" d="M118.19,55.7c1.74,14.49-15,32.86-45.31,39.6C49,100.7,21.79,89.42,14.25,68.54,7.33,49.4,20.35,20.16,48.53,23.89s24.72,38.81,34.82,33S116.23,39.52,118.19,55.7Z"/><path id="b6b429f9-b6f3-44bc-b7ad-4a48e4abaa1a" data-name="f00c39ff-7e61-4f60-bd10-dcee17afd912" class="ab10a6aa-4f1d-4dd6-a26f-1201e7dc400d" d="M82.56,81.12a10.37,10.37,0,0,0-4.46.41,1.1,1.1,0,0,0-.75,1.35v0h0a1.09,1.09,0,0,0,.74.75,10.21,10.21,0,0,0,4.46.4,1.54,1.54,0,0,0,1-1.91A1.57,1.57,0,0,0,82.56,81.12Z"/><path id="b17283ec-b180-4738-8c50-02a7bcaeca19" data-name="a8921b0b-65fd-4a6f-9dcc-af096a277ecf" class="ab10a6aa-4f1d-4dd6-a26f-1201e7dc400d" d="M78.39,74.28c-1.91.13-3.63.89-5.59.59-.81-.13-1.49,1-.61,1.44,2,1,4.84,1.67,6.88.48A1.35,1.35,0,0,0,79.53,75h0A1.42,1.42,0,0,0,78.39,74.28Z"/><path id="acd578d4-2afd-4476-8ad4-65cf5cb9a536" data-name="bb170ae7-644b-4d81-b35b-e86a0974b7ae" class="ab10a6aa-4f1d-4dd6-a26f-1201e7dc400d" d="M86.33,64.46c-1.08.58-1.77,1.74-3,2.14a1,1,0,0,0-.63,1.18,1,1,0,0,0,.63.63,4.54,4.54,0,0,0,5-1.89,1.52,1.52,0,0,0-.6-2.06A1.51,1.51,0,0,0,86.33,64.46Z"/><path id="a69f830b-5181-44d6-81d1-dc7def6abf90" data-name="acf20db4-7c8d-41b6-bcf4-e17d3f2efbab" class="ab10a6aa-4f1d-4dd6-a26f-1201e7dc400d" d="M91.92,71.88a14,14,0,0,0-1.93.88,3.78,3.78,0,0,1-2,.09c-1.12-.18-2,1.39-.83,2,1.92.94,4.7,1.47,6.24-.46a1.5,1.5,0,0,0-.06-2.11A1.47,1.47,0,0,0,91.92,71.88Z"/><path id="faa262a2-a1d5-4bd5-ae50-407fac31646d" data-name="f1d449ba-f4ec-4f45-b780-8ae6ad3dc045" class="ab10a6aa-4f1d-4dd6-a26f-1201e7dc400d" d="M93.84,80c-1.62.29-3.06,1.23-4.72,1.51-1.33.22-.83,2,.3,2.16a10.32,10.32,0,0,0,5.65-.76C96.79,82.08,95.51,79.7,93.84,80Z"/><path id="ea9b61ac-5e2d-4373-8e1b-68185c075efd" data-name="a1402f04-48c0-4125-b18c-80cf5aebd357" class="ab10a6aa-4f1d-4dd6-a26f-1201e7dc400d" d="M104.43,66.78a11.53,11.53,0,0,1-1.32,2,7,7,0,0,1-1,.93c-.2.17-.27.44-.43.64a1.54,1.54,0,0,1-.57.41c-.92.51-.27,1.8.68,1.62.44-.09.87-.21,1.32-.27a3.81,3.81,0,0,0,1.86-1,5.77,5.77,0,0,0,2-3.23C107.38,66.36,105.2,65.29,104.43,66.78Z"/><path id="a1902820-c47e-4aa5-809a-4168b8fc256e" data-name="f24fcf15-71db-4238-bb7d-a3d87d1f17ad" class="ab10a6aa-4f1d-4dd6-a26f-1201e7dc400d" d="M99.26,58.7c-.51.91-.79,1.88-1.36,2.76s-1.27,1.72-1.8,2.66.82,2.09,1.56,1.2c1.53-1.81,4.07-3.32,4.16-5.92a1.39,1.39,0,0,0-1.44-1.34h0A1.42,1.42,0,0,0,99.26,58.7Z"/><path id="fb581c28-790f-40b7-b752-248ee16d7aef" data-name="f82543bd-d752-4869-96ce-ebd4e19b45f3" class="ab10a6aa-4f1d-4dd6-a26f-1201e7dc400d" d="M109.79,53.05c-2,.55-2.36,3.49-2.13,5.17.12.92,1.6,1.35,1.79.24a5.61,5.61,0,0,1,.63-1.86c.39-.7,1.17-1.09,1.33-1.92a1.35,1.35,0,0,0-1-1.62h0A1.61,1.61,0,0,0,109.79,53.05Z"/></g><g id="f762064d-9831-4619-a094-3f5b36bc9048" data-name="a474f04b-94a9-4d5d-9f4f-2e13a0927cfe"><path id="a099ae56-b457-40cc-b806-113f220886a2" data-name="fb596c61-8c6b-4ff0-b9d0-1a429b8f3c5a" class="ef03a4f9-8243-47a8-bf39-57dabb97be09" d="M24.76,38.7c-4.5,0-4.5,7.33,0,7.33a3.67,3.67,0,0,0,.51-7.33h-.51Z"/></g><g id="f33272af-a44c-420e-b8db-9501f457cb58" data-name="ed2ae956-895b-412e-99d6-3c594dcf3c12"><path id="e5a11fa7-ed07-43f5-8671-a1500953532f" data-name="bdf63dea-8fb7-4da9-b93c-5f29098661b4" class="ef03a4f9-8243-47a8-bf39-57dabb97be09" d="M47.14,39.7c-4.49,0-4.49,7.32,0,7.32a3.67,3.67,0,0,0,.51-7.32Z"/></g><line id="f3d43a51-192f-428e-9965-a2b24cedf741" data-name="b5cfe0c5-f4db-4dbf-814e-4e4776ba7daa" class="b11c13d3-68f4-4041-92dc-a1c96d2d1421" x1="30.63" y1="37.64" x2="20.41" y2="32.28"/><line id="f4605cc2-5ede-451a-a678-87356a264c43" data-name="a53162a2-2e43-4bdc-be6f-49761bb5c212" class="b11c13d3-68f4-4041-92dc-a1c96d2d1421" x1="42.36" y1="37.96" x2="52.54" y2="34.23"/><path id="a441549a-2b80-4243-8f9c-32cf8131201f" data-name="aa9542eb-6e71-45ff-8f53-e4066fbf64f7" class="e5bbe11b-145e-4ec5-b71d-f6fbd3a4c513" d="M15.53,52.52C12,51.58,1,53.79,1,53.79l10.88,6L8.65,65.22s7.19-2.59,9.28-4.49C19.65,59.15,20.65,53.89,15.53,52.52Z"/><g id="a9f12f1e-f050-4e69-b8d3-599427350c57" data-name="a492fc30-d72d-482d-828d-d516b34cb14d"><g class="b8b95802-d0c1-490d-bf58-21e489229655"><g id="e380c1b4-2317-47f3-9147-d7dc36eb5806" data-name="f3cac359-a68c-4fb0-8565-4bf7a1e49ebc"><path id="a8f5ea1b-3388-429b-9d61-bdc1527cbc04" data-name="fc5b18ae-493d-4c19-bbe2-a237cfc8c00e" class="b8a24261-c2c7-410d-a97e-935b7f05bbc5" d="M18,76.53c10.75,15.72,33.9,23.52,54.58,18.93.88-.2,1.74-.4,2.6-.62C62.79,78,38.54,72.93,18,76.53Z"/></g></g></g><g id="a079238b-1b22-4967-aae1-aa97ba500658" data-name="ac306113-5c0b-419c-b13f-d776db33b527"><circle id="ef0a19eb-188b-42a8-b39e-d1f7dbf7b84a" data-name="e254a815-9c3d-4b8e-8652-bf336a20ba47" class="b2b9b270-118c-4313-a596-c7050077c26a" cx="45.72" cy="92.64" r="6.33"/><g id="ab5b013d-fdd4-4b32-9ebb-82d3306c93c0" data-name="a00e8266-235f-4bf1-a7fc-2c9ee72269b4"><path id="b7ea4961-d650-4e9a-8b4b-3cb22a64e68a" data-name="aeb9fef0-b4b6-40bf-872a-1691d0cc6571" class="bf92e54b-1798-42dc-bcab-a95295a49212" d="M42.52,94.91a4.68,4.68,0,0,0,4.87-1"/><path id="b6177686-8f95-453a-87c4-93a317727068" data-name="ec747fb8-6798-4650-8f34-30c686638051" class="bf92e54b-1798-42dc-bcab-a95295a49212" d="M44.05,92.11a4.68,4.68,0,0,0,2.1,4.5"/></g></g></g></g></g></g></svg>