<svg xmlns="http://www.w3.org/2000/svg" xmlns:xlink="http://www.w3.org/1999/xlink" viewBox="0 0 375 232"><defs><style>.b2955b43-3308-49e6-908c-598fd153498e{fill:none;}.b005c9d4-a54c-4cf1-bd63-12fd5f67a97a{fill:#f1c40f;}.f2a92982-d19b-4d49-a919-ad1247b66a26{fill:#fff;}.a707db03-a351-407b-8310-b14a98dc7e56{isolation:isolate;}.fd5b35c5-4472-4939-9503-30de099a9ae2{clip-path:url(#ef640d29-081f-49ad-be43-c8e49e4d6eca);}.e520d5b5-d7e3-4390-8f4b-560b20f54570{fill:url(#e8e1d204-2753-496e-a94f-c5e4bd122b81);}.af98572b-af17-4b59-bf2b-8ad47c79bf46{clip-path:url(#fe194863-5b9a-4ac9-8b2b-a9f4e96db457);}.baec35c5-eb98-4821-80c2-3de544462293{opacity:0.74;}.e2327e4a-4beb-4444-b575-53483174fffa{opacity:0.86;}.a16906ad-264b-4b34-a19f-b464e18676f9{opacity:0.3;fill:url(#b014bc84-6069-4777-b69d-cbf4c81034cd);}.a16906ad-264b-4b34-a19f-b464e18676f9,.a2c86474-8363-4e24-8ee5-4c923ac80872,.a3150227-b6e4-4bbb-ae1f-a68a86d5c3e2,.a393aff3-dede-470b-846f-ffcef5104564,.acbf2d76-f0d0-4fe9-843d-5937602514c1,.bf791e3a-9be8-43b3-a1c0-d07f2428c6c1,.e32a0e65-047e-4038-830b-17c3fcd566c6{mix-blend-mode:screen;}.e32a0e65-047e-4038-830b-17c3fcd566c6{opacity:0.18;fill:url(#e33b1c93-6c15-455e-bc2c-8d9e9268b066);}.a2c86474-8363-4e24-8ee5-4c923ac80872,.a3150227-b6e4-4bbb-ae1f-a68a86d5c3e2,.a393aff3-dede-470b-846f-ffcef5104564,.acbf2d76-f0d0-4fe9-843d-5937602514c1,.bf791e3a-9be8-43b3-a1c0-d07f2428c6c1{opacity:0.39;}.acbf2d76-f0d0-4fe9-843d-5937602514c1{fill:url(#ae5f9fce-1d41-4c1b-892b-df23a6d7fd37);}.bf791e3a-9be8-43b3-a1c0-d07f2428c6c1{fill:url(#ac50c82f-a5af-4a99-8f39-3eaaf34e68ca);}.a3150227-b6e4-4bbb-ae1f-a68a86d5c3e2{fill:url(#ac4fec47-c7c8-4952-b8bf-c52382cf1ad3);}.a2c86474-8363-4e24-8ee5-4c923ac80872{fill:url(#ffeb45bd-4917-4b28-b2bf-d253f9ce2303);}.a393aff3-dede-470b-846f-ffcef5104564{fill:url(#bf909f2e-9e15-4db7-ac7c-81a0664c6fe9);}.a899f8ad-2aae-4153-bf55-68ab06dc5e6a{fill:url(#b2edc16c-d9b3-4cca-afd9-3a2a6a4f3697);}.a164eb5f-e372-44df-ac9c-3807c0202c47{fill:#c50066;opacity:0.08;mix-blend-mode:multiply;}.a37d4765-1db9-4bcc-893e-2d7b91828c80,.a628065b-1db1-49c0-8fe0-0f506b1d279c,.b0f50fc0-944c-4c69-9acf-b5805a5adea6,.b1f7882d-6170-47fa-bf74-a9787e351314,.b8c66875-fd12-464d-970d-0044f585a623,.e9a49384-e3ce-40af-b2f2-e73d3fa27389,.ef64a9a1-856c-4b7a-8f1b-6fbb7e67f150,.fb179de3-7db1-4b8c-9c9c-e49725a53243{stroke:#000;stroke-miterlimit:10;stroke-width:0.5px;}.a37d4765-1db9-4bcc-893e-2d7b91828c80{fill:url(#a820fd9e-2f4b-4b2e-bbc1-1c4ed253d9cc);}.e9a49384-e3ce-40af-b2f2-e73d3fa27389{fill:url(#b347105b-e726-42e4-8dc5-703dff57c5de);}.fb179de3-7db1-4b8c-9c9c-e49725a53243{fill:url(#a4cbe35a-aefd-4307-91b9-8fba66e435fc);}.ef64a9a1-856c-4b7a-8f1b-6fbb7e67f150{fill:url(#e79ee5b1-2985-4319-89e3-50b91a246175);}.b1f7882d-6170-47fa-bf74-a9787e351314{fill:url(#ac20cbea-e03b-4837-b481-2f0001a37272);}.a628065b-1db1-49c0-8fe0-0f506b1d279c{fill:url(#a6122d5c-f4a4-4784-abb8-0f33a0b10d3a);}.b8c66875-fd12-464d-970d-0044f585a623{fill:url(#ed809119-b143-4563-8059-4bea77f9f2bc);}.b0f50fc0-944c-4c69-9acf-b5805a5adea6{fill:url(#fa796bda-2d05-41be-9a8f-ed682cd3a619);}.f72e4e05-d32d-478e-9b1f-4e4cf7ad22ae{clip-path:url(#af76272a-fc84-4533-8ca0-894d0835c080);}</style><clipPath id="ef640d29-081f-49ad-be43-c8e49e4d6eca"><path class="b2955b43-3308-49e6-908c-598fd153498e" d="M375.13,213a19.37,19.37,0,0,1-19.31,19.43H19.14A19.37,19.37,0,0,1-.17,213V19.35A19.37,19.37,0,0,1,19.14-.07H355.82a19.37,19.37,0,0,1,19.31,19.42Z"/></clipPath><linearGradient id="e8e1d204-2753-496e-a94f-c5e4bd122b81" x1="-125.33" y1="-247.58" x2="308.08" y2="185.83" gradientUnits="userSpaceOnUse"><stop offset="0" stop-color="#f7c153"/><stop offset="0.15" stop-color="#f5b655"/><stop offset="0.42" stop-color="#ee985c"/><stop offset="0.76" stop-color="#e46967"/><stop offset="1" stop-color="#dc446f"/></linearGradient><clipPath id="fe194863-5b9a-4ac9-8b2b-a9f4e96db457"><rect class="b2955b43-3308-49e6-908c-598fd153498e" x="-26.59" y="-148.85" width="411.18" height="411.18"/></clipPath><linearGradient id="b014bc84-6069-4777-b69d-cbf4c81034cd" x1="-120.01" y1="-159.45" x2="177.48" y2="246.64" gradientTransform="translate(-5.84 5.19) rotate(-10.58)" gradientUnits="userSpaceOnUse"><stop offset="0" stop-color="#eda045" stop-opacity="0"/><stop offset="0.1" stop-color="#eb9c48" stop-opacity="0.05"/><stop offset="0.29" stop-color="#e69050" stop-opacity="0.2"/><stop offset="0.53" stop-color="#de7d5c" stop-opacity="0.44"/><stop offset="0.81" stop-color="#d2636d" stop-opacity="0.76"/><stop offset="1" stop-color="#ca507a"/></linearGradient><linearGradient id="e33b1c93-6c15-455e-bc2c-8d9e9268b066" x1="303.67" y1="162.48" x2="499.45" y2="-83.01" gradientUnits="userSpaceOnUse"><stop offset="0" stop-color="#eda045"/><stop offset="0.09" stop-color="#eb9c47" stop-opacity="0.95"/><stop offset="0.25" stop-color="#e7924e" stop-opacity="0.83"/><stop offset="0.46" stop-color="#e08259" stop-opacity="0.63"/><stop offset="0.72" stop-color="#d66c68" stop-opacity="0.35"/><stop offset="1" stop-color="#ca507a" stop-opacity="0"/></linearGradient><linearGradient id="ae5f9fce-1d41-4c1b-892b-df23a6d7fd37" x1="-123.08" y1="149.39" x2="49.88" y2="25.16" gradientUnits="userSpaceOnUse"><stop offset="0" stop-color="#eda045" stop-opacity="0"/><stop offset="0.11" stop-color="#eb9c48" stop-opacity="0.05"/><stop offset="0.29" stop-color="#e69050" stop-opacity="0.2"/><stop offset="0.53" stop-color="#de7d5c" stop-opacity="0.44"/><stop offset="0.81" stop-color="#d2636d" stop-opacity="0.76"/><stop offset="1" stop-color="#ca507a"/></linearGradient><linearGradient id="ac50c82f-a5af-4a99-8f39-3eaaf34e68ca" x1="489.35" y1="112.48" x2="195.16" y2="106.46" xlink:href="#ae5f9fce-1d41-4c1b-892b-df23a6d7fd37"/><linearGradient id="ac4fec47-c7c8-4952-b8bf-c52382cf1ad3" x1="44.87" y1="-0.99" x2="75.92" y2="-0.99" xlink:href="#ae5f9fce-1d41-4c1b-892b-df23a6d7fd37"/><linearGradient id="ffeb45bd-4917-4b28-b2bf-d253f9ce2303" x1="214.31" y1="-505.83" x2="231.31" y2="-505.83" gradientTransform="translate(418.95 -273.35) rotate(-172.6)" xlink:href="#ae5f9fce-1d41-4c1b-892b-df23a6d7fd37"/><linearGradient id="bf909f2e-9e15-4db7-ac7c-81a0664c6fe9" x1="62.21" y1="-500.14" x2="102.01" y2="-500.14" gradientTransform="translate(774.31 203.34) rotate(-100.96)" xlink:href="#ae5f9fce-1d41-4c1b-892b-df23a6d7fd37"/><linearGradient id="b2edc16c-d9b3-4cca-afd9-3a2a6a4f3697" x1="-28.68" y1="141.48" x2="88.16" y2="472.43" gradientUnits="userSpaceOnUse"><stop offset="0" stop-color="#ef675f"/><stop offset="0.18" stop-color="#e4605f"/><stop offset="0.51" stop-color="#c74c60"/><stop offset="0.93" stop-color="#972d61"/><stop offset="1" stop-color="#8e2761"/></linearGradient><linearGradient id="a820fd9e-2f4b-4b2e-bbc1-1c4ed253d9cc" x1="14.18" y1="79.14" x2="85.85" y2="150.81" gradientUnits="userSpaceOnUse"><stop offset="0" stop-color="#fae7ab"/><stop offset="1" stop-color="#f8d161"/></linearGradient><linearGradient id="b347105b-e726-42e4-8dc5-703dff57c5de" x1="19.39" y1="73.93" x2="91.06" y2="145.6" xlink:href="#a820fd9e-2f4b-4b2e-bbc1-1c4ed253d9cc"/><linearGradient id="a4cbe35a-aefd-4307-91b9-8fba66e435fc" x1="32.42" y1="60.9" x2="104.09" y2="132.57" xlink:href="#a820fd9e-2f4b-4b2e-bbc1-1c4ed253d9cc"/><linearGradient id="e79ee5b1-2985-4319-89e3-50b91a246175" x1="35.72" y1="57.61" x2="107.38" y2="129.28" xlink:href="#a820fd9e-2f4b-4b2e-bbc1-1c4ed253d9cc"/><linearGradient id="ac20cbea-e03b-4837-b481-2f0001a37272" x1="25.93" y1="67.39" x2="97.6" y2="139.06" xlink:href="#a820fd9e-2f4b-4b2e-bbc1-1c4ed253d9cc"/><linearGradient id="a6122d5c-f4a4-4784-abb8-0f33a0b10d3a" x1="44.14" y1="49.18" x2="115.81" y2="120.85" xlink:href="#a820fd9e-2f4b-4b2e-bbc1-1c4ed253d9cc"/><linearGradient id="ed809119-b143-4563-8059-4bea77f9f2bc" x1="37.6" y1="55.72" x2="109.27" y2="127.39" xlink:href="#a820fd9e-2f4b-4b2e-bbc1-1c4ed253d9cc"/><linearGradient id="fa796bda-2d05-41be-9a8f-ed682cd3a619" x1="31.11" y1="62.21" x2="102.78" y2="133.88" xlink:href="#a820fd9e-2f4b-4b2e-bbc1-1c4ed253d9cc"/><clipPath id="af76272a-fc84-4533-8ca0-894d0835c080"><path class="b005c9d4-a54c-4cf1-bd63-12fd5f67a97a" d="M352.26,194.17c.69,5.72-5.92,13-17.88,15.62-9.43,2.14-20.17-2.32-23.14-10.56-2.73-7.55,2.41-19.09,13.53-17.62s9.75,15.32,13.74,13S351.49,187.78,352.26,194.17Z"/></clipPath><symbol id="bbadd538-9f75-4b7d-8b60-e0ae079cac7c" data-name="New Symbol 2" viewBox="0 0 7.42 7.42"><path class="f2a92982-d19b-4d49-a919-ad1247b66a26" d="M4.66,4a14.43,14.43,0,0,0,2.76-.32,15.29,15.29,0,0,0-2.76-.33A1,1,0,0,0,4,2.76,14.43,14.43,0,0,0,3.71,0a15.29,15.29,0,0,0-.33,2.76,1,1,0,0,0-.62.62A15.29,15.29,0,0,0,0,3.71,15.29,15.29,0,0,0,2.76,4a1,1,0,0,0,.62.62,15.29,15.29,0,0,0,.33,2.76A15.29,15.29,0,0,0,4,4.66,1,1,0,0,0,4.66,4Z"/></symbol><symbol id="bb8634a7-8ff8-4115-b4ad-c1e5d3fc42dc" data-name="New Symbol 1" viewBox="0 0 1.85 1.85"><circle class="f2a92982-d19b-4d49-a919-ad1247b66a26" cx="0.92" cy="0.92" r="0.92"/></symbol></defs><g class="a707db03-a351-407b-8310-b14a98dc7e56"><g id="a0bbdde2-3087-4757-9a3f-06393620e167" data-name="圖層 1"><g class="fd5b35c5-4472-4939-9503-30de099a9ae2"><rect class="e520d5b5-d7e3-4390-8f4b-560b20f54570" x="-26.59" y="-148.85" width="411.18" height="411.18"/><g class="af98572b-af17-4b59-bf2b-8ad47c79bf46"><g class="baec35c5-eb98-4821-80c2-3de544462293"><use width="7.42" height="7.42" transform="translate(13.97 42.99)" xlink:href="#bbadd538-9f75-4b7d-8b60-e0ae079cac7c"/><use width="7.42" height="7.42" transform="translate(349.56 2.91) scale(2.01)" xlink:href="#bbadd538-9f75-4b7d-8b60-e0ae079cac7c"/><use width="7.42" height="7.42" transform="translate(287.64 72.13) scale(0.82)" xlink:href="#bbadd538-9f75-4b7d-8b60-e0ae079cac7c"/><use width="7.42" height="7.42" transform="translate(170.34 213.67) scale(1.17)" xlink:href="#bbadd538-9f75-4b7d-8b60-e0ae079cac7c"/><use width="7.42" height="7.42" transform="translate(24.02 158.87) scale(0.88)" xlink:href="#bbadd538-9f75-4b7d-8b60-e0ae079cac7c"/><use width="7.42" height="7.42" transform="translate(319.46 38.42) scale(1.28)" xlink:href="#bbadd538-9f75-4b7d-8b60-e0ae079cac7c"/><use width="7.42" height="7.42" transform="translate(220.95 134.1) scale(1.55)" xlink:href="#bbadd538-9f75-4b7d-8b60-e0ae079cac7c"/><use width="7.42" height="7.42" transform="translate(346.56 218.03) scale(0.82)" xlink:href="#bbadd538-9f75-4b7d-8b60-e0ae079cac7c"/><use width="7.42" height="7.42" transform="translate(325.62 150.94) scale(0.82)" xlink:href="#bbadd538-9f75-4b7d-8b60-e0ae079cac7c"/><use width="7.42" height="7.42" transform="translate(251.17 216.42) scale(0.83)" xlink:href="#bbadd538-9f75-4b7d-8b60-e0ae079cac7c"/><use width="7.42" height="7.42" transform="translate(162.66 59.41) scale(1.22)" xlink:href="#bbadd538-9f75-4b7d-8b60-e0ae079cac7c"/><use width="7.42" height="7.42" transform="translate(92.55 156.7) scale(1.07)" xlink:href="#bbadd538-9f75-4b7d-8b60-e0ae079cac7c"/><use width="7.42" height="7.42" transform="translate(80.9 78.56) scale(1.66)" xlink:href="#bbadd538-9f75-4b7d-8b60-e0ae079cac7c"/><use width="7.42" height="7.42" transform="translate(338.25 209.72) scale(0.82)" xlink:href="#bbadd538-9f75-4b7d-8b60-e0ae079cac7c"/><use width="7.42" height="7.42" transform="translate(245.68 33.65) scale(1.23)" xlink:href="#bbadd538-9f75-4b7d-8b60-e0ae079cac7c"/><g class="e2327e4a-4beb-4444-b575-53483174fffa"><use width="1.85" height="1.85" transform="translate(35.43 223.53) scale(0.71 0.71)" xlink:href="#bb8634a7-8ff8-4115-b4ad-c1e5d3fc42dc"/><use width="1.85" height="1.85" transform="translate(33.18 228.64) scale(0.69 0.69)" xlink:href="#bb8634a7-8ff8-4115-b4ad-c1e5d3fc42dc"/><use width="1.85" height="1.85" transform="translate(2.3 192.79) scale(1.13 1.13)" xlink:href="#bb8634a7-8ff8-4115-b4ad-c1e5d3fc42dc"/><use width="1.85" height="1.85" transform="translate(17.96 190.7)" xlink:href="#bb8634a7-8ff8-4115-b4ad-c1e5d3fc42dc"/><use width="1.85" height="1.85" transform="translate(30.85 202.46) scale(0.84 0.84)" xlink:href="#bb8634a7-8ff8-4115-b4ad-c1e5d3fc42dc"/><use width="1.85" height="1.85" transform="translate(-0.85 214.52) scale(0.96 0.96)" xlink:href="#bb8634a7-8ff8-4115-b4ad-c1e5d3fc42dc"/><use width="1.85" height="1.85" transform="translate(214.4 31.23) scale(0.83 0.83)" xlink:href="#bb8634a7-8ff8-4115-b4ad-c1e5d3fc42dc"/><use width="1.85" height="1.85" transform="translate(374.12 217.57) scale(0.92 0.92)" xlink:href="#bb8634a7-8ff8-4115-b4ad-c1e5d3fc42dc"/><use width="1.85" height="1.85" transform="translate(359.28 5.6) scale(1.21 1.21)" xlink:href="#bb8634a7-8ff8-4115-b4ad-c1e5d3fc42dc"/><use width="1.85" height="1.85" transform="translate(355.43 91.48) scale(0.81 0.81)" xlink:href="#bb8634a7-8ff8-4115-b4ad-c1e5d3fc42dc"/><use width="1.85" height="1.85" transform="translate(356.99 18.97) scale(0.97 0.97)" xlink:href="#bb8634a7-8ff8-4115-b4ad-c1e5d3fc42dc"/><use width="1.85" height="1.85" transform="translate(326.85 151.66) scale(0.82 0.82)" xlink:href="#bb8634a7-8ff8-4115-b4ad-c1e5d3fc42dc"/><use width="1.85" height="1.85" transform="translate(263.2 75.9) scale(0.97 0.97)" xlink:href="#bb8634a7-8ff8-4115-b4ad-c1e5d3fc42dc"/><use width="1.85" height="1.85" transform="translate(220.09 87.34) scale(0.91 0.91)" xlink:href="#bb8634a7-8ff8-4115-b4ad-c1e5d3fc42dc"/><use width="1.85" height="1.85" transform="translate(195.69 94.8) scale(0.78 0.78)" xlink:href="#bb8634a7-8ff8-4115-b4ad-c1e5d3fc42dc"/><use width="1.85" height="1.85" transform="translate(153.48 103.85) scale(0.66 0.66)" xlink:href="#bb8634a7-8ff8-4115-b4ad-c1e5d3fc42dc"/><use width="1.85" height="1.85" transform="translate(124.65 172.85) scale(0.95 0.95)" xlink:href="#bb8634a7-8ff8-4115-b4ad-c1e5d3fc42dc"/><use width="1.85" height="1.85" transform="translate(208.72 95.57) scale(0.85 0.85)" xlink:href="#bb8634a7-8ff8-4115-b4ad-c1e5d3fc42dc"/><use width="1.85" height="1.85" transform="translate(190.08 124.97) scale(0.74 0.74)" xlink:href="#bb8634a7-8ff8-4115-b4ad-c1e5d3fc42dc"/><use width="1.85" height="1.85" transform="translate(116.61 208) scale(0.86 0.86)" xlink:href="#bb8634a7-8ff8-4115-b4ad-c1e5d3fc42dc"/><use width="1.85" height="1.85" transform="translate(153.9 219.98) scale(1.97 1.97)" xlink:href="#bb8634a7-8ff8-4115-b4ad-c1e5d3fc42dc"/><use width="1.85" height="1.85" transform="translate(131.05 214.27) scale(1.12 1.12)" xlink:href="#bb8634a7-8ff8-4115-b4ad-c1e5d3fc42dc"/><use width="1.85" height="1.85" transform="translate(220.74 182.62) scale(0.9 0.9)" xlink:href="#bb8634a7-8ff8-4115-b4ad-c1e5d3fc42dc"/><use width="1.85" height="1.85" transform="translate(286.81 228.29) scale(0.91 0.91)" xlink:href="#bb8634a7-8ff8-4115-b4ad-c1e5d3fc42dc"/><use width="1.85" height="1.85" transform="translate(243.17 205.11) scale(1.32 1.32)" xlink:href="#bb8634a7-8ff8-4115-b4ad-c1e5d3fc42dc"/><use width="1.85" height="1.85" transform="translate(237.96 226.76) scale(0.81 0.81)" xlink:href="#bb8634a7-8ff8-4115-b4ad-c1e5d3fc42dc"/><use width="1.85" height="1.85" transform="translate(319.87 221.36) scale(1.25 1.25)" xlink:href="#bb8634a7-8ff8-4115-b4ad-c1e5d3fc42dc"/><use width="1.85" height="1.85" transform="translate(319.39 195.54) scale(0.94 0.94)" xlink:href="#bb8634a7-8ff8-4115-b4ad-c1e5d3fc42dc"/><use width="1.85" height="1.85" transform="translate(335.41 218.02) scale(1.28 1.28)" xlink:href="#bb8634a7-8ff8-4115-b4ad-c1e5d3fc42dc"/><use width="1.85" height="1.85" transform="translate(354.61 141.89) scale(0.82 0.82)" xlink:href="#bb8634a7-8ff8-4115-b4ad-c1e5d3fc42dc"/><use width="1.85" height="1.85" transform="translate(348.88 126.41) scale(0.82 0.82)" xlink:href="#bb8634a7-8ff8-4115-b4ad-c1e5d3fc42dc"/><use width="1.85" height="1.85" transform="translate(352.8 223.09) scale(1.1 1.1)" xlink:href="#bb8634a7-8ff8-4115-b4ad-c1e5d3fc42dc"/><use width="1.85" height="1.85" transform="translate(335.77 183.36) scale(0.9 0.9)" xlink:href="#bb8634a7-8ff8-4115-b4ad-c1e5d3fc42dc"/><use width="1.85" height="1.85" transform="translate(347.22 164.72) scale(0.82 0.82)" xlink:href="#bb8634a7-8ff8-4115-b4ad-c1e5d3fc42dc"/><use width="1.85" height="1.85" transform="translate(356.29 163.91) scale(0.82 0.82)" xlink:href="#bb8634a7-8ff8-4115-b4ad-c1e5d3fc42dc"/><use width="1.85" height="1.85" transform="translate(283.14 181.25) scale(1.42 1.42)" xlink:href="#bb8634a7-8ff8-4115-b4ad-c1e5d3fc42dc"/><use width="1.85" height="1.85" transform="translate(303.21 142.71) scale(0.82 0.82)" xlink:href="#bb8634a7-8ff8-4115-b4ad-c1e5d3fc42dc"/><use width="1.85" height="1.85" transform="translate(305.71 96.39) scale(0.8 0.8)" xlink:href="#bb8634a7-8ff8-4115-b4ad-c1e5d3fc42dc"/><use width="1.85" height="1.85" transform="translate(309.02 67.15) scale(0.76 0.76)" xlink:href="#bb8634a7-8ff8-4115-b4ad-c1e5d3fc42dc"/><use width="1.85" height="1.85" transform="translate(348.16 50.8) scale(0.77 0.77)" xlink:href="#bb8634a7-8ff8-4115-b4ad-c1e5d3fc42dc"/><use width="1.85" height="1.85" transform="translate(344.87 62.25) scale(0.77 0.77)" xlink:href="#bb8634a7-8ff8-4115-b4ad-c1e5d3fc42dc"/><use width="1.85" height="1.85" transform="translate(309.06 48.44) scale(0.72 0.72)" xlink:href="#bb8634a7-8ff8-4115-b4ad-c1e5d3fc42dc"/><use width="1.85" height="1.85" transform="translate(247.84 24.72) scale(0.84 0.84)" xlink:href="#bb8634a7-8ff8-4115-b4ad-c1e5d3fc42dc"/><use width="1.85" height="1.85" transform="translate(233.11 52.22) scale(0.97 0.97)" xlink:href="#bb8634a7-8ff8-4115-b4ad-c1e5d3fc42dc"/><use width="1.85" height="1.85" transform="translate(228.88 56.41) scale(0.99 0.99)" xlink:href="#bb8634a7-8ff8-4115-b4ad-c1e5d3fc42dc"/><use width="1.85" height="1.85" transform="translate(173.88 55.9) scale(0.59 0.59)" xlink:href="#bb8634a7-8ff8-4115-b4ad-c1e5d3fc42dc"/><use width="1.85" height="1.85" transform="translate(176.34 49.29) scale(0.6 0.6)" xlink:href="#bb8634a7-8ff8-4115-b4ad-c1e5d3fc42dc"/><use width="1.85" height="1.85" transform="translate(174.62 10.91) scale(0.61 0.61)" xlink:href="#bb8634a7-8ff8-4115-b4ad-c1e5d3fc42dc"/><use width="1.85" height="1.85" transform="translate(123.3 19.94) scale(0.59 0.59)" xlink:href="#bb8634a7-8ff8-4115-b4ad-c1e5d3fc42dc"/><use width="1.85" height="1.85" transform="translate(110.45 44.41) scale(1.26 1.26)" xlink:href="#bb8634a7-8ff8-4115-b4ad-c1e5d3fc42dc"/><use width="1.85" height="1.85" transform="translate(110.33 48.71) scale(1.4 1.4)" xlink:href="#bb8634a7-8ff8-4115-b4ad-c1e5d3fc42dc"/><use width="1.85" height="1.85" transform="translate(83.4 25.7) scale(0.56 0.56)" xlink:href="#bb8634a7-8ff8-4115-b4ad-c1e5d3fc42dc"/><use width="1.85" height="1.85" transform="translate(33.6 22.31) scale(0.68 0.68)" xlink:href="#bb8634a7-8ff8-4115-b4ad-c1e5d3fc42dc"/><use width="1.85" height="1.85" transform="translate(-0.61 16.61) scale(0.66 0.66)" xlink:href="#bb8634a7-8ff8-4115-b4ad-c1e5d3fc42dc"/><use width="1.85" height="1.85" transform="translate(174.62 13.63) scale(0.61 0.61)" xlink:href="#bb8634a7-8ff8-4115-b4ad-c1e5d3fc42dc"/><use width="1.85" height="1.85" transform="translate(222.54 5.17) scale(0.82 0.82)" xlink:href="#bb8634a7-8ff8-4115-b4ad-c1e5d3fc42dc"/><use width="1.85" height="1.85" transform="translate(276.4 5.22) scale(0.79 0.79)" xlink:href="#bb8634a7-8ff8-4115-b4ad-c1e5d3fc42dc"/><use width="1.85" height="1.85" transform="translate(290.27 37.83) scale(0.75 0.75)" xlink:href="#bb8634a7-8ff8-4115-b4ad-c1e5d3fc42dc"/><use width="1.85" height="1.85" transform="translate(302.5 12.6) scale(0.74 0.74)" xlink:href="#bb8634a7-8ff8-4115-b4ad-c1e5d3fc42dc"/><use width="1.85" height="1.85" transform="translate(344.39 7.25) scale(1.27 1.27)" xlink:href="#bb8634a7-8ff8-4115-b4ad-c1e5d3fc42dc"/><use width="1.85" height="1.85" transform="translate(-1.05 96.02) scale(1.16 1.16)" xlink:href="#bb8634a7-8ff8-4115-b4ad-c1e5d3fc42dc"/><use width="1.85" height="1.85" transform="translate(4.81 86.28) scale(1.04 1.04)" xlink:href="#bb8634a7-8ff8-4115-b4ad-c1e5d3fc42dc"/><use width="1.85" height="1.85" transform="translate(13.34 41.98) scale(0.54 0.54)" xlink:href="#bb8634a7-8ff8-4115-b4ad-c1e5d3fc42dc"/><use width="1.85" height="1.85" transform="translate(18.24 55.07) scale(0.55 0.55)" xlink:href="#bb8634a7-8ff8-4115-b4ad-c1e5d3fc42dc"/><use width="1.85" height="1.85" transform="translate(22.36 47.68) scale(0.55 0.55)" xlink:href="#bb8634a7-8ff8-4115-b4ad-c1e5d3fc42dc"/><use width="1.85" height="1.85" transform="translate(76.79 23.22) scale(0.57 0.57)" xlink:href="#bb8634a7-8ff8-4115-b4ad-c1e5d3fc42dc"/><use width="1.85" height="1.85" transform="translate(48.32 79.41) scale(0.61 0.61)" xlink:href="#bb8634a7-8ff8-4115-b4ad-c1e5d3fc42dc"/><use width="1.85" height="1.85" transform="translate(108.98 68.4) scale(1.11 1.11)" xlink:href="#bb8634a7-8ff8-4115-b4ad-c1e5d3fc42dc"/><use width="1.85" height="1.85" transform="translate(86.52 98.12) scale(0.69 0.69)" xlink:href="#bb8634a7-8ff8-4115-b4ad-c1e5d3fc42dc"/><use width="1.85" height="1.85" transform="translate(79.22 79.42) scale(0.62 0.62)" xlink:href="#bb8634a7-8ff8-4115-b4ad-c1e5d3fc42dc"/><use width="1.85" height="1.85" transform="translate(45.75 144.33) scale(0.81 0.81)" xlink:href="#bb8634a7-8ff8-4115-b4ad-c1e5d3fc42dc"/><use width="1.85" height="1.85" transform="translate(39.98 150.91) scale(0.82 0.82)" xlink:href="#bb8634a7-8ff8-4115-b4ad-c1e5d3fc42dc"/><use width="1.85" height="1.85" transform="translate(21.95 175.92) scale(1.01 1.01)" xlink:href="#bb8634a7-8ff8-4115-b4ad-c1e5d3fc42dc"/><use width="1.85" height="1.85" transform="translate(70.95 157.45) scale(0.82 0.82)" xlink:href="#bb8634a7-8ff8-4115-b4ad-c1e5d3fc42dc"/><use width="1.85" height="1.85" transform="translate(77.53 150.87) scale(0.82 0.82)" xlink:href="#bb8634a7-8ff8-4115-b4ad-c1e5d3fc42dc"/><use width="1.85" height="1.85" transform="translate(72.62 194.99) scale(0.78 0.78)" xlink:href="#bb8634a7-8ff8-4115-b4ad-c1e5d3fc42dc"/><use width="1.85" height="1.85" transform="translate(83.24 185.97) scale(0.8 0.8)" xlink:href="#bb8634a7-8ff8-4115-b4ad-c1e5d3fc42dc"/><use width="1.85" height="1.85" transform="translate(87.33 212.98) scale(0.76 0.76)" xlink:href="#bb8634a7-8ff8-4115-b4ad-c1e5d3fc42dc"/><use width="1.85" height="1.85" transform="translate(105.99 201.48) scale(0.82 0.82)" xlink:href="#bb8634a7-8ff8-4115-b4ad-c1e5d3fc42dc"/><use width="1.85" height="1.85" transform="translate(115.79 190.01) scale(0.85 0.85)" xlink:href="#bb8634a7-8ff8-4115-b4ad-c1e5d3fc42dc"/><use width="1.85" height="1.85" transform="translate(108.44 125.72) scale(0.77 0.77)" xlink:href="#bb8634a7-8ff8-4115-b4ad-c1e5d3fc42dc"/><use width="1.85" height="1.85" transform="translate(99.41 77.64) scale(0.83 0.83)" xlink:href="#bb8634a7-8ff8-4115-b4ad-c1e5d3fc42dc"/><use width="1.85" height="1.85" transform="translate(127.29 84.24) scale(0.73 0.73)" xlink:href="#bb8634a7-8ff8-4115-b4ad-c1e5d3fc42dc"/><use width="1.85" height="1.85" transform="translate(150.28 86.83) scale(0.56 0.56)" xlink:href="#bb8634a7-8ff8-4115-b4ad-c1e5d3fc42dc"/><use width="1.85" height="1.85" transform="translate(160.09 76.25) scale(0.55 0.55)" xlink:href="#bb8634a7-8ff8-4115-b4ad-c1e5d3fc42dc"/><use width="1.85" height="1.85" transform="translate(153.53 59.94) scale(0.55 0.55)" xlink:href="#bb8634a7-8ff8-4115-b4ad-c1e5d3fc42dc"/><use width="1.85" height="1.85" transform="translate(128.11 30.44) scale(0.73 0.73)" xlink:href="#bb8634a7-8ff8-4115-b4ad-c1e5d3fc42dc"/><use width="1.85" height="1.85" transform="translate(124.14 2.1) scale(0.54 0.54)" xlink:href="#bb8634a7-8ff8-4115-b4ad-c1e5d3fc42dc"/><use width="1.85" height="1.85" transform="translate(144.2 138.52) scale(1.45 1.45)" xlink:href="#bb8634a7-8ff8-4115-b4ad-c1e5d3fc42dc"/><use width="1.85" height="1.85" transform="translate(156.48 146.96) scale(1.63 1.63)" xlink:href="#bb8634a7-8ff8-4115-b4ad-c1e5d3fc42dc"/><use width="1.85" height="1.85" transform="translate(130.25 159.71) scale(1.14 1.14)" xlink:href="#bb8634a7-8ff8-4115-b4ad-c1e5d3fc42dc"/><use width="1.85" height="1.85" transform="translate(137.18 118.17) scale(0.84 0.84)" xlink:href="#bb8634a7-8ff8-4115-b4ad-c1e5d3fc42dc"/><use width="1.85" height="1.85" transform="translate(124.76 125.78) scale(0.85 0.85)" xlink:href="#bb8634a7-8ff8-4115-b4ad-c1e5d3fc42dc"/><use width="1.85" height="1.85" transform="translate(277.28 212.73) scale(1.28 1.28)" xlink:href="#bb8634a7-8ff8-4115-b4ad-c1e5d3fc42dc"/><use width="1.85" height="1.85" transform="translate(255.65 192.96) scale(2.1 2.1)" xlink:href="#bb8634a7-8ff8-4115-b4ad-c1e5d3fc42dc"/><use width="1.85" height="1.85" transform="translate(241.99 174.08) scale(1.25 1.25)" xlink:href="#bb8634a7-8ff8-4115-b4ad-c1e5d3fc42dc"/><use width="1.85" height="1.85" transform="translate(242.36 173.44) scale(1.2 1.2)" xlink:href="#bb8634a7-8ff8-4115-b4ad-c1e5d3fc42dc"/><use width="1.85" height="1.85" transform="translate(188.61 14.92) scale(0.68 0.68)" xlink:href="#bb8634a7-8ff8-4115-b4ad-c1e5d3fc42dc"/></g></g><path class="a16906ad-264b-4b34-a19f-b464e18676f9" d="M-76.11-71.22c-1,9.79,6.34,19,15.37,22.93s19.29,3.69,29.08,2.66A206.15,206.15,0,0,0,22.19-58.79c17.18-6.76,34.37-16,52.81-15,4.82.27,9.86,1.39,13.43,4.66C91.22-66.55,92.8-63,94-59.39a76.16,76.16,0,0,1,1.59,44.51C92.44-3,86.33,8.21,85.64,20.48c-.54,9.82,3.81,21.07,13.21,24,6.09,1.89,12.88-.13,18.94,1.84,8.41,2.72,12.79,12.47,12.55,21.31s-4,17.14-6.92,25.48c-5.14,14.46-8.15,29.8-7.54,45.13.39,9.83,2.67,20.36,10,26.9,5,4.44,11.72,6.45,18.35,7.4,12.67,1.81,25.58.2,38.37.74s26.34,3.7,35.12,13c6.07,6.43,9.19,15.11,11,23.77,3.2,15.54,2.47,32.2-4.08,46.66-6.25,13.8-17.44,25.05-22.76,39.24a93.87,93.87,0,0,1-43.43-.41c-5.29-1.32-10.61-3.18-14.76-6.73-16.76-14.32-5.12-44.94-19.67-61.5C112.41,214.1,91.3,217.18,74.85,211c-17.71-6.66-29.4-24.49-33.26-43s-1-37.76,2.93-56.26,9.07-36.91,9.78-55.81c.61-16.42-3.08-34.58-16.11-44.6C25.32,1.41,6.76,2.41-8.19,8.75S-35.63,25.93-48.95,35.22A226.11,226.11,0,0,1-90.83,58.28c-12.11,5.07-26.89,8.82-37.66,1.32-6.11-4.24-9.63-11.44-11.06-18.74-6-30.58,19.94-58.48,22.62-89.53"/><path class="e32a0e65-047e-4038-830b-17c3fcd566c6" d="M525.57,136.76A573.55,573.55,0,0,1,441,151.54c-15.42,1.51-31.13,2.39-46.26-.92s-29.8-11.27-38.27-24.24c-7.9-12.08-9.68-27.07-10.67-41.47-.64-9.33-1.95-20.24-10-24.91-4.72-2.72-10.52-2.46-16-2.12l-30.69,1.93c-12.29.78-24.86,1.52-36.69-1.9S229.44,46,226.33,34.09,228.63,9.66,235-1c17.49-29.34,42.72-53.33,69.56-74.46a561.42,561.42,0,0,1,112.63-68.9l10.79,25.12q-24.53,14.85-48.57,30.52c-15.51,10.11-30.92,20.51-44.66,32.92-7.2,6.5-14.1,13.81-17.48,22.89S314.7-12.55,321.56-5.7C328.26,1,338.66,2,348.12,1.88c31.41-.34,62.86-8.5,93.95-4C451.7-.72,461.48,2.07,468.86,8.4s11.78,16.88,8.61,26.07Z"/><circle class="acbf2d76-f0d0-4fe9-843d-5937602514c1" cx="-35.15" cy="86.23" r="71.82"/><circle class="bf791e3a-9be8-43b3-a1c0-d07f2428c6c1" cx="405.22" cy="110.76" r="96.4"/><circle class="a3150227-b6e4-4bbb-ae1f-a68a86d5c3e2" cx="65.68" cy="-0.99" r="11.59"/><path class="a2c86474-8363-4e24-8ee5-4c923ac80872" d="M123.67,198.39a6.35,6.35,0,1,1,5.48,7.11A6.35,6.35,0,0,1,123.67,198.39Z"/><circle class="a393aff3-dede-470b-846f-ffcef5104564" cx="266.37" cy="211.19" r="14.86" transform="translate(-17.98 397.46) rotate(-71.64)"/><circle class="a899f8ad-2aae-4153-bf55-68ab06dc5e6a" cx="1.11" cy="225.88" r="96.78"/><path class="a164eb5f-e372-44df-ac9c-3807c0202c47" d="M-88.1,223.43c2-5.14,7.71-5.06,10.7-1.16,2.62,3.44,7.79,3.55,11.3,6.09,4.86,3.52,5.26,10.55,4.64,16.53a98.83,98.83,0,0,1-5.24,23c-.51,1.42-1.48,3.1-3,2.94a3.12,3.12,0,0,1-1.61-.87c-5.67-4.9-6.87-13.34-11.84-18.94a29,29,0,0,1-3.64-4.21,14.92,14.92,0,0,1-1.6-6.57C-88.74,235.39-89.95,228.09-88.1,223.43Zm9.3-9.88a3.76,3.76,0,0,0,1.27,2c1.17.78,2.76.16,3.89-.66a13.36,13.36,0,0,0,3.84-16.58c-2.11-3.93-8.08-6-10.48-1.49C-82.83,201.57-80.56,208.91-78.8,213.55ZM1.84,183a48.18,48.18,0,0,0,14.84,9.64c2.19,1,4.52,1.87,6.89,1.64,3.67-.35,6.64-3.38,8-6.79s1.47-7.2,1.53-10.89c.05-2.69.07-5.52-1.24-7.87-1.07-1.91-2.88-3.27-4.5-4.75-2.39-2.19-4.43-4.76-7-6.76a18.73,18.73,0,0,0-16.06-3.58C-.83,155-7.07,160.2-6.93,166S-2.09,179.08,1.84,183Zm42.1-7.86a17.64,17.64,0,0,0,2,6c2.08,3.34,6,4.87,9.52,6.7A42,42,0,0,1,72.8,205.19c1.48,2.78,3.65,6.28,6.73,5.59,1.75-.39,2.88-2.1,3.49-3.78,1.08-3,1.11-6.19,1.12-9.34a32.53,32.53,0,0,0-.61-7.83c-.89-3.69-3-6.94-5.24-10a172.55,172.55,0,0,0-16.43-19.68c-4-4.11-13.55-12.35-19.21-6.1C38.33,158.78,42.87,169.8,43.94,175.17ZM32.39,154.9c1.93-.86,2.23-3.68,1.14-5.5-1.55-2.59-10.12-8.38-11.2-3.18C21.47,150.37,28.53,156.64,32.39,154.9ZM52,204.63c-.39-7.94-12.68-13.91-13.21-3.18-.16,3.24,1,7.14,3.71,9.18C47.1,214.14,52.28,209.81,52,204.63ZM-.72,314.19c2.1-.46,4.34-1.26,5.43-3.11a1.28,1.28,0,0,0,.23-.9,1.53,1.53,0,0,0-.65-.82c-2.6-2-5.43-4.11-8.71-4.26-2.35-.11-4.61.82-6.93,1.19a15,15,0,0,1-5.7-.2c-1.79-.41-4-2.37-5.62-2.47-4-.25-4.47,4.28-2.18,6.51C-19.44,315.4-7.52,315.66-.72,314.19Zm16.63,2.18a9.3,9.3,0,0,0,6,.14A27,27,0,0,0,27.5,314a3.33,3.33,0,0,0,1.75-1.61c.46-1.34-.94-2.62-2.3-3.06a15.09,15.09,0,0,0-6.49-.14l-3.54.43a2.81,2.81,0,0,0-1.18.32C13,311.67,12.82,315.08,15.91,316.37Zm65.68-78.8a2.69,2.69,0,0,0,.65,1.63c.78.75,2.09.37,3-.26a9.37,9.37,0,0,0,3.46-7.54A27.69,27.69,0,0,0,87,223a3.15,3.15,0,0,0-1.21-2C80.77,218.17,81.26,235.45,81.59,237.57ZM-41.76,303.91a3.77,3.77,0,0,0,1.5-.16c1.59-.61,1.89-2.8,1.33-4.4-1.23-3.53-9.61-10.3-12.19-4.91C-53.83,300.11-46,303.73-41.76,303.91Zm-1.84-146a10.23,10.23,0,0,0,3.78-3.5c1.07-1.53,2-3.51,1.19-5.21-2.14-4.8-8.75-.29-10.64,2.35C-52.15,155.57-48.21,160.1-43.6,157.91Zm36-18.1a1.78,1.78,0,0,0-.38-.92c-2.41-3.46-13-4.07-11.74,1.63C-18.59,145.87-7.51,144.65-7.62,139.81Z"/></g></g><path class="a37d4765-1db9-4bcc-893e-2d7b91828c80" d="M34,106.66a8.73,8.73,0,0,0,8.73,8.74H52v-9.78H34Z"/><rect class="e9a49384-e3ce-40af-b2f2-e73d3fa27389" x="34" y="92.54" width="17.99" height="9.97"/><path class="fb179de3-7db1-4b8c-9c9c-e49725a53243" d="M34,75.32v1.05H52V66.58H42.73A8.74,8.74,0,0,0,34,75.32Z"/><path class="ef64a9a1-856c-4b7a-8f1b-6fbb7e67f150" d="M79.49,66.58H55.09V115.4H67.5v-39H88.23V75.32A8.74,8.74,0,0,0,79.49,66.58Z"/><rect class="b1f7882d-6170-47fa-bf74-a9787e351314" x="34" y="79.47" width="17.99" height="9.97"/><rect class="a628065b-1db1-49c0-8fe0-0f506b1d279c" x="70.6" y="79.47" width="17.63" height="9.97"/><rect class="b8c66875-fd12-464d-970d-0044f585a623" x="70.6" y="92.54" width="17.63" height="9.97"/><path class="b0f50fc0-944c-4c69-9acf-b5805a5adea6" d="M70.6,115.4h8.89a8.74,8.74,0,0,0,8.74-8.74v-1H70.6Z"/><polygon class="f2a92982-d19b-4d49-a919-ad1247b66a26" points="24.36 82.91 16.27 91 24.36 99.08 24.36 82.91"/><path class="f2a92982-d19b-4d49-a919-ad1247b66a26" d="M37.58,141.92a1.1,1.1,0,0,1,0-2.2h7.56a2.14,2.14,0,0,1,2.2,2.2v4.22a2.52,2.52,0,0,1-.86,2.13,2.54,2.54,0,0,1,.86,2.13v4.23a2.14,2.14,0,0,1-2.2,2.19H37.58a1.1,1.1,0,1,1,0-2.19h7.56V151c0-1.23-.48-1.6-1.1-1.6H39.73a1.1,1.1,0,0,1,0-2.2H44c.62,0,1.1-.37,1.1-1.6v-3.65Z"/><path class="f2a92982-d19b-4d49-a919-ad1247b66a26" d="M61,154.63v-4.45a1.1,1.1,0,1,1,2.19,0v5.55a1,1,0,0,1-1.1,1.09H53.41a1.1,1.1,0,1,1,0-2.19h3.23V141.92H53.41a1.1,1.1,0,0,1,0-2.2h5.43v14.91Z"/><path class="f2a92982-d19b-4d49-a919-ad1247b66a26" d="M75.7,149v-6.36a1.11,1.11,0,0,1,2.21,0V149a1.1,1.1,0,1,1,0,2.2v4.49a1,1,0,0,1-1.1,1.09c-.79,0-1.11-.39-1.11-1.09v-4.49H69.24V140.82a1.1,1.1,0,0,1,2.2,0V149Z"/><path class="f2a92982-d19b-4d49-a919-ad1247b66a26" d="M92.64,154.63v-4.45a1.1,1.1,0,0,1,2.2,0v5.55a1,1,0,0,1-1.1,1.09H85.07a1.1,1.1,0,1,1,0-2.19h3.24V141.92H85.07a1.1,1.1,0,0,1,0-2.2H90.5v14.91Z"/><path class="f2a92982-d19b-4d49-a919-ad1247b66a26" d="M120,147.17h4a2.26,2.26,0,0,1,1.76.62,2.17,2.17,0,0,1,.68,1.86v4.71a2.31,2.31,0,0,1-.53,1.71,2.11,2.11,0,0,1-1.91.75h-4.89a3.21,3.21,0,0,1-1.45-.39l-.83-.37c-.59-.27-1.25-.47-1.25-1.24a1.1,1.1,0,0,1,1-1.09,1.54,1.54,0,0,1,.7.17l.66.29a3.86,3.86,0,0,0,1.17.44h5.08v-5.26h-6.49v-9.65h7.59a1.1,1.1,0,0,1,0,2.2H120Z"/><path class="f2a92982-d19b-4d49-a919-ad1247b66a26" d="M140.13,147.54h-7.56a1.11,1.11,0,0,1-1.1-1.09v-5.63a1.12,1.12,0,0,1,1.1-1.1h8.66a1.12,1.12,0,0,1,1.1,1.1v14.91a1.07,1.07,0,0,1-1.1,1.09h-1.1a1.07,1.07,0,0,1-1.1-1.09,1.06,1.06,0,0,1,1.1-1.1Zm0-2.2v-3.42h-6.46v3.42Z"/><path class="f2a92982-d19b-4d49-a919-ad1247b66a26" d="M149.5,154.63h7.56a1.1,1.1,0,1,1,0,2.19H147.3v-7.17a2.2,2.2,0,0,1,2.48-2.48H156v-5.25h-7.57a1.1,1.1,0,0,1,0-2.2h7.31a2.26,2.26,0,0,1,2.46,2.57v4.51a2.26,2.26,0,0,1-2.46,2.57h-6.2Z"/><path class="f2a92982-d19b-4d49-a919-ad1247b66a26" d="M165.33,149h7.34c1.1,0,1.32.47,1.32,1.47v4.93c0,1-.44,1.38-1.43,1.38h-8c-1,0-1.43-.37-1.43-1.38V140.82c0-.51.17-1.1.94-1.1h1.32a1.1,1.1,0,0,1,1,1.1,1.06,1.06,0,0,1-1.1,1.1Zm0,2.2v3.39h6.46v-3.39Z"/><path class="f2a92982-d19b-4d49-a919-ad1247b66a26" d="M199.17,147.17h4a2.25,2.25,0,0,1,1.76.62,2.17,2.17,0,0,1,.68,1.86v4.71a2.35,2.35,0,0,1-.52,1.71,2.12,2.12,0,0,1-1.92.75h-4.88a3.21,3.21,0,0,1-1.45-.39l-.83-.37c-.6-.27-1.26-.47-1.26-1.24a1.1,1.1,0,0,1,1.05-1.09,1.58,1.58,0,0,1,.71.17l.66.29a3.81,3.81,0,0,0,1.16.44h5.08v-5.26H197v-9.65h7.59a1.1,1.1,0,0,1,0,2.2h-5.39Z"/><path class="f2a92982-d19b-4d49-a919-ad1247b66a26" d="M211.72,141.92a1.1,1.1,0,0,1,0-2.2h7.57a2.15,2.15,0,0,1,2.2,2.2v4.22a2.55,2.55,0,0,1-.86,2.13,2.56,2.56,0,0,1,.86,2.13v4.23a2.15,2.15,0,0,1-2.2,2.19h-7.57a1.1,1.1,0,1,1,0-2.19h7.57V151c0-1.23-.49-1.6-1.1-1.6h-4.31a1.1,1.1,0,1,1,0-2.2h4.31c.61,0,1.1-.37,1.1-1.6v-3.65Z"/><path class="f2a92982-d19b-4d49-a919-ad1247b66a26" d="M230.83,147.17h4a2.23,2.23,0,0,1,1.75.62,2.15,2.15,0,0,1,.69,1.86v4.71a2.31,2.31,0,0,1-.53,1.71,2.11,2.11,0,0,1-1.91.75H230a3.22,3.22,0,0,1-1.46-.39l-.83-.37c-.59-.27-1.26-.47-1.26-1.24a1.11,1.11,0,0,1,1.06-1.09,1.57,1.57,0,0,1,.7.17l.66.29a3.77,3.77,0,0,0,1.17.44h5.08v-5.26h-6.49v-9.65h7.59a1.1,1.1,0,0,1,0,2.2h-5.39Z"/><path class="f2a92982-d19b-4d49-a919-ad1247b66a26" d="M249.85,139.72a1,1,0,0,1,1.1,1.1v6.35a2.22,2.22,0,0,1,1.6.62,2.1,2.1,0,0,1,.6,1.6v5.24a2,2,0,0,1-2.2,2.19h-6.46a2,2,0,0,1-2.2-2.19v-5.24a2.09,2.09,0,0,1,.59-1.6,2.22,2.22,0,0,1,1.61-.62v-6.35a1,1,0,0,1,1.09-1.1Zm1.1,14.91v-5.26h-6.46v5.26Zm-2.2-7.46v-5.25h-2.07v5.25Z"/><path class="f2a92982-d19b-4d49-a919-ad1247b66a26" d="M282.61,147.54h-7.56a1.11,1.11,0,0,1-1.1-1.09v-5.63a1.12,1.12,0,0,1,1.1-1.1h8.66a1.12,1.12,0,0,1,1.1,1.1v14.91a1.07,1.07,0,0,1-1.1,1.09h-1.1a1.07,1.07,0,0,1-1.1-1.09,1,1,0,0,1,1.1-1.1Zm0-2.2v-3.42h-6.46v3.42Z"/><path class="f2a92982-d19b-4d49-a919-ad1247b66a26" d="M292,141.92a1.1,1.1,0,0,1-2.2,0v-1.1a1.11,1.11,0,0,1,1.1-1.1h9.76v6.37c0,.77,0,.86-.59,1.39L297,150.14c-.57.51-.62.55-.62,1.32v4.27a1.1,1.1,0,0,1-2.19,0v-5.3c0-.73,0-.8.56-1.28l3-2.62c.73-.64.68-.61.68-1.58v-3Z"/><path class="f2a92982-d19b-4d49-a919-ad1247b66a26" d="M314.27,147.54h-7.56a1.11,1.11,0,0,1-1.1-1.09v-5.63a1.12,1.12,0,0,1,1.1-1.1h8.67a1.11,1.11,0,0,1,1.09,1.1v14.91a1.07,1.07,0,0,1-1.09,1.09h-1.11a1.07,1.07,0,0,1-1.09-1.09,1,1,0,0,1,1.09-1.1Zm0-2.2v-3.42h-6.46v3.42Z"/><path class="f2a92982-d19b-4d49-a919-ad1247b66a26" d="M322.54,141.92a1.1,1.1,0,0,1,0-2.2h7.57a2.15,2.15,0,0,1,2.2,2.2v4.22a2.55,2.55,0,0,1-.86,2.13,2.56,2.56,0,0,1,.86,2.13v4.23a2.15,2.15,0,0,1-2.2,2.19h-7.57a1.1,1.1,0,1,1,0-2.19h7.57V151c0-1.23-.49-1.6-1.11-1.6h-4.3a1.1,1.1,0,1,1,0-2.2H329c.62,0,1.11-.37,1.11-1.6v-3.65Z"/><path class="f2a92982-d19b-4d49-a919-ad1247b66a26" d="M49.7,41.87a12.19,12.19,0,0,1-4.84.81c-6.53,0-9.89-4.06-9.89-9.44,0-6.43,4.6-10,10.31-10a11,11,0,0,1,4.65.85l-.87,3.38a9.3,9.3,0,0,0-3.59-.7c-3.39,0-6,2.05-6,6.25,0,3.78,2.24,6.16,6,6.16a10.57,10.57,0,0,0,3.56-.62Z"/><path class="f2a92982-d19b-4d49-a919-ad1247b66a26" d="M52.24,33.22c0-2-.06-3.33-.11-4.51H55.8l.14,2.52h.11a4,4,0,0,1,3.69-2.83,4.11,4.11,0,0,1,.9.06v4a5.71,5.71,0,0,0-1.15-.12,2.73,2.73,0,0,0-2.91,2.16,4.68,4.68,0,0,0-.08,1V42.4H52.24Z"/><path class="f2a92982-d19b-4d49-a919-ad1247b66a26" d="M65.93,36.92c.14,1.76,1.87,2.6,3.86,2.6A12.17,12.17,0,0,0,73.57,39l.56,2.88a13.53,13.53,0,0,1-5,.84c-4.64,0-7.3-2.69-7.3-7,0-3.47,2.15-7.31,6.91-7.31,4.43,0,6.11,3.45,6.11,6.83a11,11,0,0,1-.14,1.69Zm5-2.92a2.47,2.47,0,0,0-2.41-2.77A2.79,2.79,0,0,0,65.9,34Z"/><path class="f2a92982-d19b-4d49-a919-ad1247b66a26" d="M90.7,22.52V38.31c0,1.55.06,3.17.11,4.09H87l-.2-2h0a4.8,4.8,0,0,1-4.29,2.32c-3.24,0-5.85-2.77-5.85-7,0-4.61,2.86-7.28,6.14-7.28a4.18,4.18,0,0,1,3.61,1.54h0V22.52Zm-4.26,12a6.47,6.47,0,0,0,0-.76,2.56,2.56,0,0,0-2.5-2.1C82,31.65,81,33.39,81,35.55c0,2.32,1.15,3.77,2.92,3.77a2.49,2.49,0,0,0,2.46-2,3.43,3.43,0,0,0,.11-1Z"/><path class="f2a92982-d19b-4d49-a919-ad1247b66a26" d="M98.5,24.9A2.13,2.13,0,0,1,96.21,27a2.14,2.14,0,1,1,0-4.28A2.12,2.12,0,0,1,98.5,24.9ZM94.11,42.4V28.71h4.25V42.4Z"/><path class="f2a92982-d19b-4d49-a919-ad1247b66a26" d="M106.53,24.79v3.92h3.06v3.14h-3.06V36.8c0,1.66.39,2.41,1.68,2.41a6.5,6.5,0,0,0,1.26-.11l0,3.22a8.48,8.48,0,0,1-2.77.36,4.42,4.42,0,0,1-3.19-1.17c-.79-.82-1.18-2.13-1.18-4.07V31.85h-1.82V28.71h1.82v-3Z"/><path class="f2a92982-d19b-4d49-a919-ad1247b66a26" d="M124.25,41.79a12.51,12.51,0,0,1-4.9.89c-4.76,0-7.64-3-7.64-7.81a11.76,11.76,0,0,1,4-9.1,10.69,10.69,0,0,1,7.11-2.55,7.49,7.49,0,0,1,4.09.93L126.18,26a7.75,7.75,0,0,0-3.72-.78,8,8,0,0,0-5.41,2.12,10,10,0,0,0-2.88,7.17c0,3.39,1.54,6.16,5.74,6.16a9.35,9.35,0,0,0,4-.81Z"/><path class="f2a92982-d19b-4d49-a919-ad1247b66a26" d="M135.42,42.4a34.53,34.53,0,0,1,.31-3.5h-.06c-1.49,2.8-3.34,3.81-5.27,3.81-2.38,0-3.89-1.9-3.89-4.48a9.47,9.47,0,0,1,9.38-9.69,12.89,12.89,0,0,1,3.64.53l-1.37,7.06a31.28,31.28,0,0,0-.59,6.27Zm1.51-11.81a6,6,0,0,0-1.63-.2c-3.5,0-6.35,3.67-6.38,7.42,0,1.51.53,3,2.32,3s4.23-2.52,4.9-6.13Z"/><path class="f2a92982-d19b-4d49-a919-ad1247b66a26" d="M141,42.4l1.65-8.73c.33-1.77.56-3.56.7-4.82h2c-.11.95-.22,1.9-.36,2.94h.08c.87-1.85,2.33-3.25,4.15-3.25a4.34,4.34,0,0,1,.64.06l-.45,2.3a2.48,2.48,0,0,0-.62-.06c-2,0-3.8,2.44-4.39,5.6l-1.12,6Z"/><path class="f2a92982-d19b-4d49-a919-ad1247b66a26" d="M164.19,22.52l-3,15.6a33.5,33.5,0,0,0-.59,4.28H158.5l.37-2.69h-.06a5.77,5.77,0,0,1-4.87,3c-2.63,0-4.06-2.16-4.06-4.93,0-4.81,3.58-9.24,8.37-9.24a6.15,6.15,0,0,1,2.41.48l1.2-6.5ZM160.3,31a4.26,4.26,0,0,0-2.25-.56c-3.24,0-5.76,3.44-5.76,7.06,0,1.62.56,3.33,2.55,3.33,1.79,0,3.94-2.05,4.53-5.1Z"/><path class="f2a92982-d19b-4d49-a919-ad1247b66a26" d="M284,29.93a25.78,25.78,0,0,1,3.93-.26,7.91,7.91,0,0,1,4,.71,2.75,2.75,0,0,1,1.62,2.47,2.9,2.9,0,0,1-2.22,2.71v0a3.23,3.23,0,0,1,2.67,3.12,3.3,3.3,0,0,1-1.39,2.68c-1,.73-2.62,1.14-5.3,1.14a23.8,23.8,0,0,1-3.29-.19Zm3,4.84h1c1.6,0,2.46-.62,2.46-1.56s-.78-1.46-2.16-1.46a10.41,10.41,0,0,0-1.3.07Zm0,5.61c.3,0,.67,0,1.18,0,1.38,0,2.6-.48,2.6-1.82s-1.22-1.78-2.74-1.78h-1Z"/><path class="f2a92982-d19b-4d49-a919-ad1247b66a26" d="M299.08,39.16l-1,3.24H295l4.12-12.64h4l4.18,12.64H304l-1-3.24ZM302.49,37l-.84-2.68c-.23-.75-.47-1.69-.67-2.44h-.05c-.2.75-.39,1.71-.61,2.44L299.51,37Z"/><path class="f2a92982-d19b-4d49-a919-ad1247b66a26" d="M309.05,42.4V29.76h3.56l2.79,4.64a35.21,35.21,0,0,1,2.2,4.33h.06a44.13,44.13,0,0,1-.26-5.28V29.76h2.8V42.4H317l-2.87-4.88a44.77,44.77,0,0,1-2.34-4.46l-.06,0c.08,1.67.12,3.45.12,5.51V42.4Z"/><path class="f2a92982-d19b-4d49-a919-ad1247b66a26" d="M322.84,29.76h3v5.59h.06c.3-.49.62-.94.92-1.39l3.06-4.2h3.73l-4.45,5.38,4.7,7.26h-3.56L327,37l-1.16,1.33V42.4h-3Z"/><path class="f2a92982-d19b-4d49-a919-ad1247b66a26" d="M43.7,201.65c0,2.13.36,6.83-3.71,6.83s-3.72-4.54-3.72-6.83c0-3.14-.16-6.86,3.72-6.86C44.22,194.79,43.7,200.15,43.7,201.65Zm-6,0c0,5.23,1,5.57,2.32,5.57,1.53,0,2.32-.62,2.32-5.57,0-5.16-.9-5.6-2.32-5.6C37.47,196.05,37.67,199,37.67,201.65Z"/><path class="f2a92982-d19b-4d49-a919-ad1247b66a26" d="M54.42,197.05a3.26,3.26,0,0,0-2.14-1c-2.42,0-2.58,3.08-2.64,4.86a3.91,3.91,0,0,1,2.66-1.08c2.52,0,3.44,2.07,3.44,4.27,0,2.38-1.28,4.38-3.84,4.38-3.43,0-3.66-4.16-3.66-6.69,0-2.72.34-7,4-7a4.37,4.37,0,0,1,3,1.16ZM52,207.22c1.64,0,2.34-1.44,2.34-3.06s-.46-3.07-2.24-3.07a3.82,3.82,0,0,0-2.46,1.29C49.66,206.56,50.78,207.22,52,207.22Z"/><path class="f2a92982-d19b-4d49-a919-ad1247b66a26" d="M60.56,208.84l5.91-15.46h.92l-5.91,15.46Z"/><path class="f2a92982-d19b-4d49-a919-ad1247b66a26" d="M75.55,196.59l-2.44.94-.42-1.22,4.2-1.6V207.1h2.86v1.2H72.19v-1.2h3.36Z"/><path class="f2a92982-d19b-4d49-a919-ad1247b66a26" d="M84.71,195h6.83v1.2H86v4.1a5.45,5.45,0,0,1,2-.42,3.43,3.43,0,0,1,3.62,3.53,4.81,4.81,0,0,1-2.36,4.1c-1,.66-2.4,1-5,1v-1.26a8.77,8.77,0,0,0,3.9-.58,3.76,3.76,0,0,0,2.06-3.26,2.17,2.17,0,0,0-2.36-2.27,4.5,4.5,0,0,0-2.22.7h-1Z"/><g id="e6ec9113-8d8e-40b4-bc49-8aba1e939762" data-name="a599d7a2-158d-4854-8009-712193132b3a"><g id="febc6090-3063-4fc2-a282-4e1e6bd5b193" data-name="b371700b-56a4-4456-999e-79309ffe3f34"><g id="b93e8ada-312a-4cb5-aff2-9659554d965b" data-name="ada40a11-8ead-4164-9118-1599e5a5dc55"><g id="f1b1cc43-a061-4ddb-99f4-7dc73a2556a8" data-name="f312b2d7-f72b-4669-8fde-d40f670197dc"><g id="f5a8f037-f083-4020-a595-1986475815e8" data-name="a6020035-5752-45a8-82f2-eea2944eea35"><path id="ae05b436-7386-4636-81ab-73496ff6ac02" data-name="b588d752-6e4f-411e-8f4c-56051d690e16" class="b005c9d4-a54c-4cf1-bd63-12fd5f67a97a" d="M330.87,207.42a13.07,13.07,0,0,0,.86,3.26,6.4,6.4,0,0,0,.92,1.58,1.93,1.93,0,0,0,1,.61l.71-.28c.43-.19.94-.68,1.43-.6a.5.5,0,0,1,.43.55c0,.56-.72.93-1.18,1.09h.05c.43.08.86-.09,1.28,0a.45.45,0,0,1,.4.49h0a.5.5,0,0,1-.08.2c-.51.74-1.73.46-2.52-.06a3.32,3.32,0,0,0,.23.37,5.91,5.91,0,0,0,1.08.92.51.51,0,0,1,.09.71.55.55,0,0,1-.45.19,2.55,2.55,0,0,1-1.9-2.31c-1-.24-1.82-1.5-2.21-2.31a6.67,6.67,0,0,1-.57-4.49C330.48,207.13,330.84,207.19,330.87,207.42Z"/><path id="f08d3285-f99a-4dda-b1c7-ad0b1e199455" data-name="f77a16e5-510d-460e-a12a-3b6566cc90d0" class="b005c9d4-a54c-4cf1-bd63-12fd5f67a97a" d="M335.83,207.87a.1.1,0,0,1,.18.07,6.11,6.11,0,0,0,.93,3.28,3.91,3.91,0,0,0,2.94,2.17h0a1.78,1.78,0,0,0,.7-.28c.37-.27.51-.73.88-1a.48.48,0,0,1,.66.09.47.47,0,0,1,.09.22,1.87,1.87,0,0,1-1.25,1.77,3.88,3.88,0,0,1,1.81.16.44.44,0,0,1,.09.62h0a1.87,1.87,0,0,1-2.24.1c.23.31.51.57.76.87.48.58-.31,1.28-.88.89a3.56,3.56,0,0,1-1.31-2.34c-1.18-.09-2.27-1.4-2.82-2.28C335.68,211.05,335,209.11,335.83,207.87Z"/></g><path id="e481a329-d740-414c-9046-a51fedb42c28" data-name="b84fa918-22a6-49d5-a563-e4f482eec120" class="b005c9d4-a54c-4cf1-bd63-12fd5f67a97a" d="M323.56,182.14a2.16,2.16,0,0,1,.57,0,2.4,2.4,0,0,1,1.33.36c1.94-2.1,4.19-4.6,4.14-6-.06-1.71-.85-2.08-1.58-1.72-1.67.83-2.17,2.29-2.65,3.95a7.08,7.08,0,0,0-.28.77,30.79,30.79,0,0,0-.19-4.4c-.19-1.4-1.19-2.47-2.33-1.11-1.31,1.58-.4,4.35.15,6C322.84,180.27,323.24,181.34,323.56,182.14Z"/><path id="e57cef72-60c4-494b-8542-f1913e83f1ad" data-name="b6728239-8de4-4645-9de1-d8c52f8a3361" class="b005c9d4-a54c-4cf1-bd63-12fd5f67a97a" d="M321.66,172.25h0s0,0,0-.06S321.66,172.23,321.66,172.25Z"/><g id="b68add2a-1e58-45c0-9059-2912119c6549" data-name="bc97e6ae-c996-4454-a747-e8d84fbb8fa5"><path id="e2c002fe-ecff-4aa2-b88e-4908a304c9e9" data-name="af9c8db1-6ce0-4cd0-ba95-d0c296f800b9" class="b005c9d4-a54c-4cf1-bd63-12fd5f67a97a" d="M340.82,199.65s16.15-1.88,10.26,5.25-16.58,7-26.09,4.69,15.39-9.94,15.39-9.94"/><path id="a38008e9-793d-427f-a8af-c141766a657d" data-name="ad86a25e-f75a-4725-80fb-6ebf27cfeb54" class="b005c9d4-a54c-4cf1-bd63-12fd5f67a97a" d="M352.26,194.17c.69,5.72-5.92,13-17.88,15.62-9.43,2.14-20.17-2.32-23.14-10.56-2.73-7.55,2.41-19.09,13.53-17.62s9.75,15.32,13.74,13S351.49,187.78,352.26,194.17Z"/><path id="e2ed3320-45a3-4d23-b083-6542e8944483" data-name="b6b429f9-b6f3-44bc-b7ad-4a48e4abaa1a" class="b005c9d4-a54c-4cf1-bd63-12fd5f67a97a" d="M338.2,204.2a4,4,0,0,0-1.76.16.44.44,0,0,0-.3.53h0a.42.42,0,0,0,.29.3,4,4,0,0,0,1.76.16.62.62,0,0,0,.4-.76A.63.63,0,0,0,338.2,204.2Z"/><path id="fa6ec0c8-d6b5-4095-98a6-ca8cdf2c0f40" data-name="b17283ec-b180-4738-8c50-02a7bcaeca19" class="b005c9d4-a54c-4cf1-bd63-12fd5f67a97a" d="M336.55,201.5a9.56,9.56,0,0,1-2.2.23c-.32,0-.59.4-.24.57a3,3,0,0,0,2.71.19.53.53,0,0,0,.18-.71h0A.55.55,0,0,0,336.55,201.5Z"/><path id="a01240cf-ceb7-445c-b069-d6d1978256c5" data-name="acd578d4-2afd-4476-8ad4-65cf5cb9a536" class="b005c9d4-a54c-4cf1-bd63-12fd5f67a97a" d="M339.69,197.62c-.43.23-.7.69-1.19.85a.37.37,0,0,0,0,.71,1.8,1.8,0,0,0,2-.74.62.62,0,0,0-.24-.82A.59.59,0,0,0,339.69,197.62Z"/><path id="a4690cc8-a17c-47c0-8a4b-358d5d6f2375" data-name="a69f830b-5181-44d6-81d1-dc7def6abf90" class="b005c9d4-a54c-4cf1-bd63-12fd5f67a97a" d="M341.89,200.55a5.23,5.23,0,0,0-.76.35,1.51,1.51,0,0,1-.79,0c-.44-.07-.79.55-.33.79a2,2,0,0,0,2.47-.18.61.61,0,0,0-.59-1Z"/><path id="b3c3383a-309e-4539-88e2-123e43780fcd" data-name="faa262a2-a1d5-4bd5-ae50-407fac31646d" class="b005c9d4-a54c-4cf1-bd63-12fd5f67a97a" d="M342.65,203.76c-.64.11-1.21.48-1.86.59s-.33.79.12.86a4.18,4.18,0,0,0,2.23-.3C343.81,204.58,343.31,203.64,342.65,203.76Z"/><path id="fe6ef7ea-5a43-41a6-95c3-236264d6a33d" data-name="ea9b61ac-5e2d-4373-8e1b-68185c075efd" class="b005c9d4-a54c-4cf1-bd63-12fd5f67a97a" d="M346.83,198.54a5.13,5.13,0,0,1-.52.79,2.83,2.83,0,0,1-.4.37c-.08.06-.1.17-.17.25a.6.6,0,0,1-.22.16c-.36.2-.11.71.27.64l.52-.11a1.45,1.45,0,0,0,.73-.39,2.27,2.27,0,0,0,.79-1.28C348,198.37,347.13,198,346.83,198.54Z"/><path id="b8900ee8-6934-4ca7-86c3-e4ac369c3502" data-name="a1902820-c47e-4aa5-809a-4168b8fc256e" class="b005c9d4-a54c-4cf1-bd63-12fd5f67a97a" d="M344.79,195.35c-.2.36-.31.74-.54,1.09s-.5.68-.71,1.05.33.82.62.47c.6-.71,1.6-1.31,1.64-2.33a.55.55,0,0,0-.57-.53h0A.56.56,0,0,0,344.79,195.35Z"/><path id="a7bf2d2f-f8fd-466f-a2f2-adede86ee507" data-name="fb581c28-790f-40b7-b752-248ee16d7aef" class="b005c9d4-a54c-4cf1-bd63-12fd5f67a97a" d="M348.94,193.12c-.78.22-.93,1.38-.84,2,0,.36.64.53.71.1a2.16,2.16,0,0,1,.25-.74c.15-.27.46-.43.52-.76a.54.54,0,0,0-.39-.64h-.25Z"/></g><g id="aa81ed69-6d27-4ed7-931b-7c6e6f55b3c5" data-name="f762064d-9831-4619-a094-3f5b36bc9048"><path id="acb501fd-6134-47ad-892a-cf065b9ebee5" data-name="a099ae56-b457-40cc-b806-113f220886a2" class="b005c9d4-a54c-4cf1-bd63-12fd5f67a97a" d="M315.39,187.46a1.44,1.44,0,1,0,.2,0h-.2Z"/></g><g id="e5667d56-1781-4fa4-8376-7f4dab6e587c" data-name="f33272af-a44c-420e-b8db-9501f457cb58"><path id="bd5c4de6-2beb-45df-82a9-066424285586" data-name="e5a11fa7-ed07-43f5-8671-a1500953532f" class="b005c9d4-a54c-4cf1-bd63-12fd5f67a97a" d="M324.22,187.85c-1.77,0-1.77,2.89,0,2.89a1.45,1.45,0,0,0,.2-2.89Z"/></g><line id="a167a9f7-8953-4802-b229-5caea2b2f904" data-name="f3d43a51-192f-428e-9965-a2b24cedf741" class="b005c9d4-a54c-4cf1-bd63-12fd5f67a97a" x1="317.7" y1="187.04" x2="313.67" y2="184.92"/><line id="b089bd93-120c-46b5-b3dd-159f929d3726" data-name="f4605cc2-5ede-451a-a678-87356a264c43" class="b005c9d4-a54c-4cf1-bd63-12fd5f67a97a" x1="322.33" y1="187.17" x2="326.35" y2="185.69"/><path id="a99d4b0a-2cd8-44db-90c3-fe37aaa93864" data-name="a441549a-2b80-4243-8f9c-32cf8131201f" class="b005c9d4-a54c-4cf1-bd63-12fd5f67a97a" d="M311.74,192.91c-1.39-.37-5.73.5-5.73.5l4.29,2.37L309,197.92a16.71,16.71,0,0,0,3.66-1.77A1.93,1.93,0,0,0,311.74,192.91Z"/><g id="a5257a15-6a31-4089-87df-fa9979431b1c" data-name="a9f12f1e-f050-4e69-b8d3-599427350c57"><path class="b005c9d4-a54c-4cf1-bd63-12fd5f67a97a" d="M352.26,194.17c.69,5.72-5.92,13-17.88,15.62-9.43,2.14-20.17-2.32-23.14-10.56-2.73-7.55,2.41-19.09,13.53-17.62s9.75,15.32,13.74,13S351.49,187.78,352.26,194.17Z"/><g class="f72e4e05-d32d-478e-9b1f-4e4cf7ad22ae"><g id="b59df075-e8a4-4fae-a454-41fca472e988" data-name="e380c1b4-2317-47f3-9147-d7dc36eb5806"><path id="f068954b-3002-4be7-84dd-8d9053f83454" data-name="a8f5ea1b-3388-429b-9d61-bdc1527cbc04" class="b005c9d4-a54c-4cf1-bd63-12fd5f67a97a" d="M312.72,202.39c4.24,6.2,13.38,9.28,21.54,7.47l1-.25C330.4,203,320.83,201,312.72,202.39Z"/></g></g></g><g id="b32e1239-4398-4d48-853d-70f3927e7efe" data-name="a079238b-1b22-4967-aae1-aa97ba500658"><circle id="a2361d5a-797e-4d1b-94ad-29fcdf3656b9" data-name="ef0a19eb-188b-42a8-b39e-d1f7dbf7b84a" class="b005c9d4-a54c-4cf1-bd63-12fd5f67a97a" cx="323.66" cy="208.75" r="2.5"/><g id="b8530305-ffdf-46b8-accf-9d56b94370d3" data-name="ab5b013d-fdd4-4b32-9ebb-82d3306c93c0"><path id="b7e196d7-d854-4c83-a284-e432fd91b46b" data-name="b7ea4961-d650-4e9a-8b4b-3cb22a64e68a" class="b005c9d4-a54c-4cf1-bd63-12fd5f67a97a" d="M322.4,209.64a1.84,1.84,0,0,0,1.92-.39"/><path id="f77e490a-7f73-436d-9505-65dc54e71573" data-name="b6177686-8f95-453a-87c4-93a317727068" class="b005c9d4-a54c-4cf1-bd63-12fd5f67a97a" d="M323,208.54a1.84,1.84,0,0,0,.83,1.77"/></g></g></g></g></g></g></g></g></svg>