<svg id="Group_260" data-name="Group 260" xmlns="http://www.w3.org/2000/svg" width="30.673" height="31.051" viewBox="0 0 30.673 31.051">
  <path id="Path_457" data-name="Path 457" d="M358.447,459.173a15.337,15.337,0,1,0,15.335-15.526A15.45,15.45,0,0,0,358.447,459.173Zm27.291,0a11.792,11.792,0,1,1-11.792-11.938A11.865,11.865,0,0,1,385.738,459.173Z" transform="translate(-358.447 -443.647)" fill="#616e7d"/>
  <path id="Path_458" data-name="Path 458" d="M375.038,470.717h1.237a.738.738,0,0,0,.674-.79v-1.348a5.79,5.79,0,0,0,2.585-1.1,4.523,4.523,0,0,0,1.773-3.7,4.107,4.107,0,0,0-.7-2.5,5.317,5.317,0,0,0-3.66-2.05V456.5a3.643,3.643,0,0,1,.844.651.808.808,0,0,0,.578.246,1.062,1.062,0,0,0,.422-.145l0,0,1.387-1.019a.658.658,0,0,0,.29-.537.644.644,0,0,0-.182-.46,5.418,5.418,0,0,0-3.342-2.147v-1.537a.74.74,0,0,0-.674-.792h-1.237a.741.741,0,0,0-.675.792v1.5a5.545,5.545,0,0,0-1.735.571,4.2,4.2,0,0,0-2.452,3.984,4.289,4.289,0,0,0,.667,2.3,4.97,4.97,0,0,0,3.519,2.144v3.409a5.076,5.076,0,0,1-1.988-1.624.624.624,0,0,0-.546-.314,1.207,1.207,0,0,0-.37.126l0,0-1.261.868a.661.661,0,0,0-.317.581.692.692,0,0,0,.147.421,6.891,6.891,0,0,0,1.321,1.544,6.091,6.091,0,0,0,3.018,1.515v1.346A.739.739,0,0,0,375.038,470.717Zm1.911-8.3a1.363,1.363,0,0,1,1,1.374,1.7,1.7,0,0,1-.73,1.452,2.223,2.223,0,0,1-.272.167Zm-3.4-4.8a1.245,1.245,0,0,1,.72-1.14l.1-.043v2.421A1.274,1.274,0,0,1,373.548,457.612Z" transform="translate(-359.971 -445.416)" fill="#fff"/>
  <path id="Path_459" data-name="Path 459" d="M375.267,459.014a1.1,1.1,0,0,0,.815,1.056v-2.064l-.095.037A1.059,1.059,0,0,0,375.267,459.014Z" transform="translate(-361.445 -446.001)" fill="#81c7d4"/>
  <path id="Path_460" data-name="Path 460" d="M378.721,465.71a2.172,2.172,0,0,0,.272-.142,1.39,1.39,0,0,0,.73-1.237c0-.573-.333-.961-1-1.172Z" transform="translate(-362.05 -446.815)" fill="#81c7d4"/>
  <path id="Path_461" data-name="Path 461" d="M362.925,460.249a12.089,12.089,0,1,0,12.087-12.278A12.184,12.184,0,0,0,362.925,460.249Zm13.8-9.2v1.489a6.214,6.214,0,0,1,3.738,2.08.578.578,0,0,1,.2.445.621.621,0,0,1-.324.521l-1.551.987,0,0a1.3,1.3,0,0,1-.472.139.985.985,0,0,1-.647-.237,4.03,4.03,0,0,0-.944-.631v2.646a6.2,6.2,0,0,1,4.094,1.985,3.591,3.591,0,0,1,.78,2.421,4.194,4.194,0,0,1-1.982,3.581,7.059,7.059,0,0,1-2.892,1.065v1.306a.759.759,0,0,1-.754.766h-1.384a.76.76,0,0,1-.755-.766v-1.3a7.27,7.27,0,0,1-3.376-1.468,7.068,7.068,0,0,1-1.479-1.5.612.612,0,0,1-.164-.408.623.623,0,0,1,.354-.562l1.412-.841,0,0a1.491,1.491,0,0,1,.414-.122.727.727,0,0,1,.611.3,5.6,5.6,0,0,0,2.224,1.574v-3.3a5.728,5.728,0,0,1-3.937-2.076,3.766,3.766,0,0,1-.745-2.233q-.047-2.563,2.743-3.858a6.9,6.9,0,0,1,1.94-.553v-1.45a.763.763,0,0,1,.755-.768h1.384A.761.761,0,0,1,376.723,451.048Z" transform="translate(-359.561 -444.723)" fill="#81c7d4"/>
</svg>
