<svg xmlns="http://www.w3.org/2000/svg" xmlns:xlink="http://www.w3.org/1999/xlink" width="164.936" height="108.061" viewBox="0 0 164.936 108.061">
  <defs>
    <linearGradient id="linear-gradient" x1="0.681" y1="0.082" x2="0.278" y2="0.579" gradientUnits="objectBoundingBox">
      <stop offset="0" stop-color="#666c72"/>
      <stop offset="1" stop-color="#454c53"/>
    </linearGradient>
    <linearGradient id="linear-gradient-2" x1="0.587" y1="1" x2="0.113" y2="-0.064" gradientUnits="objectBoundingBox">
      <stop offset="0" stop-color="#ffcb05"/>
      <stop offset="1" stop-color="#f3e7b7"/>
    </linearGradient>
  </defs>
  <g id="啾聊" transform="translate(0 0)">
    <g id="Group_286" data-name="Group 286" transform="matrix(0.996, 0.087, -0.087, 0.996, -1453.481, -1323.738)">
      <path id="Path_503" data-name="Path 503" d="M918.251,991.952a8.792,8.792,0,0,1,1.775-.175,7.7,7.7,0,0,1,4.161,1.125c6.039-6.478,13.04-14.322,12.892-18.814-.174-5.328-2.63-6.472-4.919-5.34-5.188,2.564-6.752,7.125-8.25,12.248a20.135,20.135,0,0,0-.872,2.4,94.568,94.568,0,0,0-.6-13.728c-.583-4.362-3.673-7.7-7.255-3.435-4.076,4.86-1.273,13.567.471,18.753C916.028,986.109,917.241,989.438,918.251,991.952Z" transform="translate(776.53 229.055)" fill="url(#linear-gradient)"/>
      <circle id="Ellipse_25" data-name="Ellipse 25" cx="34.5" cy="34.5" r="34.5" transform="translate(1660 1217)" fill="url(#linear-gradient-2)"/>
      <g id="Group_284" data-name="Group 284" transform="translate(1667.158 1237.598)">
        <path id="Path_324" data-name="Path 324" d="M896.809,1001.233c-5.528,0-5.528,9.011,0,9.011A4.517,4.517,0,1,0,896.809,1001.233Z" transform="translate(-892.663 -1001.233)" fill="#454c53"/>
      </g>
      <g id="Group_285" data-name="Group 285" transform="translate(1694.704 1238.795)">
        <path id="Path_325" data-name="Path 325" d="M919.809,1002.233c-5.529,0-5.529,9.011,0,9.011A4.517,4.517,0,1,0,919.809,1002.233Z" transform="translate(-915.663 -1002.233)" fill="#454c53"/>
      </g>
      <line id="Line_109" data-name="Line 109" x1="12.576" y1="6.587" transform="translate(1665.96 1229.686)" fill="none" stroke="#454c53" stroke-linecap="round" stroke-miterlimit="10" stroke-width="3"/>
      <line id="Line_110" data-name="Line 110" y1="4.593" x2="12.523" transform="translate(1692.96 1232.081)" fill="none" stroke="#454c53" stroke-linecap="round" stroke-miterlimit="10" stroke-width="3"/>
      <path id="Path_504" data-name="Path 504" d="M889.6,1015.469c-4.365-1.162-17.875,1.553-17.875,1.553l13.386,7.331-3.968,6.734s8.846-3.182,11.411-5.524C894.681,1023.617,895.916,1017.15,889.6,1015.469Z" transform="translate(774.355 240.122)" fill="#f29440" stroke="#f29440" stroke-linecap="round" stroke-linejoin="round" stroke-width="2"/>
    </g>
    <g id="Group_288" data-name="Group 288" transform="translate(-1530.224 -1211.42) rotate(9)">
      <g id="Group_287" data-name="Group 287" transform="translate(87.966 4.182)">
        <rect id="Rectangle_75" data-name="Rectangle 75" width="76" height="46" rx="12" transform="translate(1620.034 951.818)" fill="#fff"/>
        <path id="Path_505" data-name="Path 505" d="M1714.425,986.777s5.609,10.623,12.573,14.669-10.33,3.719-18.388-6.818" transform="translate(-18.889 -7.413)" fill="#fff"/>
      </g>
      <path id="Path_2553" data-name="Path 2553" d="M3.938.258A6.342,6.342,0,0,1,.8-.539,1.009,1.009,0,0,1,.281-1.43a1.026,1.026,0,0,1,.258-.68.822.822,0,0,1,.656-.3.843.843,0,0,1,.422.094A4.907,4.907,0,0,0,3.8-1.8a2.724,2.724,0,0,0,2.086-.773A3.878,3.878,0,0,0,6.609-5.25V-15.4a1.078,1.078,0,0,1,.316-.773,1.02,1.02,0,0,1,.762-.328,1.058,1.058,0,0,1,.773.328,1.058,1.058,0,0,1,.328.773V-5.391a6.308,6.308,0,0,1-1.23,4.219A4.516,4.516,0,0,1,3.938.258Zm14.109,0a6.288,6.288,0,0,1-3.164-.773,5.469,5.469,0,0,1-2.109-2.227,6.857,6.857,0,0,1-.75-3.234,6.908,6.908,0,0,1,.75-3.258,5.294,5.294,0,0,1,2.121-2.2,6.305,6.305,0,0,1,3.152-.773,6.24,6.24,0,0,1,3.141.773A5.442,5.442,0,0,1,23.32-9.223a6.838,6.838,0,0,1,.75,3.246,6.768,6.768,0,0,1-.75,3.234A5.41,5.41,0,0,1,21.176-.516,6.257,6.257,0,0,1,18.047.258Zm0-1.992A4.091,4.091,0,0,0,19.9-2.18a3.445,3.445,0,0,0,1.453-1.441A4.846,4.846,0,0,0,21.891-6a4.512,4.512,0,0,0-.562-2.391A3.526,3.526,0,0,0,19.957-9.75a3.909,3.909,0,0,0-1.91-.469A4.276,4.276,0,0,0,16.2-9.8a3.46,3.46,0,0,0-1.453,1.43A4.778,4.778,0,0,0,14.2-6a4.563,4.563,0,0,0,.563,2.414A3.485,3.485,0,0,0,16.137-2.2,3.909,3.909,0,0,0,18.047-1.734ZM35.414,1.9a.839.839,0,0,1-.937-.961,1.23,1.23,0,0,1,.656-.984,6.169,6.169,0,0,0,3-4.312q-1.852.961-2.742,1.371a4.2,4.2,0,0,1-1.1.41q-.82,0-.82-.937,0-.633,1.289-1.148V-15.258a2.4,2.4,0,0,1,.387-1.43,2.171,2.171,0,0,1,1.254-.773,10.379,10.379,0,0,0,2.133-.867,5.23,5.23,0,0,1,1.313-.586q.984,0,.984.938,0,.8-3.586,2.086a1.016,1.016,0,0,0-.8.914V-5.32l1.875-.8q.094-.961.117-2.332t.023-3.457v-1.922a1.391,1.391,0,0,1,.211-.855.754.754,0,0,1,.633-.27q.867,0,.867.961v1.711a59.034,59.034,0,0,1-.4,8.039A8.2,8.2,0,0,1,37.922.117Q36.375,1.9,35.414,1.9Zm-2.953.422q-.773,0-.773-.914V-2.2A13.921,13.921,0,0,1,27.328-.68q-.867,0-.867-.961,0-.7,1.359-1.055V-16.453h-.586q-.8,0-.8-.844,0-.867.8-.867h6.609a.746.746,0,0,1,.844.844.756.756,0,0,1-.844.867h-.609V1.406Q33.234,2.32,32.461,2.32ZM42.094,2.3q-.891,0-.891-.984V-16.055a1.606,1.606,0,0,1,1.828-1.8h2.18a1.616,1.616,0,0,1,1.828,1.828V-2.32A2.245,2.245,0,0,1,46.523-.68a2.016,2.016,0,0,1-1.617.445h-.7q-.8,0-.8-.891,0-.914.8-.914h.539q.539,0,.586-.586V-15.609q0-.492-.539-.539H43.523q-.492,0-.539.539V1.313Q42.984,2.3,42.094,2.3ZM31.688-13.219v-3.234H29.461v3.234Zm0,4.781v-3.094H29.461v3.094Zm0,4.641V-6.75H29.461v3.656Z" transform="translate(1723.88 987.482)" fill="#454c53"/>
    </g>
  </g>
</svg>
