<svg id="Group_293" data-name="Group 293" xmlns="http://www.w3.org/2000/svg" width="30.438" height="24.665" viewBox="0 0 30.438 24.665">
  <path id="Path_477" data-name="Path 477" d="M437.62,581.251h-8.241a.234.234,0,0,0-.215.154.281.281,0,0,0,.039.28l4.091,5.055a.225.225,0,0,0,.354,0l4.148-5.056a.28.28,0,0,0,.041-.281A.237.237,0,0,0,437.62,581.251Z" transform="translate(-423.688 -581.251)" fill="#ffcb05"/>
  <path id="Path_478" data-name="Path 478" d="M433.023,587.96h-8.429a.235.235,0,0,0-.215.152.279.279,0,0,0,.037.279l12.727,16.137a.221.221,0,0,0,.292.059.271.271,0,0,0,.115-.3l-4.3-16.137A.242.242,0,0,0,433.023,587.96Z" transform="translate(-423.647 -581.308)" fill="#ffcb05"/>
  <path id="Path_479" data-name="Path 479" d="M448.539,581.251h-8.566a.237.237,0,0,0-.218.158.282.282,0,0,0,.046.283l4.394,5.066a.228.228,0,0,0,.175.081.233.233,0,0,0,.174-.087c.828-1.022,3.08-3.791,4.168-5.061a.285.285,0,0,0,.046-.283A.24.24,0,0,0,448.539,581.251Z" transform="translate(-423.778 -581.251)" fill="#ffcb05"/>
  <path id="Path_480" data-name="Path 480" d="M453.537,587.962h-8.77a.242.242,0,0,0-.229.192L440.5,604.4a.27.27,0,0,0,.117.3.223.223,0,0,0,.292-.06l12.809-16.242a.281.281,0,0,0,.036-.279A.235.235,0,0,0,453.537,587.962Z" transform="translate(-423.784 -581.308)" fill="#ffcb05"/>
  <path id="Path_481" data-name="Path 481" d="M438.788,581.661a.225.225,0,0,0-.172.086l-4.174,5.084a.281.281,0,0,0-.041.28.238.238,0,0,0,.217.155H443.2a.237.237,0,0,0,.218-.158.281.281,0,0,0-.047-.282l-4.409-5.085A.227.227,0,0,0,438.788,581.661Z" transform="translate(-423.732 -581.255)" fill="#616e7d"/>
  <path id="Path_482" data-name="Path 482" d="M449.612,581.661a.231.231,0,0,0-.174.086l-4.173,5.084a.279.279,0,0,0-.041.28.238.238,0,0,0,.217.155h8.583a.236.236,0,0,0,.217-.158.276.276,0,0,0-.046-.282l-4.409-5.085A.226.226,0,0,0,449.612,581.661Z" transform="translate(-423.824 -581.255)" fill="#616e7d"/>
  <path id="Path_483" data-name="Path 483" d="M428.049,581.661a.227.227,0,0,0-.173.086l-4.174,5.084a.277.277,0,0,0-.041.28.237.237,0,0,0,.216.155h8.583a.237.237,0,0,0,.219-.158.281.281,0,0,0-.048-.282l-4.408-5.085A.227.227,0,0,0,428.049,581.661Z" transform="translate(-423.641 -581.255)" fill="#616e7d"/>
  <path id="Path_484" data-name="Path 484" d="M434.409,587.995a.233.233,0,0,0-.19.1.274.274,0,0,0-.038.229l4.65,17.458a.232.232,0,0,0,.456,0l4.341-17.457a.289.289,0,0,0-.039-.227.234.234,0,0,0-.189-.1Z" transform="translate(-423.73 -581.308)" fill="#ffcb05"/>
</svg>
