<svg id="bc050b60-1e78-498a-abd3-4d4979c0e959" data-name="a3e04f90-579d-479e-9d13-d6742a195abb" xmlns="http://www.w3.org/2000/svg" xmlns:xlink="http://www.w3.org/1999/xlink" viewBox="0 0 171.34 113.4"><defs><style>.b350e96e-8076-4c99-9d12-d491eb3c30fe,.b72d3410-d59f-4900-a60c-9858ed876950,.f2cff2f0-5334-473d-bba4-5d9392bbb480{fill:none;}.a399cbac-6139-4694-91e8-a406a768a1dd{isolation:isolate;}.bcef7089-446c-400b-9502-13398fb6c9ea{fill:#454c53;}.f38dbf6e-3bac-4a69-8eb6-37ca797ada47{fill:url(#a7b6965a-78a8-4fbe-94a5-80fb73cab6ab);}.b8e3399c-c476-471c-a8aa-0d4183d1b331{fill:url(#e230bb81-f07c-446e-8c32-7a9c6861fe49);}.e7f91723-1b27-4620-b4b5-7cd7e1fd8154{fill:url(#f4673794-f73b-4e4c-abd1-3a60d7eec236);}.ab03285a-98ec-4d63-b448-aef41d83da55{fill:#c79be7;}.e96043e6-b24f-4050-b803-cac192788233{fill:url(#b2cd6545-28dd-40ec-82ae-a6f1e9c6bbc1);}.a518e2a5-0923-43f9-a9dd-0fe1a7b0e982{fill:url(#a9df0b6f-f06e-49b9-a627-df74e51fa77f);}.edb86643-bfc9-4e0f-9aa1-fa9101f5e253,.efd83a5b-d829-4036-8c84-34013653523a{fill:#f29440;}.b350e96e-8076-4c99-9d12-d491eb3c30fe{stroke:#454c53;stroke-width:3px;}.b350e96e-8076-4c99-9d12-d491eb3c30fe,.b72d3410-d59f-4900-a60c-9858ed876950,.efd83a5b-d829-4036-8c84-34013653523a{stroke-linecap:round;}.b350e96e-8076-4c99-9d12-d491eb3c30fe,.b72d3410-d59f-4900-a60c-9858ed876950{stroke-miterlimit:10;}.b72d3410-d59f-4900-a60c-9858ed876950,.efd83a5b-d829-4036-8c84-34013653523a{stroke:#f29440;}.efd83a5b-d829-4036-8c84-34013653523a{stroke-linejoin:round;stroke-width:2px;}.a5a495dd-71dd-4ef6-8582-ee840bbafaf9{clip-path:url(#b0c17592-ffca-4eb3-9344-fc55f834dd26);}.ee8439b9-35ab-4b85-9d4c-be0639324cf3{fill:#ffea8a;}.aea9b5b9-e1de-4de7-99a9-0ed9c4f3cb83{fill:url(#ed473713-4a13-4368-ba94-3efa2ec49106);}.b72d3410-d59f-4900-a60c-9858ed876950{stroke-width:0.75px;}</style><linearGradient id="a7b6965a-78a8-4fbe-94a5-80fb73cab6ab" x1="-792.73" y1="916.89" x2="-792.7" y2="917.27" gradientTransform="translate(13163.75 -21417.31) scale(16.5 23.47)" gradientUnits="userSpaceOnUse"><stop offset="0" stop-color="#f26f40"/><stop offset="1" stop-color="#f29440"/></linearGradient><linearGradient id="e230bb81-f07c-446e-8c32-7a9c6861fe49" x1="-801.37" y1="917.39" x2="-801.27" y2="918.08" gradientTransform="translate(15330.59 -21052.89) scale(19.01 23.05)" xlink:href="#a7b6965a-78a8-4fbe-94a5-80fb73cab6ab"/><linearGradient id="f4673794-f73b-4e4c-abd1-3a60d7eec236" x1="-802.54" y1="917.16" x2="-802.94" y2="917.66" gradientTransform="translate(15733.82 -21348.35) scale(19.52 23.29)" gradientUnits="userSpaceOnUse"><stop offset="0" stop-color="#666c72"/><stop offset="1" stop-color="#454c53"/></linearGradient><linearGradient id="b2cd6545-28dd-40ec-82ae-a6f1e9c6bbc1" x1="-843.31" y1="906.13" x2="-843.09" y2="906.83" gradientTransform="translate(63243.63 -26502.46) scale(74.89 29.34)" gradientUnits="userSpaceOnUse"><stop offset="0" stop-color="#f2564d"/><stop offset="1" stop-color="#f29440"/></linearGradient><linearGradient id="a9df0b6f-f06e-49b9-a627-df74e51fa77f" x1="-847.71" y1="880.32" x2="-847.27" y2="880.9" gradientTransform="translate(89810.45 -64292.84) scale(105.89 73.08)" gradientUnits="userSpaceOnUse"><stop offset="0" stop-color="#ffe363"/><stop offset="1" stop-color="#ffcb05"/></linearGradient><clipPath id="b0c17592-ffca-4eb3-9344-fc55f834dd26" transform="translate(-13.35 -8.3)"><path class="f2cff2f0-5334-473d-bba4-5d9392bbb480" d="M131.54,64c1.74,14.49-15,32.86-45.31,39.6C62.35,109,35.14,97.72,27.6,76.84,20.68,57.7,33.7,28.46,61.88,32.19S86.6,71,96.7,65.14,129.58,47.82,131.54,64Z"/></clipPath><linearGradient id="ed473713-4a13-4368-ba94-3efa2ec49106" x1="-806.11" y1="963.06" x2="-805.11" y2="963.06" gradientTransform="translate(9832.73 -12099.68) scale(12.66)" gradientUnits="userSpaceOnUse"><stop offset="0" stop-color="#ffcb05"/><stop offset="0.58" stop-color="#ffea8a"/></linearGradient></defs><g id="b97a7258-e7da-4939-8b26-412dd671faaa" data-name="aeaa68ad-f2af-4e57-a8f4-361ba1fac653"><g class="a399cbac-6139-4694-91e8-a406a768a1dd"><path class="bcef7089-446c-400b-9502-13398fb6c9ea" d="M105.78,28.67a4.69,4.69,0,0,1,1.38.15,1.14,1.14,0,0,1,.63.52,3.42,3.42,0,0,1,.27,1.49v9.29a6.28,6.28,0,0,1-1.83,4.45,6.1,6.1,0,0,1-4.65,1.93,5.5,5.5,0,0,1-2.81-.7,6,6,0,0,1-1.54-1.08L97,44.53A2.47,2.47,0,0,1,96.2,43a2.36,2.36,0,0,1,.84-1.5,2.3,2.3,0,0,1,1.49-.87,2.21,2.21,0,0,1,1.44.8,2.43,2.43,0,0,0,1.71.79,2,2,0,0,0,1.53-.63,2.26,2.26,0,0,0,.6-1.65V31a2.5,2.5,0,0,1,.48-1.85A2.28,2.28,0,0,1,105.78,28.67Z" transform="translate(-13.35 -8.3)"/><path class="bcef7089-446c-400b-9502-13398fb6c9ea" d="M111.63,35.2a6.59,6.59,0,0,1,4.61-1.88,6.49,6.49,0,0,1,4.58,1.86,6.59,6.59,0,0,1,1,8.28,6.3,6.3,0,0,1-2.5,2.28,6.83,6.83,0,0,1-3.06.74,6.58,6.58,0,0,1-3.08-.78,6.79,6.79,0,0,1-2.5-2.31,6,6,0,0,1-1-3.44A6.2,6.2,0,0,1,111.63,35.2Zm3,6.46a2.5,2.5,0,0,0,1.56.59,2.63,2.63,0,0,0,1.59-.6,2.41,2.41,0,0,0,0-3.53,2.57,2.57,0,0,0-1.6-.57,2.5,2.5,0,0,0-1.61.6,2.12,2.12,0,0,0-.75,1.76A2.06,2.06,0,0,0,114.63,41.66Z" transform="translate(-13.35 -8.3)"/><path class="bcef7089-446c-400b-9502-13398fb6c9ea" d="M128.32,31.27a1,1,0,0,1-.63.49,5,5,0,0,1-2.43,0,1,1,0,0,1-.63-.5,2.21,2.21,0,0,1-.22-.64c0-.18,0-.46,0-.82s0-.65,0-.83a1.85,1.85,0,0,1,.21-.61c.22-.44.84-.65,1.87-.65s1.61.21,1.82.65a1.81,1.81,0,0,1,.23.63,8.63,8.63,0,0,1,0,1.66A1.86,1.86,0,0,1,128.32,31.27Zm-3.94,4.45c0-.36,0-.64,0-.82a2.16,2.16,0,0,1,.21-.64c.22-.42.84-.62,1.87-.62a2.54,2.54,0,0,1,1.63.4,1.33,1.33,0,0,1,.43,1,6,6,0,0,1,0,.69v8.4a7.68,7.68,0,0,1,0,.83,1.85,1.85,0,0,1-.23.64c-.21.41-.82.62-1.85.62s-1.62-.22-1.84-.65a2.26,2.26,0,0,1-.21-.62q0-.27,0-.84Z" transform="translate(-13.35 -8.3)"/><path class="bcef7089-446c-400b-9502-13398fb6c9ea" d="M137.53,33.61a5,5,0,0,1,4,1.84,6.54,6.54,0,0,1,1.6,4.47v4.23a5.81,5.81,0,0,1,0,.83,2,2,0,0,1-.2.61c-.22.43-.85.65-1.87.65s-1.8-.3-2-.89a3.82,3.82,0,0,1-.14-1.23V39.9a2,2,0,0,0-.57-1.54,2.34,2.34,0,0,0-3.05,0,2,2,0,0,0-.58,1.51v4.25a7.83,7.83,0,0,1,0,.83,1.66,1.66,0,0,1-.23.61c-.21.43-.82.65-1.85.65s-1.62-.22-1.84-.65a2.16,2.16,0,0,1-.21-.64c0-.18,0-.46,0-.83V35.63q0-.52,0-.81a1.86,1.86,0,0,1,.23-.61c.22-.4.84-.6,1.85-.6s1.57.19,1.8.55a1.94,1.94,0,0,1,.24,1,2.53,2.53,0,0,1,.43-.48,4,4,0,0,1,.65-.51A3.18,3.18,0,0,1,137.53,33.61Z" transform="translate(-13.35 -8.3)"/><path class="bcef7089-446c-400b-9502-13398fb6c9ea" d="M152.07,33.61a5.08,5.08,0,0,1,4,1.84,6.58,6.58,0,0,1,1.59,4.47v4.23c0,.37,0,.64,0,.83a2,2,0,0,1-.21.61c-.22.43-.84.65-1.87.65s-1.79-.3-2-.89a4.13,4.13,0,0,1-.14-1.23V39.9a2.08,2.08,0,0,0-.56-1.54,2.11,2.11,0,0,0-1.52-.55,2.07,2.07,0,0,0-1.53.58,2,2,0,0,0-.59,1.51v4.25a5.81,5.81,0,0,1,0,.83,1.82,1.82,0,0,1-.22.61c-.21.43-.83.65-1.85.65s-1.63-.22-1.85-.65a2.11,2.11,0,0,1-.2-.64,5.72,5.72,0,0,1,0-.83V35.63a5.67,5.67,0,0,1,0-.81,1.62,1.62,0,0,1,.22-.61c.23-.4.84-.6,1.85-.6s1.58.19,1.8.55a1.94,1.94,0,0,1,.24,1,2.53,2.53,0,0,1,.43-.48,4.49,4.49,0,0,1,.65-.51A3.23,3.23,0,0,1,152.07,33.61Z" transform="translate(-13.35 -8.3)"/><path class="bcef7089-446c-400b-9502-13398fb6c9ea" d="M166.62,33.61a5.06,5.06,0,0,1,4,1.84,6.59,6.59,0,0,1,1.6,4.47v4.23a7.83,7.83,0,0,1,0,.83,2,2,0,0,1-.2.61c-.23.43-.85.65-1.88.65s-1.79-.3-2-.89a3.77,3.77,0,0,1-.15-1.23V39.9a2.08,2.08,0,0,0-.56-1.54,2.11,2.11,0,0,0-1.51-.55,2.07,2.07,0,0,0-1.54.58,2,2,0,0,0-.59,1.51v4.25c0,.37,0,.64,0,.83a1.86,1.86,0,0,1-.23.61c-.21.43-.83.65-1.85.65s-1.62-.22-1.85-.65a2.11,2.11,0,0,1-.2-.64,5.72,5.72,0,0,1,0-.83V35.63a5.67,5.67,0,0,1,0-.81,1.66,1.66,0,0,1,.23-.61c.22-.4.84-.6,1.84-.6s1.58.19,1.81.55a2,2,0,0,1,.23,1,2.69,2.69,0,0,1,.44-.48,4.45,4.45,0,0,1,.64-.51A3.24,3.24,0,0,1,166.62,33.61Z" transform="translate(-13.35 -8.3)"/><path class="bcef7089-446c-400b-9502-13398fb6c9ea" d="M180.44,42.6a1.28,1.28,0,0,1,.73-.64,5.28,5.28,0,0,1,1.54-.16,2.13,2.13,0,0,1,1.51.45,2,2,0,0,1,.47,1.44v.39a8.12,8.12,0,0,1,0,.85,2.08,2.08,0,0,1-.23.66c-.25.46-.87.69-1.83.69a2.81,2.81,0,0,1-1.92-.46A2.59,2.59,0,0,1,180.2,44,3.17,3.17,0,0,1,180.44,42.6Zm3.21-2.8a6.26,6.26,0,0,1-2.44,0,1,1,0,0,1-.64-.43,1.79,1.79,0,0,1-.22-.55,6.61,6.61,0,0,1,0-.74V30.47a7,7,0,0,1,0-.76,1.58,1.58,0,0,1,.23-.56,1.1,1.1,0,0,1,.65-.45,4.87,4.87,0,0,1,1.22-.13,5,5,0,0,1,1.23.13,1,1,0,0,1,.63.46,1.69,1.69,0,0,1,.22.58,6.3,6.3,0,0,1,0,.75V38.1a6,6,0,0,1,0,.74,1.35,1.35,0,0,1-.23.54A1,1,0,0,1,183.65,39.8Z" transform="translate(-13.35 -8.3)"/></g></g><g id="e2935062-65c7-46c7-9df5-b9ab756e6813" data-name="bd71c836-6426-44ac-bd43-da68c40bdb9c"><g id="a9fab173-82f3-4cfd-9bfb-970dff88b5a7" data-name="f202553e-4e7d-4891-8c36-cc099a5d2405"><g id="ebc25159-65c7-4162-8910-548fd4361ed7" data-name="a123e98b-8e28-47ba-aed1-07535d4ab30f"><g id="f7e41972-1c0c-405b-8a69-ef60f589adc3" data-name="af60623f-d0d4-41cc-bb11-155495ba06cd"><g id="e5dfd11e-10b5-4397-bae5-e3420c47a247" data-name="bc8ae48d-969a-4129-92fd-0d52b570cbd9"><path id="efbce69f-e4f7-4e6f-8157-59f6a12e99a0" data-name="ad60f46e-00dd-4f71-ae13-7b849f5dc48c" class="f38dbf6e-3bac-4a69-8eb6-37ca797ada47" d="M77.34,97.58a33.71,33.71,0,0,0,2.16,8.27,16.19,16.19,0,0,0,2.34,4.05,4.94,4.94,0,0,0,2.5,1.55c.6-.27,1.23-.48,1.8-.73,1.1-.47,2.39-1.71,3.63-1.5a1.29,1.29,0,0,1,1.1,1.39c0,1.42-1.82,2.34-3,2.77H88c1.1.2,2.18-.25,3.25,0a1.12,1.12,0,0,1,1,1.24v0a1,1,0,0,1-.2.5c-1.29,1.89-4.38,1.16-6.39-.14a8.32,8.32,0,0,0,.6.94A14.55,14.55,0,0,0,89,118.24a1.29,1.29,0,0,1,.22,1.8,1.31,1.31,0,0,1-1.14.48c-2.72-.39-4.5-3.2-4.82-5.86-2.53-.6-4.6-3.8-5.6-5.85-1.6-3.3-2.51-7.8-1.45-11.37C76.34,96.84,77.26,97,77.34,97.58Z" transform="translate(-13.35 -8.3)"/><path id="aa58c446-e940-4486-a3a4-8542483c2e29" data-name="b1a4d11a-6458-49a4-96fa-0b60c045bc9a" class="b8e3399c-c476-471c-a8aa-0d4183d1b331" d="M89.92,98.73c.14-.22.46-.06.44.18-.21,3,1,5.66,2.35,8.3a9.91,9.91,0,0,0,7.45,5.5h.06A4.6,4.6,0,0,0,102,112c.93-.68,1.3-1.85,2.22-2.55a1.2,1.2,0,0,1,1.68.23,1.18,1.18,0,0,1,.23.54c.22,1.91-1.31,3.71-3.16,4.48,1.56.07,3.27-.34,4.57.41a1.13,1.13,0,0,1,.23,1.58h0c-1.18,1.46-3.8,1.27-5.68.24.59.8,1.31,1.46,1.94,2.22,1.2,1.46-.78,3.24-2.24,2.26a9,9,0,0,1-3.31-5.93c-3-.23-5.77-3.56-7.14-5.79C89.52,106.79,87.84,101.87,89.92,98.73Z" transform="translate(-13.35 -8.3)"/></g><path id="e80c547e-40cc-40a7-8ca0-56be8cacbf97" data-name="adbb5dd1-1d99-4669-aba5-5073fe3b7ed3" class="e7f91723-1b27-4620-b4b5-7cd7e1fd8154" d="M58.81,33.53a7.06,7.06,0,0,1,1.45-.14,6.2,6.2,0,0,1,3.38.91C68.55,29,74.24,22.66,74.12,19c-.15-4.33-2.14-5.26-4-4.34-4.22,2.08-5.49,5.79-6.71,10a19.78,19.78,0,0,0-.71,1.95,76.94,76.94,0,0,0-.49-11.15c-.47-3.55-3-6.27-5.9-2.8-3.31,4-1,11,.38,15.25C57,28.78,58,31.49,58.81,33.53Z" transform="translate(-13.35 -8.3)"/><path id="be418de7-b4cf-4d32-a096-af4b324c6878" data-name="b016b723-c19b-4581-b9ce-1e3b4f7c210e" class="ab03285a-98ec-4d63-b448-aef41d83da55" d="M54,8.46h-.07c0-.06.06-.1.08-.15S54,8.42,54,8.46Z" transform="translate(-13.35 -8.3)"/><g id="ebd0efd7-5c6c-40a7-970a-4ba8da21fa4d" data-name="b8bb66c2-9a4b-43b1-9bb6-58a194928ed5"><path id="b707b214-cc44-4a47-bbc2-59aeb5c97416" data-name="e42a2bb3-4470-4961-bc3f-facffe14be1d" class="e96043e6-b24f-4050-b803-cac192788233" d="M102.55,77.9s40.93-4.78,26,13.29-42,17.81-66.11,11.89,39-25.18,39-25.18" transform="translate(-13.35 -8.3)"/><path id="a6456e33-9d2d-4fb2-ba51-b9e629d73d30" data-name="b5cd231d-1b02-4101-b1f8-e699d62bd2ba" class="a518e2a5-0923-43f9-a9dd-0fe1a7b0e982" d="M131.54,64c1.74,14.49-15,32.86-45.31,39.6C62.35,109,35.14,97.72,27.6,76.84,20.68,57.7,33.7,28.46,61.88,32.19S86.6,71,96.7,65.14,129.58,47.82,131.54,64Z" transform="translate(-13.35 -8.3)"/><path id="f00c39ff-7e61-4f60-bd10-dcee17afd912" data-name="b56bea77-9cfa-4c19-b6ad-5131ab3bf8d9" class="edb86643-bfc9-4e0f-9aa1-fa9101f5e253" d="M95.91,89.42a10.37,10.37,0,0,0-4.46.41,1.09,1.09,0,0,0-.74,1.37h0a1.09,1.09,0,0,0,.74.75,10.21,10.21,0,0,0,4.46.4,1.54,1.54,0,0,0,1-1.91A1.56,1.56,0,0,0,95.91,89.42Z" transform="translate(-13.35 -8.3)"/><path id="a8921b0b-65fd-4a6f-9dcc-af096a277ecf" data-name="fe24eeb6-713a-4aac-a4bb-c56fa56d299c" class="edb86643-bfc9-4e0f-9aa1-fa9101f5e253" d="M91.74,82.58c-1.91.13-3.63.89-5.59.59-.81-.13-1.49,1-.61,1.44,2,1,4.84,1.67,6.88.48a1.34,1.34,0,0,0,.45-1.85h0A1.41,1.41,0,0,0,91.74,82.58Z" transform="translate(-13.35 -8.3)"/><path id="bb170ae7-644b-4d81-b35b-e86a0974b7ae" data-name="fa66dc1f-4464-47d2-bd47-a5f920e8fbfc" class="edb86643-bfc9-4e0f-9aa1-fa9101f5e253" d="M99.68,72.76c-1.08.58-1.77,1.74-3,2.14a1,1,0,0,0-.63,1.18,1,1,0,0,0,.63.63,4.54,4.54,0,0,0,5-1.89,1.52,1.52,0,0,0-.6-2.06A1.51,1.51,0,0,0,99.68,72.76Z" transform="translate(-13.35 -8.3)"/><path id="acf20db4-7c8d-41b6-bcf4-e17d3f2efbab" data-name="b2026b9c-bc7b-4be9-8a0f-0995eb8d90d4" class="edb86643-bfc9-4e0f-9aa1-fa9101f5e253" d="M105.27,80.18a14,14,0,0,0-1.93.88,3.78,3.78,0,0,1-2,.09c-1.12-.18-2,1.39-.83,2,1.92.94,4.7,1.47,6.24-.46a1.5,1.5,0,0,0-.06-2.11A1.47,1.47,0,0,0,105.27,80.18Z" transform="translate(-13.35 -8.3)"/><path id="f1d449ba-f4ec-4f45-b780-8ae6ad3dc045" data-name="a224812e-197c-4654-b3d8-63c4a320d5c3" class="edb86643-bfc9-4e0f-9aa1-fa9101f5e253" d="M107.19,88.32c-1.62.29-3.06,1.23-4.72,1.51-1.33.22-.83,2,.3,2.16a10.32,10.32,0,0,0,5.65-.76C110.14,90.38,108.86,88,107.19,88.32Z" transform="translate(-13.35 -8.3)"/><path id="a1402f04-48c0-4125-b18c-80cf5aebd357" data-name="e510c6c7-ed86-4b29-a658-c248927410d8" class="edb86643-bfc9-4e0f-9aa1-fa9101f5e253" d="M117.78,75.08a11.53,11.53,0,0,1-1.32,2,7,7,0,0,1-.95.93c-.2.17-.27.44-.43.64a1.54,1.54,0,0,1-.57.41c-.92.51-.27,1.8.68,1.62.44-.09.87-.21,1.32-.27a3.81,3.81,0,0,0,1.86-1,5.77,5.77,0,0,0,2-3.23C120.73,74.66,118.55,73.59,117.78,75.08Z" transform="translate(-13.35 -8.3)"/><path id="f24fcf15-71db-4238-bb7d-a3d87d1f17ad" data-name="b956ae35-46ee-4f81-a6d7-3dde28084a0f" class="edb86643-bfc9-4e0f-9aa1-fa9101f5e253" d="M112.61,67c-.51.91-.79,1.88-1.36,2.76s-1.27,1.72-1.8,2.66.82,2.09,1.56,1.2c1.53-1.81,4.07-3.32,4.16-5.92a1.39,1.39,0,0,0-1.44-1.34A1.42,1.42,0,0,0,112.61,67Z" transform="translate(-13.35 -8.3)"/><path id="f82543bd-d752-4869-96ce-ebd4e19b45f3" data-name="e37370aa-02b8-475a-8399-ef409c62ca2d" class="edb86643-bfc9-4e0f-9aa1-fa9101f5e253" d="M123.14,61.35c-2,.55-2.36,3.49-2.13,5.17.12.92,1.6,1.35,1.79.24a5.61,5.61,0,0,1,.63-1.86c.39-.7,1.17-1.09,1.33-1.92a1.34,1.34,0,0,0-1-1.62h0A1.62,1.62,0,0,0,123.14,61.35Z" transform="translate(-13.35 -8.3)"/></g><g id="a474f04b-94a9-4d5d-9f4f-2e13a0927cfe" data-name="b3f4d406-3b1b-4bcd-8623-fdc32decc994"><path id="fb596c61-8c6b-4ff0-b9d0-1a429b8f3c5a" data-name="ac07f449-39ab-499e-951d-962a3ff1ed99" class="bcef7089-446c-400b-9502-13398fb6c9ea" d="M38.11,47c-4.5,0-4.5,7.33,0,7.33A3.67,3.67,0,0,0,38.62,47h-.51Z" transform="translate(-13.35 -8.3)"/></g><g id="ed2ae956-895b-412e-99d6-3c594dcf3c12" data-name="e74ae710-0ac0-4637-8e59-4a1e65df582a"><path id="bdf63dea-8fb7-4da9-b93c-5f29098661b4" data-name="ff1a0145-c080-494e-8c08-5afe0f5f02ea" class="bcef7089-446c-400b-9502-13398fb6c9ea" d="M60.49,48c-4.49,0-4.49,7.32,0,7.32A3.67,3.67,0,0,0,61,48Z" transform="translate(-13.35 -8.3)"/></g><line id="b5cfe0c5-f4db-4dbf-814e-4e4776ba7daa" data-name="e0c07c5e-80df-41e3-b509-08de32bfd73d" class="b350e96e-8076-4c99-9d12-d491eb3c30fe" x1="30.63" y1="37.64" x2="20.41" y2="32.28"/><line id="a53162a2-2e43-4bdc-be6f-49761bb5c212" data-name="b7a2c126-ed6c-43b0-a8de-e137c88fe9c4" class="b350e96e-8076-4c99-9d12-d491eb3c30fe" x1="42.36" y1="37.96" x2="52.54" y2="34.23"/><path id="aa9542eb-6e71-45ff-8f53-e4066fbf64f7" data-name="b3d7a716-2e57-41dd-8439-e86fefc23622" class="efd83a5b-d829-4036-8c84-34013653523a" d="M28.88,60.82c-3.55-.94-14.53,1.27-14.53,1.27l10.88,6L22,73.52s7.19-2.59,9.28-4.49C33,67.45,34,62.19,28.88,60.82Z" transform="translate(-13.35 -8.3)"/><g id="a492fc30-d72d-482d-828d-d516b34cb14d" data-name="f1af7fe1-525b-47a9-9191-da4d80a3b4ba"><g class="a5a495dd-71dd-4ef6-8582-ee840bbafaf9"><g id="f3cac359-a68c-4fb0-8565-4bf7a1e49ebc" data-name="bc1decb1-6211-4219-955b-028f04ecce27"><path id="fc5b18ae-493d-4c19-bbe2-a237cfc8c00e" data-name="a2160ec4-5f33-44db-b2d7-2d4d2c507879" class="ee8439b9-35ab-4b85-9d4c-be0639324cf3" d="M31.31,84.83c10.75,15.72,33.9,23.52,54.58,18.93.88-.2,1.74-.4,2.6-.62C76.14,86.33,51.89,81.23,31.31,84.83Z" transform="translate(-13.35 -8.3)"/></g></g></g><g id="ac306113-5c0b-419c-b13f-d776db33b527" data-name="a74ae729-143c-40a0-b906-013a9501bf5f"><circle id="e254a815-9c3d-4b8e-8652-bf336a20ba47" data-name="b365900f-9fef-497f-947e-9211476cf05d" class="aea9b5b9-e1de-4de7-99a9-0ed9c4f3cb83" cx="45.72" cy="92.64" r="6.33"/><g id="a00e8266-235f-4bf1-a7fc-2c9ee72269b4" data-name="bc1f9349-c08c-4af7-bfb7-9420ac110d8f"><path id="aeb9fef0-b4b6-40bf-872a-1691d0cc6571" data-name="bd1fe724-233b-4d85-9ffa-63281078048a" class="b72d3410-d59f-4900-a60c-9858ed876950" d="M55.87,103.21a4.68,4.68,0,0,0,4.87-1" transform="translate(-13.35 -8.3)"/><path id="ec747fb8-6798-4650-8f34-30c686638051" data-name="bd4a3fb2-509c-46a2-8038-7b63c476b955" class="b72d3410-d59f-4900-a60c-9858ed876950" d="M57.4,100.41a4.68,4.68,0,0,0,2.1,4.5" transform="translate(-13.35 -8.3)"/></g></g></g></g></g></g></svg>