<svg xmlns="http://www.w3.org/2000/svg" xmlns:xlink="http://www.w3.org/1999/xlink" viewBox="0 0 56.95 75.61"><defs><style>.a0ba282d-89a2-43a4-a9d8-bd74b2c8c9ba,.ab4ae504-2bc6-4997-9af8-143cd7889709{fill:none;}.a0ba282d-89a2-43a4-a9d8-bd74b2c8c9ba,.a20c9880-9854-403e-9755-6faa8e1fc43d,.a3951a70-c27e-4033-8c52-81b46082d015,.a7298080-dbcc-4198-903d-1d25a31b8107,.ac06ca20-4b92-47b9-ad21-f0e499501747,.af91cc27-1774-4285-8bce-3fb89eca6001,.b2436784-b721-4ad1-a8bd-b56e6948f0b7,.b78b3f4d-2a44-4544-948d-ed7d62bc4213,.bb1d88ec-6d6b-4feb-9101-7dafae04fb96,.bc54a7ea-13f4-46aa-a403-07ec8eb8b7e1,.be63442e-2b8f-42ac-b460-21adf617b3a0,.bf6cd22e-bba9-412e-ab92-8e987c018f17,.e4e77cb0-cb33-42ed-84ea-bb194025cac1,.ebb716ff-9a3d-4b03-83c8-9e6e3662940f,.ebec5544-4b29-4413-8b27-0b0dd131a105{stroke:#fff;stroke-width:0.5px;}.a0ba282d-89a2-43a4-a9d8-bd74b2c8c9ba,.a20c9880-9854-403e-9755-6faa8e1fc43d,.a3951a70-c27e-4033-8c52-81b46082d015,.a42f8c12-cf29-4bfb-b84d-9cbe395383f9,.a7298080-dbcc-4198-903d-1d25a31b8107,.ac06ca20-4b92-47b9-ad21-f0e499501747,.af91cc27-1774-4285-8bce-3fb89eca6001,.b2436784-b721-4ad1-a8bd-b56e6948f0b7,.b78b3f4d-2a44-4544-948d-ed7d62bc4213,.bb1d88ec-6d6b-4feb-9101-7dafae04fb96,.bc54a7ea-13f4-46aa-a403-07ec8eb8b7e1,.bd6c8a1d-37d4-45ba-9997-73d6f3196257,.be63442e-2b8f-42ac-b460-21adf617b3a0,.bf6cd22e-bba9-412e-ab92-8e987c018f17,.e4e77cb0-cb33-42ed-84ea-bb194025cac1,.ebb716ff-9a3d-4b03-83c8-9e6e3662940f,.ebec5544-4b29-4413-8b27-0b0dd131a105{stroke-miterlimit:10;}.b3299fe0-8777-47f4-9e6c-291999acd6df{isolation:isolate;}.a6e068a4-b5e2-426b-9c8f-76a8a7fc7997{fill:url(#b02793d3-37b5-4c94-b6f2-e4e7bb80b0d3);}.a47f1d7b-4be8-4385-83a7-aa3338f951f2{fill:url(#bd0cdc4a-cd73-4be5-84ee-99e731ca7428);}.a928d088-0be6-4767-ab6b-004b1cb08901{clip-path:url(#ff5382d6-28dc-423d-a238-72aeefeb622e);}.bb1d88ec-6d6b-4feb-9101-7dafae04fb96{fill:url(#a7ffa9bf-283d-4888-90b6-bc92b4e2bd20);}.a3951a70-c27e-4033-8c52-81b46082d015{fill:url(#a985c08f-5dfe-4498-9c92-5d9c1566618c);}.a7298080-dbcc-4198-903d-1d25a31b8107,.bc54a7ea-13f4-46aa-a403-07ec8eb8b7e1,.ebec5544-4b29-4413-8b27-0b0dd131a105{mix-blend-mode:screen;}.ebec5544-4b29-4413-8b27-0b0dd131a105{fill:url(#a32a1e86-91b0-4da7-9589-8ae6134e7278);}.a20c9880-9854-403e-9755-6faa8e1fc43d,.af91cc27-1774-4285-8bce-3fb89eca6001,.b78b3f4d-2a44-4544-948d-ed7d62bc4213,.be63442e-2b8f-42ac-b460-21adf617b3a0,.e4e77cb0-cb33-42ed-84ea-bb194025cac1{mix-blend-mode:multiply;}.be63442e-2b8f-42ac-b460-21adf617b3a0{fill:url(#f9837c63-8708-4a99-b5fe-d60d4f1a5951);}.bc54a7ea-13f4-46aa-a403-07ec8eb8b7e1{opacity:0.7;fill:url(#a3257654-c75d-4116-a2fe-451c5b6100cd);}.bf6cd22e-bba9-412e-ab92-8e987c018f17{fill:url(#ac802080-92b9-4fe4-8339-fd502221b3d7);}.ac06ca20-4b92-47b9-ad21-f0e499501747{fill:url(#bf0e79b6-24bf-46aa-a04b-264a3a5cefbf);}.ebb716ff-9a3d-4b03-83c8-9e6e3662940f{fill:url(#ff8b6f66-5298-4d2c-adbb-7d6df2f1a1a2);}.a7298080-dbcc-4198-903d-1d25a31b8107{fill:url(#f1766c6c-4b49-4ef0-b194-a08023c7e011);}.a20c9880-9854-403e-9755-6faa8e1fc43d,.af91cc27-1774-4285-8bce-3fb89eca6001,.b78b3f4d-2a44-4544-948d-ed7d62bc4213,.e4e77cb0-cb33-42ed-84ea-bb194025cac1{opacity:0.8;}.e4e77cb0-cb33-42ed-84ea-bb194025cac1{fill:url(#fe83268c-08f9-4d98-91c8-e281da7688d6);}.b2436784-b721-4ad1-a8bd-b56e6948f0b7{fill:#fff;}.af91cc27-1774-4285-8bce-3fb89eca6001{fill:url(#ffad6991-9898-4790-9cb7-8ea54fc9d9af);}.a20c9880-9854-403e-9755-6faa8e1fc43d{fill:url(#adc11325-defb-45b9-a388-b87209036ae8);}.b78b3f4d-2a44-4544-948d-ed7d62bc4213{fill:url(#b206b0c4-ac23-4870-aecc-43952c55d903);}.add1cd34-94e5-4d2d-8a82-2937da25b8bb{mix-blend-mode:luminosity;}.a42f8c12-cf29-4bfb-b84d-9cbe395383f9,.bd6c8a1d-37d4-45ba-9997-73d6f3196257,.fbca490b-107b-4925-98df-924149fb8793{stroke:#b29999;}.a42f8c12-cf29-4bfb-b84d-9cbe395383f9{fill:url(#a837df3f-0a6b-4336-8b9b-f067191465fe);}.bd6c8a1d-37d4-45ba-9997-73d6f3196257{fill:url(#b4bdeab2-4b69-471a-9c7d-566ad25304fd);}.ac00d299-b96d-4c07-9a3d-b0a31838cd14{fill:#5e4c53;}.ab4ae504-2bc6-4997-9af8-143cd7889709{stroke:#5e4c53;stroke-miterlimit:10;stroke-width:3px;}.ab4ae504-2bc6-4997-9af8-143cd7889709,.fbca490b-107b-4925-98df-924149fb8793{stroke-linecap:round;}.fbca490b-107b-4925-98df-924149fb8793{fill:#ffb03b;stroke-linejoin:round;}</style><linearGradient id="b02793d3-37b5-4c94-b6f2-e4e7bb80b0d3" x1="-13.74" y1="76.1" x2="-13.74" y2="45.06" gradientTransform="matrix(0.88, 0.48, -0.46, 0.84, 58.03, 12.44)" gradientUnits="userSpaceOnUse"><stop offset="0" stop-color="#ff1413"/><stop offset="0.13" stop-color="#ee0f0f"/><stop offset="0.39" stop-color="#c10303"/><stop offset="0.45" stop-color="#b60000"/><stop offset="0.54" stop-color="#a10000"/><stop offset="0.65" stop-color="#920000"/><stop offset="0.77" stop-color="#890000"/><stop offset="0.95" stop-color="#860000"/></linearGradient><linearGradient id="bd0cdc4a-cd73-4be5-84ee-99e731ca7428" x1="-84.36" y1="116.41" x2="-84.36" y2="85.37" gradientTransform="matrix(-0.88, 0.48, 0.46, 0.84, -79.88, 12.44)" xlink:href="#b02793d3-37b5-4c94-b6f2-e4e7bb80b0d3"/><clipPath id="ff5382d6-28dc-423d-a238-72aeefeb622e"><path class="a0ba282d-89a2-43a4-a9d8-bd74b2c8c9ba" d="M29.47,55.26c-.62,0-1.24,0-1.87-.08A21.22,21.22,0,0,1,11.12,44.77c-1.28.42-2.33.69-2.4.71a3,3,0,0,1-3.21-4.64L6.12,40,2,37.22A3,3,0,0,1,3.3,31.74c.14,0,2.51-.28,5-.35a21.18,21.18,0,0,1,18.28-18.5C26,9.68,25.49,5,28.45,2.05,30.78-.27,33,.24,33.85.57a5.36,5.36,0,0,1,3.06,3.6,9.85,9.85,0,0,1,1.42-.68A4.49,4.49,0,0,1,42.69,4c1,.76,2.25,2.33,2.08,5.53-.11,1.91-1.2,3.91-3.73,6.65A21.28,21.28,0,0,1,29.47,55.26Z"/></clipPath><linearGradient id="a7ffa9bf-283d-4888-90b6-bc92b4e2bd20" x1="-1.35" y1="-0.38" x2="55.46" y2="56.44" gradientUnits="userSpaceOnUse"><stop offset="0" stop-color="#ffd876"/><stop offset="0.08" stop-color="#fff"/><stop offset="0.19" stop-color="#ffd78c"/><stop offset="0.26" stop-color="#f2b257"/><stop offset="0.32" stop-color="#de9743"/><stop offset="0.36" stop-color="#d28636"/><stop offset="0.38" stop-color="#d18435"/><stop offset="0.47" stop-color="#ce8032"/><stop offset="0.51" stop-color="#d78d3e"/><stop offset="0.56" stop-color="#e49f4d"/><stop offset="0.68" stop-color="#ffd57c"/><stop offset="0.7" stop-color="#fdd279"/><stop offset="0.72" stop-color="#f6c871"/><stop offset="0.74" stop-color="#eab763"/><stop offset="0.76" stop-color="#da9e50"/><stop offset="0.77" stop-color="#c58037"/><stop offset="0.79" stop-color="#b46622"/><stop offset="0.81" stop-color="#b96e28"/><stop offset="0.84" stop-color="#c7843a"/><stop offset="0.89" stop-color="#dea757"/><stop offset="0.93" stop-color="#fdd97f"/><stop offset="0.94" stop-color="#ffdc82"/></linearGradient><linearGradient id="a985c08f-5dfe-4498-9c92-5d9c1566618c" x1="-8.78" y1="-7.81" x2="63.03" y2="64" gradientUnits="userSpaceOnUse"><stop offset="0.15" stop-color="#ffd876"/><stop offset="0.21" stop-color="#ffd78c"/><stop offset="0.29" stop-color="#f2b257"/><stop offset="0.33" stop-color="#de9743"/><stop offset="0.36" stop-color="#d28636"/><stop offset="0.38" stop-color="#d18435"/><stop offset="0.47" stop-color="#ce8032"/><stop offset="0.51" stop-color="#d78d3e"/><stop offset="0.56" stop-color="#e49f4d"/><stop offset="0.68" stop-color="#ffd57c"/><stop offset="0.9" stop-color="#b46622"/><stop offset="0.92" stop-color="#b96e28"/><stop offset="0.94" stop-color="#c7843a"/><stop offset="0.96" stop-color="#dea757"/><stop offset="0.99" stop-color="#fdd97f"/><stop offset="0.99" stop-color="#ffdc82"/></linearGradient><linearGradient id="a32a1e86-91b0-4da7-9589-8ae6134e7278" x1="7.19" y1="4.98" x2="53.89" y2="58.57" gradientUnits="userSpaceOnUse"><stop offset="0" stop-color="#ffd876"/><stop offset="0.06" stop-color="#fff"/><stop offset="0.19" stop-color="#ffd78c"/><stop offset="0.26" stop-color="#f2b257"/><stop offset="0.29" stop-color="#de9743"/><stop offset="0.32" stop-color="#d28636"/><stop offset="0.39" stop-color="#ce8032"/><stop offset="0.39" stop-color="#cf8133"/><stop offset="0.43" stop-color="#e9b057"/><stop offset="0.46" stop-color="#f9cd6e"/><stop offset="0.48" stop-color="#ffd876"/><stop offset="0.5" stop-color="#ffe092"/><stop offset="0.56" stop-color="#fff1cd"/><stop offset="0.59" stop-color="#fffbf1"/><stop offset="0.61" stop-color="#fff"/><stop offset="0.69" stop-color="#ffdc82"/><stop offset="0.78" stop-color="#ffd57c"/><stop offset="0.84" stop-color="#e0a757"/><stop offset="0.89" stop-color="#c07831"/><stop offset="0.92" stop-color="#b46622"/></linearGradient><radialGradient id="f9837c63-8708-4a99-b5fe-d60d4f1a5951" cx="35.45" cy="8.59" r="50.57" gradientUnits="userSpaceOnUse"><stop offset="0.38" stop-color="#fff"/><stop offset="0.58" stop-color="#ffdc82"/><stop offset="0.76" stop-color="#ffd57c"/><stop offset="0.8" stop-color="#face76"/><stop offset="0.85" stop-color="#edbb67"/><stop offset="0.92" stop-color="#d89b4d"/><stop offset="0.99" stop-color="#bb702a"/><stop offset="1" stop-color="#b46622"/></radialGradient><radialGradient id="a3257654-c75d-4116-a2fe-451c5b6100cd" cx="17.52" cy="59.52" r="61.99" gradientUnits="userSpaceOnUse"><stop offset="0.42" stop-color="#190000"/><stop offset="0.46" stop-color="#1e0503"/><stop offset="0.5" stop-color="#2d130b"/><stop offset="0.55" stop-color="#472a19"/><stop offset="0.61" stop-color="#6a4b2b"/><stop offset="0.66" stop-color="#977444"/><stop offset="0.72" stop-color="#cda761"/><stop offset="0.76" stop-color="#ffd57c"/><stop offset="0.9" stop-color="#ffdc82"/><stop offset="0.98" stop-color="#fff"/></radialGradient><linearGradient id="ac802080-92b9-4fe4-8339-fd502221b3d7" x1="13.59" y1="-3.89" x2="42.86" y2="61.11" gradientUnits="userSpaceOnUse"><stop offset="0" stop-color="#f2b257"/><stop offset="0.08" stop-color="#de9743"/><stop offset="0.14" stop-color="#d28636"/><stop offset="0.15" stop-color="#d18435"/><stop offset="0.22" stop-color="#ce8032"/><stop offset="0.31" stop-color="#d78d3e"/><stop offset="0.39" stop-color="#e49f4d"/><stop offset="0.66" stop-color="#b46622"/><stop offset="0.88" stop-color="#b46622"/><stop offset="1" stop-color="#631900"/></linearGradient><linearGradient id="bf0e79b6-24bf-46aa-a04b-264a3a5cefbf" x1="13.6" y1="-3.87" x2="42.87" y2="61.12" xlink:href="#ac802080-92b9-4fe4-8339-fd502221b3d7"/><linearGradient id="ff8b6f66-5298-4d2c-adbb-7d6df2f1a1a2" x1="-3.09" y1="-13.26" x2="55.88" y2="66.37" xlink:href="#ac802080-92b9-4fe4-8339-fd502221b3d7"/><linearGradient id="f1766c6c-4b49-4ef0-b194-a08023c7e011" x1="44.98" y1="-10.56" x2="31.5" y2="22.15" gradientUnits="userSpaceOnUse"><stop offset="0.02" stop-color="#fff"/><stop offset="0.29" stop-color="#ffdc82"/><stop offset="0.56" stop-color="#ffd57c"/><stop offset="0.59" stop-color="#cda761"/><stop offset="0.63" stop-color="#977444"/><stop offset="0.66" stop-color="#6a4b2b"/><stop offset="0.7" stop-color="#472a19"/><stop offset="0.73" stop-color="#2d130b"/><stop offset="0.76" stop-color="#1e0503"/><stop offset="0.79" stop-color="#190000"/></linearGradient><linearGradient id="fe83268c-08f9-4d98-91c8-e281da7688d6" x1="25.21" y1="53.98" x2="24.56" y2="70.34" gradientUnits="userSpaceOnUse"><stop offset="0" stop-color="#fff"/><stop offset="0.06" stop-color="#f8e6d1"/><stop offset="0.16" stop-color="#edc08a"/><stop offset="0.23" stop-color="#e7a85e"/><stop offset="0.26" stop-color="#e49f4d"/><stop offset="0.66" stop-color="#b46622"/><stop offset="0.73" stop-color="#ac5e1f"/><stop offset="0.83" stop-color="#964a16"/><stop offset="0.95" stop-color="#732807"/><stop offset="1" stop-color="#631900"/></linearGradient><linearGradient id="ffad6991-9898-4790-9cb7-8ea54fc9d9af" x1="30.85" y1="24.35" x2="44.41" y2="-5.78" xlink:href="#fe83268c-08f9-4d98-91c8-e281da7688d6"/><linearGradient id="adc11325-defb-45b9-a388-b87209036ae8" x1="-88.24" y1="239.43" x2="-74.68" y2="209.3" gradientTransform="matrix(0.53, 0.85, 0.85, -0.53, -130.49, 236.47)" xlink:href="#fe83268c-08f9-4d98-91c8-e281da7688d6"/><linearGradient id="b206b0c4-ac23-4870-aecc-43952c55d903" x1="36.55" y1="34.85" x2="18.61" y2="53.36" gradientTransform="matrix(1, -0.07, 0.07, 1, -13.89, 3.25)" xlink:href="#fe83268c-08f9-4d98-91c8-e281da7688d6"/><linearGradient id="a837df3f-0a6b-4336-8b9b-f067191465fe" x1="-244.74" y1="439.57" x2="-244.95" y2="439.3" gradientTransform="matrix(23.9, 2.09, 2.49, -28.53, 4793.06, 13056.75)" gradientUnits="userSpaceOnUse"><stop offset="0" stop-color="#7f6c72"/><stop offset="1" stop-color="#5e4c53"/></linearGradient><linearGradient id="b4bdeab2-4b69-471a-9c7d-566ad25304fd" x1="-249.68" y1="446.74" x2="-249.93" y2="447.3" gradientTransform="matrix(68.72, 6, 6, -68.72, 14512.54, 32251.35)" gradientUnits="userSpaceOnUse"><stop offset="0" stop-color="#ffcb05"/><stop offset="1" stop-color="#ffe7b7"/></linearGradient></defs><g class="b3299fe0-8777-47f4-9e6c-291999acd6df"><g id="aa4cfb8c-5875-48f0-a9d9-9626d6d2b400" data-name="圖層 1"><polygon class="a6e068a4-b5e2-426b-9c8f-76a8a7fc7997" points="15.4 42.57 2.32 66.48 13.73 64.83 18.5 75.33 31.58 51.41 15.4 42.57"/><polygon class="a47f1d7b-4be8-4385-83a7-aa3338f951f2" points="43.25 42.57 56.32 66.48 44.91 64.83 40.14 75.33 27.07 51.41 43.25 42.57"/><g class="a928d088-0be6-4767-ab6b-004b1cb08901"><path class="bb1d88ec-6d6b-4feb-9101-7dafae04fb96" d="M72,29.68A43.33,43.33,0,1,1,28.71-13.65,43.33,43.33,0,0,1,72,29.68Z"/><path class="a3951a70-c27e-4033-8c52-81b46082d015" d="M65.51,29.68A36.81,36.81,0,1,1,28.71-7.13,36.81,36.81,0,0,1,65.51,29.68Z"/><path class="ebec5544-4b29-4413-8b27-0b0dd131a105" d="M61.2,29.68A32.5,32.5,0,1,1,28.71-2.82,32.5,32.5,0,0,1,61.2,29.68Z"/><path class="be63442e-2b8f-42ac-b460-21adf617b3a0" d="M59.91,29.68A31.21,31.21,0,1,1,28.71-1.53,31.2,31.2,0,0,1,59.91,29.68Z"/><path class="bc54a7ea-13f4-46aa-a403-07ec8eb8b7e1" d="M59.91,29.68A31.21,31.21,0,1,1,28.71-1.53,31.2,31.2,0,0,1,59.91,29.68Z"/><path class="bf6cd22e-bba9-412e-ab92-8e987c018f17" d="M28.71-7.13a36.81,36.81,0,1,0,36.8,36.81A36.81,36.81,0,0,0,28.71-7.13Zm0,73A36.16,36.16,0,1,1,64.86,29.68,36.2,36.2,0,0,1,28.71,65.83Z"/><path class="ac06ca20-4b92-47b9-ad21-f0e499501747" d="M28.71-2.82A32.5,32.5,0,1,0,61.2,29.68,32.5,32.5,0,0,0,28.71-2.82Zm0,64.35A31.86,31.86,0,1,1,60.56,29.68,31.89,31.89,0,0,1,28.71,61.53Z"/><path class="ebb716ff-9a3d-4b03-83c8-9e6e3662940f" d="M28.71-13.65A43.33,43.33,0,1,0,72,29.68,43.33,43.33,0,0,0,28.71-13.65Zm0,86A42.69,42.69,0,1,1,71.39,29.68,42.74,42.74,0,0,1,28.71,72.36Z"/><path class="a7298080-dbcc-4198-903d-1d25a31b8107" d="M-4,11.55a37.44,37.44,0,0,1,69.58,25L69,37l1.28.17a43,43,0,0,0,.66-7.49A42.19,42.19,0,0,0-7.84,8.59C-6.63,9.64-5.36,10.62-4,11.55Z"/><path class="e4e77cb0-cb33-42ed-84ea-bb194025cac1" d="M57.92,53.08A37.44,37.44,0,0,1-7.24,40.18c-1.8-.63-3.59-1.3-5.37-2a42.19,42.19,0,0,0,76.3,15C61.76,53.23,59.84,53.17,57.92,53.08Z"/><path class="b2436784-b721-4ad1-a8bd-b56e6948f0b7" d="M70.23,37.17C77-8.6,15.68-29.33-7.84,8.59,14.76-32.45,79.5-8.84,70.23,37.17Z"/><path class="b2436784-b721-4ad1-a8bd-b56e6948f0b7" d="M70.23,37.17C77-8.6,15.68-29.33-7.84,8.59,14.76-32.45,79.5-8.84,70.23,37.17Z"/><path class="af91cc27-1774-4285-8bce-3fb89eca6001" d="M64.14,35.65C69.86-3.86,18.28-21.76-1.5,11,17.5-24.45,71.94-4.07,64.14,35.65Z"/><path class="b2436784-b721-4ad1-a8bd-b56e6948f0b7" d="M59.6,34.47c5-33.67-40.13-48.92-57.43-21C18.79-16.74,66.42.62,59.6,34.47Z"/><path class="b2436784-b721-4ad1-a8bd-b56e6948f0b7" d="M57,60.81C36.74,78.2,12.71,73.73-3.22,56.44-13.81,44.94-17,26.89-8.73,9.94-31.44,50.92,23,93.15,57,60.81Z"/><path class="a20c9880-9854-403e-9755-6faa8e1fc43d" d="M52.5,56.46C22.1,82.34-20.52,48.2-3.34,14-23.21,49,23,84.21,52.5,56.46Z"/><path class="b78b3f4d-2a44-4544-948d-ed7d62bc4213" d="M51.29,51.43C27,75.3-11.87,47.8.49,17.4-14.13,48.6,28,76.87,51.29,51.43Z"/></g><path class="a0ba282d-89a2-43a4-a9d8-bd74b2c8c9ba" d="M29.47,55.26c-.62,0-1.24,0-1.87-.08A21.22,21.22,0,0,1,11.12,44.77c-1.28.42-2.33.69-2.4.71a3,3,0,0,1-3.21-4.64L6.12,40,2,37.22A3,3,0,0,1,3.3,31.74c.14,0,2.51-.28,5-.35a21.18,21.18,0,0,1,18.28-18.5C26,9.68,25.49,5,28.45,2.05,30.78-.27,33,.24,33.85.57a5.36,5.36,0,0,1,3.06,3.6,9.85,9.85,0,0,1,1.42-.68A4.49,4.49,0,0,1,42.69,4c1,.76,2.25,2.33,2.08,5.53-.11,1.91-1.2,3.91-3.73,6.65A21.28,21.28,0,0,1,29.47,55.26Z"/><g id="a59b4cc7-056b-4c7e-9faa-ce2199db770e" data-name="Group 286" class="add1cd34-94e5-4d2d-8a82-2937da25b8bb"><path id="fd895256-e909-4ca7-8fec-bae21dfe9329" data-name="Path 503" class="a42f8c12-cf29-4bfb-b84d-9cbe395383f9" d="M31,17.89a4.92,4.92,0,0,1,.94,0,4.09,4.09,0,0,1,2.15.79c3.48-3.15,7.54-7,7.67-9.34.15-2.82-1.09-3.54-2.35-3-2.86,1.12-3.89,3.45-4.92,6.09a9,9,0,0,0-.57,1.22,50.42,50.42,0,0,0,.32-7.27C34.14,4,32.66,2.09,30.57,4.17c-2.37,2.38-1.29,7.11-.61,9.92C30.1,14.7,30.59,16.52,31,17.89Z"/><circle id="f3fdbe2f-66a5-4939-87b6-c166bb51b1b8" data-name="Ellipse 25" class="bd6c8a1d-37d4-45ba-9997-73d6f3196257" cx="29.45" cy="33.97" r="18.28"/><g id="b50ddcc5-8077-4905-9cb8-b0e26e8c8e63" data-name="Group 284"><path id="f50abfa0-91e6-4c0e-ad04-6c225ee3b2fb" data-name="Path 324" class="ac00d299-b96d-4c07-9a3d-b0a31838cd14" d="M17.85,25.57c-2.92-.26-3.33,4.5-.42,4.75a2.39,2.39,0,1,0,.76-4.72A2,2,0,0,0,17.85,25.57Z"/></g><g id="bb1dbc1e-f1dd-48b0-8eab-50a0e4b422a2" data-name="Group 285"><path id="ae31e7dd-47ca-4cd4-a495-b279474339c4" data-name="Path 325" class="ac00d299-b96d-4c07-9a3d-b0a31838cd14" d="M32.34,27.47c-2.92-.26-3.34,4.5-.42,4.76a2.4,2.4,0,0,0,.76-4.73Z"/></g><line id="e2c0d789-8f54-42ce-833a-f20dcace7a93" data-name="Line 109" class="ab4ae504-2bc6-4997-9af8-143cd7889709" x1="21.73" y1="25.2" x2="15.39" y2="21.14"/><line id="fbca11c7-2146-4ca5-b998-3eea066c36ca" data-name="Line 110" class="ab4ae504-2bc6-4997-9af8-143cd7889709" x1="29.32" y1="26.08" x2="36.15" y2="24.23"/><path id="f2a7601a-c545-446c-bc6f-2223073d967f" data-name="Path 504" class="fbca490b-107b-4925-98df-924149fb8793" d="M13.14,34.73c-2.25-.82-9.51,0-9.51,0l6.73,4.49L8,42.58s4.81-1.27,6.27-2.39A3.17,3.17,0,0,0,13.14,34.73Z"/></g></g></g></svg>