<svg xmlns="http://www.w3.org/2000/svg" xmlns:xlink="http://www.w3.org/1999/xlink" viewBox="0 0 56.95 75.61"><defs><style>.a7fd3351-1409-4dd1-9607-060c3ae51b7a,.f40ca807-9875-419f-a0a6-5c1fd9b23790{fill:none;}.a7fd3351-1409-4dd1-9607-060c3ae51b7a,.aaad606d-c749-4895-881a-3cb4afeffa73,.b0303f32-a38d-45d9-a50b-682cba881111,.b63f76d2-089d-4fec-9289-78503e811c4f,.b9ab5ce4-43e1-4d06-a0ec-185d6918d199,.bb023ddb-fc4a-463b-9737-10bf02e27f82,.bb1afb03-cf54-4218-9d5f-960c72c147ef,.bb47b1a0-00ae-4d4c-a6ea-c2252cb1c87e,.bdc8a1e9-7aaa-4ae1-a382-274279e93557,.beab838a-a07a-4a0b-9a84-1daa58ef0480,.bfae5c7e-02df-485b-9f28-7db9a13d2522,.ec76c9aa-b3bf-4597-a650-45eaeff342a3,.ed861105-9f5b-4d2d-b6fd-93fe25613a58,.f1285783-ccf0-4745-9c14-2fe74beebad7,.f83477f9-3ff3-4aa8-8fd0-8c1b0cca70a8{stroke:#fff;stroke-width:0.5px;}.a7fd3351-1409-4dd1-9607-060c3ae51b7a,.aaad606d-c749-4895-881a-3cb4afeffa73,.aeb8453c-7124-44e2-ab82-4326ac43f678,.b0303f32-a38d-45d9-a50b-682cba881111,.b3140744-b4ba-48e5-97f4-cc2523f15bc3,.b63f76d2-089d-4fec-9289-78503e811c4f,.b9ab5ce4-43e1-4d06-a0ec-185d6918d199,.bb023ddb-fc4a-463b-9737-10bf02e27f82,.bb1afb03-cf54-4218-9d5f-960c72c147ef,.bb47b1a0-00ae-4d4c-a6ea-c2252cb1c87e,.bdc8a1e9-7aaa-4ae1-a382-274279e93557,.beab838a-a07a-4a0b-9a84-1daa58ef0480,.bfae5c7e-02df-485b-9f28-7db9a13d2522,.ec76c9aa-b3bf-4597-a650-45eaeff342a3,.ed861105-9f5b-4d2d-b6fd-93fe25613a58,.f1285783-ccf0-4745-9c14-2fe74beebad7,.f83477f9-3ff3-4aa8-8fd0-8c1b0cca70a8{stroke-miterlimit:10;}.b32f3a98-d50d-4410-b4ca-ab7465efb92b{isolation:isolate;}.a6d22017-d8b6-4292-9823-cb56ee4558c2{fill:url(#aa641fb0-d260-4af8-8639-b50a5104c09f);}.fc015dd8-8ade-4ed8-9d84-b6f3890cc613{fill:url(#e518ca28-5cbd-4261-a503-62a0d7434596);}.f83b07f2-c501-44f8-becd-3ee82515af47{clip-path:url(#fd8cf1e4-386a-4db6-956f-d8580dc12790);}.b9ab5ce4-43e1-4d06-a0ec-185d6918d199{fill:url(#b972eed7-4812-418a-859a-71187d93e1a0);}.bb023ddb-fc4a-463b-9737-10bf02e27f82{fill:url(#a32638b9-a071-4f40-9cab-e916acfe2dc3);}.b0303f32-a38d-45d9-a50b-682cba881111,.ec76c9aa-b3bf-4597-a650-45eaeff342a3,.f1285783-ccf0-4745-9c14-2fe74beebad7{mix-blend-mode:screen;}.ec76c9aa-b3bf-4597-a650-45eaeff342a3{fill:url(#bf046700-b3d9-47b4-be37-b7a9118b6a83);}.aaad606d-c749-4895-881a-3cb4afeffa73,.bb47b1a0-00ae-4d4c-a6ea-c2252cb1c87e,.bdc8a1e9-7aaa-4ae1-a382-274279e93557,.bfae5c7e-02df-485b-9f28-7db9a13d2522,.ed861105-9f5b-4d2d-b6fd-93fe25613a58{mix-blend-mode:multiply;}.bdc8a1e9-7aaa-4ae1-a382-274279e93557{fill:url(#f4585064-88f1-43fa-a5d6-b9248f6f7a54);}.b0303f32-a38d-45d9-a50b-682cba881111{opacity:0.7;fill:url(#b6a421a0-f58d-4781-bdd0-a5ce1fcb3108);}.bb1afb03-cf54-4218-9d5f-960c72c147ef{fill:url(#ebe938fb-f598-4b71-9421-08ad9b06be43);}.beab838a-a07a-4a0b-9a84-1daa58ef0480{fill:url(#a38b91a9-ef48-44ae-a33e-b7df8f2c46ae);}.f83477f9-3ff3-4aa8-8fd0-8c1b0cca70a8{fill:url(#f3f12946-d840-45da-985e-cf8eb5375871);}.f1285783-ccf0-4745-9c14-2fe74beebad7{fill:url(#ae6220c5-b3be-49cc-a3e5-4d0442475c64);}.aaad606d-c749-4895-881a-3cb4afeffa73,.bb47b1a0-00ae-4d4c-a6ea-c2252cb1c87e,.bfae5c7e-02df-485b-9f28-7db9a13d2522,.ed861105-9f5b-4d2d-b6fd-93fe25613a58{opacity:0.8;}.aaad606d-c749-4895-881a-3cb4afeffa73{fill:url(#a1413bdb-1a4a-44b6-9ae9-5c5a1913c44a);}.b63f76d2-089d-4fec-9289-78503e811c4f{fill:#fff;}.bb47b1a0-00ae-4d4c-a6ea-c2252cb1c87e{fill:url(#afe9c39a-7a61-42c6-8e97-33adf37bc4ad);}.ed861105-9f5b-4d2d-b6fd-93fe25613a58{fill:url(#f246f6c6-13ad-4703-b963-7e5c43a3606e);}.bfae5c7e-02df-485b-9f28-7db9a13d2522{fill:url(#a5f97cdf-d978-4a64-9770-e8aae6cf0124);}.bf69f3c7-a808-4c78-9d4d-a28e912aa9bc{mix-blend-mode:luminosity;}.aeb8453c-7124-44e2-ab82-4326ac43f678,.b3140744-b4ba-48e5-97f4-cc2523f15bc3,.b706319f-e8a4-4c9a-b6d6-5b49bbe7c5b0{stroke:#a67c52;}.aeb8453c-7124-44e2-ab82-4326ac43f678{fill:url(#be9abfc9-1867-4d8a-8adc-a2de129dcfd9);}.b3140744-b4ba-48e5-97f4-cc2523f15bc3{fill:url(#a74b2a5b-c908-40f5-a02c-81ead51b08e1);}.b834cbca-b8f4-4227-a641-efb7b9b245bd{fill:#454c53;}.f40ca807-9875-419f-a0a6-5c1fd9b23790{stroke:#454c53;stroke-miterlimit:10;stroke-width:3px;}.b706319f-e8a4-4c9a-b6d6-5b49bbe7c5b0,.f40ca807-9875-419f-a0a6-5c1fd9b23790{stroke-linecap:round;}.b706319f-e8a4-4c9a-b6d6-5b49bbe7c5b0{fill:#f29440;stroke-linejoin:round;}</style><linearGradient id="aa641fb0-d260-4af8-8639-b50a5104c09f" x1="-13.76" y1="76.11" x2="-13.76" y2="45.07" gradientTransform="matrix(0.88, 0.48, -0.46, 0.84, 58.03, 12.44)" gradientUnits="userSpaceOnUse"><stop offset="0" stop-color="#1196d9"/><stop offset="0.11" stop-color="#1485ca"/><stop offset="0.34" stop-color="#1c58a3"/><stop offset="0.45" stop-color="#213f8d"/><stop offset="0.53" stop-color="#232d8b"/><stop offset="0.64" stop-color="#251e89"/><stop offset="0.77" stop-color="#261587"/><stop offset="0.95" stop-color="#261287"/></linearGradient><linearGradient id="e518ca28-5cbd-4261-a503-62a0d7434596" x1="-84.34" y1="116.39" x2="-84.34" y2="85.36" gradientTransform="matrix(-0.88, 0.48, 0.46, 0.84, -79.88, 12.44)" xlink:href="#aa641fb0-d260-4af8-8639-b50a5104c09f"/><clipPath id="fd8cf1e4-386a-4db6-956f-d8580dc12790"><path class="a7fd3351-1409-4dd1-9607-060c3ae51b7a" d="M29.49,55.26c-.62,0-1.24,0-1.87-.08A21.24,21.24,0,0,1,11.14,44.77c-1.28.42-2.32.69-2.4.71a3,3,0,0,1-3.21-4.64L6.14,40,2,37.22a3,3,0,0,1,1.33-5.48c.14,0,2.51-.28,5-.35a21.19,21.19,0,0,1,18.28-18.5C26,9.68,25.51,5,28.47,2.05,30.8-.27,33,.24,33.87.57a5.34,5.34,0,0,1,3.06,3.6,10.38,10.38,0,0,1,1.42-.68A4.49,4.49,0,0,1,42.71,4c1,.76,2.25,2.33,2.08,5.53-.1,1.91-1.2,3.91-3.73,6.65A21.27,21.27,0,0,1,29.49,55.26Z"/></clipPath><linearGradient id="b972eed7-4812-418a-859a-71187d93e1a0" x1="-3.49" y1="-0.38" x2="53.32" y2="56.43" gradientUnits="userSpaceOnUse"><stop offset="0" stop-color="#d9d9d9"/><stop offset="0.08" stop-color="#fff"/><stop offset="0.19" stop-color="#d7d7d7"/><stop offset="0.26" stop-color="#b4b4b4"/><stop offset="0.31" stop-color="#9d9d9d"/><stop offset="0.36" stop-color="#8c8c8c"/><stop offset="0.37" stop-color="#8b8b8b"/><stop offset="0.47" stop-color="#878787"/><stop offset="0.52" stop-color="#949494"/><stop offset="0.56" stop-color="#a3a3a3"/><stop offset="0.68" stop-color="#d3d3d3"/><stop offset="0.7" stop-color="#d0d0d0"/><stop offset="0.72" stop-color="#c6c6c6"/><stop offset="0.74" stop-color="#b5b5b5"/><stop offset="0.76" stop-color="#9c9c9c"/><stop offset="0.78" stop-color="#7e7e7e"/><stop offset="0.79" stop-color="#6e6e6e"/><stop offset="0.81" stop-color="#767676"/><stop offset="0.85" stop-color="#8c8c8c"/><stop offset="0.89" stop-color="#afafaf"/><stop offset="0.94" stop-color="#dadada"/></linearGradient><linearGradient id="a32638b9-a071-4f40-9cab-e916acfe2dc3" x1="-10.92" y1="-7.81" x2="60.89" y2="64" gradientUnits="userSpaceOnUse"><stop offset="0.15" stop-color="#d9d9d9"/><stop offset="0.21" stop-color="#d7d7d7"/><stop offset="0.29" stop-color="#b4b4b4"/><stop offset="0.33" stop-color="#9d9d9d"/><stop offset="0.36" stop-color="#8c8c8c"/><stop offset="0.37" stop-color="#8b8b8b"/><stop offset="0.47" stop-color="#878787"/><stop offset="0.52" stop-color="#949494"/><stop offset="0.56" stop-color="#a3a3a3"/><stop offset="0.68" stop-color="#d3d3d3"/><stop offset="0.9" stop-color="#6e6e6e"/><stop offset="0.92" stop-color="#767676"/><stop offset="0.94" stop-color="#8c8c8c"/><stop offset="0.96" stop-color="#afafaf"/><stop offset="0.99" stop-color="#dadada"/></linearGradient><linearGradient id="bf046700-b3d9-47b4-be37-b7a9118b6a83" x1="5.04" y1="4.98" x2="51.75" y2="58.57" gradientUnits="userSpaceOnUse"><stop offset="0" stop-color="#d9d9d9"/><stop offset="0.06" stop-color="#fff"/><stop offset="0.19" stop-color="#d7d7d7"/><stop offset="0.26" stop-color="#b4b4b4"/><stop offset="0.29" stop-color="#9d9d9d"/><stop offset="0.32" stop-color="#8c8c8c"/><stop offset="0.39" stop-color="#878787"/><stop offset="0.43" stop-color="#b1b1b1"/><stop offset="0.46" stop-color="#cecece"/><stop offset="0.48" stop-color="#d9d9d9"/><stop offset="0.56" stop-color="#f1f1f1"/><stop offset="0.61" stop-color="#fff"/><stop offset="0.69" stop-color="#dadada"/><stop offset="0.78" stop-color="#d3d3d3"/><stop offset="0.83" stop-color="#afafaf"/><stop offset="0.89" stop-color="gray"/><stop offset="0.92" stop-color="#6e6e6e"/></linearGradient><radialGradient id="f4585064-88f1-43fa-a5d6-b9248f6f7a54" cx="33.31" cy="8.59" r="50.57" gradientUnits="userSpaceOnUse"><stop offset="0.38" stop-color="#fff"/><stop offset="0.58" stop-color="#dadada"/><stop offset="0.76" stop-color="#d3d3d3"/><stop offset="0.8" stop-color="#ccc"/><stop offset="0.86" stop-color="#b9b9b9"/><stop offset="0.93" stop-color="#999"/><stop offset="1" stop-color="#6e6e6e"/></radialGradient><radialGradient id="b6a421a0-f58d-4781-bdd0-a5ce1fcb3108" cx="15.37" cy="59.52" r="61.99" gradientUnits="userSpaceOnUse"><stop offset="0.42"/><stop offset="0.46" stop-color="#050505"/><stop offset="0.51" stop-color="#141414"/><stop offset="0.56" stop-color="#2e2e2e"/><stop offset="0.61" stop-color="#515151"/><stop offset="0.67" stop-color="#7e7e7e"/><stop offset="0.73" stop-color="#b4b4b4"/><stop offset="0.76" stop-color="#d3d3d3"/><stop offset="0.9" stop-color="#dadada"/><stop offset="0.98" stop-color="#fff"/></radialGradient><linearGradient id="ebe938fb-f598-4b71-9421-08ad9b06be43" x1="11.45" y1="-3.89" x2="40.72" y2="61.11" gradientUnits="userSpaceOnUse"><stop offset="0" stop-color="#b4b4b4"/><stop offset="0.07" stop-color="#9d9d9d"/><stop offset="0.14" stop-color="#8c8c8c"/><stop offset="0.15" stop-color="#8b8b8b"/><stop offset="0.22" stop-color="#878787"/><stop offset="0.31" stop-color="#949494"/><stop offset="0.39" stop-color="#a3a3a3"/><stop offset="0.66" stop-color="#6e6e6e"/><stop offset="0.88" stop-color="#6e6e6e"/><stop offset="1" stop-color="#252525"/></linearGradient><linearGradient id="a38b91a9-ef48-44ae-a33e-b7df8f2c46ae" x1="11.46" y1="-3.87" x2="40.73" y2="61.12" xlink:href="#ebe938fb-f598-4b71-9421-08ad9b06be43"/><linearGradient id="f3f12946-d840-45da-985e-cf8eb5375871" x1="-5.23" y1="-13.26" x2="53.74" y2="66.37" xlink:href="#ebe938fb-f598-4b71-9421-08ad9b06be43"/><linearGradient id="ae6220c5-b3be-49cc-a3e5-4d0442475c64" x1="42.84" y1="-10.56" x2="29.35" y2="22.15" gradientUnits="userSpaceOnUse"><stop offset="0.02" stop-color="#fff"/><stop offset="0.29" stop-color="#dadada"/><stop offset="0.56" stop-color="#d3d3d3"/><stop offset="0.58" stop-color="#b4b4b4"/><stop offset="0.62" stop-color="#7e7e7e"/><stop offset="0.66" stop-color="#515151"/><stop offset="0.69" stop-color="#2e2e2e"/><stop offset="0.73" stop-color="#141414"/><stop offset="0.76" stop-color="#050505"/><stop offset="0.79"/></linearGradient><linearGradient id="a1413bdb-1a4a-44b6-9ae9-5c5a1913c44a" x1="23.07" y1="53.98" x2="22.42" y2="70.34" gradientUnits="userSpaceOnUse"><stop offset="0" stop-color="#fff"/><stop offset="0.08" stop-color="#e0e0e0"/><stop offset="0.2" stop-color="#b4b4b4"/><stop offset="0.26" stop-color="#a3a3a3"/><stop offset="0.66" stop-color="#6e6e6e"/><stop offset="0.73" stop-color="#666"/><stop offset="0.84" stop-color="#505050"/><stop offset="0.97" stop-color="#2d2d2d"/><stop offset="1" stop-color="#252525"/></linearGradient><linearGradient id="afe9c39a-7a61-42c6-8e97-33adf37bc4ad" x1="28.71" y1="24.35" x2="42.27" y2="-5.78" xlink:href="#a1413bdb-1a4a-44b6-9ae9-5c5a1913c44a"/><linearGradient id="f246f6c6-13ad-4703-b963-7e5c43a3606e" x1="-89.38" y1="237.62" x2="-75.82" y2="207.49" gradientTransform="matrix(0.53, 0.85, 0.85, -0.53, -130.49, 236.47)" xlink:href="#a1413bdb-1a4a-44b6-9ae9-5c5a1913c44a"/><linearGradient id="a5f97cdf-d978-4a64-9770-e8aae6cf0124" x1="34.41" y1="34.7" x2="16.47" y2="53.21" gradientTransform="matrix(1, -0.07, 0.07, 1, -13.89, 3.25)" xlink:href="#a1413bdb-1a4a-44b6-9ae9-5c5a1913c44a"/><linearGradient id="be9abfc9-1867-4d8a-8adc-a2de129dcfd9" x1="-244.74" y1="439.57" x2="-244.95" y2="439.3" gradientTransform="matrix(23.9, 2.09, 2.49, -28.53, 4793.06, 13056.75)" gradientUnits="userSpaceOnUse"><stop offset="0" stop-color="#666c72"/><stop offset="1" stop-color="#454c53"/></linearGradient><linearGradient id="a74b2a5b-c908-40f5-a02c-81ead51b08e1" x1="-249.68" y1="446.74" x2="-249.93" y2="447.3" gradientTransform="matrix(68.72, 6, 6, -68.72, 14512.54, 32251.35)" gradientUnits="userSpaceOnUse"><stop offset="0" stop-color="#ffcb05"/><stop offset="1" stop-color="#f3e7b7"/></linearGradient></defs><g class="b32f3a98-d50d-4410-b4ca-ab7465efb92b"><g id="a7d65666-398a-434e-928e-e2eaba74acc4" data-name="圖層 1"><polygon class="a6d22017-d8b6-4292-9823-cb56ee4558c2" points="15.37 42.57 2.3 66.48 13.71 64.83 18.48 75.33 31.55 51.41 15.37 42.57"/><polygon class="fc015dd8-8ade-4ed8-9d84-b6f3890cc613" points="43.23 42.57 56.3 66.48 44.89 64.83 40.12 75.33 27.05 51.41 43.23 42.57"/><g class="f83b07f2-c501-44f8-becd-3ee82515af47"><path class="b9ab5ce4-43e1-4d06-a0ec-185d6918d199" d="M69.89,29.68A43.33,43.33,0,1,1,26.57-13.65,43.32,43.32,0,0,1,69.89,29.68Z"/><path class="bb023ddb-fc4a-463b-9737-10bf02e27f82" d="M63.37,29.68A36.81,36.81,0,1,1,26.57-7.13,36.81,36.81,0,0,1,63.37,29.68Z"/><path class="ec76c9aa-b3bf-4597-a650-45eaeff342a3" d="M59.06,29.68A32.5,32.5,0,1,1,26.57-2.82,32.5,32.5,0,0,1,59.06,29.68Z"/><path class="bdc8a1e9-7aaa-4ae1-a382-274279e93557" d="M57.77,29.68A31.21,31.21,0,1,1,26.57-1.53,31.2,31.2,0,0,1,57.77,29.68Z"/><path class="b0303f32-a38d-45d9-a50b-682cba881111" d="M57.77,29.68A31.21,31.21,0,1,1,26.57-1.53,31.2,31.2,0,0,1,57.77,29.68Z"/><path class="bb1afb03-cf54-4218-9d5f-960c72c147ef" d="M26.57-7.13a36.81,36.81,0,1,0,36.8,36.81A36.81,36.81,0,0,0,26.57-7.13Zm0,73A36.16,36.16,0,1,1,62.72,29.68,36.2,36.2,0,0,1,26.57,65.83Z"/><path class="beab838a-a07a-4a0b-9a84-1daa58ef0480" d="M26.57-2.82a32.5,32.5,0,1,0,32.49,32.5A32.5,32.5,0,0,0,26.57-2.82Zm0,64.35A31.86,31.86,0,1,1,58.42,29.68,31.89,31.89,0,0,1,26.57,61.53Z"/><path class="f83477f9-3ff3-4aa8-8fd0-8c1b0cca70a8" d="M26.57-13.65A43.33,43.33,0,1,0,69.89,29.68,43.32,43.32,0,0,0,26.57-13.65Zm0,86A42.69,42.69,0,1,1,69.25,29.68,42.74,42.74,0,0,1,26.57,72.36Z"/><path class="f1285783-ccf0-4745-9c14-2fe74beebad7" d="M-6.2,11.55a37.46,37.46,0,0,1,69.59,25l3.42.49,1.28.17a43,43,0,0,0,.66-7.49A42.19,42.19,0,0,0-10,8.59C-8.77,9.64-7.5,10.62-6.2,11.55Z"/><path class="aaad606d-c749-4895-881a-3cb4afeffa73" d="M55.77,53.08A37.43,37.43,0,0,1-9.38,40.18c-1.8-.63-3.59-1.3-5.38-2a42.19,42.19,0,0,0,76.3,15C59.62,53.23,57.7,53.17,55.77,53.08Z"/><path class="b63f76d2-089d-4fec-9289-78503e811c4f" d="M68.09,37.17C74.89-8.6,13.54-29.33-10,8.59,12.62-32.45,77.35-8.84,68.09,37.17Z"/><path class="b63f76d2-089d-4fec-9289-78503e811c4f" d="M68.09,37.17C74.89-8.6,13.54-29.33-10,8.59,12.62-32.45,77.35-8.84,68.09,37.17Z"/><path class="bb47b1a0-00ae-4d4c-a6ea-c2252cb1c87e" d="M62,35.65C67.72-3.86,16.13-21.76-3.64,11,15.36-24.45,69.79-4.07,62,35.65Z"/><path class="b63f76d2-089d-4fec-9289-78503e811c4f" d="M57.45,34.47C62.46.8,17.33-14.45,0,13.44,16.65-16.74,64.27.62,57.45,34.47Z"/><path class="b63f76d2-089d-4fec-9289-78503e811c4f" d="M54.88,60.81C34.6,78.2,10.57,73.73-5.36,56.44c-10.59-11.5-13.78-29.55-5.51-46.5C-33.58,50.92,20.87,93.15,54.88,60.81Z"/><path class="ed861105-9f5b-4d2d-b6fd-93fe25613a58" d="M50.36,56.46C20,82.34-22.66,48.2-5.48,14-25.35,49,20.88,84.21,50.36,56.46Z"/><path class="bfae5c7e-02df-485b-9f28-7db9a13d2522" d="M49.15,51.43C24.88,75.3-14,47.8-1.65,17.4-16.27,48.6,25.81,76.87,49.15,51.43Z"/></g><path class="a7fd3351-1409-4dd1-9607-060c3ae51b7a" d="M29.49,55.26c-.62,0-1.24,0-1.87-.08A21.24,21.24,0,0,1,11.14,44.77c-1.28.42-2.32.69-2.4.71a3,3,0,0,1-3.21-4.64L6.14,40,2,37.22a3,3,0,0,1,1.33-5.48c.14,0,2.51-.28,5-.35a21.19,21.19,0,0,1,18.28-18.5C26,9.68,25.51,5,28.47,2.05,30.8-.27,33,.24,33.87.57a5.34,5.34,0,0,1,3.06,3.6,10.38,10.38,0,0,1,1.42-.68A4.49,4.49,0,0,1,42.71,4c1,.76,2.25,2.33,2.08,5.53-.1,1.91-1.2,3.91-3.73,6.65A21.27,21.27,0,0,1,29.49,55.26Z"/><g id="fd6a5914-7bfd-44ad-a9ed-2954abd3c2c5" data-name="Group 286" class="bf69f3c7-a808-4c78-9d4d-a28e912aa9bc"><path id="ab21a0c3-9f3d-4d89-846e-e56492a783cd" data-name="Path 503" class="aeb8453c-7124-44e2-ab82-4326ac43f678" d="M31,17.89a4.92,4.92,0,0,1,.94,0,4.09,4.09,0,0,1,2.15.79c3.49-3.15,7.54-7,7.67-9.34.16-2.82-1.09-3.54-2.35-3-2.85,1.12-3.89,3.45-4.92,6.09A12.36,12.36,0,0,0,34,13.59a50.42,50.42,0,0,0,.32-7.27C34.16,4,32.68,2.09,30.6,4.17c-2.38,2.38-1.3,7.11-.62,9.92C30.13,14.7,30.61,16.52,31,17.89Z"/><circle id="a1e687b1-e6ac-4fc6-89bd-37728ad2c47c" data-name="Ellipse 25" class="b3140744-b4ba-48e5-97f4-cc2523f15bc3" cx="29.48" cy="33.97" r="18.28"/><g id="b31c4be8-dcc3-41b0-b721-9ac07d7b863f" data-name="Group 284"><path id="a0d76281-3091-493d-8812-16a99b1eb768" data-name="Path 324" class="b834cbca-b8f4-4227-a641-efb7b9b245bd" d="M17.87,25.57c-2.92-.26-3.33,4.5-.41,4.75a2.39,2.39,0,1,0,.75-4.72A1.87,1.87,0,0,0,17.87,25.57Z"/></g><g id="f9fb7e7e-4bc2-4d6c-8bd0-f657771da81e" data-name="Group 285"><path id="b5510f68-7007-4660-9514-c8effbb81922" data-name="Path 325" class="b834cbca-b8f4-4227-a641-efb7b9b245bd" d="M32.36,27.47c-2.92-.26-3.34,4.5-.42,4.76a2.4,2.4,0,0,0,.76-4.73A2,2,0,0,0,32.36,27.47Z"/></g><line id="a8a66295-960f-46a3-93cc-9051b03f1ed7" data-name="Line 109" class="f40ca807-9875-419f-a0a6-5c1fd9b23790" x1="21.75" y1="25.2" x2="15.41" y2="21.14"/><line id="b731bbb3-fa1d-4c49-901a-9e1e1c2731c9" data-name="Line 110" class="f40ca807-9875-419f-a0a6-5c1fd9b23790" x1="29.35" y1="26.08" x2="36.17" y2="24.23"/><path id="b2a71000-aa24-4f05-ac38-f2be2f6ca9fd" data-name="Path 504" class="b706319f-e8a4-4c9a-b6d6-5b49bbe7c5b0" d="M13.16,34.73c-2.25-.82-9.51,0-9.51,0l6.73,4.49L8,42.58s4.81-1.27,6.28-2.39A3.17,3.17,0,0,0,13.16,34.73Z"/></g></g></g></svg>