<svg xmlns="http://www.w3.org/2000/svg" xmlns:xlink="http://www.w3.org/1999/xlink" viewBox="0 0 56.95 75.61"><defs><style>.aa36fcb0-fb96-4e53-b373-10b347525e33,.b2c2c471-1de8-4178-ad3e-d75eaad10839{fill:none;}.a21013b3-8645-45f0-8084-7e0fd1417181,.a3adba4c-38c8-4671-a12a-0c274c05e553,.a5b09e9a-69e7-4f6d-ae33-bd20e64a5877,.a645a8b1-b3cb-4b01-a296-405abcd35aea,.ac63242d-5b5e-4f08-9dd7-df91c8b762a7,.ac685c07-baa1-4f02-b8e0-c51168bf013a,.ae305d06-7837-4299-8731-818a54ef23ea,.b2c2c471-1de8-4178-ad3e-d75eaad10839,.b6c5e937-4f8c-4550-a117-74889756c4b2,.bc61bb03-bf6c-4cdd-8dc5-915357f70ef3,.e964e3be-e726-4207-98c8-111014cf3ea3,.e9eb03b0-2bc7-4e29-b5db-c32b1f741eda,.f035ec11-717d-4d6b-aa82-2aa0f59bb59e,.f53a4154-3768-475b-ba58-8627e2329efd,.ffdf00ec-3e18-4da7-922a-84f0bca78b42{stroke:#fff;stroke-width:0.5px;}.a21013b3-8645-45f0-8084-7e0fd1417181,.a3adba4c-38c8-4671-a12a-0c274c05e553,.a5b09e9a-69e7-4f6d-ae33-bd20e64a5877,.a645a8b1-b3cb-4b01-a296-405abcd35aea,.a9b7b049-90ba-4ea7-ba5e-b04cbdc41e10,.ac63242d-5b5e-4f08-9dd7-df91c8b762a7,.ac685c07-baa1-4f02-b8e0-c51168bf013a,.ae305d06-7837-4299-8731-818a54ef23ea,.b2c2c471-1de8-4178-ad3e-d75eaad10839,.b6c5e937-4f8c-4550-a117-74889756c4b2,.ba4f5765-924f-4a57-9acd-25678d3a4752,.bc61bb03-bf6c-4cdd-8dc5-915357f70ef3,.e964e3be-e726-4207-98c8-111014cf3ea3,.e9eb03b0-2bc7-4e29-b5db-c32b1f741eda,.f035ec11-717d-4d6b-aa82-2aa0f59bb59e,.f53a4154-3768-475b-ba58-8627e2329efd,.ffdf00ec-3e18-4da7-922a-84f0bca78b42{stroke-miterlimit:10;}.b518fb94-775c-422f-90e8-3febb50776dc{isolation:isolate;}.f7d18100-459b-42ff-af3c-b8b547303b98{fill:url(#a31fb8be-682c-4b68-a28f-baadd46ca78b);}.a43f795c-2f80-4469-bc85-df156506eca2{fill:url(#e50e3caf-62dc-4496-8709-71c1c5f74fc4);}.e34f1116-0155-4a6e-ae56-e468ce866003{clip-path:url(#f07742cf-bcad-465f-a2fe-b7ffde976aaf);}.ffdf00ec-3e18-4da7-922a-84f0bca78b42{fill:url(#b490511f-8cca-4a29-9594-c103257d2c66);}.ae305d06-7837-4299-8731-818a54ef23ea{fill:url(#e1da9cb8-e06b-4398-a948-2801ebc4d03f);}.a5b09e9a-69e7-4f6d-ae33-bd20e64a5877,.b6c5e937-4f8c-4550-a117-74889756c4b2,.f53a4154-3768-475b-ba58-8627e2329efd{mix-blend-mode:screen;}.b6c5e937-4f8c-4550-a117-74889756c4b2{fill:url(#ba916298-4dc0-4c06-bfc6-c03cfa1d2421);}.a21013b3-8645-45f0-8084-7e0fd1417181,.a3adba4c-38c8-4671-a12a-0c274c05e553,.a645a8b1-b3cb-4b01-a296-405abcd35aea,.ac63242d-5b5e-4f08-9dd7-df91c8b762a7,.e964e3be-e726-4207-98c8-111014cf3ea3{mix-blend-mode:multiply;}.a645a8b1-b3cb-4b01-a296-405abcd35aea{fill:url(#e91c97a5-cc5e-49d1-97b3-06d4558309ce);}.a5b09e9a-69e7-4f6d-ae33-bd20e64a5877{opacity:0.7;fill:url(#f30bb3f6-493d-4b6c-a331-008f02b61a49);}.ac685c07-baa1-4f02-b8e0-c51168bf013a{fill:url(#bf347f8f-574d-4a1e-b7c2-32e64538be73);}.e9eb03b0-2bc7-4e29-b5db-c32b1f741eda{fill:url(#ef57d182-234b-4016-9c30-cf0a91aa3bf7);}.bc61bb03-bf6c-4cdd-8dc5-915357f70ef3{fill:url(#e2ea91af-cbdd-4524-bf27-71362f1cad4a);}.f53a4154-3768-475b-ba58-8627e2329efd{fill:url(#efb14df2-ab57-447d-bf60-3bf582f22bfb);}.a21013b3-8645-45f0-8084-7e0fd1417181,.a3adba4c-38c8-4671-a12a-0c274c05e553,.ac63242d-5b5e-4f08-9dd7-df91c8b762a7,.e964e3be-e726-4207-98c8-111014cf3ea3{opacity:0.8;}.e964e3be-e726-4207-98c8-111014cf3ea3{fill:url(#fcdc37f3-9fd1-4189-8cde-acf593656581);}.f035ec11-717d-4d6b-aa82-2aa0f59bb59e{fill:#fff;}.a21013b3-8645-45f0-8084-7e0fd1417181{fill:url(#b3c778d3-0e6f-4559-926a-64f48ff59718);}.a3adba4c-38c8-4671-a12a-0c274c05e553{fill:url(#e3ede7f1-cbb6-462f-88bd-363f66140ace);}.ac63242d-5b5e-4f08-9dd7-df91c8b762a7{fill:url(#f50a1746-d450-4a8d-86be-1bedd0300b58);}.f67c1025-5f9a-41aa-9796-399ebfab57dc{mix-blend-mode:luminosity;}.a9b7b049-90ba-4ea7-ba5e-b04cbdc41e10,.ad25eac5-d3ed-43be-8333-10da31bda865,.ba4f5765-924f-4a57-9acd-25678d3a4752{stroke:#754c24;}.a9b7b049-90ba-4ea7-ba5e-b04cbdc41e10{fill:url(#b89ce781-19b7-4f4f-aacd-691d204540a1);}.ba4f5765-924f-4a57-9acd-25678d3a4752{fill:url(#a696883f-449a-49ee-8c14-86ce076fb7d3);}.a10afb3b-bacb-46d7-bd00-6414137ae3d5{fill:#454c53;}.aa36fcb0-fb96-4e53-b373-10b347525e33{stroke:#454c53;stroke-miterlimit:10;stroke-width:3px;}.aa36fcb0-fb96-4e53-b373-10b347525e33,.ad25eac5-d3ed-43be-8333-10da31bda865{stroke-linecap:round;}.ad25eac5-d3ed-43be-8333-10da31bda865{fill:#f29440;stroke-linejoin:round;}</style><linearGradient id="a31fb8be-682c-4b68-a28f-baadd46ca78b" x1="-13.5" y1="75.97" x2="-13.5" y2="44.93" gradientTransform="matrix(0.88, 0.48, -0.46, 0.84, 58.03, 12.44)" gradientUnits="userSpaceOnUse"><stop offset="0" stop-color="#00a613"/><stop offset="0.15" stop-color="#06950e"/><stop offset="0.45" stop-color="#146900"/><stop offset="0.48" stop-color="#116500"/><stop offset="0.6" stop-color="#075600"/><stop offset="0.74" stop-color="#024d00"/><stop offset="0.95" stop-color="#004a00"/></linearGradient><linearGradient id="e50e3caf-62dc-4496-8709-71c1c5f74fc4" x1="-84.6" y1="116.54" x2="-84.6" y2="85.5" gradientTransform="matrix(-0.88, 0.48, 0.46, 0.84, -79.88, 12.44)" xlink:href="#a31fb8be-682c-4b68-a28f-baadd46ca78b"/><clipPath id="f07742cf-bcad-465f-a2fe-b7ffde976aaf"><path class="b2c2c471-1de8-4178-ad3e-d75eaad10839" d="M29.2,55.26c-.62,0-1.24,0-1.87-.08A21.24,21.24,0,0,1,10.85,44.77c-1.28.42-2.32.69-2.4.71a3,3,0,0,1-3.21-4.64L5.85,40,1.7,37.22A3,3,0,0,1,3,31.74c.14,0,2.51-.28,5-.35a21.19,21.19,0,0,1,18.28-18.5C25.68,9.68,25.22,5,28.18,2.05,30.51-.27,32.74.24,33.58.57a5.34,5.34,0,0,1,3.06,3.6,10.38,10.38,0,0,1,1.42-.68A4.49,4.49,0,0,1,42.42,4c1,.76,2.25,2.33,2.08,5.53-.1,1.91-1.2,3.91-3.73,6.65A21.27,21.27,0,0,1,29.2,55.26Z"/></clipPath><linearGradient id="b490511f-8cca-4a29-9594-c103257d2c66" x1="-2.95" y1="-0.38" x2="53.87" y2="56.44" gradientUnits="userSpaceOnUse"><stop offset="0" stop-color="#e0bfa4"/><stop offset="0.08" stop-color="#fff"/><stop offset="0.19" stop-color="#c67b4c"/><stop offset="0.26" stop-color="#c2824e"/><stop offset="0.29" stop-color="#bd794c"/><stop offset="0.36" stop-color="#b46849"/><stop offset="0.4" stop-color="#b26443"/><stop offset="0.47" stop-color="#b1603f"/><stop offset="0.56" stop-color="#ba5a32"/><stop offset="0.68" stop-color="#c2713e"/><stop offset="0.71" stop-color="#c06e3b"/><stop offset="0.74" stop-color="#b96434"/><stop offset="0.77" stop-color="#ae5326"/><stop offset="0.79" stop-color="#a14018"/><stop offset="0.82" stop-color="#a64820"/><stop offset="0.87" stop-color="#b35e34"/><stop offset="0.93" stop-color="#c88156"/><stop offset="0.94" stop-color="#ca8459"/></linearGradient><linearGradient id="e1da9cb8-e06b-4398-a948-2801ebc4d03f" x1="-10.37" y1="-7.81" x2="61.44" y2="64" gradientUnits="userSpaceOnUse"><stop offset="0.15" stop-color="#e0bfa4"/><stop offset="0.21" stop-color="#c67b4c"/><stop offset="0.29" stop-color="#c2824e"/><stop offset="0.31" stop-color="#bd794c"/><stop offset="0.36" stop-color="#b46849"/><stop offset="0.4" stop-color="#b26443"/><stop offset="0.47" stop-color="#b1603f"/><stop offset="0.56" stop-color="#ba5a32"/><stop offset="0.68" stop-color="#c2713e"/><stop offset="0.9" stop-color="#a14018"/><stop offset="0.92" stop-color="#a64820"/><stop offset="0.95" stop-color="#b35e34"/><stop offset="0.99" stop-color="#c88156"/><stop offset="0.99" stop-color="#ca8459"/></linearGradient><linearGradient id="ba916298-4dc0-4c06-bfc6-c03cfa1d2421" x1="5.59" y1="4.98" x2="52.29" y2="58.57" gradientUnits="userSpaceOnUse"><stop offset="0" stop-color="#e0bfa4"/><stop offset="0.06" stop-color="#fff"/><stop offset="0.19" stop-color="#c67b4c"/><stop offset="0.26" stop-color="#c2824e"/><stop offset="0.28" stop-color="#bd794c"/><stop offset="0.32" stop-color="#b46849"/><stop offset="0.39" stop-color="#b1603f"/><stop offset="0.4" stop-color="#b86d4d"/><stop offset="0.44" stop-color="#cd997c"/><stop offset="0.47" stop-color="#dbb599"/><stop offset="0.48" stop-color="#e0bfa4"/><stop offset="0.53" stop-color="#eedccd"/><stop offset="0.58" stop-color="#faf5f1"/><stop offset="0.61" stop-color="#fff"/><stop offset="0.69" stop-color="#ca8459"/><stop offset="0.78" stop-color="#c2713e"/><stop offset="0.86" stop-color="#ad5226"/><stop offset="0.92" stop-color="#a14018"/></linearGradient><radialGradient id="e91c97a5-cc5e-49d1-97b3-06d4558309ce" cx="33.85" cy="8.59" r="50.57" gradientUnits="userSpaceOnUse"><stop offset="0.38" stop-color="#fff"/><stop offset="0.58" stop-color="#ca8459"/><stop offset="0.76" stop-color="#c2713e"/><stop offset="0.83" stop-color="#bd6a39"/><stop offset="0.92" stop-color="#b0572a"/><stop offset="1" stop-color="#a14018"/></radialGradient><radialGradient id="f30bb3f6-493d-4b6c-a331-008f02b61a49" cx="15.92" cy="59.52" r="61.99" gradientUnits="userSpaceOnUse"><stop offset="0.42"/><stop offset="0.46" stop-color="#050302"/><stop offset="0.51" stop-color="#140c07"/><stop offset="0.57" stop-color="#2e1b0f"/><stop offset="0.62" stop-color="#512f1a"/><stop offset="0.69" stop-color="#7e4928"/><stop offset="0.75" stop-color="#b46939"/><stop offset="0.76" stop-color="#c2713e"/><stop offset="0.9" stop-color="#ca8459"/><stop offset="0.98" stop-color="#fff"/></radialGradient><linearGradient id="bf347f8f-574d-4a1e-b7c2-32e64538be73" x1="11.99" y1="-3.89" x2="41.26" y2="61.11" gradientUnits="userSpaceOnUse"><stop offset="0" stop-color="#c2824e"/><stop offset="0.04" stop-color="#bd794c"/><stop offset="0.14" stop-color="#b46849"/><stop offset="0.17" stop-color="#b26443"/><stop offset="0.22" stop-color="#b1603f"/><stop offset="0.39" stop-color="#ba5a32"/><stop offset="0.66" stop-color="#a14018"/><stop offset="0.88" stop-color="#a14018"/><stop offset="1" stop-color="#fff"/></linearGradient><linearGradient id="ef57d182-234b-4016-9c30-cf0a91aa3bf7" x1="12" y1="-3.87" x2="41.27" y2="61.12" xlink:href="#bf347f8f-574d-4a1e-b7c2-32e64538be73"/><linearGradient id="e2ea91af-cbdd-4524-bf27-71362f1cad4a" x1="-4.68" y1="-13.26" x2="54.29" y2="66.37" xlink:href="#bf347f8f-574d-4a1e-b7c2-32e64538be73"/><linearGradient id="efb14df2-ab57-447d-bf60-3bf582f22bfb" x1="43.39" y1="-10.56" x2="29.9" y2="22.15" gradientUnits="userSpaceOnUse"><stop offset="0.02" stop-color="#fff"/><stop offset="0.29" stop-color="#ca8459"/><stop offset="0.56" stop-color="#c2713e"/><stop offset="0.57" stop-color="#b46939"/><stop offset="0.61" stop-color="#7e4928"/><stop offset="0.65" stop-color="#512f1a"/><stop offset="0.69" stop-color="#2e1b0f"/><stop offset="0.73" stop-color="#140c07"/><stop offset="0.76" stop-color="#050302"/><stop offset="0.79"/></linearGradient><linearGradient id="fcdc37f3-9fd1-4189-8cde-acf593656581" x1="23.61" y1="53.98" x2="22.97" y2="70.34" gradientUnits="userSpaceOnUse"><stop offset="0" stop-color="#fff"/><stop offset="0.08" stop-color="#e6c4b6"/><stop offset="0.17" stop-color="#cf8b6f"/><stop offset="0.23" stop-color="#c06843"/><stop offset="0.26" stop-color="#ba5a32"/><stop offset="0.66" stop-color="#a14018"/><stop offset="0.69" stop-color="#a44720"/><stop offset="0.74" stop-color="#ad5936"/><stop offset="0.8" stop-color="#bc765a"/><stop offset="0.87" stop-color="#d09f8b"/><stop offset="0.94" stop-color="#e9d3ca"/><stop offset="1" stop-color="#fff"/></linearGradient><linearGradient id="b3c778d3-0e6f-4559-926a-64f48ff59718" x1="29.26" y1="24.35" x2="42.82" y2="-5.78" xlink:href="#fcdc37f3-9fd1-4189-8cde-acf593656581"/><linearGradient id="e3ede7f1-cbb6-462f-88bd-363f66140ace" x1="-89.09" y1="238.08" x2="-75.53" y2="207.95" gradientTransform="matrix(0.53, 0.85, 0.85, -0.53, -130.49, 236.47)" xlink:href="#fcdc37f3-9fd1-4189-8cde-acf593656581"/><linearGradient id="f50a1746-d450-4a8d-86be-1bedd0300b58" x1="34.95" y1="34.74" x2="17.02" y2="53.25" gradientTransform="matrix(1, -0.07, 0.07, 1, -13.89, 3.25)" xlink:href="#fcdc37f3-9fd1-4189-8cde-acf593656581"/><linearGradient id="b89ce781-19b7-4f4f-aacd-691d204540a1" x1="-244.75" y1="439.57" x2="-244.96" y2="439.3" gradientTransform="matrix(23.9, 2.09, 2.49, -28.53, 4793.06, 13056.75)" gradientUnits="userSpaceOnUse"><stop offset="0" stop-color="#666c72"/><stop offset="1" stop-color="#454c53"/></linearGradient><linearGradient id="a696883f-449a-49ee-8c14-86ce076fb7d3" x1="-249.68" y1="446.74" x2="-249.93" y2="447.3" gradientTransform="matrix(68.72, 6, 6, -68.72, 14512.54, 32251.35)" gradientUnits="userSpaceOnUse"><stop offset="0" stop-color="#ffcb05"/><stop offset="1" stop-color="#f3e7b7"/></linearGradient></defs><g class="b518fb94-775c-422f-90e8-3febb50776dc"><g id="a82a6a3a-e9eb-4d17-a497-3fbc4c28e017" data-name="圖層 1"><polygon class="f7d18100-459b-42ff-af3c-b8b547303b98" points="15.66 42.57 2.59 66.48 14 64.83 18.77 75.33 31.84 51.41 15.66 42.57"/><polygon class="a43f795c-2f80-4469-bc85-df156506eca2" points="43.52 42.57 56.59 66.48 45.18 64.83 40.41 75.33 27.34 51.41 43.52 42.57"/><g class="e34f1116-0155-4a6e-ae56-e468ce866003"><path class="ffdf00ec-3e18-4da7-922a-84f0bca78b42" d="M70.44,29.68A43.33,43.33,0,1,1,27.11-13.65,43.33,43.33,0,0,1,70.44,29.68Z"/><path class="ae305d06-7837-4299-8731-818a54ef23ea" d="M63.91,29.68A36.8,36.8,0,1,1,27.11-7.13,36.81,36.81,0,0,1,63.91,29.68Z"/><path class="b6c5e937-4f8c-4550-a117-74889756c4b2" d="M59.61,29.68a32.5,32.5,0,1,1-32.5-32.5A32.51,32.51,0,0,1,59.61,29.68Z"/><path class="a645a8b1-b3cb-4b01-a296-405abcd35aea" d="M58.32,29.68A31.21,31.21,0,1,1,27.11-1.53,31.21,31.21,0,0,1,58.32,29.68Z"/><path class="a5b09e9a-69e7-4f6d-ae33-bd20e64a5877" d="M58.32,29.68A31.21,31.21,0,1,1,27.11-1.53,31.21,31.21,0,0,1,58.32,29.68Z"/><path class="ac685c07-baa1-4f02-b8e0-c51168bf013a" d="M27.11-7.13a36.81,36.81,0,1,0,36.8,36.81A36.8,36.8,0,0,0,27.11-7.13Zm0,73A36.16,36.16,0,1,1,63.27,29.68,36.2,36.2,0,0,1,27.11,65.83Z"/><path class="e9eb03b0-2bc7-4e29-b5db-c32b1f741eda" d="M27.11-2.82a32.5,32.5,0,1,0,32.5,32.5A32.5,32.5,0,0,0,27.11-2.82Zm0,64.35A31.86,31.86,0,1,1,59,29.68,31.89,31.89,0,0,1,27.11,61.53Z"/><path class="bc61bb03-bf6c-4cdd-8dc5-915357f70ef3" d="M27.11-13.65A43.33,43.33,0,1,0,70.44,29.68,43.33,43.33,0,0,0,27.11-13.65Zm0,86A42.69,42.69,0,1,1,69.79,29.68,42.73,42.73,0,0,1,27.11,72.36Z"/><path class="f53a4154-3768-475b-ba58-8627e2329efd" d="M-5.65,11.55a37.44,37.44,0,0,1,69.58,25l3.42.49,1.28.17A42.19,42.19,0,0,0-9.43,8.59C-8.22,9.64-7,10.62-5.65,11.55Z"/><path class="e964e3be-e726-4207-98c8-111014cf3ea3" d="M56.32,53.08A37.44,37.44,0,0,1-8.84,40.18c-1.8-.63-3.59-1.3-5.37-2a42.19,42.19,0,0,0,76.3,15C60.17,53.23,58.24,53.17,56.32,53.08Z"/><path class="f035ec11-717d-4d6b-aa82-2aa0f59bb59e" d="M68.63,37.17C75.43-8.6,14.09-29.33-9.43,8.59,13.16-32.45,77.9-8.84,68.63,37.17Z"/><path class="f035ec11-717d-4d6b-aa82-2aa0f59bb59e" d="M68.63,37.17C75.43-8.6,14.09-29.33-9.43,8.59,13.16-32.45,77.9-8.84,68.63,37.17Z"/><path class="a21013b3-8645-45f0-8084-7e0fd1417181" d="M62.55,35.65C68.26-3.86,16.68-21.76-3.1,11,15.9-24.45,70.34-4.07,62.55,35.65Z"/><path class="f035ec11-717d-4d6b-aa82-2aa0f59bb59e" d="M58,34.47C63,.8,17.88-14.45.57,13.44,17.2-16.74,64.82.62,58,34.47Z"/><path class="f035ec11-717d-4d6b-aa82-2aa0f59bb59e" d="M55.42,60.81C35.15,78.2,11.11,73.73-4.81,56.44c-10.6-11.5-13.79-29.55-5.52-46.5C-33,50.92,21.42,93.15,55.42,60.81Z"/><path class="a3adba4c-38c8-4671-a12a-0c274c05e553" d="M50.9,56.46C20.5,82.34-22.11,48.2-4.93,14-24.81,49,21.43,84.21,50.9,56.46Z"/><path class="ac63242d-5b5e-4f08-9dd7-df91c8b762a7" d="M49.7,51.43C25.43,75.3-13.47,47.8-1.11,17.4-15.72,48.6,26.35,76.87,49.7,51.43Z"/></g><path class="b2c2c471-1de8-4178-ad3e-d75eaad10839" d="M29.2,55.26c-.62,0-1.24,0-1.87-.08A21.24,21.24,0,0,1,10.85,44.77c-1.28.42-2.32.69-2.4.71a3,3,0,0,1-3.21-4.64L5.85,40,1.7,37.22A3,3,0,0,1,3,31.74c.14,0,2.51-.28,5-.35a21.19,21.19,0,0,1,18.28-18.5C25.68,9.68,25.22,5,28.18,2.05,30.51-.27,32.74.24,33.58.57a5.34,5.34,0,0,1,3.06,3.6,10.38,10.38,0,0,1,1.42-.68A4.49,4.49,0,0,1,42.42,4c1,.76,2.25,2.33,2.08,5.53-.1,1.91-1.2,3.91-3.73,6.65A21.27,21.27,0,0,1,29.2,55.26Z"/><g id="a5d8ddbe-2ef6-4622-873e-0567f697b5f2" data-name="Group 286" class="f67c1025-5f9a-41aa-9796-399ebfab57dc"><path id="e4aa4d23-f629-4f06-843a-c2befeac9a2c" data-name="Path 503" class="a9b7b049-90ba-4ea7-ba5e-b04cbdc41e10" d="M30.74,17.89a5,5,0,0,1,1,0,4.09,4.09,0,0,1,2.14.79c3.49-3.15,7.54-7,7.67-9.34.16-2.82-1.09-3.54-2.35-3-2.85,1.12-3.89,3.45-4.92,6.09a12.36,12.36,0,0,0-.57,1.22A50.42,50.42,0,0,0,34,6.32C33.87,4,32.39,2.09,30.31,4.17c-2.38,2.38-1.3,7.11-.62,9.92C29.84,14.7,30.32,16.52,30.74,17.89Z"/><circle id="b5108846-9844-4e15-808e-13105100d368" data-name="Ellipse 25" class="ba4f5765-924f-4a57-9acd-25678d3a4752" cx="29.19" cy="33.97" r="18.28"/><g id="be87b22a-a13b-4a57-a960-ca0a0cbb33f5" data-name="Group 284"><path id="f1e44c42-6b47-4e09-9532-12c465d6d61e" data-name="Path 324" class="a10afb3b-bacb-46d7-bd00-6414137ae3d5" d="M17.58,25.57c-2.92-.26-3.33,4.5-.41,4.75a2.39,2.39,0,1,0,.75-4.72A1.87,1.87,0,0,0,17.58,25.57Z"/></g><g id="e1b9e947-5a20-4dca-bd69-cca08aef5e7c" data-name="Group 285"><path id="a7c04dbb-8926-49ec-8a14-309fc754896e" data-name="Path 325" class="a10afb3b-bacb-46d7-bd00-6414137ae3d5" d="M32.07,27.47c-2.92-.26-3.34,4.5-.42,4.76a2.4,2.4,0,0,0,.76-4.73A2,2,0,0,0,32.07,27.47Z"/></g><line id="a81a5007-f6ec-4e07-997e-91dbc803beba" data-name="Line 109" class="aa36fcb0-fb96-4e53-b373-10b347525e33" x1="21.46" y1="25.2" x2="15.13" y2="21.14"/><line id="fbf07e63-959a-4c6a-96ea-726c1811dfd3" data-name="Line 110" class="aa36fcb0-fb96-4e53-b373-10b347525e33" x1="29.06" y1="26.08" x2="35.88" y2="24.23"/><path id="a7ff7b4e-c0a6-411d-b114-cce7275fde5b" data-name="Path 504" class="ad25eac5-d3ed-43be-8333-10da31bda865" d="M12.87,34.73c-2.25-.82-9.51,0-9.51,0l6.73,4.49-2.4,3.37S12.5,41.31,14,40.19A3.17,3.17,0,0,0,12.87,34.73Z"/></g></g></g></svg>