<svg id="b7938327-b1d6-496f-9330-4a494d0e268b" data-name="圖層 1" xmlns="http://www.w3.org/2000/svg" xmlns:xlink="http://www.w3.org/1999/xlink" viewBox="0 0 182 184"><defs><style>.f16f4d9e-3975-4d81-acf9-d2c370a9c5fa{fill:url(#b7fb27bf-69b2-4074-883c-4b2c968bd533);}.f6002557-f3ed-4e67-9d9f-e6fdbf1901ea{fill:url(#e5bc27c3-b1b7-4b82-b96a-b751f066bbdb);}.f69865d2-582b-4433-a127-90565f938df9{fill:url(#a1663c89-a8e3-40cf-bcdf-784e84d4b0a7);}.b6b06eee-68b7-4009-bf88-3708cbf3a329{fill:none;stroke:#000;stroke-miterlimit:10;stroke-width:3px;}.a5379a2b-d080-42d1-8153-1b655a936bc0,.b6b06eee-68b7-4009-bf88-3708cbf3a329{stroke-linecap:round;}.a5379a2b-d080-42d1-8153-1b655a936bc0{fill:#7e7e7e;stroke:#7e7e7e;stroke-linejoin:round;stroke-width:2px;}.a8c2db17-1975-43d6-9f0c-b3dd729c3069{fill:url(#f9c43082-8798-48d1-a806-8b79d0171432);}.a754ceee-87b4-4a50-a74b-47aa196ea6e3{fill:url(#b605ecec-d261-4c89-a359-ec6cc7d396f0);}.a8d78620-0764-4f96-a8ed-f5cf81f2f382{fill:#989898;}.af32fa6f-f8dd-4fb2-bd3b-71b33d4e3487{fill:#424242;}.f34cf604-b060-4dd8-be7d-5608ca6d8233{fill:#262626;opacity:0.12;}.ad89cf0d-f03d-41ac-801a-f40498877344{fill:#595959;}.f268035b-6ffc-4b15-950b-5f9462ce5f20{fill:#cacaca;}.bf84578b-ed58-4592-931a-68afe7a3a9b2{opacity:0.22;}.a1e4767d-fbee-43ef-bbcb-539add968761,.a44cf225-427d-4559-93fe-2141b2ee4997{fill:#fff;}.a1e4767d-fbee-43ef-bbcb-539add968761{opacity:0.31;}.b474fe69-9f29-4aae-a34f-cad7b58e545d{fill:#767676;}.faf5972c-7bff-43a3-8238-d679f5c2664a{fill:#7c7c7c;}.b1c40968-cbd6-43eb-a312-dafc0fbe72c9{fill:#858585;}.b4e9fd91-c206-4ffc-a63b-e311b5fd2250{fill:#626262;}</style><linearGradient id="b7fb27bf-69b2-4074-883c-4b2c968bd533" x1="-930.95" y1="918.65" x2="-930.95" y2="919.07" gradientTransform="translate(21783.08 -34826.11) scale(23.34 38.07)" gradientUnits="userSpaceOnUse"><stop offset="0" stop-color="#5d5d5d"/><stop offset="1" stop-color="#7e7e7e"/></linearGradient><linearGradient id="e5bc27c3-b1b7-4b82-b96a-b751f066bbdb" x1="-938.38" y1="915.38" x2="-938.38" y2="915.76" gradientTransform="translate(25761.75 -38830.37) scale(27.36 42.58)" xlink:href="#b7fb27bf-69b2-4074-883c-4b2c968bd533"/><linearGradient id="a1663c89-a8e3-40cf-bcdf-784e84d4b0a7" x1="-970.89" y1="895.2" x2="-970.89" y2="895.86" gradientTransform="translate(107979.5 -133654.89) scale(111.16 149.35)" gradientUnits="userSpaceOnUse"><stop offset="0" stop-color="#cdcdcd"/><stop offset="1" stop-color="#a9a9a9"/></linearGradient><linearGradient id="f9c43082-8798-48d1-a806-8b79d0171432" x1="-923.89" y1="915.82" x2="-923.89" y2="916.73" gradientTransform="translate(18960.92 -38192.14) scale(20.48 41.82)" xlink:href="#b7fb27bf-69b2-4074-883c-4b2c968bd533"/><linearGradient id="b605ecec-d261-4c89-a359-ec6cc7d396f0" x1="-924.11" y1="915.79" x2="-924.11" y2="916.69" gradientTransform="translate(19102.5 -38245.59) scale(20.56 41.88)" xlink:href="#b7fb27bf-69b2-4074-883c-4b2c968bd533"/></defs><g id="be87689b-f8fc-41f7-bd8a-432781a559b0" data-name="e6e3b186-1a7c-4862-b106-f47b60bab23e"><g id="e50c0742-bf3c-4ffc-959c-7085ec4dea61" data-name="a63e8912-63d5-407a-9716-fee1d314f288"><path id="a1379251-2afe-4fa0-8921-7a8111d85830" data-name="a7689dc4-7886-4e0a-9482-a4fa05e39b0a" class="f16f4d9e-3975-4d81-acf9-d2c370a9c5fa" d="M59.15,169.75c0-.12.06-.25.08-.37.56-4.19,1-8.4,1.55-12.59.43-3.31,1.2-7.66-.11-10.83a1.35,1.35,0,0,0-1.67-.91h0a1.3,1.3,0,0,0-.76.58c-1.65,3-1.91,7.11-2.49,10.46-.66,3.84-1.4,7.7-1.83,11.57-1.45.78-2.81,1.73-4.31,2.43-1.7.8-3.75.53-5.32,1.51a2.51,2.51,0,0,0-.85,3.44,2.65,2.65,0,0,0,.85.85c2.4,1.27,5.12-.13,7.25-1.38l.9-.57c-.18.89-.34,1.78-.53,2.65a21.44,21.44,0,0,0-.75,3.54,2.61,2.61,0,0,0,.45,1.69l.44.57c.5.45.52.46.38.3l.14.11a2.35,2.35,0,0,0,2.47-.19c1.46-.84,1.4-2.68,1.56-4.14a43.46,43.46,0,0,0,.46-5.92,28,28,0,0,0,4.84,6.73c2.51,2.38,6.1-1.24,3.78-3.77A36.48,36.48,0,0,0,59.15,169.75Z"/><path id="bea3f54f-38f9-4278-8a4e-2d06ba754299" data-name="a08abcba-010a-43a3-ac8a-1ac28fb01927" class="f6002557-f3ed-4e67-9d9f-e6fdbf1901ea" d="M101.14,173.85c-1.26-2.17-4-1.63-6.16-1.86s-4.35-.41-6.5-.67c0-3.75-1.4-8-1.83-11.49-.67-5.56-1-11.16-1.55-16.73a1.61,1.61,0,0,0-3.22,0,107,107,0,0,0,0,18.6,45.17,45.17,0,0,0,1.06,8.67q-2.3,1.27-4.46,2.78c-.76.51-1.53,1-2.3,1.46a4.93,4.93,0,0,0-1,.88l-.2.23a2.12,2.12,0,0,0-.81,2.23c.73,2.58,4,2.05,5.58.72s2.8-2.5,4.13-3.82c.17,1.51.43,3,.69,4.5s.42,2.94,1.56,4.12a2.4,2.4,0,0,0,3.39-.05,2.46,2.46,0,0,0,.58-1,6.89,6.89,0,0,0-.53-3.93c-.34-1-.65-2.06-1-3.09a36.38,36.38,0,0,0,5,1.71c2.49.67,5.7,2.07,7.49-.53A2.65,2.65,0,0,0,101.14,173.85Z"/></g><path id="af2aabf4-1a7d-4f26-a8ea-dae035da288b" data-name="b48a61ae-cdd6-465c-876a-8026d03a61b1" class="f69865d2-582b-4433-a127-90565f938df9" d="M80.15,40.48c1.21-3.27,2.86-6.17,4.44-9.43a2.14,2.14,0,0,0-.84-2.91,2.11,2.11,0,0,0-1.56-.2c-5,1.49-8,6.25-9.94,11.69h-.52c-.35-5.63-.34-11.3-.6-16.94,0-.85-1.38-1.12-1.54-.21-.93,5.18-2.3,11.22-3,17.29A43.89,43.89,0,0,0,52.67,22.42c-1.11-.8-2.29.9-1.41,1.82,4.58,4.82,7.8,10.87,10.27,17.21-20.47,6.94-38.86,33.87-26.86,82.18a51.1,51.1,0,0,0,3.92,7l-.37.3c-4,2.49-7.69,5.2-10.75,7.16-.66.41-1.28.84-1.92,1.27a29,29,0,0,1-12.39-.92c-2-.61-3.06,2.21-1.4,3.31A26.9,26.9,0,0,0,15.89,144a49,49,0,0,1-14.16,2.81c-1.33.06-2.09,2-.73,2.68a22.33,22.33,0,0,0,9.33,2.23c-1.85,1.74-3.69,3.54-5.57,5.39A3,3,0,0,0,5,161.31a3,3,0,0,0,1.85.77c3.82.16,7.47-1.56,11-3.9a79.3,79.3,0,0,0-6,9.09A2.68,2.68,0,0,0,16,170.51c7.48-7.14,14.23-14.85,22.06-21.64a104.85,104.85,0,0,1,9.83-7.49,36.2,36.2,0,0,0,19.16,9c22.24,2.92,41.2-16.81,43.4-35.84C113.24,90.75,112.08,47.16,80.15,40.48Z"/><path id="fe944c66-c725-496b-968a-a7c5c87a2329" data-name="bb52459e-03ea-4183-a809-105983669ae2" class="f69865d2-582b-4433-a127-90565f938df9" d="M80.15,40.48c1.21-3.27,2.86-6.17,4.44-9.43a2.14,2.14,0,0,0-.84-2.91,2.11,2.11,0,0,0-1.56-.2c-5,1.49-8,6.25-9.94,11.69h-.52c-.35-5.63-.34-11.3-.6-16.94,0-.85-1.38-1.12-1.54-.21-.93,5.18-2.3,11.22-3,17.29A43.89,43.89,0,0,0,52.67,22.42c-1.11-.8-2.29.9-1.41,1.82,4.58,4.82,7.8,10.87,10.27,17.21-20.47,6.94-38.86,33.87-26.86,82.18a51.1,51.1,0,0,0,3.92,7l-.37.3c-4,2.49-7.69,5.2-10.75,7.16-.66.41-1.28.84-1.92,1.27a29,29,0,0,1-12.39-.92c-2-.61-3.06,2.21-1.4,3.31A26.9,26.9,0,0,0,15.89,144a49,49,0,0,1-14.16,2.81c-1.33.06-2.09,2-.73,2.68a22.33,22.33,0,0,0,9.33,2.23c-1.85,1.74-3.69,3.54-5.57,5.39A3,3,0,0,0,5,161.31a3,3,0,0,0,1.85.77c3.82.16,7.47-1.56,11-3.9a79.3,79.3,0,0,0-6,9.09A2.68,2.68,0,0,0,16,170.51c7.48-7.14,14.23-14.85,22.06-21.64a104.85,104.85,0,0,1,9.83-7.49,36.2,36.2,0,0,0,19.16,9c22.24,2.92,41.2-16.81,43.4-35.84C113.24,90.75,112.08,47.16,80.15,40.48Z"/><g id="f60bbb96-c0a6-455c-ace6-e743259b435f" data-name="b01f2208-15dd-44d2-91b7-6ccafa970c59"><path id="b8ed9cfd-d3d9-4659-84ff-0101f8eccc7d" data-name="ef82b82c-a871-425a-bfbc-0cbc1d7c6285" d="M56.53,74.28c-5.55,0-5.55,9,0,9a4.54,4.54,0,0,0,.65-9A3.53,3.53,0,0,0,56.53,74.28Z"/></g><g id="bb1e77c8-3dc5-49f0-8ab6-f9388572a44b" data-name="fb867349-9afc-49ed-aa42-7f020da17fd9"><path id="b1f407b9-12e0-4504-b05e-301fc2eca990" data-name="b2beb20e-abe3-4d71-991a-5b6cd8ac1da1" d="M84.19,75.48c-5.55,0-5.55,9,0,9a4.54,4.54,0,0,0,.64-9A3.42,3.42,0,0,0,84.19,75.48Z"/></g><line id="bad0acc5-a556-429b-8973-9374b6ae4f76" data-name="ef63dddf-007d-476a-b6f6-c5e108f180af" class="b6b06eee-68b7-4009-bf88-3708cbf3a329" x1="63.79" y1="72.95" x2="51.16" y2="66.34"/><line id="a757b255-1bf5-411e-9dd2-025d3a3f88f6" data-name="eb157695-4a21-4b06-96c2-2e37f9144270" class="b6b06eee-68b7-4009-bf88-3708cbf3a329" x1="78.27" y1="73.35" x2="90.85" y2="68.74"/><path id="e0a29112-a0b1-4fc1-9e3d-7705c7dca462" data-name="e4f6b46d-8179-4cbf-b7ea-925abe8cb096" class="a5379a2b-d080-42d1-8153-1b655a936bc0" d="M70.19,88.48C65.81,87.31,52.25,90,52.25,90L65.67,97.4l-4,6.76s8.88-3.2,11.46-5.55C75.3,96.66,76.54,90.17,70.19,88.48Z"/><g id="b6eb218d-e1c6-4c7c-9ae1-c479559aa15e" data-name="b67d017a-3938-4c61-8ac9-386d32fcf74b"><path id="bf91d617-2f16-44ac-a5e1-9fcf29652443" data-name="fd6fa883-6473-40de-9e7f-eafc603326b1" class="a8c2db17-1975-43d6-9f0c-b3dd729c3069" d="M31.78,107c-6.6,2.12,7,33-2.39,39.34,0,0,17.4,7,20-3.93S42.11,103.63,31.78,107Z"/><path id="be9b3892-bc9a-4489-9efe-fc5ec9dc1fca" data-name="baf80cf1-839f-4904-8028-e289aa1bc33f" class="a754ceee-87b4-4a50-a74b-47aa196ea6e3" d="M110.29,106.59c6.62,2-6.71,33.09,2.76,39.31,0,0-17.33,7.16-20.09-3.74S99.93,103.37,110.29,106.59Z"/></g></g><rect class="a8d78620-0764-4f96-a8ed-f5cf81f2f382" x="104.19" y="107.24" width="45.23" height="9.62" transform="translate(-41.61 128.51) rotate(-47.05)"/><path class="af32fa6f-f8dd-4fb2-bd3b-71b33d4e3487" d="M101.41,139.41l-.08-.08c-2.22-2.07-2.76-5.09-1.21-6.76l17.59-19.19,8.52,7.59-18,19.16C106.69,141.8,103.63,141.47,101.41,139.41Z"/><polygon class="f34cf604-b060-4dd8-be7d-5608ca6d8233" points="129.67 102.17 128.41 103.35 129.22 116.41 137.84 107.33 129.67 102.17"/><circle class="ad89cf0d-f03d-41ac-801a-f40498877344" cx="152.68" cy="85.02" r="28.95"/><circle class="f268035b-6ffc-4b15-950b-5f9462ce5f20" cx="152.68" cy="85.02" r="24.91"/><g class="bf84578b-ed58-4592-931a-68afe7a3a9b2"><path class="a44cf225-427d-4559-93fe-2141b2ee4997" d="M157.09,67.59a17.54,17.54,0,0,1,2.9,33.86c-2.11.75-1.11,4.08,1,3.34a21,21,0,0,0-.64-40,18,18,0,0,0-2.51-.61c-2.2-.39-3,3-.76,3.4Z"/></g><circle class="a1e4767d-fbee-43ef-bbcb-539add968761" cx="153.98" cy="104.35" r="2.29"/><path class="b474fe69-9f29-4aae-a34f-cad7b58e545d" d="M118,113.73l8.11,7.22a.72.72,0,0,0,1,0l.09-.08a.74.74,0,0,0,0-1.09l-8.19-7.15a.72.72,0,0,0-1,.08h0A.73.73,0,0,0,118,113.73Z"/><path class="faf5972c-7bff-43a3-8238-d679f5c2664a" d="M147.88,108.84a24.66,24.66,0,1,1,12.75-.9,24.84,24.84,0,0,1-12.75.9.66.66,0,0,0-.25,1.3,26.27,26.27,0,0,0,17.25-2.63,26,26,0,0,0,11.59-12.68,26,26,0,1,0-28.84,15.31A.66.66,0,0,0,147.88,108.84Z"/><path id="e4fda441-abba-45ea-96f2-83cbd0381b1f" data-name="Path 18809" class="b1c40968-cbd6-43eb-a312-dafc0fbe72c9" d="M30.5,1.15C25.58,2.82,24.3,8,24,12.6c-.25,4,5.9,3.76,6.15-.17C30.5,7,34.63,5,38.56,8.93a9.15,9.15,0,0,1,2.22,8.7c-1.16,5.24-3.58,9.32-1.91,14.8,1.16,3.81,7.06,2.08,5.91-1.72-1.46-4.78,1.79-9.41,2.43-14.11S45.64,7.91,42.79,4.46A11,11,0,0,0,30.5,1.15Z"/><path id="ab46c844-e6c8-4da9-9ccc-d29ffd1286c0" data-name="Path 18810" class="b1c40968-cbd6-43eb-a312-dafc0fbe72c9" d="M43.62,38.36c-2.78,2.84,1.7,7.07,4.47,4.23S46.39,35.52,43.62,38.36Z"/><path id="aec43478-3fc8-4648-bea4-662758a85027" data-name="Path 18811" class="b4e9fd91-c206-4ffc-a63b-e311b5fd2250" d="M43.62,38.36c-2.78,2.84,1.7,7.07,4.47,4.23S46.39,35.52,43.62,38.36Z"/><path id="beaedd52-e1b4-4745-bf4d-d559af58397e" data-name="Path 18826" class="b4e9fd91-c206-4ffc-a63b-e311b5fd2250" d="M44.78,30.71c-1.46-4.78,1.79-9.41,2.43-14.12a13.23,13.23,0,0,0-1.82-8.38L40.83,13.1a10.49,10.49,0,0,1,0,4.53c-1.16,5.24-3.58,9.32-1.91,14.8C40,36.24,45.93,34.51,44.78,30.71Z"/><path id="e03d58f1-50a1-4aa0-b7a2-3406cbb73a25" data-name="Path 18809" class="b1c40968-cbd6-43eb-a312-dafc0fbe72c9" d="M3.75,28.73C1.9,32.49,4.15,36.18,6.59,39c2.12,2.4,5.51-1.23,3.41-3.6-2.9-3.29-1.7-6.79,2.78-6.79A7.37,7.37,0,0,1,19,32.24c2.33,3.65,3.27,7.35,7.35,9.52,2.83,1.51,5.21-2.85,2.38-4.35C25.19,35.52,24.39,31,22.08,28s-5.85-4-9.45-4.39A8.87,8.87,0,0,0,3.75,28.73Z"/><path id="efdb10b8-4af9-4a08-b526-f72d9eeeb392" data-name="Path 18810" class="b1c40968-cbd6-43eb-a312-dafc0fbe72c9" d="M32.45,42.42c0,3.2,5,3,5-.14S32.41,39.22,32.45,42.42Z"/><path id="e29ba908-c222-4227-8908-b0cf596b76ae" data-name="Path 18811" class="b4e9fd91-c206-4ffc-a63b-e311b5fd2250" d="M32.45,42.42c0,3.2,5,3,5-.14S32.41,39.22,32.45,42.42Z"/><path id="ef66574b-f4ed-4b1a-9cc1-e29200b10040" data-name="Path 18826" class="b4e9fd91-c206-4ffc-a63b-e311b5fd2250" d="M28.74,37.41C25.19,35.52,24.39,31,22.08,28a10.73,10.73,0,0,0-5.82-3.73c0,1.65.12,3.51.19,5.39A8.58,8.58,0,0,1,19,32.24c2.33,3.65,3.27,7.35,7.35,9.52C29.19,43.27,31.57,38.91,28.74,37.41Z"/></svg>