<svg id="bcc913c2-6866-4680-bf99-d889731d2960" data-name="圖層 1" xmlns="http://www.w3.org/2000/svg" viewBox="0 0 200 77"><defs><style>.b76e8d27-4e30-4b12-b827-141bea66ddb9{fill:#43b5e1;}.abed9b2a-a22c-4761-8ff2-d2a13fbd625f{fill:#26883c;}.bff99344-be60-46b0-aaf1-d198c945e4a3{fill:#8dc63f;}.ebdca94b-b46e-4a3c-80c4-e5592bf4192e{fill:#f9ed32;}.b57e1ed2-d383-4196-a020-09a57ee3cdb8{fill:#fff;}.b7dcc35c-29e8-4159-9644-3eb715e708be{fill:#f17c29;}.e71a5fa6-dc0b-449f-8dd7-3c9cbc940f1f{fill:#f1a929;}.e0dd26e2-524f-467a-9b15-344ecd5a6434{fill:#2bb673;}.e7b0b905-6331-49e5-a3f3-a140519888c6{fill:#2b7a73;}.b668e56d-efe5-41c1-9069-30d2bc559678{fill:#ee2a7b;}.b6ecd1af-3cb4-4a9e-86fc-aba8603bcd69{fill:#a42a71;}.a00120b6-e088-4387-b8c9-36a300674c8b{fill:#4357a4;}</style></defs><g id="a34fb47d-0877-4c4d-9fc0-83fc291c0872" data-name="Group 3879"><g id="f5a8ef41-e39e-4dbc-a9f9-6904067833d3" data-name="Group 3877"><path id="faf1dc43-3ab9-4e7d-ac89-88a3332eab80" data-name="Path 18554" class="b76e8d27-4e30-4b12-b827-141bea66ddb9" d="M172.11,57.16c-4.93-1.28-6.77,6.38-1.86,7.66S177,58.43,172.11,57.16Z"/></g><g id="f95715e3-f76a-4389-82d0-86aae1d93364" data-name="Group 3878"><path id="bb1e27eb-e99f-4af2-89db-2abe28c6e21a" data-name="Path 18555" class="abed9b2a-a22c-4761-8ff2-d2a13fbd625f" d="M172.11,57.16c-4.93-1.28-6.77,6.38-1.86,7.66S177,58.43,172.11,57.16Z"/></g><path id="f2f9c76f-fc73-4bbf-b54a-64be3670ac54" data-name="Path 18556" class="bff99344-be60-46b0-aaf1-d198c945e4a3" d="M191.65,16.23l-.46-.25a3.05,3.05,0,0,0-.61-.27c-.41-.14-10.21-3.41-17.27-3.24a8.83,8.83,0,0,0-6.52,3.83,13,13,0,0,0-2,11.19,3.58,3.58,0,1,0,6.92-1.86h0c-1-3.64,1.23-5.74,1.88-6,5.2-.09,12.82,2.26,14.4,2.77l.2.11a10.88,10.88,0,0,1,1,.59c0,.44-.06,1.79-1.26,5.4-1,1.55-7.32,5.46-13.64,8.44a3.56,3.56,0,0,0-1.94,2.34l-2.92,11.27a3.58,3.58,0,0,0,6.93,1.8l2.5-9.66c6.8-3.3,14.48-7.81,15.82-11.79C197.55,22.39,196.87,19.1,191.65,16.23Z"/><path id="b238a0f7-279c-439a-b784-b6904cb67078" data-name="Path 18558" class="ebdca94b-b46e-4a3c-80c4-e5592bf4192e" d="M193.71,40.7c-2.13-1.08-4.26.17-5.86,1.54-1.39,1.19.66,3.15,2,2,1.89-1.63,3.88-.92,3.85,1.64a4.22,4.22,0,0,1-2.15,3.52c-2.1,1.31-4.22,1.82-5.49,4.13a1.42,1.42,0,0,0,2.47,1.39c1.1-2,3.67-2.43,5.42-3.73a7.28,7.28,0,0,0,2.58-5.36A5.07,5.07,0,0,0,193.71,40.7Z"/><path id="b3ff23fd-852f-4b6e-ac96-0dbed6fa0cc9" data-name="Path 18559" class="ebdca94b-b46e-4a3c-80c4-e5592bf4192e" d="M185.43,57.38a1.42,1.42,0,0,0,0,2.83A1.42,1.42,0,0,0,185.43,57.38Z"/><path id="b11d2614-b3fb-4ddb-b685-4cd8c0569522" data-name="Path 18560" class="abed9b2a-a22c-4761-8ff2-d2a13fbd625f" d="M194.7,30.9a43,43,0,0,0,1.24-4.34c-2.55.92-6,2.21-9.81,3.61a77.18,77.18,0,0,1-11.82,6.77,3.56,3.56,0,0,0-1.94,2.34l-2.93,11.27a3.59,3.59,0,0,0,6.94,1.8l2.5-9.66C185.68,39.39,193.36,34.88,194.7,30.9Z"/><path id="b1f65b93-a965-43ac-a7cf-9a9056ed4b76" data-name="Path 18561" class="b57e1ed2-d383-4196-a020-09a57ee3cdb8" d="M168.14,17.52A7.66,7.66,0,0,0,166.22,23a1,1,0,0,0,1.89,0,5.61,5.61,0,0,1,1.38-4.12C170.31,17.94,169,16.62,168.14,17.52Z"/><path id="ff54f0b2-698a-4386-8b56-a43bed90cc26" data-name="Path 18562" class="b57e1ed2-d383-4196-a020-09a57ee3cdb8" d="M170.61,15.27a1,1,0,0,0,0,1.89A.95.95,0,0,0,170.61,15.27Z"/></g><g id="e9ec2190-d736-45f3-880a-6311c47e1f74" data-name="Group 3881"><path id="ecd521c9-2730-493d-a9dd-d8e184692fff" data-name="Path 18565" class="b7dcc35c-29e8-4159-9644-3eb715e708be" d="M129.22,37.14a1.61,1.61,0,0,0-1,.58l-.12.17a1.08,1.08,0,0,0-.2.9,1.19,1.19,0,0,0,.57.78,1.62,1.62,0,0,0,2-.44l.13-.17a1.13,1.13,0,0,0,.2-.89,1.19,1.19,0,0,0-.57-.78A1.46,1.46,0,0,0,129.22,37.14Z"/><path id="be1fa05e-3031-47cd-820e-4c6305f08cf6" data-name="Path 18566" class="e71a5fa6-dc0b-449f-8dd7-3c9cbc940f1f" d="M127,20.11a5.63,5.63,0,0,0-3.86-.59,6.11,6.11,0,0,0-5,5.84,1.14,1.14,0,0,0,.45.9,1.82,1.82,0,0,0,1.45.32,1,1,0,0,0,.91-1.07A3.21,3.21,0,0,1,123.26,22l.38-.1c2.22-.44,4,1.84,4.51,3.61s0,3.51-.56,5.16A18.07,18.07,0,0,0,127,33a.86.86,0,0,0,.22.81,1.57,1.57,0,0,0,1.37.3,1.51,1.51,0,0,0,1.24-1.16,22.76,22.76,0,0,1,.63-2.56,11.93,11.93,0,0,0,.66-4.67A7.3,7.3,0,0,0,127,20.11Z"/><path id="abab73bb-24eb-4517-90a5-56cbf932583e" data-name="Path 18567" class="e71a5fa6-dc0b-449f-8dd7-3c9cbc940f1f" d="M135,30a1.3,1.3,0,0,0,1.63,1h0a1.52,1.52,0,0,0,1-.63,1.24,1.24,0,0,0,.17-1c-.28-1.35-.74-3.49-1.21-5.63s-.94-4.35-1.22-5.72a1.29,1.29,0,0,0-1.62-1,1.5,1.5,0,0,0-1,.62,1.35,1.35,0,0,0-.17,1c.28,1.35.74,3.48,1.21,5.62S134.71,28.64,135,30Z"/><path id="b6e95dbb-bef3-44b2-9cc4-a64303c8d032" data-name="Path 18568" class="b7dcc35c-29e8-4159-9644-3eb715e708be" d="M137.7,34.73l-.15,0a1.34,1.34,0,0,0-.86.6,1.4,1.4,0,0,0,1.47,2.16l.16,0a1.3,1.3,0,0,0,.86-.6,1.37,1.37,0,0,0,.21-1.08A1.43,1.43,0,0,0,137.7,34.73Z"/><path id="a5414f5a-79bb-48e1-8298-d770eee98af2" data-name="Path 18569" class="b57e1ed2-d383-4196-a020-09a57ee3cdb8" d="M127.44,19.28a6.59,6.59,0,0,0-4.5-.69,7.07,7.07,0,0,0-5.8,6.8,2.08,2.08,0,0,0,.8,1.61,2.8,2.8,0,0,0,2.22.51,1.93,1.93,0,0,0,1.67-2,2.28,2.28,0,0,1,1.73-2.56c1.82-.61,3.31,1.63,3.69,2.89.46,1.51,0,3-.55,4.59a16.53,16.53,0,0,0-.67,2.41,1.82,1.82,0,0,0,.48,1.66,2.47,2.47,0,0,0,2.21.54h0a2.4,2.4,0,0,0,2-1.91,23.43,23.43,0,0,1,.61-2.47,13.09,13.09,0,0,0,.7-5A8.26,8.26,0,0,0,127.44,19.28Zm3.64,6.42a12.12,12.12,0,0,1-.67,4.67,22.76,22.76,0,0,0-.63,2.56,1.51,1.51,0,0,1-1.24,1.16,1.57,1.57,0,0,1-1.37-.3A.84.84,0,0,1,127,33a18,18,0,0,1,.63-2.29c.55-1.65,1.11-3.36.56-5.16s-2.29-4.05-4.51-3.61l-.38.1a3.22,3.22,0,0,0-2.37,3.49,1,1,0,0,1-.91,1.07,1.87,1.87,0,0,1-1.45-.32,1.14,1.14,0,0,1-.45-.9,6.11,6.11,0,0,1,5-5.84,5.63,5.63,0,0,1,3.86.59,7.31,7.31,0,0,1,4.1,5.59Z"/><path id="ecab271f-cdd3-4897-8b25-6799be45d9d1" data-name="Path 18570" class="b57e1ed2-d383-4196-a020-09a57ee3cdb8" d="M127.5,37.16l-.12.17A2,2,0,0,0,127,39a2.13,2.13,0,0,0,1,1.4,2.38,2.38,0,0,0,1.69.27,2.5,2.5,0,0,0,1.53-1l.13-.17a2,2,0,0,0,.36-1.64,2.11,2.11,0,0,0-1-1.41A2.61,2.61,0,0,0,127.5,37.16Zm3.13,1.8-.13.17a1.62,1.62,0,0,1-2,.44,1.19,1.19,0,0,1-.57-.78,1.05,1.05,0,0,1,.2-.89l.12-.18a1.61,1.61,0,0,1,1-.58,1.51,1.51,0,0,1,1,.15,1.19,1.19,0,0,1,.57.78,1.13,1.13,0,0,1-.2.89Z"/><path id="a75a11bf-2192-424a-9c3e-c417f70ac8e8" data-name="Path 18571" class="b57e1ed2-d383-4196-a020-09a57ee3cdb8" d="M136.8,32h0a2.49,2.49,0,0,0,1.58-1,2.24,2.24,0,0,0,.3-1.73c-.27-1.36-.74-3.5-1.21-5.64s-.94-4.34-1.22-5.71a2.24,2.24,0,0,0-2.73-1.77,2.47,2.47,0,0,0-1.58,1,2.22,2.22,0,0,0-.3,1.72c.27,1.36.74,3.5,1.21,5.64s.94,4.35,1.22,5.72A2.23,2.23,0,0,0,136.8,32Zm-4.07-14.32a1.5,1.5,0,0,1,1-.62,1.29,1.29,0,0,1,1.62,1c.28,1.37.75,3.55,1.22,5.72s.93,4.28,1.21,5.63a1.27,1.27,0,0,1-.17,1,1.54,1.54,0,0,1-1,.62h0A1.3,1.3,0,0,1,135,30c-.28-1.37-.75-3.55-1.22-5.73s-.93-4.27-1.21-5.62a1.31,1.31,0,0,1,.17-1Z"/><path id="a895c650-acb4-4922-9730-2465b24419b9" data-name="Path 18572" class="b57e1ed2-d383-4196-a020-09a57ee3cdb8" d="M137.52,33.81l-.16,0a2.25,2.25,0,0,0-1.46,1,2.35,2.35,0,0,0,2.45,3.61l.15,0a2.3,2.3,0,0,0,1.47-1,2.34,2.34,0,0,0-2.45-3.6Zm1.66,3.08a1.3,1.3,0,0,1-.86.6l-.16,0a1.4,1.4,0,0,1-1.47-2.16,1.34,1.34,0,0,1,.86-.6l.15,0a1.44,1.44,0,0,1,1.7,1.08A1.41,1.41,0,0,1,139.18,36.89Z"/><path id="fe23bfb7-9206-4b60-95ba-0453c2ffbe59" data-name="Path 18573" class="b7dcc35c-29e8-4159-9644-3eb715e708be" d="M128.21,28.53a20.44,20.44,0,0,1-.62,2.16A16.51,16.51,0,0,0,127,33a.83.83,0,0,0,.21.81,1.57,1.57,0,0,0,1.37.3,1.51,1.51,0,0,0,1.24-1.15,22.4,22.4,0,0,1,.63-2.57A16.14,16.14,0,0,0,131.1,27C130.09,27.52,129.11,28,128.21,28.53Z"/><path id="e7d3dc53-5e28-4bb9-aaff-aece4d988c00" data-name="Path 18574" class="b7dcc35c-29e8-4159-9644-3eb715e708be" d="M136.63,24.13l-2.53,1.7c.36,1.62.68,3.13.89,4.18a1.3,1.3,0,0,0,1.63,1h0a1.52,1.52,0,0,0,1-.63,1.24,1.24,0,0,0,.17-1C137.5,28.12,137.07,26.15,136.63,24.13Z"/><path id="bcc99224-5433-4074-aa18-15bf91d5516d" data-name="Path 18575" class="e71a5fa6-dc0b-449f-8dd7-3c9cbc940f1f" d="M135.33,18.05a1.29,1.29,0,0,0-1.62-1,1.5,1.5,0,0,0-1,.62,1.31,1.31,0,0,0-.17,1c.16.76.37,1.78.62,2.9.79-.32,1.74-.7,2.66-1.1C135.64,19.54,135.46,18.7,135.33,18.05Z"/></g><path id="ae6cf071-e82e-4a2c-a4ce-5f7e8479b32d" data-name="Path 18707" class="e0dd26e2-524f-467a-9b15-344ecd5a6434" d="M121.69,57.92c-2.26.77-2.85,3.17-3,5.27-.12,1.83,2.71,1.73,2.83-.08.16-2.49,2-3.41,3.86-1.61a4.21,4.21,0,0,1,1,4c-.53,2.41-1.65,4.29-.88,6.81a1.42,1.42,0,0,0,2.72-.79c-.67-2.2.82-4.33,1.12-6.49a7.26,7.26,0,0,0-2-5.58A5.09,5.09,0,0,0,121.69,57.92Z"/><path id="f554f49f-3969-4ca5-a5f2-df8fc2340c50" data-name="Path 18708" class="e0dd26e2-524f-467a-9b15-344ecd5a6434" d="M127.73,75c-1.28,1.31.78,3.26,2,2S129,73.73,127.73,75Z"/><path id="ecb9ff07-faea-4b0b-ac90-7a54137e5aa6" data-name="Path 18709" class="e7b0b905-6331-49e5-a3f3-a140519888c6" d="M127.73,75c-1.28,1.31.78,3.26,2,2S129,73.73,127.73,75Z"/><path id="e87980f7-c95c-41a9-a130-b6c77cb732bd" data-name="Path 18720" class="e7b0b905-6331-49e5-a3f3-a140519888c6" d="M128.26,71.52c-.67-2.2.82-4.33,1.12-6.49a6.14,6.14,0,0,0-.84-3.86l-2.1,2.25a4.71,4.71,0,0,1,0,2.08c-.53,2.41-1.65,4.29-.88,6.81A1.42,1.42,0,0,0,128.26,71.52Z"/><g id="b0094db9-163b-41f2-84d0-9bbb524d42ab" data-name="Group 3922"><path id="ff538ffd-aa77-4bb0-854d-d427ff778311" data-name="Path 18721" class="b668e56d-efe5-41c1-9069-30d2bc559678" d="M12.2.3C3.3.16-2.7,13.53,2.08,20c2.3,3.1,7.61-.25,5.3-3.36-1.57-2.13-.71-4.75.55-6.94.89-1.55,3.1-4,5.13-3.18,4.09,1.6,3.9,8.75,2.79,12.24-1.32,4.12-2.85,7.8-.74,11.82,1.8,3.43,7.08,0,5.3-3.37-1-1.84.6-4.78,1.24-6.59a18.75,18.75,0,0,0,.81-9C21.78,6,18.53.39,12.2.3Z"/><path id="b34258fe-c7e2-4aaa-a554-104bf3639c40" data-name="Path 18722" class="b668e56d-efe5-41c1-9069-30d2bc559678" d="M20.48,33.14c-3.46,2.12-.23,7.18,3.22,5.07S23.93,31,20.48,33.14Z"/><path id="e97e2725-c9c6-4166-84f2-162cc491ca8e" data-name="Path 18723" class="b6ecd1af-3cb4-4a9e-86fc-aba8603bcd69" d="M6.73,15.35a46.16,46.16,0,0,0-6.29-2A9.84,9.84,0,0,0,2.08,20c2.3,3.1,7.61-.25,5.3-3.36A4.68,4.68,0,0,1,6.73,15.35Z"/><path id="e0d7475b-501b-4231-ba4a-8d2eb3b75651" data-name="Path 18724" class="b6ecd1af-3cb4-4a9e-86fc-aba8603bcd69" d="M3.82,4.77a16.46,16.46,0,0,0-2.76,5.32A39.11,39.11,0,0,1,6.89,12a11.79,11.79,0,0,1,1-2.11A56.72,56.72,0,0,1,3.82,4.77Z"/><path id="a3a5381e-eb02-4849-9cc3-dd83cbe29024" data-name="Path 18725" class="b6ecd1af-3cb4-4a9e-86fc-aba8603bcd69" d="M12,6.38c.79-1.94,1.63-3.86,2.4-5.8A9.38,9.38,0,0,0,6.15,2.45C7.39,4.1,8.58,5.78,10,7.32A4,4,0,0,1,12,6.38Z"/><path id="b6ae3542-d098-43ab-ad47-68a1c28b7549" data-name="Path 18726" class="b6ecd1af-3cb4-4a9e-86fc-aba8603bcd69" d="M15.75,9.41c1.91-.63,3.84-1.19,5.8-1.65a11.83,11.83,0,0,0-4.18-5.83c-.8,2-1.67,4-2.47,6A6.24,6.24,0,0,1,15.75,9.41Z"/><path id="be808537-a922-4f11-b326-2c7f4c87d56a" data-name="Path 18727" class="b6ecd1af-3cb4-4a9e-86fc-aba8603bcd69" d="M22.66,14.87a25.36,25.36,0,0,0-.2-3.26c0-.24-.06-.47-.1-.7a60.73,60.73,0,0,0-5.89,1.68,17.09,17.09,0,0,1,0,2.48C18.55,15,20.6,14.88,22.66,14.87Z"/><path id="ac0281aa-335c-400c-aa00-a28e341d0462" data-name="Path 18728" class="b6ecd1af-3cb4-4a9e-86fc-aba8603bcd69" d="M21.21,21.76c.16-.42.32-.8.44-1.15a17.87,17.87,0,0,0,.68-2.51c-2.12,0-4.24.16-6.36.23,0,.14-.08.29-.12.42-.28.86-.56,1.7-.82,2.54A25.16,25.16,0,0,1,21.21,21.76Z"/><path id="f7d45d70-b8ef-4034-a1f2-6b13e3ee3643" data-name="Path 18729" class="b6ecd1af-3cb4-4a9e-86fc-aba8603bcd69" d="M20.17,26.43a4.6,4.6,0,0,1,0-1.57,25.51,25.51,0,0,0-6-.29,9.92,9.92,0,0,0,.07,3.8A48.74,48.74,0,0,1,20.17,26.43Z"/><path id="b019c3ca-323d-4dbb-a255-2fa25bbab2fe" data-name="Path 18730" class="b6ecd1af-3cb4-4a9e-86fc-aba8603bcd69" d="M15.67,31.34c1.54,1.47,4.15.29,4.9-1.65A47,47,0,0,0,15.67,31.34Z"/></g><g id="a56ca342-8a29-48e9-a022-643a7786483c" data-name="Group 3939"><g id="e7e802ac-362b-448e-b3f1-a9afc8e40ad2" data-name="Group 3937"><path id="ee8d9791-549d-4469-af1e-5018ee2f96d3" data-name="Path 18815" class="b76e8d27-4e30-4b12-b827-141bea66ddb9" d="M85.19,46.68c-2.94-.76-4,3.81-1.11,4.57S88.12,47.44,85.19,46.68Z"/></g><g id="b6523950-e2ff-4d03-a05c-0fd6312b63f5" data-name="Group 3938"><path id="e4a7a3de-23c7-4001-a6b4-d47e693f9504" data-name="Path 18816" class="a00120b6-e088-4387-b8c9-36a300674c8b" d="M85.19,46.68c-2.94-.76-4,3.81-1.11,4.57S88.12,47.44,85.19,46.68Z"/></g><path id="a5b4cded-43a7-4363-b87c-32e5d17e63b6" data-name="Path 18817" class="b76e8d27-4e30-4b12-b827-141bea66ddb9" d="M96.84,22.28l-.27-.15A2.48,2.48,0,0,0,96.2,22c-.24-.08-6.08-2-10.3-1.93A5.25,5.25,0,0,0,82,22.32,7.71,7.71,0,0,0,80.83,29,2.14,2.14,0,0,0,85,27.88a3.09,3.09,0,0,1,1.12-3.58A32.63,32.63,0,0,1,94.67,26l.11.06c.2.11.46.25.61.35a10.55,10.55,0,0,1-.76,3.22c-.59.93-4.36,3.26-8.13,5A2.17,2.17,0,0,0,85.34,36L83.6,42.74a2.13,2.13,0,0,0,4.13,1.07l1.5-5.75c4-2,8.63-4.66,9.43-7C100.36,26,100,24,96.84,22.28Z"/><path id="b88513fb-afea-4417-83f5-232b49642698" data-name="Path 18820" class="ebdca94b-b46e-4a3c-80c4-e5592bf4192e" d="M98.07,36.87c-1.27-.65-2.54.1-3.49.92S95,39.66,95.79,39c1.13-1,2.31-.55,2.3,1A2.52,2.52,0,0,1,96.8,42c-1.25.78-2.51,1.08-3.27,2.46a.84.84,0,0,0,1.47.83c.66-1.2,2.19-1.45,3.24-2.23a4.32,4.32,0,0,0,1.53-3.19A3,3,0,0,0,98.07,36.87Z"/><path id="b74d8524-886a-46dc-a896-a6e0513e7bdb" data-name="Path 18821" class="ebdca94b-b46e-4a3c-80c4-e5592bf4192e" d="M93.13,46.81a.85.85,0,0,0,0,1.69A.85.85,0,0,0,93.13,46.81Z"/><path id="a75ce182-88a7-421b-91b4-54fb8b32e37b" data-name="Path 18822" class="a00120b6-e088-4387-b8c9-36a300674c8b" d="M98.66,31a26.11,26.11,0,0,0,.74-2.58c-1.52.55-3.61,1.31-5.85,2.15a46.4,46.4,0,0,1-7,4A2.17,2.17,0,0,0,85.34,36L83.6,42.74a2.13,2.13,0,0,0,4.13,1.07l1.5-5.75C93.28,36.09,97.86,33.4,98.66,31Z"/><path id="a2865ae6-dbfc-425c-856d-ebbf49600a4d" data-name="Path 18823" class="b57e1ed2-d383-4196-a020-09a57ee3cdb8" d="M82.82,23.05a4.52,4.52,0,0,0-1.14,3.26.56.56,0,0,0,1.12,0,3.39,3.39,0,0,1,.83-2.46C84.12,23.3,83.31,22.51,82.82,23.05Z"/><path id="be1d28dc-6fa9-4813-b7ca-b4c5f4f78a6a" data-name="Path 18824" class="b57e1ed2-d383-4196-a020-09a57ee3cdb8" d="M84.29,21.7a.57.57,0,0,0,0,1.13A.57.57,0,0,0,84.29,21.7Z"/></g></svg>