<svg xmlns="http://www.w3.org/2000/svg" xmlns:xlink="http://www.w3.org/1999/xlink" width="331.971" height="166.4" viewBox="0 0 331.971 166.4">
  <defs>
    <clipPath id="clip-path">
      <path id="Path_2535" data-name="Path 2535" d="M314.206,280.42s-4.748-73.587,68.218-82.918,79.464,67.987,79.464,67.987S414.659,301.482,314.206,280.42Z" transform="translate(-314.143 -196.721)" fill="none"/>
    </clipPath>
    <linearGradient id="linear-gradient" x1="-89.413" y1="33.928" x2="-89.413" y2="33.915" gradientUnits="objectBoundingBox">
      <stop offset="0" stop-color="#d56f45"/>
      <stop offset="1" stop-color="#db9248"/>
    </linearGradient>
    <linearGradient id="linear-gradient-2" x1="-75.753" y1="37.458" x2="-75.753" y2="37.443" xlink:href="#linear-gradient"/>
    <linearGradient id="linear-gradient-3" x1="-10.56" y1="11.272" x2="-10.564" y2="11.265" gradientUnits="objectBoundingBox">
      <stop offset="0" stop-color="#f6e16c"/>
      <stop offset="1" stop-color="#f0c931"/>
    </linearGradient>
    <linearGradient id="linear-gradient-4" x1="-100.327" y1="92.509" x2="-100.241" y2="92.509" gradientUnits="objectBoundingBox">
      <stop offset="0" stop-color="#f0c931"/>
      <stop offset="0.58" stop-color="#f8e88d"/>
    </linearGradient>
  </defs>
  <g id="Group_712" data-name="Group 712" transform="translate(-261.356 -137.22) rotate(-7)">
    <g id="Character" transform="translate(229.913 196.721)">
      <g id="Group_709" data-name="Group 709" transform="translate(0)">
        <path id="Path_2520" data-name="Path 2520" d="M232.255,291.419c-.99,3.953,49.819,45.957,170.214,37.313,103.447-7.426,154.114-54.777,154.114-54.777Z" transform="translate(-229.776 -192.189)" fill="#e8505b"/>
        <path id="Path_2521" data-name="Path 2521" d="M232.255,291.419c-.99,3.953,49.819,45.957,170.214,37.313,103.447-7.426,154.114-54.777,154.114-54.777Z" transform="translate(-229.776 -192.189)" opacity="0.2"/>
        <ellipse id="Ellipse_282" data-name="Ellipse 282" cx="162.881" cy="21.681" rx="162.881" ry="21.681" transform="translate(0 75.347) rotate(-2.73)" fill="#e8505b"/>
        <path id="Path_2522" data-name="Path 2522" d="M314.206,280.42s-4.748-73.587,68.218-82.918,79.464,67.987,79.464,67.987S414.659,301.482,314.206,280.42Z" transform="translate(-224.971 -196.721)" fill="#f3f3f3" stroke="#dfdfdf" stroke-linecap="round" stroke-linejoin="round" stroke-width="2"/>
        <g id="Group_697" data-name="Group 697" transform="translate(96.977 18.232)">
          <path id="Path_2523" data-name="Path 2523" d="M351.411,213.977c.239.357-2.292,2.314-5.982,5.826-.919.882-1.924,1.845-2.935,2.946-1.056,1.057-2.081,2.279-3.191,3.534a78.082,78.082,0,0,0-11.633,18.342c-.662,1.539-1.331,2.989-1.837,4.394-.565,1.385-1.008,2.7-1.414,3.912-1.6,4.833-2.3,7.957-2.72,7.892-.327-.04-.32-3.3.844-8.422.3-1.278.645-2.673,1.134-4.138.428-1.485,1.039-3.019,1.661-4.643A63.425,63.425,0,0,1,337.4,224.6c1.2-1.255,2.33-2.46,3.493-3.482,1.116-1.066,2.231-1.975,3.259-2.789C348.288,215.1,351.234,213.7,351.411,213.977Z" transform="translate(-321.515 -213.942)" fill="#fff"/>
        </g>
        <g id="Group_698" data-name="Group 698" transform="translate(247.699 80.322)">
          <path id="Path_2524" data-name="Path 2524" d="M530.338,272.592a3.221,3.221,0,0,1-.45.548,13.129,13.129,0,0,1-1.515,1.354,26.651,26.651,0,0,1-6.61,3.442,169.872,169.872,0,0,1-47.72,10.994c-3.134.251-5.675.364-7.431.411l-2.023.03a3.391,3.391,0,0,1-.706-.026,3.39,3.39,0,0,1,.7-.085l2.017-.133c1.751-.111,4.284-.284,7.406-.583a186.418,186.418,0,0,0,47.615-10.971,28.376,28.376,0,0,0,6.623-3.25C529.667,273.306,530.3,272.553,530.338,272.592Z" transform="translate(-463.883 -272.591)" fill="#fff"/>
        </g>
        <g id="Group_699" data-name="Group 699" transform="translate(130.212 112.895)">
          <path id="Path_2525" data-name="Path 2525" d="M367.163,328.377a4.834,4.834,0,0,1-1-.612,23.985,23.985,0,0,1-2.509-1.982,31.677,31.677,0,0,1-3.3-3.415,33.059,33.059,0,0,1-5.735-10.081,31.754,31.754,0,0,1-1.247-4.585,23.77,23.77,0,0,1-.421-3.17,4.732,4.732,0,0,1-.014-1.173c.1-.01.224,1.655.816,4.262a36.27,36.27,0,0,0,1.343,4.491,35.479,35.479,0,0,0,5.651,9.935,36.155,36.155,0,0,0,3.174,3.449C365.856,327.337,367.225,328.293,367.163,328.377Z" transform="translate(-352.907 -303.359)" fill="#263238"/>
        </g>
        <g id="Group_700" data-name="Group 700" transform="translate(138.637 120.969)">
          <path id="Path_2526" data-name="Path 2526" d="M361.7,311.128c.024.078-.263.2-.357.6a.749.749,0,0,0,.1.606.653.653,0,0,0,1.1-.3.748.748,0,0,0-.228-.57c-.284-.294-.592-.25-.61-.329-.051-.053.337-.306.853.024a1.093,1.093,0,0,1,.492.9,1.126,1.126,0,0,1-2.031.559,1.088,1.088,0,0,1-.036-1.024C361.251,311.038,361.714,311.057,361.7,311.128Z" transform="translate(-360.866 -310.985)" fill="#263238"/>
        </g>
        <g id="Group_701" data-name="Group 701" transform="translate(143.382 129.444)">
          <path id="Path_2527" data-name="Path 2527" d="M366.179,319.133c.024.078-.263.2-.356.595a.745.745,0,0,0,.1.606.654.654,0,0,0,1.1-.3.753.753,0,0,0-.229-.57c-.284-.294-.591-.25-.61-.329-.051-.053.338-.306.853.024a1.088,1.088,0,0,1,.492.9,1.125,1.125,0,0,1-2.031.558,1.089,1.089,0,0,1-.036-1.023C365.733,319.043,366.2,319.062,366.179,319.133Z" transform="translate(-365.348 -318.99)" fill="#263238"/>
        </g>
        <g id="Group_702" data-name="Group 702" transform="translate(1.412 83.752)">
          <path id="Path_2528" data-name="Path 2528" d="M231.247,288.367a5.466,5.466,0,0,1,.86-.284l2.5-.708c2.168-.613,5.324-1.427,9.241-2.367,7.832-1.884,18.746-4.132,30.92-5.87s23.288-2.612,31.334-2.987c4.024-.189,7.283-.288,9.534-.3l2.594-.016a5.691,5.691,0,0,1,.905.032,5.477,5.477,0,0,1-.9.079l-2.59.119c-2.249.083-5.5.24-9.52.48-8.032.474-19.118,1.419-31.278,3.143s-23.062,3.919-30.908,5.7c-3.925.89-7.093,1.646-9.276,2.195l-2.521.608A5.7,5.7,0,0,1,231.247,288.367Z" transform="translate(-231.247 -275.831)" fill="#263238"/>
        </g>
        <g id="Group_703" data-name="Group 703" transform="translate(203.401 83.822)">
          <path id="Path_2529" data-name="Path 2529" d="M456.694,296.653a8.893,8.893,0,0,1-1.359-.83l-3.609-2.394c-3.05-2.017-7.294-4.752-12.077-7.619s-9.2-5.316-12.42-7.052l-3.813-2.053a8.8,8.8,0,0,1-1.373-.806,8.846,8.846,0,0,1,1.469.614c.932.426,2.265,1.073,3.9,1.9,3.269,1.649,7.725,4.053,12.523,6.924s9.015,5.667,12.013,7.771c1.5,1.05,2.7,1.919,3.514,2.54A8.856,8.856,0,0,1,456.694,296.653Z" transform="translate(-422.041 -275.897)" fill="#263238"/>
        </g>
        <g id="Group_704" data-name="Group 704" transform="translate(207.75 90.35)">
          <path id="Path_2530" data-name="Path 2530" d="M426.788,282.4c.056.064-.257.326-.239.873a1.094,1.094,0,0,0,.344.782.98.98,0,0,0,1.531-.674,1.093,1.093,0,0,0-.345-.782c-.393-.383-.8-.327-.806-.412-.046-.053.436-.306,1.051.109a1.417,1.417,0,0,1,.608,1.081,1.446,1.446,0,0,1-2.384,1.051,1.416,1.416,0,0,1-.389-1.177C426.269,282.518,426.78,282.332,426.788,282.4Z" transform="translate(-426.149 -282.063)" fill="#263238"/>
        </g>
        <g id="Group_705" data-name="Group 705" transform="translate(70.755 86.248)">
          <path id="Path_2531" data-name="Path 2531" d="M297.386,278.527c.056.064-.257.325-.239.873a1.1,1.1,0,0,0,.344.782.981.981,0,0,0,1.531-.675,1.093,1.093,0,0,0-.345-.781c-.393-.383-.8-.328-.807-.413-.044-.053.437-.3,1.052.11a1.413,1.413,0,0,1,.608,1.08,1.446,1.446,0,0,1-2.384,1.052,1.419,1.419,0,0,1-.389-1.178C296.866,278.644,297.378,278.458,297.386,278.527Z" transform="translate(-296.747 -278.189)" fill="#263238"/>
        </g>
        <g id="Group_706" data-name="Group 706" transform="translate(45.484 89.434)">
          <path id="Path_2532" data-name="Path 2532" d="M273.514,281.536c.057.064-.257.325-.238.873a1.093,1.093,0,0,0,.344.782.981.981,0,0,0,1.531-.675,1.094,1.094,0,0,0-.346-.782c-.392-.383-.8-.327-.806-.412-.046-.053.437-.3,1.051.109a1.417,1.417,0,0,1,.609,1.081,1.446,1.446,0,0,1-2.384,1.051,1.416,1.416,0,0,1-.389-1.177C272.995,281.652,273.506,281.466,273.514,281.536Z" transform="translate(-272.876 -281.198)" fill="#263238"/>
        </g>
        <g id="Group_707" data-name="Group 707" transform="translate(16.664 93.888)">
          <path id="Path_2533" data-name="Path 2533" d="M246.293,285.743c.056.064-.257.325-.239.873a1.094,1.094,0,0,0,.344.782.981.981,0,0,0,1.531-.675,1.093,1.093,0,0,0-.345-.781c-.393-.383-.8-.328-.807-.413-.044-.053.437-.3,1.052.11a1.413,1.413,0,0,1,.608,1.081,1.446,1.446,0,0,1-2.384,1.051,1.417,1.417,0,0,1-.389-1.177C245.773,285.86,246.285,285.674,246.293,285.743Z" transform="translate(-245.654 -285.405)" fill="#263238"/>
        </g>
        <g id="Group_708" data-name="Group 708" transform="translate(219.29 98.138)">
          <path id="Path_2534" data-name="Path 2534" d="M437.687,289.758c.057.064-.257.325-.239.873a1.1,1.1,0,0,0,.345.781.98.98,0,0,0,1.531-.674,1.094,1.094,0,0,0-.346-.782c-.392-.383-.8-.327-.806-.412-.046-.053.437-.3,1.051.109a1.42,1.42,0,0,1,.609,1.081,1.446,1.446,0,0,1-2.384,1.051,1.415,1.415,0,0,1-.389-1.177C437.168,289.874,437.679,289.688,437.687,289.758Z" transform="translate(-437.049 -289.42)" fill="#263238"/>
        </g>
      </g>
    </g>
    <g id="Planets" transform="translate(319.207 195.728)">
      <g id="Group_711" data-name="Group 711">
        <g id="Group_710" data-name="Group 710" clip-path="url(#clip-path)">
          <g id="Group_508" data-name="Group 508" transform="translate(17.084 17.191)">
            <g id="Group_502" data-name="Group 502" transform="translate(44.253 89.738)">
              <path id="Path_643" data-name="Path 643" d="M382.037,321.411c-1.2-.84-2.714-1.3-4-2.015-.4-.223-.8-.427-1.206-.635.816-2.493.728-5.88,1-8.255.461-4.019,1.054-8.243.416-12.269a.72.72,0,0,0-1.379,0c-.711,3.612-1.449,7.217-2.313,10.8-.7,2.926-2.608,6.773-2.467,9.779a2.3,2.3,0,0,0,.129.638,1.743,1.743,0,0,0,.351.854,16.815,16.815,0,0,0,3.155,3.05,11.536,11.536,0,0,0,4.467,2.441,2.412,2.412,0,0,0,1.847-4.386Z" transform="translate(-372.08 -297.723)" fill="url(#linear-gradient)"/>
              <path id="Path_644" data-name="Path 644" d="M397.849,318.944a24.239,24.239,0,0,1-6.007-.99c-.068-2.2-.7-4.657-.85-6.356a101.008,101.008,0,0,0-1.537-11.838c-.2-.961-1.592-.68-1.639.221-.221,4.306-.336,8.612-.383,12.918-.023,1.96-.5,4.717.078,6.849a1.771,1.771,0,0,0,.541,1.281,3.657,3.657,0,0,0,.593.744,1.536,1.536,0,0,0,1.028.435,15.821,15.821,0,0,0,8.173,2.366C401.493,324.643,401.455,319.117,397.849,318.944Z" transform="translate(-371.191 -297.638)" fill="url(#linear-gradient-2)"/>
            </g>
            <path id="Path_645" data-name="Path 645" d="M392.832,224.215a22.86,22.86,0,0,1,4.858-9.352,1.124,1.124,0,0,0-1.59-1.589,17.868,17.868,0,0,0-5.883,11.1c-.394.042-.782.072-1.187.131-2.133-4.557-4.946-9.173-9.567-8.808a1.287,1.287,0,0,0-.645,2.38,25.914,25.914,0,0,1,3.853,2.707,18.729,18.729,0,0,1,2.8,4.086c.064.111.124.224.186.336-23.238,6.7-13.013,54.367-29.46,56.608a33.113,33.113,0,0,1-5.17.32q-1.383-1.116-2.732-2.23a17.109,17.109,0,0,1-1.3-1.867c-2.466-4.193-1.888-7.6-.03-11.807a1.363,1.363,0,0,0-1.792-1.757,9.55,9.55,0,0,0-5.4,7.6,60.014,60.014,0,0,1-4.208-4.915c-1.021-1.339-2.87-.022-2.391,1.427a29.534,29.534,0,0,0,3.914,7.689c-2.594-.454-5.123-.278-6.525,1.518a1.488,1.488,0,0,0,.017,1.779c1.753,2.7,6.923,2.873,9.744,4.13.193.088.372.189.56.282,4.735,8.83,15.568,20.5,39.965,22.178,39.941,2.748,40.709-24.122,40.739-43C421.615,247.831,413.15,224.022,392.832,224.215Z" transform="translate(-330.279 -212.959)" fill="url(#linear-gradient-3)"/>
            <g id="Group_503" data-name="Group 503" transform="translate(45.977 54.226)">
              <path id="Path_646" data-name="Path 646" d="M378.349,264.184a2.444,2.444,0,0,0-.308,4.877,2.482,2.482,0,0,0,.308,0,2.443,2.443,0,1,0,.307-4.877A2.489,2.489,0,0,0,378.349,264.184Z" transform="translate(-373.588 -264.179)" fill="#db9248"/>
              <path id="Path_647" data-name="Path 647" d="M384.818,264.535c-1.731,0-1.731,4.135,0,4.135C388.277,268.67,388.277,264.535,384.818,264.535Z" transform="translate(-373.132 -264.158)" fill="#db9248"/>
              <path id="Path_648" data-name="Path 648" d="M393.836,266.006a2.145,2.145,0,1,0,2.145,2.146h0A2.164,2.164,0,0,0,393.836,266.006Z" transform="translate(-372.653 -264.072)" fill="#db9248"/>
              <path id="Path_649" data-name="Path 649" d="M394.69,276.667a1.362,1.362,0,0,0-1.151-1.149,2.011,2.011,0,0,0-2.163.439,2.033,2.033,0,1,0,3.314.709Z" transform="translate(-372.705 -263.522)" fill="#db9248"/>
              <path id="Path_650" data-name="Path 650" d="M384.818,270.853c-1.731,0-1.731,3.83,0,3.83C388.277,274.682,388.277,270.853,384.818,270.853Z" transform="translate(-373.132 -263.788)" fill="#db9248"/>
              <path id="Path_651" data-name="Path 651" d="M375.006,272.875c-1.731,0-1.731,3.907,0,3.907C378.465,276.782,378.465,272.875,375.006,272.875Z" transform="translate(-373.708 -263.669)" fill="#db9248"/>
              <path id="Path_652" data-name="Path 652" d="M382.438,278.6a2.431,2.431,0,1,0-.333,4.85,2.492,2.492,0,0,0,.333,0C385.037,283.456,385.037,278.6,382.438,278.6Z" transform="translate(-373.348 -263.333)" fill="#db9248"/>
            </g>
            <path id="Path_653" data-name="Path 653" d="M414.393,256.038c2.879-1.538,12.83-1.858,12.83-1.858l-8.21,7.368,3.9,4.084s-6.75-.78-8.942-2C412.159,262.608,410.224,258.264,414.393,256.038Z" transform="translate(-325.49 -210.54)" fill="#db9248" stroke="#db9248" stroke-linecap="round" stroke-linejoin="round" stroke-width="2"/>
            <g id="Group_504" data-name="Group 504" transform="translate(65.792 31.611)">
              <path id="Path_654" data-name="Path 654" d="M395.421,242.825c-3.994,0-3.994,6.514,0,6.514a3.265,3.265,0,0,0,.467-6.514A3.445,3.445,0,0,0,395.421,242.825Z" transform="translate(-392.425 -242.818)" fill="#494d54"/>
            </g>
            <g id="Group_505" data-name="Group 505" transform="translate(85.702 32.476)">
              <path id="Path_655" data-name="Path 655" d="M414.228,243.644c-4,0-4,6.514,0,6.514a3.265,3.265,0,1,0,.467-6.514A3.124,3.124,0,0,0,414.228,243.644Z" transform="translate(-411.232 -243.635)" fill="#494d54"/>
            </g>
            <line id="Line_132" data-name="Line 132" x1="9.089" y1="4.761" transform="translate(64.928 25.901)" fill="none" stroke="#494d54" stroke-linecap="round" stroke-miterlimit="10" stroke-width="3"/>
            <line id="Line_133" data-name="Line 133" y1="3.319" x2="9.051" transform="translate(84.443 27.632)" fill="none" stroke="#494d54" stroke-linecap="round" stroke-miterlimit="10" stroke-width="3"/>
            <g id="Group_507" data-name="Group 507" transform="translate(81.099 74.591)">
              <circle id="Ellipse_45" data-name="Ellipse 45" cx="5.125" cy="5.125" r="5.125" fill="url(#linear-gradient-4)"/>
              <g id="Group_506" data-name="Group 506" transform="translate(4.395 4.055)">
                <path id="Path_656" data-name="Path 656" d="M412.855,291.264a3.778,3.778,0,0,0,.151-4.018" transform="translate(-410.928 -287.246)" fill="none" stroke="#db9248" stroke-linecap="round" stroke-miterlimit="10" stroke-width="0.75"/>
                <path id="Path_657" data-name="Path 657" d="M411.035,289.454a3.78,3.78,0,0,0,3.935-.823" transform="translate(-411.035 -287.165)" fill="none" stroke="#db9248" stroke-linecap="round" stroke-miterlimit="10" stroke-width="0.75"/>
              </g>
            </g>
            <path id="Path_658" data-name="Path 658" d="M417.449,270.084c-13.412,3.842-20.952,17.769-21.309,31.237C412.69,296.662,416.547,283.073,417.449,270.084Z" transform="translate(-326.415 -209.607)" fill="#f8e88d"/>
          </g>
        </g>
      </g>
    </g>
  </g>
</svg>
