<svg xmlns="http://www.w3.org/2000/svg" xmlns:xlink="http://www.w3.org/1999/xlink" width="206.333" height="177.467" viewBox="0 0 206.333 177.467">
  <defs>
    <clipPath id="clip-path">
      <path id="Path_2535" data-name="Path 2535" d="M408.39,249.856s3.03-46.715-43.535-52.639-50.712,43.16-50.712,43.16S344.283,263.227,408.39,249.856Z" transform="translate(-314.142 -196.721)" fill="none"/>
    </clipPath>
    <linearGradient id="linear-gradient" x1="90.413" y1="33.928" x2="90.413" y2="33.915" gradientUnits="objectBoundingBox">
      <stop offset="0" stop-color="#d56f45"/>
      <stop offset="1" stop-color="#db9248"/>
    </linearGradient>
    <linearGradient id="linear-gradient-2" x1="76.753" y1="37.458" x2="76.753" y2="37.443" xlink:href="#linear-gradient"/>
    <linearGradient id="linear-gradient-3" x1="11.56" y1="11.272" x2="11.564" y2="11.265" gradientUnits="objectBoundingBox">
      <stop offset="0" stop-color="#f6e16c"/>
      <stop offset="1" stop-color="#f0c931"/>
    </linearGradient>
    <linearGradient id="linear-gradient-4" x1="101.327" y1="92.509" x2="101.241" y2="92.509" gradientUnits="objectBoundingBox">
      <stop offset="0" stop-color="#f0c931"/>
      <stop offset="0.58" stop-color="#f8e88d"/>
    </linearGradient>
  </defs>
  <g id="Group_2351" data-name="Group 2351" transform="translate(-1672.946 -861.377)">
    <g id="Group_2350" data-name="Group 2350">
      <g id="Group_2349" data-name="Group 2349" transform="translate(1444.638 602.001)">
        <path id="Path_14185" data-name="Path 14185" d="M347.873,257a80.491,80.491,0,0,0-38.6,151.135c1.466,5.9,6.661,13.2,12.831,13.2.328,0,.654-.015.979-.039a13.914,13.914,0,0,0,1.742,4.175A11.86,11.86,0,0,0,332.966,431a14.558,14.558,0,0,0,2.364.2,12.834,12.834,0,0,0,10.621-5.558c.12-.171.224-.348.336-.522.281.019.56.042.844.042a13.46,13.46,0,0,0,8.3-2.9,16.321,16.321,0,0,0,1.989-1.816c.242-.03.482-.066.723-.1a13.706,13.706,0,0,0,.62,1.6,13.062,13.062,0,0,0,8.923,7.266,11.743,11.743,0,0,0,2.627.3h0a10.806,10.806,0,0,0,1.627-.122,12.753,12.753,0,0,0,11.016-13c-.007-.29-.028-.575-.052-.86.353-.154.7-.316,1.043-.5,2.464-1.3,4.351-6.25,5.485-8.593A80.5,80.5,0,0,0,347.873,257Z" transform="translate(6.254 5.649)" fill="#fff"/>
        <g id="Group_2348" data-name="Group 2348">
          <path id="Path_14186" data-name="Path 14186" d="M422.533,343.765a68.4,68.4,0,1,1-68.406-68.4A68.405,68.405,0,0,1,422.533,343.765Z" fill="#1d355e" fill-rule="evenodd"/>
          <g id="Group_2347" data-name="Group 2347">
            <g id="Group_2346" data-name="Group 2346">
              <path id="Path_14204" data-name="Path 14204" d="M327.521,353.1a7.406,7.406,0,0,1-1.1-.114q-4.594-1.252-9.181-2.537a8.814,8.814,0,0,1-1.115-.418,1.1,1.1,0,0,1-.729-1.081c.037-1.321.029-2.651.176-3.961a82.992,82.992,0,0,1,5.452-20.476,37.184,37.184,0,0,1,4.662-8.742,24.011,24.011,0,0,1,2.843-3.3,42.157,42.157,0,0,1,14.813-9.046,24,24,0,0,1,7.4-1.307,48.712,48.712,0,0,1,8.125.429,53.59,53.59,0,0,1,9.329,1.879,19.884,19.884,0,0,1,8.006,4.627q1.137,1.11,2.291,2.2a27.494,27.494,0,0,1,7.012,11.387,64.057,64.057,0,0,1,3,13.546c.364,3.287.509,6.6.806,9.893.129,1.441.4,2.87.592,4.306a3.746,3.746,0,0,1,0,.549,29.756,29.756,0,0,1-9.576,2.786c-.177-1.15-.324-2.317-.536-3.472a30.1,30.1,0,0,0-4.749-12.1c-.647-.922-1.285-1.849-1.946-2.76a17.507,17.507,0,0,0-3.873-3.963c-1.286-.932-2.574-1.864-3.874-2.778a13.16,13.16,0,0,0-5.807-2.426,7.235,7.235,0,0,1-1-.3,12.606,12.606,0,0,1,.583-3.093c.193-1.034.471-2.054.721-3.122.687-.316,1.339-.628,2-.916,3.436-1.5,2.855-5.85.719-7.393a7.3,7.3,0,0,0-5.995-1.392,3.214,3.214,0,0,0-2.805,3.513,6.361,6.361,0,0,0,1.158,3.394c-1.316,2.906-1.722,6.073-2.551,9.193-.942.191-1.837.369-2.73.552-1.038.214-2.072.439-3.109.648a16.379,16.379,0,0,0-8.015,4.141,41.25,41.25,0,0,0-9.074,12.208,16.251,16.251,0,0,0-1.853,8.636A5.913,5.913,0,0,1,327.521,353.1Zm53.6-33.634c.251-.648.479-.943.436-1.191a3.471,3.471,0,0,0-.5-1.062,18.567,18.567,0,0,0-4.9-5.655c-1.693-1.252-3.481-2.384-5.273-3.5a5.275,5.275,0,0,0-1.679-.444c-.081-.017-.242.121-.287.222a.412.412,0,0,0,.034.365,1.91,1.91,0,0,0,.613.469,24.315,24.315,0,0,1,5.217,3.2,19.86,19.86,0,0,1,5.389,6.007C380.39,318.277,380.627,318.661,381.116,319.47Zm-61.1,15a4.833,4.833,0,0,0,.124.989.563.563,0,0,0,.408.322.589.589,0,0,0,.435-.3,2,2,0,0,0,.183-.759,12.907,12.907,0,0,1,1.074-4c.7-1.71,1.489-3.382,2.24-5.071a1.624,1.624,0,0,0,.233-.54c.006-.231-.028-.565-.178-.676-.308-.229-.615-.062-.815.255-.071.112-.124.234-.185.351a45.545,45.545,0,0,0-3.027,7.312C320.276,333.108,320.15,333.893,320.018,334.474Zm63.35-11.253a14.352,14.352,0,0,0-.479-1.558c-.066-.159-.4-.262-.611-.277-.093-.007-.308.282-.3.422a20.184,20.184,0,0,0,.305,2.118.548.548,0,0,0,.438.3.7.7,0,0,0,.454-.314A2.572,2.572,0,0,0,383.368,323.221Z" fill="#fff" fill-rule="evenodd"/>
              <path id="Path_14205" data-name="Path 14205" d="M313.392,344.718c-.126,1.767.191,3.411-.288,5.025a1.057,1.057,0,0,0,.54,1.346,14.866,14.866,0,0,0,2.335,1.083,93.813,93.813,0,0,0,16.763,4.057,167.064,167.064,0,0,0,23.771,1.522c4.7-.059,9.409.038,14.1-.379,3.423-.3,6.884-.4,10.2-1.487a4.239,4.239,0,0,1,.779-.15,45.038,45.038,0,0,0,8.56-2.488c1.7-.584,2.121-1.359,1.876-3.159-.1-.708-.215-1.413-.349-2.277a7.893,7.893,0,0,1,1.258.01c2.28.412,4.569.779,6.825,1.3a17.243,17.243,0,0,1,6.532,2.79,15.983,15.983,0,0,1,2.743,2.562c1.111,1.335,1.015,2.557.025,3.986a11.578,11.578,0,0,1-3.78,3.424c-2.01,1.184-4.178,1.992-6.255,3.011-1.367.669-2.766,1.278-4.107,1.994a25.008,25.008,0,0,1-6.119,2.288,89.268,89.268,0,0,1-10.971,1.758c-5.738.608-11.5.762-17.256.955-3.3.112-6.624-.065-9.925-.281-3.7-.243-7.385-.684-11.078-1.024a82.517,82.517,0,0,1-16.333-3.22,92.307,92.307,0,0,1-18.524-7.567,24.508,24.508,0,0,1-5.066-3.471,17.489,17.489,0,0,1-2.2-2.543c-.918-1.3-.813-1.959.238-3.187a8.081,8.081,0,0,1,3.209-2.288c3.018-1.18,6.077-2.255,9.122-3.366A6.734,6.734,0,0,1,313.392,344.718Zm38.737,15.31c-.594.038-1.192.041-1.779.124a2.753,2.753,0,0,0-2.039,1.425c-1.391,2.357.388,6.522,3.082,7.058a6.872,6.872,0,0,0,5.78-1.433,2.9,2.9,0,0,0,1.142-1.8,4.022,4.022,0,0,0-1.995-4.386A7.379,7.379,0,0,0,352.129,360.028Zm26.447-.9a9.568,9.568,0,0,0-3.481.741,3.913,3.913,0,0,0-2.3,3.237,4.392,4.392,0,0,0,3.433,4.484,8.487,8.487,0,0,0,5.374-.959,3.156,3.156,0,0,0,1.7-2.1,4.321,4.321,0,0,0-3.159-5.2C379.633,359.214,379.1,359.193,378.576,359.126Zm-50.738,6.742a5.823,5.823,0,0,0,4.559-1.848,3.3,3.3,0,0,0,.959-2.311,3.993,3.993,0,0,0-2.838-4.263,8.121,8.121,0,0,0-2.51-.42c-2.73-.032-3.648.688-4.215,3.359C323.254,362.921,324.486,366.018,327.838,365.868Zm-22.214-11.327c.034.279.057.744.152,1.192a3.1,3.1,0,0,0,3.4,2.653,6.183,6.183,0,0,0,3.674-1.278,3.185,3.185,0,0,0,.711-4.549,4.539,4.539,0,0,0-4.451-2A3.649,3.649,0,0,0,305.624,354.541ZM392.1,357.6a3.336,3.336,0,0,0,4.371,3.189,6.535,6.535,0,0,0,2.6-1.38,3.159,3.159,0,0,0,1.122-3.535,3.753,3.753,0,0,0-3.208-2.543,5.784,5.784,0,0,0-3.194.852A3.612,3.612,0,0,0,392.1,357.6Z" fill="#fff" fill-rule="evenodd"/>
              <path id="Path_14206" data-name="Path 14206" d="M336.555,387.35c-.52,1.635-1.092,3.123-1.458,4.66a19.4,19.4,0,0,0-.3,6.913,6.607,6.607,0,0,0,.534,1.9,2.967,2.967,0,0,0,3.8,1.641,10.624,10.624,0,0,0,1.762-.9c.979-.555,1.918-1.185,2.921-1.692a7.94,7.94,0,0,1,2.053-.692,2.516,2.516,0,0,1,2.733,1.2c.431.665.771,1.388,1.159,2.081.452.81.861,1.649,1.383,2.411a6.3,6.3,0,0,0,1.352,1.436,2.891,2.891,0,0,0,3.984-.092,13.824,13.824,0,0,0,1.946-2.236c.589-.8,1.057-1.682,1.6-2.512a4.405,4.405,0,0,1,1.928-1.662,2.647,2.647,0,0,1,3.276.425,6.6,6.6,0,0,0,3.43,1.9,5.37,5.37,0,0,0,4.973-1.355,7.419,7.419,0,0,0,2.431-6.635,37.014,37.014,0,0,0-2.231-8.356l1.316-.749c.454.538.852.976,1.213,1.442a73.887,73.887,0,0,1,8.617,14.026c.81,1.74,1.715,3.437,2.619,5.131a11.511,11.511,0,0,1,.941,6.594,1.9,1.9,0,0,1-1.985,1.84,5.905,5.905,0,0,1-4.291-1.191c-.856-.729-1.8-1.354-2.708-2.019a3.314,3.314,0,0,0-2.243-.644,2.091,2.091,0,0,0-2.138,1.718,8.176,8.176,0,0,0-.215,2.365c.152,1.995-2.483,3.009-3.908,1.846-.459-.374-.867-.811-1.294-1.223-.714-.69-1.4-1.409-2.142-2.067a4.187,4.187,0,0,0-2.927-1.027,8.277,8.277,0,0,0-2.919.511,5.006,5.006,0,0,0-3.079,2.912c-.307.8-.534,1.636-.832,2.443a22.062,22.062,0,0,1-1.186,2.939,7.225,7.225,0,0,1-1.61,1.98,2.484,2.484,0,0,1-3.583-.143,6.989,6.989,0,0,1-1.3-1.739c-.65-1.226-1.207-2.5-1.785-3.767-.659-1.446-1.278-2.91-1.947-4.351-1.493-3.218-4.085-4.091-7.4-2.427a20.251,20.251,0,0,0-3.541,2.532c-1.387,1.127-2.66,2.394-4.051,3.518a29.179,29.179,0,0,1-3.4,2.4c-2.345,1.395-4.245-.292-4.3-2.463a24.266,24.266,0,0,1,.857-6.878,102.056,102.056,0,0,1,8.435-21.186c.124-.234.232-.478.375-.7a1.161,1.161,0,0,1,1.514-.591,4.927,4.927,0,0,1,.577.15C335.832,387.076,336.139,387.2,336.555,387.35Z" fill="#ff7277" fill-rule="evenodd"/>
              <path id="Path_14208" data-name="Path 14208" d="M371.5,386.517a3.434,3.434,0,0,1,1.132,1.907c.5,2.056,1.073,4.1,1.413,6.185a5.125,5.125,0,0,1-1.915,4.77,3.692,3.692,0,0,1-4.445.175,17.27,17.27,0,0,1-1.712-1.351,3.61,3.61,0,0,0-3.157-.776,6.464,6.464,0,0,0-4.4,2.79c-.591.879-1.1,1.815-1.713,2.676a12.565,12.565,0,0,1-1.563,1.777.98.98,0,0,1-1.44-.014,7.052,7.052,0,0,1-1.143-1.354c-.428-.667-.767-1.39-1.141-2.091-.251-.466-.476-.947-.744-1.4a4.82,4.82,0,0,0-6.248-2.38,23.923,23.923,0,0,0-3.373,1.654c-.759.4-1.456.92-2.225,1.3a1.125,1.125,0,0,1-1.742-.691,3.459,3.459,0,0,1-.261-.951,18.23,18.23,0,0,1,1.24-9.341c.217-.471.52-.9.777-1.34,1.432-.207,2.69.356,4,.448,2.11.15,4.21.511,6.321.586a61.157,61.157,0,0,0,11.3-.351c3.07-.463,6.1-1.18,9.148-1.792C370.252,386.821,370.886,386.658,371.5,386.517Z" fill="#ffed2f" fill-rule="evenodd"/>
              <path id="Path_14209" data-name="Path 14209" d="M397,367.894c.01.189.084.409.014.56a1.189,1.189,0,0,1-.447.382,58.072,58.072,0,0,1-15.812,7.265,53.932,53.932,0,0,1-10.718,1.989,34.961,34.961,0,0,0-3.548.438,37.673,37.673,0,0,1-6.733.415c-6.5-.035-12.987-.329-19.445-.976a115.9,115.9,0,0,1-16.609-2.936,36.034,36.034,0,0,1-11.756-5.634c-2.122-1.47-4.206-3-6.323-4.479a13.522,13.522,0,0,1-3.247-3.454c-.054-.077-.007-.224-.007-.482A10.742,10.742,0,0,1,304.495,362a79.186,79.186,0,0,0,11.219,5.041,102.474,102.474,0,0,0,15.445,4.405c3.063.54,6.148.992,9.241,1.292q7.514.73,15.053,1.182c2.372.14,4.765-.005,7.145-.089,3.641-.129,7.283-.26,10.918-.495a89.461,89.461,0,0,0,16.683-2.412,26.78,26.78,0,0,0,6.4-2.635,2.166,2.166,0,0,0,.408-.409Z" fill="#57d4ff" fill-rule="evenodd"/>
              <path id="Path_14210" data-name="Path 14210" d="M377.125,379.419a4.114,4.114,0,0,1-1.758,2.922,11.515,11.515,0,0,1-4.037,2.07,86.337,86.337,0,0,1-10.469,2.232,47.7,47.7,0,0,1-5.34.412,82.1,82.1,0,0,1-9.919-.249,56.874,56.874,0,0,1-10.492-2.075c-.876-.256-1.739-.574-2.611-.855a6.882,6.882,0,0,1-3.763-2.778c-.577-.886-1.109-1.8-1.642-2.715a2.031,2.031,0,0,1-.116-.591,2.339,2.339,0,0,1,.628.007,56.143,56.143,0,0,0,9.732,1.845,179.311,179.311,0,0,0,19.6,1.285c1.982.06,3.968.046,5.951-.016,1.252-.04,2.5-.2,3.75-.358,3.346-.412,6.689-.85,10.035-1.268C376.789,379.272,376.918,379.355,377.125,379.419Z" fill="#fff" fill-rule="evenodd"/>
              <path id="Path_14211" data-name="Path 14211" d="M397.009,367.88a2.9,2.9,0,0,0,.308.047.524.524,0,0,0,.164-.04c-.059.032-.12.094-.175.09a1.481,1.481,0,0,1-.306-.084Z" fill="#fff" fill-rule="evenodd"/>
              <path id="Path_14212" data-name="Path 14212" d="M341.036,423.755c1.618.025,2.135.522,2.226,2.016a4.236,4.236,0,0,1-.459,2.479,2.971,2.971,0,0,1-1.421,1.311,1.7,1.7,0,0,1-2.412-.995,4.581,4.581,0,0,1,.169-3.637C339.559,424.085,340.175,423.575,341.036,423.755Z" fill="#ff7277" fill-rule="evenodd"/>
              <path id="Path_14213" data-name="Path 14213" d="M376.233,425.412a1.887,1.887,0,0,1,2.03-1.961,2.371,2.371,0,0,1,1.968,2.375,1.93,1.93,0,0,1-1.928,2.066A2.351,2.351,0,0,1,376.233,425.412Z" fill="#ff7277" fill-rule="evenodd"/>
              <path id="Path_14214" data-name="Path 14214" d="M352.584,366.7a2.968,2.968,0,0,1-2.665-2.9c.021-.518.786-1.607,1.26-1.647a5.969,5.969,0,0,1,4.212.71,2.716,2.716,0,0,1,.58.531,1.685,1.685,0,0,1-.376,2.439A5.44,5.44,0,0,1,352.584,366.7Z" fill="#ffed2f" fill-rule="evenodd"/>
              <path id="Path_14215" data-name="Path 14215" d="M377.445,365.73a2.454,2.454,0,0,1-2.2-1.209,1.91,1.91,0,0,1,.865-2.813,5.7,5.7,0,0,1,3.5-.386,2.066,2.066,0,0,1,1.494,1.194,1.6,1.6,0,0,1-.8,2.46A22.11,22.11,0,0,1,377.445,365.73Z" fill="#ffed2f" fill-rule="evenodd"/>
              <path id="Path_14216" data-name="Path 14216" d="M328.1,363.816c-1.57.02-2.306-.606-2.367-2.074-.069-1.67.739-2.866,2.545-2.678a5.559,5.559,0,0,1,2.049.577,1.967,1.967,0,0,1,.225,3.3A3.585,3.585,0,0,1,328.1,363.816Z" fill="#ffed2f" fill-rule="evenodd"/>
              <path id="Path_14217" data-name="Path 14217" d="M309.151,356.3c-.885,0-1.3-.373-1.417-1.3-.146-1.119.137-1.92.875-2.219a2.478,2.478,0,0,1,2.285.083,3.625,3.625,0,0,1,.891.765,1.205,1.205,0,0,1-.239,1.881A3.728,3.728,0,0,1,309.151,356.3Z" fill="#ffed2f" fill-rule="evenodd"/>
              <path id="Path_14218" data-name="Path 14218" d="M396.557,355.371a1.539,1.539,0,0,1,1.38.58,1.248,1.248,0,0,1-.11,1.784,8.266,8.266,0,0,1-1.888,1.039,1.232,1.232,0,0,1-1.555-.525,1.489,1.489,0,0,1-.016-1.674A2.6,2.6,0,0,1,396.557,355.371Z" fill="#ffed2f" fill-rule="evenodd"/>
            </g>
            <path id="Path_14220" data-name="Path 14220" d="M376.923,383.779c.473.639.852,1.177,1.256,1.7a84.324,84.324,0,0,1,8.315,13.288c1.028,2,1.951,4.057,2.972,6.062a13.517,13.517,0,0,1,1.075,7.95,3.616,3.616,0,0,1-2.04,2.777,6.321,6.321,0,0,1-4.612.6,5.812,5.812,0,0,1-1.737-.9c-1.2-.823-2.355-1.714-3.546-2.554-.366-.258-.755-.577-1.366-.238a3.5,3.5,0,0,0-.255,1.831,3.932,3.932,0,0,1-2.458,3.944,4.485,4.485,0,0,1-4.854-.553,11.612,11.612,0,0,1-1.3-1.22,13.488,13.488,0,0,1-1.034-1.207,3.812,3.812,0,0,0-4.108-1.3,3.237,3.237,0,0,0-2.663,2.124c-.246.684-.445,1.386-.706,2.065-.475,1.232-.938,2.473-1.485,3.674a6.531,6.531,0,0,1-2.014,2.426,4.643,4.643,0,0,1-6.32-.3,9.042,9.042,0,0,1-1.554-2.045c-.647-1.152-1.189-2.365-1.734-3.571-.519-1.146-.964-2.326-1.481-3.472a15.692,15.692,0,0,0-1.1-2.108,2.387,2.387,0,0,0-3.059-1.187,7.274,7.274,0,0,0-2.129,1.026c-1.08.759-2.09,1.62-3.1,2.473-1.519,1.281-2.985,2.626-4.529,3.874a16.011,16.011,0,0,1-2.5,1.613c-3.654,1.963-6.97-.693-7.115-4.093a25.21,25.21,0,0,1,.963-7.857,97.691,97.691,0,0,1,7.628-19.583,12.855,12.855,0,0,0,1.351-3.057,3.34,3.34,0,0,0-.533-.379,10.6,10.6,0,0,1-5.092-4.834c-.606-1.1-1.252-2.181-1.924-3.349a5.978,5.978,0,0,0-.847-.345,38.958,38.958,0,0,1-12.647-6.067c-2.011-1.4-3.987-2.853-6-4.252a13.578,13.578,0,0,1-3.141-3.013c-1.512-2.012-3.031-4.019-4.523-6.047a8.447,8.447,0,0,1-.764-1.383c-.342-.715-.616-1.462-.981-2.164a3.786,3.786,0,0,1,.426-4.284,10.3,10.3,0,0,1,4.525-3.467c2.945-1.185,5.936-2.264,8.942-3.287a16.972,16.972,0,0,1,3.117-.513c.452-.064.913-.064,1.482-.1.146-.666.292-1.3.425-1.942a91.829,91.829,0,0,1,6.329-19.825c.334-.721.714-1.419,1.065-2.132,2.567-5.216,6.63-9.032,11.394-12.2a46.088,46.088,0,0,1,9.746-4.88,21.324,21.324,0,0,1,6.2-1.3,49.077,49.077,0,0,1,8.73.166,72.3,72.3,0,0,1,9.776,1.7,25.43,25.43,0,0,1,10.668,5.871,33.8,33.8,0,0,1,10.158,16.507,82.947,82.947,0,0,1,2.73,15.425c.144,1.778.342,3.551.516,5.339a17.348,17.348,0,0,0,4.294,1.035c1.875.409,3.775.719,5.625,1.218a18.857,18.857,0,0,1,7.383,3.74,8.376,8.376,0,0,1,3.3,5.886,2.611,2.611,0,0,1-.375,1.867,13.987,13.987,0,0,1-1.776,2.121c-1.9,1.745-3.861,3.434-5.819,5.12a47.5,47.5,0,0,1-6.569,4.461c-1.473.89-2.976,1.73-4.443,2.631a40.765,40.765,0,0,1-8.35,3.659c-1.626.552-3.26,1.076-4.943,1.629C379.066,380.423,378.521,382.364,376.923,383.779Zm20.086-15.9a2.166,2.166,0,0,1-.408.409,26.78,26.78,0,0,1-6.4,2.635,89.461,89.461,0,0,1-16.683,2.412c-3.635.235-7.277.366-10.918.495-2.38.084-4.773.229-7.145.089q-7.535-.444-15.053-1.182c-3.093-.3-6.178-.752-9.241-1.292a102.474,102.474,0,0,1-15.445-4.405A79.186,79.186,0,0,1,304.495,362a10.742,10.742,0,0,0-2.127-1.018c0,.258-.047.4.007.482a13.522,13.522,0,0,0,3.247,3.454c2.117,1.48,4.2,3.009,6.323,4.479a36.034,36.034,0,0,0,11.756,5.634,115.9,115.9,0,0,0,16.609,2.936c6.458.647,12.948.941,19.445.976a37.673,37.673,0,0,0,6.733-.415,34.961,34.961,0,0,1,3.548-.438,53.932,53.932,0,0,0,10.718-1.989,58.072,58.072,0,0,0,15.812-7.265,1.189,1.189,0,0,0,.447-.382c.07-.151,0-.371-.013-.561a1.481,1.481,0,0,0,.306.084c.055,0,.116-.058.175-.09a.524.524,0,0,1-.164.04A2.9,2.9,0,0,1,397.009,367.88ZM327.521,353.1a5.913,5.913,0,0,0,.071-.8,16.251,16.251,0,0,1,1.853-8.636,41.25,41.25,0,0,1,9.074-12.208,16.379,16.379,0,0,1,8.015-4.141c1.037-.209,2.071-.434,3.109-.648.893-.183,1.788-.361,2.73-.552.829-3.12,1.235-6.287,2.551-9.193a6.361,6.361,0,0,1-1.158-3.394,3.214,3.214,0,0,1,2.805-3.513,7.3,7.3,0,0,1,5.995,1.392c2.136,1.543,2.717,5.9-.719,7.393-.661.288-1.313.6-2,.916-.25,1.068-.528,2.088-.721,3.122a12.606,12.606,0,0,0-.583,3.093,7.235,7.235,0,0,0,1,.3,13.16,13.16,0,0,1,5.807,2.426c1.3.914,2.588,1.846,3.874,2.778A17.507,17.507,0,0,1,373.1,335.4c.661.911,1.3,1.838,1.946,2.76a30.1,30.1,0,0,1,4.749,12.1c.212,1.155.359,2.322.536,3.472a29.756,29.756,0,0,0,9.576-2.786,3.746,3.746,0,0,0,0-.549c-.2-1.436-.463-2.865-.592-4.306-.3-3.3-.442-6.606-.806-9.893a64.057,64.057,0,0,0-3-13.546,27.494,27.494,0,0,0-7.012-11.387q-1.15-1.1-2.291-2.2a19.884,19.884,0,0,0-8.006-4.627,53.59,53.59,0,0,0-9.329-1.879,48.712,48.712,0,0,0-8.125-.429,24,24,0,0,0-7.4,1.307,42.157,42.157,0,0,0-14.813,9.046,24.011,24.011,0,0,0-2.843,3.3,37.184,37.184,0,0,0-4.662,8.742,82.992,82.992,0,0,0-5.452,20.476c-.147,1.31-.139,2.64-.176,3.961a1.1,1.1,0,0,0,.729,1.081,8.814,8.814,0,0,0,1.115.418q4.587,1.283,9.181,2.537A7.406,7.406,0,0,0,327.521,353.1Zm-14.129-8.386a6.734,6.734,0,0,0-3.384.223c-3.045,1.111-6.1,2.186-9.122,3.366a8.081,8.081,0,0,0-3.209,2.288c-1.051,1.228-1.156,1.889-.238,3.187a17.489,17.489,0,0,0,2.2,2.543,24.508,24.508,0,0,0,5.066,3.471,92.307,92.307,0,0,0,18.524,7.567,82.517,82.517,0,0,0,16.333,3.22c3.693.34,7.378.781,11.078,1.024,3.3.216,6.623.393,9.925.281,5.756-.193,11.518-.347,17.256-.955a89.268,89.268,0,0,0,10.971-1.758,25.008,25.008,0,0,0,6.119-2.288c1.341-.716,2.74-1.325,4.107-1.994,2.077-1.019,4.245-1.827,6.255-3.011a11.578,11.578,0,0,0,3.78-3.424c.99-1.429,1.086-2.651-.025-3.986a15.983,15.983,0,0,0-2.743-2.562,17.243,17.243,0,0,0-6.532-2.79c-2.256-.52-4.545-.887-6.825-1.3a7.893,7.893,0,0,0-1.258-.01c.134.864.254,1.569.349,2.277.245,1.8-.175,2.575-1.876,3.159a45.038,45.038,0,0,1-8.56,2.488,4.239,4.239,0,0,0-.779.15c-3.311,1.092-6.772,1.183-10.2,1.487-4.69.417-9.4.32-14.1.379a167.064,167.064,0,0,1-23.771-1.522,93.813,93.813,0,0,1-16.763-4.057,14.866,14.866,0,0,1-2.335-1.083,1.057,1.057,0,0,1-.54-1.346C313.583,348.129,313.266,346.485,313.392,344.718Zm23.163,42.632c-.416-.153-.723-.274-1.034-.379a4.927,4.927,0,0,0-.577-.15,1.161,1.161,0,0,0-1.514.591c-.143.221-.251.465-.375.7A102.056,102.056,0,0,0,324.62,409.3a24.266,24.266,0,0,0-.857,6.878c.05,2.171,1.95,3.858,4.3,2.463a29.179,29.179,0,0,0,3.4-2.4c1.391-1.124,2.664-2.391,4.051-3.518a20.251,20.251,0,0,1,3.541-2.532c3.312-1.664,5.9-.791,7.4,2.427.669,1.441,1.288,2.9,1.947,4.351.578,1.265,1.135,2.541,1.785,3.767a6.989,6.989,0,0,0,1.3,1.739,2.484,2.484,0,0,0,3.583.143,7.225,7.225,0,0,0,1.61-1.98,22.062,22.062,0,0,0,1.186-2.939c.3-.807.525-1.64.832-2.443a5.006,5.006,0,0,1,3.079-2.912,8.277,8.277,0,0,1,2.919-.511,4.187,4.187,0,0,1,2.927,1.027c.741.658,1.428,1.377,2.142,2.067.427.412.835.849,1.294,1.223,1.425,1.163,4.06.149,3.908-1.846a8.176,8.176,0,0,1,.215-2.365,2.091,2.091,0,0,1,2.138-1.718,3.314,3.314,0,0,1,2.243.644c.909.665,1.852,1.29,2.708,2.019a5.905,5.905,0,0,0,4.291,1.191,1.9,1.9,0,0,0,1.985-1.84,11.511,11.511,0,0,0-.941-6.594c-.9-1.694-1.809-3.391-2.619-5.131a73.887,73.887,0,0,0-8.617-14.026c-.361-.466-.759-.9-1.213-1.442l-1.316.749a37.014,37.014,0,0,1,2.231,8.356,7.419,7.419,0,0,1-2.431,6.635,5.37,5.37,0,0,1-4.973,1.355,6.6,6.6,0,0,1-3.43-1.9,2.647,2.647,0,0,0-3.276-.425,4.405,4.405,0,0,0-1.928,1.662c-.547.83-1.015,1.715-1.6,2.512a13.824,13.824,0,0,1-1.946,2.236,2.891,2.891,0,0,1-3.984.092,6.3,6.3,0,0,1-1.352-1.436c-.522-.762-.931-1.6-1.383-2.411-.388-.693-.728-1.416-1.159-2.081a2.516,2.516,0,0,0-2.733-1.2,7.94,7.94,0,0,0-2.053.692c-1,.507-1.942,1.137-2.921,1.692a10.624,10.624,0,0,1-1.762.9,2.967,2.967,0,0,1-3.8-1.641,6.607,6.607,0,0,1-.534-1.9,19.4,19.4,0,0,1,.3-6.913C335.463,390.473,336.035,388.985,336.555,387.35Zm41.519-32.976a12.241,12.241,0,0,0-.328-4.055,28.227,28.227,0,0,0-3.4-9.482,26.361,26.361,0,0,0-9.276-9.892c-.626-.367-1.2-.835-1.817-1.212a9.839,9.839,0,0,0-3.486-1.382c-.959-.159-1.936-.516-2.821.316-.149.14-.657.044-.907-.1a.891.891,0,0,1-.364-1.045c.05-.192.131-.375.187-.565.334-1.143.715-2.275.984-3.434.42-1.8.763-3.624,1.136-5.437.168-.82.54-1.092,1.393-1,.129.014.252.1.381.109a2.23,2.23,0,0,0,2.432-2.781,2.524,2.524,0,0,0-.985-1.449,5.135,5.135,0,0,0-3.541-1.037c-1.774.128-2.153.957-1.605,2.759a1.358,1.358,0,0,0,.482.611,1.717,1.717,0,0,1,.35,2.47,15.018,15.018,0,0,0-1.4,4.12q-.586,2.818-1.213,5.627c-.189.85-.578,1.177-1.395.978a4.781,4.781,0,0,0-2.156.029c-1.231.253-2.455.539-3.689.782a15.42,15.42,0,0,0-8.018,4.5,43.686,43.686,0,0,0-7.024,9.343,20.418,20.418,0,0,0-2.139,5.54,10.638,10.638,0,0,0,.021,4.87C339.955,356.065,367.9,356.53,378.074,354.374ZM371.5,386.517c-.611.141-1.245.3-1.885.432-3.047.612-6.078,1.329-9.148,1.792a61.157,61.157,0,0,1-11.3.351c-2.111-.075-4.211-.436-6.321-.586-1.312-.092-2.57-.655-4-.448-.257.438-.56.869-.777,1.34a18.23,18.23,0,0,0-1.24,9.341,3.459,3.459,0,0,0,.261.951,1.125,1.125,0,0,0,1.742.691c.769-.379,1.466-.9,2.225-1.3a23.923,23.923,0,0,1,3.373-1.654,4.82,4.82,0,0,1,6.248,2.38c.268.456.493.937.744,1.4.374.7.713,1.424,1.141,2.091a7.052,7.052,0,0,0,1.143,1.354.98.98,0,0,0,1.44.014,12.565,12.565,0,0,0,1.563-1.777c.615-.861,1.122-1.8,1.713-2.676a6.464,6.464,0,0,1,4.4-2.79,3.61,3.61,0,0,1,3.157.776,17.27,17.27,0,0,0,1.712,1.351,3.692,3.692,0,0,0,4.445-.175,5.125,5.125,0,0,0,1.915-4.77c-.34-2.084-.917-4.129-1.413-6.185A3.434,3.434,0,0,0,371.5,386.517Zm5.628-7.1c-.207-.064-.336-.147-.452-.132-3.346.418-6.689.856-10.035,1.268-1.246.153-2.5.318-3.75.358-1.983.062-3.969.076-5.951.016a179.311,179.311,0,0,1-19.6-1.285,56.143,56.143,0,0,1-9.732-1.845,2.339,2.339,0,0,0-.628-.007,2.031,2.031,0,0,0,.116.591c.533.914,1.065,1.829,1.642,2.715a6.882,6.882,0,0,0,3.763,2.778c.872.281,1.735.6,2.611.855a56.874,56.874,0,0,0,10.492,2.075,82.1,82.1,0,0,0,9.919.249,47.7,47.7,0,0,0,5.34-.412,86.337,86.337,0,0,0,10.469-2.232,11.515,11.515,0,0,0,4.037-2.07A4.114,4.114,0,0,0,377.125,379.419Z" fill="#1d355e" fill-rule="evenodd"/>
            <path id="Path_14221" data-name="Path 14221" d="M345.333,425.888a6.4,6.4,0,0,1-1.172,4.07,4.269,4.269,0,0,1-4.519,1.8,3.206,3.206,0,0,1-2.187-1.584,6.426,6.426,0,0,1,1.761-8.33,1.555,1.555,0,0,1,1.3-.282,11.183,11.183,0,0,0,1.373.166,3.5,3.5,0,0,1,3.328,3.12C345.3,425.309,345.321,425.773,345.333,425.888Zm-4.3-2.133c-.861-.18-1.477.33-1.9,1.174a4.581,4.581,0,0,0-.169,3.637,1.7,1.7,0,0,0,2.412.995,2.971,2.971,0,0,0,1.421-1.311,4.236,4.236,0,0,0,.459-2.479C343.171,424.277,342.654,423.78,341.036,423.755Z" fill="#1d355e" fill-rule="evenodd"/>
            <path id="Path_14222" data-name="Path 14222" d="M382.294,425.832a4.1,4.1,0,0,1-3.677,4.185,2.639,2.639,0,0,1-.972-.06,4.588,4.588,0,0,1-3.037-6.394c1.1-2.18,2.3-2.695,4.89-1.864A4.186,4.186,0,0,1,382.294,425.832Zm-6.061-.42a2.351,2.351,0,0,0,2.07,2.48,1.93,1.93,0,0,0,1.928-2.066,2.371,2.371,0,0,0-1.968-2.375A1.887,1.887,0,0,0,376.233,425.412Z" fill="#1d355e" fill-rule="evenodd"/>
            <path id="Path_14223" data-name="Path 14223" d="M381.116,319.47c-.489-.809-.726-1.193-.955-1.581a19.86,19.86,0,0,0-5.389-6.007,24.315,24.315,0,0,0-5.217-3.2,1.91,1.91,0,0,1-.613-.469.412.412,0,0,1-.034-.365c.045-.1.206-.239.287-.222a5.275,5.275,0,0,1,1.679.444c1.792,1.112,3.58,2.244,5.273,3.5a18.567,18.567,0,0,1,4.9,5.655,3.471,3.471,0,0,1,.5,1.062C381.6,318.527,381.367,318.822,381.116,319.47Z" fill="#1d355e" fill-rule="evenodd"/>
            <path id="Path_14225" data-name="Path 14225" d="M383.368,323.221a2.572,2.572,0,0,1-.19.69.7.7,0,0,1-.454.314.548.548,0,0,1-.438-.3,20.184,20.184,0,0,1-.305-2.118c-.011-.14.2-.429.3-.422.216.015.545.118.611.277A14.352,14.352,0,0,1,383.368,323.221Z" fill="#1d355e" fill-rule="evenodd"/>
            <path id="Path_14226" data-name="Path 14226" d="M352.129,360.028a7.379,7.379,0,0,1,4.191.984,4.022,4.022,0,0,1,1.995,4.386,2.9,2.9,0,0,1-1.142,1.8,6.872,6.872,0,0,1-5.78,1.433c-2.694-.536-4.473-4.7-3.082-7.058a2.753,2.753,0,0,1,2.039-1.425C350.937,360.069,351.535,360.066,352.129,360.028Zm.455,6.675a5.44,5.44,0,0,0,3.011-.866,1.685,1.685,0,0,0,.376-2.439,2.716,2.716,0,0,0-.58-.531,5.969,5.969,0,0,0-4.212-.71c-.474.04-1.239,1.129-1.26,1.647A2.968,2.968,0,0,0,352.584,366.7Z" fill="#1d355e" fill-rule="evenodd"/>
            <path id="Path_14227" data-name="Path 14227" d="M378.576,359.126c.524.067,1.057.088,1.568.206a4.321,4.321,0,0,1,3.159,5.2,3.156,3.156,0,0,1-1.7,2.1,8.487,8.487,0,0,1-5.374.959A4.392,4.392,0,0,1,372.8,363.1a3.913,3.913,0,0,1,2.3-3.237A9.568,9.568,0,0,1,378.576,359.126Zm-1.131,6.6a22.11,22.11,0,0,0,2.853-.754,1.6,1.6,0,0,0,.8-2.46,2.066,2.066,0,0,0-1.494-1.194,5.7,5.7,0,0,0-3.5.386,1.91,1.91,0,0,0-.865,2.813A2.454,2.454,0,0,0,377.445,365.73Z" fill="#1d355e" fill-rule="evenodd"/>
            <path id="Path_14228" data-name="Path 14228" d="M327.838,365.868c-3.352.15-4.584-2.947-4.045-5.483.567-2.671,1.485-3.391,4.215-3.359a8.121,8.121,0,0,1,2.51.42,3.993,3.993,0,0,1,2.838,4.263,3.3,3.3,0,0,1-.959,2.311A5.823,5.823,0,0,1,327.838,365.868Zm.261-2.052a3.585,3.585,0,0,0,2.452-.873,1.967,1.967,0,0,0-.225-3.3,5.559,5.559,0,0,0-2.049-.577c-1.806-.188-2.614,1.008-2.545,2.678C325.793,363.21,326.529,363.836,328.1,363.816Z" fill="#1d355e" fill-rule="evenodd"/>
            <path id="Path_14229" data-name="Path 14229" d="M305.624,354.541a3.649,3.649,0,0,1,3.485-3.984,4.539,4.539,0,0,1,4.451,2,3.185,3.185,0,0,1-.711,4.549,6.183,6.183,0,0,1-3.674,1.278,3.1,3.1,0,0,1-3.4-2.653C305.681,355.285,305.658,354.82,305.624,354.541Zm3.527,1.754a3.728,3.728,0,0,0,2.395-.786,1.205,1.205,0,0,0,.239-1.881,3.625,3.625,0,0,0-.891-.765,2.478,2.478,0,0,0-2.285-.083c-.738.3-1.021,1.1-.875,2.219C307.854,355.922,308.266,356.3,309.151,356.3Z" fill="#1d355e" fill-rule="evenodd"/>
            <path id="Path_14230" data-name="Path 14230" d="M392.1,357.6a3.612,3.612,0,0,1,1.693-3.417,5.784,5.784,0,0,1,3.194-.852,3.753,3.753,0,0,1,3.208,2.543,3.159,3.159,0,0,1-1.122,3.535,6.535,6.535,0,0,1-2.6,1.38A3.336,3.336,0,0,1,392.1,357.6Zm4.46-2.226a2.6,2.6,0,0,0-2.189,1.2,1.489,1.489,0,0,0,.016,1.674,1.232,1.232,0,0,0,1.555.525,8.266,8.266,0,0,0,1.888-1.039,1.248,1.248,0,0,0,.11-1.784A1.539,1.539,0,0,0,396.557,355.371Z" fill="#1d355e" fill-rule="evenodd"/>
            <path id="Path_14232" data-name="Path 14232" d="M367.538,348.509c-.543,3.173-2.836,4.3-5.568,4.911a1.727,1.727,0,0,1-.971-.028.874.874,0,0,1-.313-1.522,2.2,2.2,0,0,1,.871-.42c.436-.154.9-.226,1.323-.412a9.873,9.873,0,0,0,1.555-.855,2.272,2.272,0,0,0,.961-1.669,1.8,1.8,0,0,0-.536-1.592.926.926,0,0,1,.553-1.631c2.132-.347,3.306.211,4.072,1.934a1.146,1.146,0,0,1-.148,1.457.925.925,0,0,1-1.263.024A2.54,2.54,0,0,0,367.538,348.509Z" fill="#1d355e" fill-rule="evenodd"/>
          </g>
          <path id="Path_14234" data-name="Path 14234" d="M324.7,321.914l-4.675,7.74-1.916,7.817,4.215-1.763,1.3-6.055,2.989-7.74Z" fill="#fff"/>
        </g>
      </g>
      <path id="Path_14233" data-name="Path 14233" d="M-2182.68,7168.982l-15.979,13.791L-2210.7,7200.5v9.413l3.064,2.189s34.585,5.815,52.753,1,0-12.6,0-12.6l-12.477-24.734-2.408-6.786s-9.412-4.158-9.412-3.283S-2182.68,7168.982-2182.68,7168.982Z" transform="translate(3980 -6257)" fill="#fff"/>
      <g id="Planets" transform="translate(1746.616 901.689) rotate(-1)">
        <g id="Group_711" data-name="Group 711">
          <g id="Group_710" data-name="Group 710" clip-path="url(#clip-path)">
            <g id="Group_508" data-name="Group 508" transform="translate(18.461 10.913)">
              <g id="Group_502" data-name="Group 502" transform="translate(17.935 56.968)">
                <path id="Path_643" data-name="Path 643" d="M372.8,312.761c.767-.533,1.732-.823,2.554-1.279.255-.142.513-.271.77-.4a27.842,27.842,0,0,1-.64-5.24,29.01,29.01,0,0,1-.266-7.789.46.46,0,0,1,.88,0c.454,2.293.925,4.582,1.476,6.854.449,1.858,1.664,4.3,1.574,6.208a1.457,1.457,0,0,1-.082.405,1.1,1.1,0,0,1-.224.542A10.705,10.705,0,0,1,376.828,314a7.374,7.374,0,0,1-2.85,1.55,1.531,1.531,0,0,1-1.179-2.784Z" transform="translate(-360.406 -297.723)" fill="url(#linear-gradient)"/>
                <path id="Path_644" data-name="Path 644" d="M388.96,311.719a15.543,15.543,0,0,0,3.833-.628c.043-1.395.449-2.956.542-4.035a63.807,63.807,0,0,1,.981-7.515c.127-.61,1.016-.431,1.046.14.141,2.733.214,5.467.245,8.2a16.514,16.514,0,0,1-.05,4.348,1.122,1.122,0,0,1-.345.813,2.324,2.324,0,0,1-.378.472.983.983,0,0,1-.656.276,10.136,10.136,0,0,1-5.216,1.5C386.635,315.337,386.659,311.829,388.96,311.719Z" transform="translate(-387.225 -298.194)" fill="url(#linear-gradient-2)"/>
              </g>
              <path id="Path_645" data-name="Path 645" d="M348.633,220.1a14.486,14.486,0,0,0-3.1-5.937.711.711,0,0,1,.018-1.009.721.721,0,0,1,1,0,11.325,11.325,0,0,1,3.754,7.047c.251.027.5.046.757.083,1.361-2.893,3.156-5.824,6.106-5.592a.816.816,0,0,1,.411,1.511,16.537,16.537,0,0,0-2.459,1.719,11.886,11.886,0,0,0-1.787,2.594c-.04.071-.079.142-.119.213,14.83,4.254,8.3,34.514,18.8,35.936a21.246,21.246,0,0,0,3.3.2q.883-.709,1.744-1.415a10.868,10.868,0,0,0,.83-1.186c1.573-2.662,1.2-4.824.019-7.5a.869.869,0,0,1,1.144-1.116,6.064,6.064,0,0,1,3.444,4.824,38.157,38.157,0,0,0,2.686-3.12c.651-.85,1.832-.014,1.526.906a18.713,18.713,0,0,1-2.5,4.881c1.655-.288,3.269-.177,4.164.964a.941.941,0,0,1-.011,1.129c-1.119,1.717-4.418,1.824-6.218,2.622-.123.056-.237.12-.357.179-3.022,5.606-9.935,13.014-25.5,14.079-25.489,1.745-25.98-15.313-26-27.3C330.264,235.1,335.666,219.982,348.633,220.1Z" transform="translate(-323.628 -212.959)" fill="url(#linear-gradient-3)"/>
              <path id="Path_653" data-name="Path 653" d="M420.093,255.36c-1.837-.977-8.188-1.18-8.188-1.18l5.239,4.678-2.491,2.593s4.308-.5,5.706-1.272A2.743,2.743,0,0,0,420.093,255.36Z" transform="translate(-411.905 -226.476)" fill="#db9248" stroke="#db9248" stroke-linecap="round" stroke-linejoin="round" stroke-width="2"/>
              <g id="Group_504" data-name="Group 504" transform="translate(18.792 20.068)">
                <path id="Path_654" data-name="Path 654" d="M394.658,242.823c2.549,0,2.549,4.135,0,4.135a2.073,2.073,0,1,1-.3-4.135A2.211,2.211,0,0,1,394.658,242.823Z" transform="translate(-392.425 -242.818)" fill="#494d54"/>
              </g>
              <g id="Group_505" data-name="Group 505" transform="translate(6.085 20.617)">
                <path id="Path_655" data-name="Path 655" d="M413.464,243.64c2.55,0,2.55,4.135,0,4.135a2.073,2.073,0,1,1-.3-4.135A2,2,0,0,1,413.464,243.64Z" transform="translate(-411.232 -243.635)" fill="#494d54"/>
              </g>
              <line id="Line_132" data-name="Line 132" y1="3.022" x2="5.8" transform="translate(17.688 16.443)" fill="none" stroke="#494d54" stroke-linecap="round" stroke-miterlimit="10" stroke-width="3"/>
              <line id="Line_133" data-name="Line 133" x1="5.776" y1="2.107" transform="translate(5.258 17.542)" fill="none" stroke="#494d54" stroke-linecap="round" stroke-miterlimit="10" stroke-width="3"/>
              <g id="Group_507" data-name="Group 507" transform="translate(6.627 47.353)">
                <ellipse id="Ellipse_45" data-name="Ellipse 45" cx="3.271" cy="3.253" rx="3.271" ry="3.253" fill="url(#linear-gradient-4)"/>
                <g id="Group_506" data-name="Group 506" transform="translate(1.225 2.574)">
                  <path id="Path_656" data-name="Path 656" d="M413.274,289.8a2.388,2.388,0,0,1-.1-2.551" transform="translate(-411.993 -287.246)" fill="none" stroke="#db9248" stroke-linecap="round" stroke-miterlimit="10" stroke-width="0.75"/>
                  <path id="Path_657" data-name="Path 657" d="M413.546,289.153a2.422,2.422,0,0,1-2.511-.522" transform="translate(-411.035 -287.7)" fill="none" stroke="#db9248" stroke-linecap="round" stroke-miterlimit="10" stroke-width="0.75"/>
                </g>
              </g>
              <path id="Path_658" data-name="Path 658" d="M396.14,270.084c8.559,2.439,13.371,11.28,13.6,19.83C399.177,286.957,396.716,278.33,396.14,270.084Z" transform="translate(-388.418 -231.597)" fill="#f8e88d"/>
            </g>
          </g>
        </g>
      </g>
    </g>
    <g id="Group_287" data-name="Group 287" transform="translate(228.95 -332.152) rotate(9)">
      <path id="Path_14235" data-name="Path 14235" d="M12,0H64A12,12,0,0,1,76,12V34A12,12,0,0,1,64,46H12A12,12,0,0,1,0,34V12A12,12,0,0,1,12,0Z" transform="translate(1620.034 951.818)" fill="#fff"/>
      <path id="Path_505" data-name="Path 505" d="M1714.425,986.777s5.609,10.623,12.573,14.669-10.33,3.719-18.388-6.818" transform="translate(-18.889 -7.413)" fill="#fff"/>
    </g>
    <path id="Path_14236" data-name="Path 14236" d="M3.938.258A6.342,6.342,0,0,1,.8-.539,1.009,1.009,0,0,1,.281-1.43a1.026,1.026,0,0,1,.258-.68.822.822,0,0,1,.656-.3.843.843,0,0,1,.422.094A4.907,4.907,0,0,0,3.8-1.8a2.724,2.724,0,0,0,2.086-.773A3.878,3.878,0,0,0,6.609-5.25V-15.4a1.078,1.078,0,0,1,.316-.773,1.02,1.02,0,0,1,.762-.328,1.058,1.058,0,0,1,.773.328,1.058,1.058,0,0,1,.328.773V-5.391a6.308,6.308,0,0,1-1.23,4.219A4.516,4.516,0,0,1,3.938.258Zm14.109,0a6.288,6.288,0,0,1-3.164-.773,5.469,5.469,0,0,1-2.109-2.227,6.857,6.857,0,0,1-.75-3.234,6.908,6.908,0,0,1,.75-3.258,5.294,5.294,0,0,1,2.121-2.2,6.305,6.305,0,0,1,3.152-.773,6.24,6.24,0,0,1,3.141.773A5.442,5.442,0,0,1,23.32-9.223a6.838,6.838,0,0,1,.75,3.246,6.768,6.768,0,0,1-.75,3.234A5.41,5.41,0,0,1,21.176-.516,6.257,6.257,0,0,1,18.047.258Zm0-1.992A4.091,4.091,0,0,0,19.9-2.18a3.445,3.445,0,0,0,1.453-1.441A4.846,4.846,0,0,0,21.891-6a4.512,4.512,0,0,0-.562-2.391A3.526,3.526,0,0,0,19.957-9.75a3.909,3.909,0,0,0-1.91-.469A4.276,4.276,0,0,0,16.2-9.8a3.46,3.46,0,0,0-1.453,1.43A4.778,4.778,0,0,0,14.2-6a4.563,4.563,0,0,0,.563,2.414A3.485,3.485,0,0,0,16.137-2.2,3.909,3.909,0,0,0,18.047-1.734ZM35.414,1.9a.839.839,0,0,1-.937-.961,1.23,1.23,0,0,1,.656-.984,6.169,6.169,0,0,0,3-4.312q-1.852.961-2.742,1.371a4.2,4.2,0,0,1-1.1.41q-.82,0-.82-.937,0-.633,1.289-1.148V-15.258a2.4,2.4,0,0,1,.387-1.43,2.171,2.171,0,0,1,1.254-.773,10.379,10.379,0,0,0,2.133-.867,5.23,5.23,0,0,1,1.313-.586q.984,0,.984.938,0,.8-3.586,2.086a1.016,1.016,0,0,0-.8.914V-5.32l1.875-.8q.094-.961.117-2.332t.023-3.457v-1.922a1.391,1.391,0,0,1,.211-.855.754.754,0,0,1,.633-.27q.867,0,.867.961v1.711a59.034,59.034,0,0,1-.4,8.039A8.2,8.2,0,0,1,37.922.117Q36.375,1.9,35.414,1.9Zm-2.953.422q-.773,0-.773-.914V-2.2A13.921,13.921,0,0,1,27.328-.68q-.867,0-.867-.961,0-.7,1.359-1.055V-16.453h-.586q-.8,0-.8-.844,0-.867.8-.867h6.609a.746.746,0,0,1,.844.844.756.756,0,0,1-.844.867h-.609V1.406Q33.234,2.32,32.461,2.32ZM42.094,2.3q-.891,0-.891-.984V-16.055a1.606,1.606,0,0,1,1.828-1.8h2.18a1.616,1.616,0,0,1,1.828,1.828V-2.32A2.245,2.245,0,0,1,46.523-.68a2.016,2.016,0,0,1-1.617.445h-.7q-.8,0-.8-.891,0-.914.8-.914h.539q.539,0,.586-.586V-15.609q0-.492-.539-.539H43.523q-.492,0-.539.539V1.313Q42.984,2.3,42.094,2.3ZM31.688-13.219v-3.234H29.461v3.234Zm0,4.781v-3.094H29.461v3.094Zm0,4.641V-6.75H29.461v3.656Z" transform="translate(1690.902 894.956) rotate(9)" fill="#454c53"/>
  </g>
</svg>
