<svg id="ac0cb408-f5eb-4415-ba57-16450483d7d7" data-name="fdb65319-c542-49e9-bf1e-409e775bc0cf" xmlns="http://www.w3.org/2000/svg" xmlns:xlink="http://www.w3.org/1999/xlink" viewBox="0 0 170 170"><defs><style>.a3c4f353-9a0f-4ad3-9fc2-8ded826cf608{fill:#ffea8a;}.ed472447-a485-4cfa-80ad-cdd9f71da025{fill:#193c89;}.f9438bf3-71c5-46b1-a046-72ad219a841e{fill:url(#a65e253a-bc5d-4826-aad3-4f344cc077aa);}.ba38d612-83d9-4015-9a1a-7cab961aa4bf{fill:url(#a445c1e9-ba2b-4ba9-bd95-a46f5284f034);}.a99a8bb1-c184-4dc9-909e-3aee138c5d6c{fill:url(#fb3821cf-3eec-49f2-be5a-1eada5950f49);}.a148c3b4-9ed7-4f88-b6dd-1d1c0bf87ae5,.bdbd0f15-7b9f-4e81-a271-6f93d7d45ef1{fill:#f29440;}.a1c5cf7c-57d0-4b93-8211-4a66af08e57d,.bdbd0f15-7b9f-4e81-a271-6f93d7d45ef1{stroke:#f29440;}.a1c5cf7c-57d0-4b93-8211-4a66af08e57d,.b6712571-804f-4e9c-bccf-214b1fabb02d,.bdbd0f15-7b9f-4e81-a271-6f93d7d45ef1{stroke-linecap:round;}.bdbd0f15-7b9f-4e81-a271-6f93d7d45ef1{stroke-linejoin:round;stroke-width:2px;}.ba1c0795-5927-466c-91de-8d13a5318c08{fill:#454c53;}.a1c5cf7c-57d0-4b93-8211-4a66af08e57d,.b6712571-804f-4e9c-bccf-214b1fabb02d{fill:none;stroke-miterlimit:10;}.b6712571-804f-4e9c-bccf-214b1fabb02d{stroke:#454c53;stroke-width:3px;}.a2c498e1-c33a-4216-8039-fdf2d2c75c94{fill:url(#a425e490-b4bc-44ff-b0d7-8a14082a0e86);}.a1c5cf7c-57d0-4b93-8211-4a66af08e57d{stroke-width:0.75px;}</style><linearGradient id="a65e253a-bc5d-4826-aad3-4f344cc077aa" x1="-814.62" y1="891.72" x2="-814.62" y2="892.12" gradientTransform="translate(12383.41 -34050.71) scale(15.1 38.33)" gradientUnits="userSpaceOnUse"><stop offset="0" stop-color="#f26f40"/><stop offset="1" stop-color="#f29440"/></linearGradient><linearGradient id="a445c1e9-ba2b-4ba9-bd95-a46f5284f034" x1="-826.94" y1="895.06" x2="-826.94" y2="895.5" gradientTransform="translate(15131.52 -30857.42) scale(18.17 34.62)" xlink:href="#a65e253a-bc5d-4826-aad3-4f344cc077aa"/><linearGradient id="fb3821cf-3eec-49f2-be5a-1eada5950f49" x1="-878.31" y1="869.68" x2="-878.76" y2="870.39" gradientTransform="translate(109354.99 -110600.48) scale(124.37 127.2)" gradientUnits="userSpaceOnUse"><stop offset="0" stop-color="#ffe363"/><stop offset="1" stop-color="#ffcb05"/></linearGradient><linearGradient id="a425e490-b4bc-44ff-b0d7-8a14082a0e86" x1="-810.41" y1="947.39" x2="-809.41" y2="947.39" gradientTransform="translate(11421.34 -13112.95) scale(13.96)" gradientUnits="userSpaceOnUse"><stop offset="0" stop-color="#ffcb05"/><stop offset="0.58" stop-color="#ffea8a"/></linearGradient></defs><path class="a3c4f353-9a0f-4ad3-9fc2-8ded826cf608" d="M86.9,165.58a4.22,4.22,0,0,1-1.06-.13c-2.34-.42-4.4-2-6.23-3.34L79.4,162a23.55,23.55,0,0,1-4.48-4.33,3.36,3.36,0,0,1-.67-1.55,3.53,3.53,0,0,1-.19-1.06c-.15-2.95,1-6.28,2.09-9.49.5-1.47,1-2.86,1.28-4.11.81-3.41,1.54-6.81,2.16-9.81-30.36-3.2-44.55-18-51.13-30.1l-.05,0-.4-.2A28.33,28.33,0,0,0,23.62,100c-3.51-.88-7.49-1.87-9.31-4.67a3,3,0,0,1,0-3.57C15.77,89.88,18,89,21,89l1,0a41.08,41.08,0,0,1-4.24-8.9,3.05,3.05,0,0,1,2.8-4,2.7,2.7,0,0,1,2.19,1.15c1.37,1.78,2.82,3.53,4.34,5.2a14.08,14.08,0,0,1,7.55-9.16A2.87,2.87,0,0,1,35.74,73a2.8,2.8,0,0,1,1.07.21,2.85,2.85,0,0,1,1.62,3.69c-2.4,5.37-3.22,9.77,0,15.22a23.45,23.45,0,0,0,1.63,2.35l3.36,2.72h.41a44.57,44.57,0,0,0,6.1-.43c9.59-1.3,12.09-15.19,15-31.26C68.27,46.89,72.07,25.8,88.76,20.1a24.11,24.11,0,0,0-3.25-4.74,33.76,33.76,0,0,0-5-3.54,2.75,2.75,0,0,1,1.34-5.11c.21,0,.47,0,.72,0,6.23,0,10,5.94,12.9,12h.15a25.34,25.34,0,0,1,8.21-15A2.53,2.53,0,0,1,105.52,3a2.59,2.59,0,0,1,1.75.69,2.55,2.55,0,0,1,0,3.6,30.28,30.28,0,0,0-6,11.07c15.07.44,27.47,10.91,34.22,28.91h.42a2.75,2.75,0,0,1,.41,0,5.45,5.45,0,0,1,2.14,10.13c.46,2.12.83,4.28,1.11,6.42a104,104,0,0,1,13.76-1.37h0A1,1,0,0,1,154,64.2l-10.42,9.31,4.61,4.81a1,1,0,0,1-.73,1.69h-.11c-.17,0-3.83-.44-7.3-1.19-.06,2.75-.16,5.14-.31,7.42a.87.87,0,0,1,0,.23,72.2,72.2,0,0,1-3.61,19.19A8,8,0,1,1,128,119.38a38.37,38.37,0,0,1-18,10.51l-.2,0a60.19,60.19,0,0,1-8.47,1.67c.78,4.57,1.33,9.13,1.64,13.58a33.33,33.33,0,0,0,.49,3.39c.24,1.43.52,3,.63,4.58a32.46,32.46,0,0,0,7.26,1.11,4.8,4.8,0,0,1,4.66,5.09,4.46,4.46,0,0,1-4.59,4.56h-.13a22.39,22.39,0,0,1-11.43-3.24,3.1,3.1,0,0,1-1.78-.85,6.69,6.69,0,0,1-.9-1.09,3.42,3.42,0,0,1-1-2.24,22.64,22.64,0,0,1-.23-6.88c.06-.93.12-1.82.12-2.59,0-5,.19-10,.41-15-1.76.11-3.6.17-5.47.17s-4.13-.07-6.29-.19a87.25,87.25,0,0,1-.8,10.52l-.14,1.22c-.11.95-.18,2-.25,3.2a39.94,39.94,0,0,1-.92,7.42l.93.49c.69.39,1.43.71,2.2,1.06A20.32,20.32,0,0,1,89,157.57a.24.24,0,0,1,.11.06,4.29,4.29,0,0,1-2.22,8Z"/><path class="ed472447-a485-4cfa-80ad-cdd9f71da025" d="M105.52,4a1.5,1.5,0,0,1,1.06,2.58,31.18,31.18,0,0,0-6.64,12.77h.34c17.89,0,29,13.71,34.52,29a4.91,4.91,0,0,1,.78-.08h.62a4.45,4.45,0,0,1,1.09,8.58,74.65,74.65,0,0,1,1.4,8.19c5.43-1.28,14.65-1.58,14.65-1.58l-11.19,10L147.47,79a83.42,83.42,0,0,1-8.39-1.45c0,2.89-.14,5.85-.35,8.84h0a69.76,69.76,0,0,1-3.86,19.76,7,7,0,1,1-7,11.91c-4.24,4.78-10.07,8.6-18.11,10.87v0a58.33,58.33,0,0,1-9.57,1.82A136.45,136.45,0,0,1,102,145.25c.15,2.32,1.06,5.66,1.15,8.66a33.55,33.55,0,0,0,8.19,1.35c4.88.23,5,7.65.11,7.65h-.11a21.53,21.53,0,0,1-11.14-3.22,2.06,2.06,0,0,1-1.4-.59,5.22,5.22,0,0,1-.81-1,2.49,2.49,0,0,1-.74-1.75c-.78-2.9-.1-6.66-.1-9.33q.09-8,.46-16c-2.07.16-4.24.24-6.53.24s-4.75-.09-7.29-.26a89.32,89.32,0,0,1-.93,12.69c-.37,3.25-.26,7.85-1.37,11.25.55.28,1.1.56,1.65.86,1.75,1,3.81,1.6,5.45,2.74v0a3.29,3.29,0,0,1-1.7,6.1,3.34,3.34,0,0,1-.82-.1c-2.26-.41-4.28-2-6.08-3.33A22.53,22.53,0,0,1,75.7,157a2.47,2.47,0,0,1-.48-1.17,3.05,3.05,0,0,1-.17-.86c-.2-4.1,2.35-9.32,3.35-13.32.87-3.63,1.64-7.28,2.39-10.93-31.24-3-45.33-18.32-51.6-30-.26-.13-.5-.27-.76-.39-3.85-1.71-10.89-1.94-13.28-5.63a2,2,0,0,1,0-2.42C16.49,90.58,18.62,90,21,90a17.82,17.82,0,0,1,3,.28,40,40,0,0,1-5.35-10.47,2.07,2.07,0,0,1,1.86-2.69,1.72,1.72,0,0,1,1.39.75,82.23,82.23,0,0,0,5.76,6.74,13,13,0,0,1,7.35-10.4,1.87,1.87,0,0,1,.69-.13,1.8,1.8,0,0,1,.69.13h0a1.83,1.83,0,0,1,1.05,2.39c-2.55,5.72-3.32,10.36.08,16.1a25.16,25.16,0,0,0,1.77,2.55l3.72,3h.77a44.78,44.78,0,0,0,6.23-.44c22.4-3.05,8.48-68,40.14-77.1l-.26-.46a24.9,24.9,0,0,0-3.73-5.59A35.55,35.55,0,0,0,81,11a1.75,1.75,0,0,1,.87-3.24l.7,0c5.86,0,9.51,6.05,12.3,12,.55-.08,1.08-.12,1.62-.18a24.4,24.4,0,0,1,8-15.12A1.55,1.55,0,0,1,105.52,4m0-2a3.57,3.57,0,0,0-2.4.94,26.32,26.32,0,0,0-8,12.91c-2.88-5.4-6.7-10.16-12.62-10.16q-.41,0-.81,0a3.75,3.75,0,0,0-1.8,7l0,0a35.22,35.22,0,0,1,4.83,3.39,23.92,23.92,0,0,1,2.51,3.49C71,26,67.27,46.85,63.93,65.36,61.11,81.05,58.67,94.6,49.79,95.81a42.55,42.55,0,0,1-6,.42h0l-3-2.42a21.38,21.38,0,0,1-1.49-2.17c-3-5.09-2.27-9.08,0-14.25l0-.09a3.85,3.85,0,0,0-2.19-5,3.88,3.88,0,0,0-2.87,0l-.1.05a15,15,0,0,0-7.53,8.09Q25,78.58,23.53,76.62a3.7,3.7,0,0,0-3-1.54,4.06,4.06,0,0,0-3.75,5.33A42.56,42.56,0,0,0,20.21,88a8.5,8.5,0,0,0-6.64,3.11,4,4,0,0,0-.06,4.79c2.05,3.09,6.2,4.12,9.87,5a28.31,28.31,0,0,1,4.24,1.27l.11,0c6.68,12.09,20.84,26.77,50.66,30.23-.57,2.71-1.22,5.71-1.93,8.72-.3,1.19-.77,2.56-1.26,4-1.13,3.31-2.3,6.72-2.14,9.88a4.73,4.73,0,0,0,.21,1.23,4.6,4.6,0,0,0,.85,1.93,24.59,24.59,0,0,0,4.7,4.53l.2.15c1.89,1.42,4,3,6.64,3.53a5.75,5.75,0,0,0,1.24.14,5.29,5.29,0,0,0,2.74-9.81l-.14-.08A21.77,21.77,0,0,0,86.24,155c-.75-.34-1.47-.65-2.11-1l-.28-.16a45.63,45.63,0,0,0,.77-6.83c.07-1.14.14-2.22.24-3.15l.14-1.22c.37-3.13.75-6.34.81-9.58,1.81.09,3.58.14,5.28.14,1.51,0,3,0,4.44-.11-.2,4.62-.32,9.28-.37,13.89,0,.76,0,1.63-.12,2.55a23.81,23.81,0,0,0,.23,7.09,4.49,4.49,0,0,0,1.16,2.71,7.09,7.09,0,0,0,1,1.19,4,4,0,0,0,2.12,1.09,23.5,23.5,0,0,0,11.79,3.28h.12a5.47,5.47,0,0,0,5.59-5.53,5.84,5.84,0,0,0-5.6-6.12,31.24,31.24,0,0,1-6.39-.9c-.13-1.37-.36-2.73-.58-4s-.41-2.37-.47-3.27c-.29-4.16-.79-8.41-1.49-12.66a60.71,60.71,0,0,0,7.51-1.55l.28,0a39.72,39.72,0,0,0,17.9-10.23,8.81,8.81,0,0,0,4,.94,9,9,0,0,0,5.15-16.34,74.39,74.39,0,0,0,3.41-18.7,1.28,1.28,0,0,0,0-.34c.13-1.92.22-3.92.28-6.16,3.12.61,6.06,1,6.21,1h.24a2,2,0,0,0,1.44-3.38L145,73.56l9.65-8.62a2,2,0,0,0-1.34-3.49h-.06a112,112,0,0,0-12.88,1.19c-.23-1.59-.51-3.19-.84-4.79a6.45,6.45,0,0,0-3.13-11.58l-.28,0a52.87,52.87,0,0,0-12.61-19.6,33.07,33.07,0,0,0-20.93-9.24,29.38,29.38,0,0,1,5.45-9.49A3.53,3.53,0,0,0,108,3l0,0a3.53,3.53,0,0,0-2.43-1Z"/><g id="fa541e61-7614-402b-821e-9891fd0a14fa" data-name="bb1e013e-d188-4bfb-a4fb-738eb854d6cc"><g id="a8b445db-fcd2-438d-82af-5b84741ccd48" data-name="aa9c21c7-31ea-4571-92f5-9435931a1f9d"><path id="b52c2ede-d14b-44c4-b15a-f779340e1a5e" data-name="e38cfce8-94e2-4409-9631-5dc8837bf443" class="f9438bf3-71c5-46b1-a046-72ad219a841e" d="M88.6,158.5c-1.64-1.14-3.7-1.76-5.45-2.74-.55-.3-1.1-.58-1.65-.86,1.11-3.4,1-8,1.37-11.25.63-5.47,1.43-11.23.56-16.71a1,1,0,0,0-1.22-.66,1,1,0,0,0-.65.66c-1,4.92-2,9.83-3.16,14.71-1,4-3.55,9.22-3.35,13.32a3.05,3.05,0,0,0,.17.86A2.47,2.47,0,0,0,75.7,157a22.53,22.53,0,0,0,4.3,4.15c1.8,1.35,3.82,2.92,6.08,3.33a3.29,3.29,0,0,0,2.52-6Z"/><path id="a05003ab-2f8f-42ab-b9bd-ae66bc3b054e" data-name="ab894b63-63f7-4eae-9e36-1651bf1c2714" class="ba38d612-83d9-4015-9a1a-7cab961aa4bf" d="M111.35,155.26a33.55,33.55,0,0,1-8.19-1.35c-.09-3-1-6.34-1.15-8.66a136.86,136.86,0,0,0-2.1-16.13c-.27-1.31-2.16-.93-2.23.3-.3,5.87-.46,11.73-.52,17.6,0,2.67-.68,6.43.1,9.33A2.49,2.49,0,0,0,98,158.1a5.22,5.22,0,0,0,.81,1,2.06,2.06,0,0,0,1.4.59,21.53,21.53,0,0,0,11.14,3.22C116.31,163,116.26,155.49,111.35,155.26Z"/></g><path id="bba65733-3cd8-4e3b-b359-ab5c62b3e8dd" data-name="bb3f5264-b288-4a55-9641-e5824643f951" class="a99a8bb1-c184-4dc9-909e-3aee138c5d6c" d="M99.94,19.34a31.24,31.24,0,0,1,6.64-12.77,1.52,1.52,0,0,0,0-2.16,1.55,1.55,0,0,0-2.12,0,24.4,24.4,0,0,0-8,15.12c-.54.06-1.07.1-1.62.18-2.9-6.21-6.73-12.5-13-12A1.75,1.75,0,0,0,81,11a35.55,35.55,0,0,1,5.24,3.69,24.9,24.9,0,0,1,3.73,5.59l.26.46c-31.66,9.13-17.74,74.05-40.14,77.1a44.17,44.17,0,0,1-7,.43l-3.72-3a25.16,25.16,0,0,1-1.77-2.55c-3.4-5.74-2.63-10.38-.08-16.1a1.83,1.83,0,0,0-1.05-2.39h0a1.83,1.83,0,0,0-1.38,0,13,13,0,0,0-7.35,10.4,82.23,82.23,0,0,1-5.76-6.74c-1.39-1.83-3.9,0-3.25,1.94A40,40,0,0,0,24,90.24c-3.53-.61-7-.38-8.89,2.07a2,2,0,0,0,0,2.42c2.39,3.69,9.43,3.92,13.28,5.63.26.12.5.26.76.39,6.45,12,21.2,27.92,54.43,30.2,54.4,3.75,55.45-32.85,55.49-58.57C139.17,51.51,127.64,19.08,99.94,19.34Z"/><g id="f075ece5-6361-48cd-949e-227a715a0164" data-name="baaf0ea2-791f-4b45-b370-c7a3d666aa33"><path id="faf43c5b-d6eb-4ff0-a4a4-6dcbb86ef2b9" data-name="ae94bf22-fb61-4fe8-9fa4-efa75252499c" class="a148c3b4-9ed7-4f88-b6dd-1d1c0bf87ae5" d="M83.87,77.88a3.35,3.35,0,0,0-.43,6.69h.43A3.33,3.33,0,1,0,84.59,78l-.29,0A3,3,0,0,0,83.87,77.88Z"/><path id="a1e0a402-9b32-4028-99a9-c0130f415ca7" data-name="fd93972f-33df-44e9-a0ac-857601a85ea5" class="a148c3b4-9ed7-4f88-b6dd-1d1c0bf87ae5" d="M93.3,78.38c-2.36,0-2.36,5.63,0,5.63C98,84,98,78.38,93.3,78.38Z"/><path id="b2567fda-c1a9-43e9-ba72-7f4136a7691e" data-name="e9bb2e9d-1c72-4f44-af12-3047b8bb1b22" class="a148c3b4-9ed7-4f88-b6dd-1d1c0bf87ae5" d="M106.24,80.5a2.93,2.93,0,1,0,2.92,2.94h0A3,3,0,0,0,106.24,80.5Z"/><path id="a5fcddc7-a9da-4c4a-b2e9-c5fc84890fb4" data-name="fc7751ee-b538-4896-bdf4-f953f61d3d04" class="a148c3b4-9ed7-4f88-b6dd-1d1c0bf87ae5" d="M107.33,95.77a1.85,1.85,0,0,0-1.57-1.56,2.81,2.81,0,1,0,1.57,1.51Z"/><path id="e3bfcdef-4eb9-45ee-abf7-526e0e30d1d4" data-name="b64c3739-adb5-4c0a-8fe3-03325e3b367a" class="a148c3b4-9ed7-4f88-b6dd-1d1c0bf87ae5" d="M93.3,87.49c-2.36,0-2.36,5.22,0,5.22C98,92.71,98,87.49,93.3,87.49Z"/><path id="f7504936-1fe2-4e3b-97d1-b24aca56cd8d" data-name="be10f4e2-fffa-456d-8b15-7db201f2c619" class="a148c3b4-9ed7-4f88-b6dd-1d1c0bf87ae5" d="M79.15,90.41c-2.36,0-2.36,5.32,0,5.32C83.87,95.73,83.87,90.41,79.15,90.41Z"/><path id="a2d04da2-0473-4a3e-8448-9c87f5de1414" data-name="aec610b4-3c00-49f6-a950-da469670f347" class="a148c3b4-9ed7-4f88-b6dd-1d1c0bf87ae5" d="M89.76,98.67a3.31,3.31,0,0,0-.46,6.61,3.53,3.53,0,0,0,.46,0C93.3,105.28,93.3,98.67,89.76,98.67Z"/></g><path id="fc084b38-4331-45c0-8405-011d8ec66035" data-name="b53a6026-00a9-40f3-95c8-1fe0568b15d7" class="bdbd0f15-7b9f-4e81-a271-6f93d7d45ef1" d="M135.85,66c3.93-2.1,17.49-2.53,17.49-2.53l-11.19,10L147.47,79s-9.19-1.06-12.18-2.73C132.81,74.94,130.17,69,135.85,66Z"/><g id="b1f41425-68a9-455e-a94d-4b6476f2115c" data-name="b4d5ed50-9aad-4187-93b5-5abc513767e0"><path id="a5cc0427-c88e-493c-be9c-abeaeae5e6ac" data-name="b3b6c714-0270-4da6-94a5-38fb52bb37a9" class="ba1c0795-5927-466c-91de-8d13a5318c08" d="M108.46,47.08c-5.44,0-5.44,8.87,0,8.87a4.45,4.45,0,1,0,1-8.84l-.39,0A3.21,3.21,0,0,0,108.46,47.08Z"/></g><g id="b3548824-b909-40ce-8c9c-0373be65d3e1" data-name="e518c60f-369b-4437-90cf-dd2dbf32dcd1"><path id="b081a2fb-1750-49b8-a856-5d132b08fb6e" data-name="f369daa2-a30b-4b20-ab6c-26eeec320a3c" class="ba1c0795-5927-466c-91de-8d13a5318c08" d="M135.58,48.26c-5.45,0-5.45,8.87,0,8.87a4.45,4.45,0,0,0,.62-8.87A3.21,3.21,0,0,0,135.58,48.26Z"/></g><line id="b139d10f-749e-4629-8931-9f6bd3bab7d6" data-name="e7c72d17-8247-4998-83c1-4158422ead3a" class="b6712571-804f-4e9c-bccf-214b1fabb02d" x1="115.58" y1="45.78" x2="103.2" y2="39.29"/><line id="eaedc586-e018-4d39-a6d7-2ab3c07ccf37" data-name="fe0f3170-2e48-49ed-b845-6af6e78d2de5" class="b6712571-804f-4e9c-bccf-214b1fabb02d" x1="129.78" y1="46.17" x2="142.11" y2="41.65"/><g id="e669271b-6a08-4059-9ba9-312531d42e9b" data-name="b8d5e180-d455-4601-af26-227d04b37e14"><circle id="aeb74725-6066-461a-8c48-8f8e782aac9e" data-name="b1e9d8e5-5cba-4017-b733-2f7087558ca0" class="a2c498e1-c33a-4216-8039-fdf2d2c75c94" cx="132.2" cy="112.59" r="6.98"/><g id="b6cbd101-3350-4a71-a0c8-3f1d9177f43e" data-name="e2b0be94-82c8-4e42-87c6-b06ca81ca106"><path id="b7bf5cc6-646f-4708-9385-6d60251bee7a" data-name="f9879084-0aff-483c-98e6-4d44f5c4d877" class="a1c5cf7c-57d0-4b93-8211-4a66af08e57d" d="M133.83,116.57a5.13,5.13,0,0,0,.21-5.47"/><path id="eb265645-0e47-4d80-a31a-61619819cb75" data-name="e9784e1e-4c4a-4b20-adcb-38795f123c92" class="a1c5cf7c-57d0-4b93-8211-4a66af08e57d" d="M131.21,114.25a5.14,5.14,0,0,0,5.36-1.12"/></g></g><path id="bb12e8f4-5688-4b39-8a84-03a4125e19d9" data-name="eee7ef33-b15d-41ec-8bdf-f67fc629f3c7" class="a3c4f353-9a0f-4ad3-9fc2-8ded826cf608" d="M138.76,86.39c-18.27,5.23-28.54,24.2-29,42.54C132.27,122.57,137.53,104.08,138.76,86.39Z"/></g></svg>