<svg xmlns="http://www.w3.org/2000/svg" xmlns:xlink="http://www.w3.org/1999/xlink" viewBox="0 0 77.23 125.15"><defs><style>.cls-1{fill:url(#Degradado_sin_nombre_14);}.cls-2{fill:#d1ddba;}.cls-3{fill:#edc151;}.cls-4{fill:#dd7f7c;}.cls-5{fill:#5f6798;}.cls-6{fill:#e4c565;}.cls-7{fill:#5fa7d5;}.cls-8{fill:#252330;}</style><linearGradient id="Degradado_sin_nombre_14" x1="38.62" y1="48.32" x2="38.62" y2="121.06" gradientUnits="userSpaceOnUse"><stop offset="0" stop-color="#4e699a"/><stop offset="0" stop-color="#4e699a" stop-opacity="0.97"/><stop offset="0.14" stop-color="#4e699a" stop-opacity="0.79"/><stop offset="0.42" stop-color="#4e699a" stop-opacity="0.45"/><stop offset="0.67" stop-color="#4e699a" stop-opacity="0.21"/><stop offset="0.87" stop-color="#4e699a" stop-opacity="0.06"/><stop offset="1" stop-color="#4e699a" stop-opacity="0"/></linearGradient></defs><g id="圖層_2" data-name="圖層 2"><g id="圖層_4" data-name="圖層 4"><polyline class="cls-1" points="51.83 48.32 24.19 48.32 0.79 121.06 76.44 121.06"/><ellipse class="cls-2" cx="37.82" cy="118.92" rx="36.48" ry="6.23"/><path class="cls-3" d="M4.66,40.93s11.93,10.53,33,10.53A62.86,62.86,0,0,0,73,40.72Z"/><ellipse class="cls-4" cx="38.62" cy="35.9" rx="38.62" ry="10.55"/><path class="cls-5" d="M75.13,33.55h0A5.5,5.5,0,0,0,74,32.37,45.18,45.18,0,0,0,55.77,21.7H21.19C8.35,25.56,2.69,32.23,1.91,33.21l0,0a.59.59,0,0,0-.07.1,2.83,2.83,0,0,0-.67,1.75c0,5.12,16.68,9.27,37.25,9.27s37.25-4.15,37.25-9.27A2.71,2.71,0,0,0,75.13,33.55Z"/><ellipse class="cls-6" cx="38.51" cy="34.36" rx="3.28" ry="2.32"/><path class="cls-6" d="M24,32.41c.3,1-.82,2.2-2.5,2.7s-3.27.11-3.57-.88.82-2.2,2.5-2.7S23.68,31.42,24,32.41Z"/><path class="cls-6" d="M12.86,29.05c.34.59-.44,1.67-1.74,2.42s-2.63.88-3,.29.43-1.67,1.73-2.42S12.52,28.46,12.86,29.05Z"/><path class="cls-6" d="M64.05,29.05c-.34.59.44,1.67,1.74,2.42s2.63.88,3,.29-.43-1.67-1.73-2.42S64.39,28.46,64.05,29.05Z"/><path class="cls-6" d="M53,32.41c-.3,1,.82,2.2,2.49,2.7s3.28.11,3.57-.88-.82-2.2-2.49-2.7S53.29,31.42,53,32.41Z"/><path class="cls-6" d="M7.31,28.33a3.91,3.91,0,0,1,1.75-1.89,4,4,0,0,1,2.24-.62Z"/><path class="cls-6" d="M69.63,28.61a4.45,4.45,0,0,0-4-2.5Z"/><ellipse class="cls-4" cx="38.62" cy="21.7" rx="17.29" ry="3.38"/><path class="cls-7" d="M54.53,22a.52.52,0,0,0,.29-.56c-1.25-6.71-8-11.83-16.2-11.83s-15,5.13-16.21,11.84a.52.52,0,0,0,.24.54c1,.58,4.55,2.13,16,2.13C48.55,24.1,52.86,22.77,54.53,22Z"/><path class="cls-5" d="M41.9,9.8c0,.23-1.47.42-3.28.42S35.33,10,35.33,9.8s1.47-.43,3.29-.43S41.9,9.56,41.9,9.8Z"/><path class="cls-5" d="M38.62,9.8h0a.4.4,0,0,1-.41-.4V1.25H39V9.4A.4.4,0,0,1,38.62,9.8Z"/><path class="cls-5" d="M39.86,1.25A1.25,1.25,0,1,1,38.62,0,1.25,1.25,0,0,1,39.86,1.25Z"/><path class="cls-8" d="M43.79,85.78a4.87,4.87,0,1,0,4.73,5A4.86,4.86,0,0,0,43.79,85.78Z"/><rect class="cls-8" x="38.15" y="92.35" width="4.26" height="3.29" transform="translate(-51.22 48.32) rotate(-40.27)"/><path class="cls-8" d="M42.85,98.1,36,91.79s-6.93,5.52-6.3,11.26L36.94,105S36.93,100.59,42.85,98.1Z"/><path class="cls-8" d="M24.36,90.87A1.65,1.65,0,0,0,26,92.56l5.86.16,4.92,3.68a1.64,1.64,0,0,0,2-2.63l-5.34-4a1.67,1.67,0,0,0-.94-.33l-6.37-.17A1.64,1.64,0,0,0,24.36,90.87Z"/><path class="cls-8" d="M32.86,103.46a2.15,2.15,0,0,0,1,1.9l6.7,4.33L41.91,118a2.19,2.19,0,0,0,4.33-.71L44.73,108a2.17,2.17,0,0,0-1-1.49l-7.51-4.85a2.2,2.2,0,0,0-3,.65A2.22,2.22,0,0,0,32.86,103.46Z"/><path class="cls-8" d="M24.49,119.2a2.1,2.1,0,0,0,.56,1.52,2.18,2.18,0,0,0,3.09.17l7.29-6.53a2.18,2.18,0,0,0,.68-2.07l-2-9.91a2.19,2.19,0,1,0-4.3.88l1.78,8.67-6.35,5.69A2.2,2.2,0,0,0,24.49,119.2Z"/><path class="cls-8" d="M38.28,97.51a1.65,1.65,0,0,0,.59,1.31L43,102.26a1.77,1.77,0,0,0,.73.35l6.36,1.26a1.65,1.65,0,1,0,.64-3.23l-5.94-1.18L41,96.3a1.64,1.64,0,0,0-2.32.21A1.66,1.66,0,0,0,38.28,97.51Z"/></g></g></svg>