<svg xmlns="http://www.w3.org/2000/svg" xmlns:xlink="http://www.w3.org/1999/xlink" width="46.713" height="45.06" viewBox="0 0 46.713 45.06">
  <defs>
    <clipPath id="clip-path">
      <path id="Path_328" data-name="Path 328" d="M925.5,998.461c.7,5.761-5.976,13.064-18.012,15.741-9.492,2.111-20.31-2.351-23.309-10.654-2.747-7.607,2.428-19.23,13.628-17.751s9.829,15.426,13.844,13.1S924.721,992.01,925.5,998.461Z" transform="translate(-883.454 -985.668)" fill="#dfdfdf"/>
    </clipPath>
  </defs>
  <g id="Group_255" data-name="Group 255" transform="translate(-863.289 -952.273)">
    <g id="Group_205" data-name="Group 205" transform="translate(863.289 952.273)">
      <g id="Group_197" data-name="Group 197" transform="translate(24.393 35.275)">
        <path id="Path_310" data-name="Path 310" d="M935.4,1052.85a13.435,13.435,0,0,0,.859,3.289,6.413,6.413,0,0,0,.932,1.609,1.942,1.942,0,0,0,.991.615c.24-.1.491-.191.718-.29.435-.188.949-.678,1.44-.6a.514.514,0,0,1,.44.553c0,.566-.723.928-1.207,1.1.02,0,.04.01.06.014.435.081.87-.1,1.293.006a.447.447,0,0,1,.3.7c-.514.75-1.743.461-2.541-.057a3.376,3.376,0,0,0,.239.373,5.684,5.684,0,0,0,1.094.889.511.511,0,0,1-.365.909,2.559,2.559,0,0,1-1.917-2.332c-1.007-.235-1.831-1.511-2.225-2.322a6.73,6.73,0,0,1-.579-4.521C935.006,1052.555,935.372,1052.621,935.4,1052.85Z" transform="translate(-934.755 -1052.644)" fill="#dfdfdf"/>
        <path id="Path_311" data-name="Path 311" d="M948.744,1054.291c.057-.087.185-.021.178.072a6.062,6.062,0,0,0,.934,3.3,3.926,3.926,0,0,0,2.958,2.19l.026.008a1.943,1.943,0,0,0,.7-.3c.368-.269.518-.734.88-1.015a.48.48,0,0,1,.762.306,1.877,1.877,0,0,1-1.257,1.781,4.053,4.053,0,0,1,1.818.163.451.451,0,0,1,.086.633,1.884,1.884,0,0,1-2.26.1c.235.317.521.579.772.883.479.58-.309,1.287-.89.9a3.59,3.59,0,0,1-1.318-2.359c-1.189-.09-2.294-1.413-2.838-2.3C948.589,1057.5,947.918,1055.542,948.744,1054.291Z" transform="translate(-943.096 -1053.628)" fill="#dfdfdf"/>
      </g>
      <path id="Path_312" data-name="Path 312" d="M914.749,973.2a2.841,2.841,0,0,1,.573-.057,2.49,2.49,0,0,1,1.344.363c1.951-2.093,4.214-4.628,4.165-6.079-.056-1.722-.85-2.091-1.589-1.726-1.676.828-2.182,2.3-2.666,3.958a6.5,6.5,0,0,0-.282.775,30.57,30.57,0,0,0-.2-4.436c-.188-1.409-1.187-2.489-2.344-1.11-1.317,1.57-.411,4.384.152,6.059C914.03,971.316,914.422,972.392,914.749,973.2Z" transform="translate(-897.073 -963.185)" fill="#dfdfdf"/>
      <path id="Path_313" data-name="Path 313" d="M912.433,961.545l-.026,0c.01-.02.021-.039.031-.059C912.436,961.509,912.435,961.527,912.433,961.545Z" transform="translate(-896.662 -961.491)" fill="#dfdfdf"/>
      <g id="Group_198" data-name="Group 198" transform="translate(4.541 9.356)">
        <path id="Path_314" data-name="Path 314" d="M933.619,1032.6s16.272-1.9,10.355,5.283-16.721,7.064-26.3,4.727,15.512-10.01,15.512-10.01" transform="translate(-903.097 -1014.299)" fill="#dfdfdf"/>
        <path id="Path_315" data-name="Path 315" d="M925.5,998.461c.7,5.761-5.976,13.064-18.012,15.741-9.492,2.111-20.31-2.351-23.309-10.654-2.747-7.607,2.428-19.23,13.628-17.751s9.829,15.426,13.844,13.1S924.721,992.01,925.5,998.461Z" transform="translate(-883.454 -985.668)" fill="#dfdfdf"/>
        <path id="Path_316" data-name="Path 316" d="M952.2,1044.722a4.05,4.05,0,0,0-1.773.163.441.441,0,0,0,0,.844,4.041,4.041,0,0,0,1.773.162A.61.61,0,0,0,952.2,1044.722Z" transform="translate(-924.316 -1021.84)" fill="#dfdfdf"/>
        <path id="Path_317" data-name="Path 317" d="M947.059,1037.77a9.686,9.686,0,0,1-2.224.233c-.322-.049-.59.408-.241.573a3.11,3.11,0,0,0,2.735.192A.539.539,0,0,0,947.059,1037.77Z" transform="translate(-920.833 -1017.606)" fill="#dfdfdf"/>
        <path id="Path_318" data-name="Path 318" d="M957.091,1027.561c-.43.231-.7.692-1.181.85a.376.376,0,0,0,0,.719,1.808,1.808,0,0,0,2-.748A.6.6,0,0,0,957.091,1027.561Z" transform="translate(-927.707 -1011.303)" fill="#dfdfdf"/>
        <path id="Path_319" data-name="Path 319" d="M961.759,1035.27a5.1,5.1,0,0,0-.77.352,1.49,1.49,0,0,1-.805.035c-.444-.073-.8.55-.329.781a2,2,0,0,0,2.478-.183A.594.594,0,0,0,961.759,1035.27Z" transform="translate(-930.153 -1016.062)" fill="#dfdfdf"/>
        <path id="Path_320" data-name="Path 320" d="M963.624,1043.655c-.644.115-1.22.488-1.876.6-.53.089-.33.807.116.86a4.122,4.122,0,0,0,2.246-.305C964.794,1044.47,964.284,1043.536,963.624,1043.655Z" transform="translate(-931.255 -1021.208)" fill="#dfdfdf"/>
        <path id="Path_321" data-name="Path 321" d="M975.635,1029.615a4.674,4.674,0,0,1-.526.811,3.064,3.064,0,0,1-.376.37c-.081.069-.108.173-.172.253a.662.662,0,0,1-.229.164c-.366.2-.1.717.271.643.176-.034.348-.084.526-.105a1.471,1.471,0,0,0,.737-.417,2.3,2.3,0,0,0,.806-1.281C976.808,1029.446,975.941,1029.02,975.635,1029.615Z" transform="translate(-939.056 -1012.433)" fill="#dfdfdf"/>
        <path id="Path_322" data-name="Path 322" d="M970.6,1021.333c-.2.361-.312.745-.541,1.1s-.5.685-.713,1.058.323.831.62.478c.605-.719,1.618-1.321,1.652-2.356A.55.55,0,0,0,970.6,1021.333Z" transform="translate(-936.075 -1007.371)" fill="#dfdfdf"/>
        <path id="Path_323" data-name="Path 323" d="M982.1,1015.931c-.773.216-.936,1.386-.847,2.053.048.365.637.537.711.1a2.229,2.229,0,0,1,.253-.739c.156-.281.465-.435.529-.763A.532.532,0,0,0,982.1,1015.931Z" transform="translate(-943.394 -1004.207)" fill="#dfdfdf"/>
      </g>
      <g id="Group_199" data-name="Group 199" transform="translate(8.104 15.38)">
        <path id="Path_324" data-name="Path 324" d="M894,1001.233c-1.786,0-1.786,2.912,0,2.912A1.46,1.46,0,1,0,894,1001.233Z" transform="translate(-892.663 -1001.233)" fill="#dfdfdf"/>
      </g>
      <g id="Group_200" data-name="Group 200" transform="translate(17.005 15.767)">
        <path id="Path_325" data-name="Path 325" d="M917,1002.233c-1.786,0-1.786,2.912,0,2.912A1.46,1.46,0,1,0,917,1002.233Z" transform="translate(-915.663 -1002.233)" fill="#dfdfdf"/>
      </g>
      <line id="Line_95" data-name="Line 95" x1="4.063" y1="2.128" transform="translate(7.717 12.823)" fill="none"/>
      <line id="Line_96" data-name="Line 96" y1="1.484" x2="4.046" transform="translate(16.441 13.597)" fill="none"/>
      <path id="Path_326" data-name="Path 326" d="M877.5,1015.273c-1.411-.375-5.776.5-5.776.5l4.325,2.369-1.282,2.176a16.88,16.88,0,0,0,3.687-1.785A1.935,1.935,0,0,0,877.5,1015.273Z" transform="translate(-871.721 -994.403)" fill="#dfdfdf"/>
      <g id="Group_202" data-name="Group 202" transform="translate(4.541 9.356)">
        <g id="Group_201" data-name="Group 201" clip-path="url(#clip-path)">
          <path id="Path_327" data-name="Path 327" d="M889.149,1039.39c4.271,6.251,13.478,9.353,21.695,7.525.349-.077.693-.16,1.033-.245C906.968,1039.989,897.328,1037.958,889.149,1039.39Z" transform="translate(-886.945 -1018.334)" fill="#dfdfdf"/>
        </g>
      </g>
      <g id="Group_204" data-name="Group 204" transform="translate(15.263 34.3)">
        <circle id="Ellipse_9" data-name="Ellipse 9" cx="2.516" cy="2.516" r="2.516" fill="#dfdfdf"/>
        <g id="Group_203" data-name="Group 203" transform="translate(1.242 2.304)">
          <path id="Path_329" data-name="Path 329" d="M914.372,1058.361a1.856,1.856,0,0,0,1.937-.38" transform="translate(-914.372 -1057.246)" fill="none"/>
          <path id="Path_330" data-name="Path 330" d="M915.926,1056.081a1.857,1.857,0,0,0,.836,1.788" transform="translate(-915.317 -1056.081)" fill="none"/>
        </g>
      </g>
    </g>
  </g>
</svg>
