<svg xmlns="http://www.w3.org/2000/svg" xmlns:xlink="http://www.w3.org/1999/xlink" width="66.177" height="88.858" viewBox="0 0 66.177 88.858">
  <defs>
    <linearGradient id="linear-gradient" x1="0.821" y1="1.317" x2="0.18" y2="-0.176" gradientUnits="objectBoundingBox">
      <stop offset="0.039" stop-color="#0c0f6c"/>
      <stop offset="0.914" stop-color="#4172da"/>
    </linearGradient>
    <clipPath id="clip-path">
      <path id="Path_14266" data-name="Path 14266" d="M170.907,147.334a12.076,12.076,0,0,1-8.556-3.57,11.884,11.884,0,0,1-3.57-8.623,11.129,11.129,0,0,1,3.5-8.488l24.589-28.16c.067,0,.067,0,.067-.067l.068-.068.2-.2.4-.4.606-.539,2.223-2.223a23.928,23.928,0,0,0,4.581-6.063,6.872,6.872,0,0,0,.876-3.234,3.74,3.74,0,0,0-2.089-3.571,7.367,7.367,0,0,0-3.839-.875c-2.9,0-5.12.808-6.4,3.57-1.55,6.535-5.659,9.971-11.587,9.971-3.638,0-6.467-1.078-8.556-3.3a11.881,11.881,0,0,1-3.032-8.219,16.166,16.166,0,0,1,.2-2.493c.74-5.053,3.974-10.509,8.892-14.821a30.759,30.759,0,0,1,20.143-7.478c8.892,0,16.3,2.224,21.692,6.6,5.592,4.649,8.421,11.116,8.421,19.47a30.138,30.138,0,0,1-3.3,14.484c-2.223,4.378-6.063,9.5-11.452,15.225l-8.691,9.162h11.722a12.6,12.6,0,0,1,8.623,3.3,12.2,12.2,0,0,1,0,17.111,12.588,12.588,0,0,1-8.623,3.5Z" fill="none"/>
    </clipPath>
    <linearGradient id="linear-gradient-2" y1="0.5" x2="1" y2="0.5" gradientUnits="objectBoundingBox">
      <stop offset="0" stop-color="#efc0d5"/>
      <stop offset="1" stop-color="#c74ece"/>
    </linearGradient>
    <linearGradient id="linear-gradient-3" x1="0" y1="0.5" x2="1" y2="0.5" xlink:href="#linear-gradient-2"/>
  </defs>
  <g id="Group_2436" data-name="Group 2436" transform="translate(-153.975 -58.476)">
    <g id="Group_2395" data-name="Group 2395">
      <path id="Path_14264" data-name="Path 14264" d="M170.907,147.334a12.076,12.076,0,0,1-8.556-3.57,11.884,11.884,0,0,1-3.57-8.623,11.129,11.129,0,0,1,3.5-8.488l24.589-28.16c.067,0,.067,0,.067-.067l.068-.068.2-.2.4-.4.606-.539,2.223-2.223a23.928,23.928,0,0,0,4.581-6.063,6.872,6.872,0,0,0,.876-3.234,3.74,3.74,0,0,0-2.089-3.571,7.367,7.367,0,0,0-3.839-.875c-2.9,0-5.12.808-6.4,3.57-1.55,6.535-5.659,9.971-11.587,9.971-3.638,0-6.467-1.078-8.556-3.3a11.881,11.881,0,0,1-3.032-8.219,16.166,16.166,0,0,1,.2-2.493c.74-5.053,3.974-10.509,8.892-14.821a30.759,30.759,0,0,1,20.143-7.478c8.892,0,16.3,2.224,21.692,6.6,5.592,4.649,8.421,11.116,8.421,19.47a30.138,30.138,0,0,1-3.3,14.484c-2.223,4.378-6.063,9.5-11.452,15.225l-8.691,9.162h11.722a12.6,12.6,0,0,1,8.623,3.3,12.2,12.2,0,0,1,0,17.111,12.588,12.588,0,0,1-8.623,3.5Z" fill="url(#linear-gradient)"/>
    </g>
    <g id="Group_2397" data-name="Group 2397">
      <g id="Group_2396" data-name="Group 2396" clip-path="url(#clip-path)">
        <path id="Path_14265" data-name="Path 14265" d="M176.414,28.314c-5.115,3.347-10.025,7.479-11.828,13.562a12.407,12.407,0,0,0,.691,9.265c3.153,6.053,10.37,6.805,16.7,7.132,9.5.491,19.186.966,28.4-1.426,5.136-1.333,10.139-3.558,15.608-2.634a4.694,4.694,0,0,1,3.908,3.954c.424,3.326-2.937,4.894-5.778,5.755-15.631,4.736-31.933,6.925-47.639,11.409s-31.29,11.661-41.758,24.2c-6.49,7.773-10.815,17.98-9.211,27.978a43.059,43.059,0,0,0,4.653,12.729c3.3,6.393,7.3,12.59,12.91,17.088,10.372,8.312,24.642,9.687,37.814,10.223a321.27,321.27,0,0,0,43.076-1.106c10.12-.948,20.3-2.446,29.726-6.229,9.628-3.863,18.508-10.329,23.6-19.366,1.444-2.56,2.593-5.556,1.83-8.394a10.156,10.156,0,0,0-4.063-5.285c-7.172-5.261-16.835-5.082-25.721-4.682l-28.442,1.282c-15.851.714-32.4,1.3-46.831-5.3a10.872,10.872,0,0,1-4.88-3.63c-2.088-3.259-.581-7.72,1.971-10.63,4.117-4.695,10.489-6.893,16.717-7.342s12.447.647,18.629,1.525q11.743,1.668,23.6,2.295c4.424.234,8.915.352,13.223-.678,3.7-.885,7.69-3.176,7.486-7.411a6.771,6.771,0,0,0-2.289-4.6c-2.847-2.605-6.685-3.04-10.363-3.236-14-.747-28.079,1.214-42.03-.165-1.025-.1-2.222-.34-2.654-1.275a2.572,2.572,0,0,1,.228-2.137c2.719-5.691,10.509-5.93,16.807-6.266a64.4,64.4,0,0,0,26.542-7.334c5.159-2.724,10.678-8,7.549-13.68a8.75,8.75,0,0,0-4.893-3.959c-9.8-3.345-20.19-1.208-30.34-1.9-1.625-.11-3.24-.292-4.848-.531a4.485,4.485,0,0,1-.345-8.8c16.926-4.011,34.94-4.315,52.053-8.05a4.2,4.2,0,0,0,3.038-2.473c1.16-2.914-2.075-5.029-4.779-6.026C228.436,12.566,200.147,12.79,176.414,28.314Z" fill="#fff" opacity="0.2"/>
      </g>
    </g>
    <g id="Group_2400" data-name="Group 2400">
      <g id="Group_2399" data-name="Group 2399" clip-path="url(#clip-path)">
        <circle id="Ellipse_996" data-name="Ellipse 996" cx="22.333" cy="22.333" r="22.333" transform="matrix(0.926, -0.378, 0.378, 0.926, 194.587, 68.75)" fill="#efc0d5"/>
        <g id="Group_2398" data-name="Group 2398">
          <path id="Path_14267" data-name="Path 14267" d="M215.032,95.427c-12.452,0-22.583-8.173-22.583-18.218s10.131-18.217,22.583-18.217,22.584,8.172,22.584,18.217S227.485,95.427,215.032,95.427Zm0-35.935c-12.177,0-22.083,7.947-22.083,17.717s9.906,17.718,22.083,17.718,22.084-7.949,22.084-17.718S227.209,59.492,215.032,59.492Z" fill="#fff"/>
        </g>
      </g>
    </g>
    <g id="Group_2402" data-name="Group 2402">
      <g id="Group_2401" data-name="Group 2401">
        <path id="Path_14269" data-name="Path 14269" d="M188.9,110a.375.375,0,0,0,0-.75.375.375,0,0,0,0,.75Z" fill="#fff"/>
      </g>
    </g>
    <g id="Group_2404" data-name="Group 2404">
      <g id="Group_2403" data-name="Group 2403">
        <path id="Path_14270" data-name="Path 14270" d="M194.671,111.779a.375.375,0,0,0,0-.75.375.375,0,0,0,0,.75Z" fill="#fff"/>
      </g>
    </g>
    <g id="Group_2406" data-name="Group 2406">
      <g id="Group_2405" data-name="Group 2405">
        <path id="Path_14271" data-name="Path 14271" d="M205.989,104.455a.375.375,0,0,0,0-.75.375.375,0,0,0,0,.75Z" fill="#fff"/>
      </g>
    </g>
    <g id="Group_2408" data-name="Group 2408">
      <g id="Group_2407" data-name="Group 2407">
        <path id="Path_14272" data-name="Path 14272" d="M189.788,122.875a.375.375,0,0,0,0-.75.375.375,0,0,0,0,.75Z" fill="#fff"/>
      </g>
    </g>
    <g id="Group_2410" data-name="Group 2410">
      <g id="Group_2409" data-name="Group 2409">
        <path id="Path_14273" data-name="Path 14273" d="M174.032,129.088a.375.375,0,0,0,0-.75.375.375,0,0,0,0,.75Z" fill="#fff"/>
      </g>
    </g>
    <g id="Group_2412" data-name="Group 2412">
      <g id="Group_2411" data-name="Group 2411">
        <path id="Path_14274" data-name="Path 14274" d="M195.336,137.3a.375.375,0,0,0,0-.75.375.375,0,0,0,0,.75Z" fill="#fff"/>
      </g>
    </g>
    <g id="Group_2414" data-name="Group 2414">
      <g id="Group_2413" data-name="Group 2413">
        <path id="Path_14275" data-name="Path 14275" d="M212.868,131.974a.375.375,0,0,0,0-.75.375.375,0,0,0,0,.75Z" fill="#fff"/>
      </g>
    </g>
    <g id="Group_2416" data-name="Group 2416">
      <g id="Group_2415" data-name="Group 2415">
        <path id="Path_14276" data-name="Path 14276" d="M180.177,139.588v-.222a.375.375,0,0,0-.75,0v.222a.375.375,0,0,0,.75,0Z" fill="#fff"/>
      </g>
    </g>
    <g id="Group_2418" data-name="Group 2418">
      <g id="Group_2417" data-name="Group 2417">
        <path id="Path_14277" data-name="Path 14277" d="M172.7,82.929a.375.375,0,0,0,0-.75.375.375,0,0,0,0,.75Z" fill="#fff"/>
      </g>
    </g>
    <g id="Group_2420" data-name="Group 2420">
      <g id="Group_2419" data-name="Group 2419">
        <path id="Path_14278" data-name="Path 14278" d="M176.7,72.277a.375.375,0,0,0,0-.75.375.375,0,0,0,0,.75Z" fill="#fff"/>
      </g>
    </g>
    <g id="Group_2422" data-name="Group 2422">
      <g id="Group_2421" data-name="Group 2421">
        <path id="Path_14279" data-name="Path 14279" d="M192.007,63.844a.375.375,0,0,0,0-.75.375.375,0,0,0,0,.75Z" fill="#fff"/>
      </g>
    </g>
    <g id="Group_2424" data-name="Group 2424">
      <g id="Group_2423" data-name="Group 2423">
        <path id="Path_14280" data-name="Path 14280" d="M200,73.608a.375.375,0,0,0,0-.75.375.375,0,0,0,0,.75Z" fill="#fff"/>
      </g>
    </g>
    <g id="Group_2426" data-name="Group 2426">
      <g id="Group_2425" data-name="Group 2425">
        <path id="Path_14281" data-name="Path 14281" d="M166.93,82.485a.375.375,0,0,0,0-.75.375.375,0,0,0,0,.75Z" fill="#fff"/>
      </g>
    </g>
    <g id="Group_2428" data-name="Group 2428">
      <g id="Group_2427" data-name="Group 2427">
        <path id="Path_14282" data-name="Path 14282" d="M180.689,63.844a.375.375,0,0,0,0-.75.375.375,0,0,0,0,.75Z" fill="#fff"/>
      </g>
    </g>
    <g id="Group_2430" data-name="Group 2430">
      <g id="Group_2429" data-name="Group 2429">
        <path id="Path_14283" data-name="Path 14283" d="M166.708,135.968a.375.375,0,0,0,0-.75.375.375,0,0,0,0,.75Z" fill="#fff"/>
      </g>
    </g>
    <g id="Group_2432" data-name="Group 2432">
      <g id="Group_2431" data-name="Group 2431">
        <path id="Path_14284" data-name="Path 14284" d="M180.468,116.661a.375.375,0,0,0,0-.75.375.375,0,0,0,0,.75Z" fill="#fff"/>
      </g>
    </g>
    <path id="Path_14285" data-name="Path 14285" d="M184.684,118.505l.98.56-1,.523-.56.98-.523-1-.98-.56,1-.523.56-.98Z" fill="#fff" fill-rule="evenodd"/>
    <path id="Path_14286" data-name="Path 14286" d="M207.764,136.925l.98.56-1,.523-.56.98-.523-1-.98-.56,1-.523.56-.98Z" fill="#fff" fill-rule="evenodd"/>
    <path id="Path_14287" data-name="Path 14287" d="M173.164,137.395l.98.56-1,.523-.56.98-.523-1-.98-.56,1-.523.56-.98Z" fill="#fff" fill-rule="evenodd"/>
    <path id="Path_14288" data-name="Path 14288" d="M180.246,79l.98.56-1,.523-.56.98-.523-1-.98-.56,1-.523.56-.98Z" fill="#fff" fill-rule="evenodd"/>
    <g id="Group_2434" data-name="Group 2434">
      <g id="Group_2433" data-name="Group 2433">
        <circle id="Ellipse_997" data-name="Ellipse 997" cx="10.056" cy="10.056" r="10.056" transform="matrix(0.865, -0.502, 0.502, 0.865, 154.499, 123.382)" fill="url(#linear-gradient-2)"/>
      </g>
      <path id="Path_14289" data-name="Path 14289" d="M177.909,123.449c2.639.209,4.346.808,4.5,1.747.3,1.878-5.741,4.406-13.493,5.646s-14.281.722-14.581-1.157c-.14-.877,1.1-1.9,3.259-2.86" fill="none" stroke="#1d1670" stroke-miterlimit="10" stroke-width="0.5" fill-rule="evenodd"/>
    </g>
    <g id="Group_2435" data-name="Group 2435" opacity="0.2">
      <path id="Path_14290" data-name="Path 14290" d="M181.7,131.758a14.264,14.264,0,1,1-8.735-18.183A14.264,14.264,0,0,1,181.7,131.758Z" fill-rule="evenodd" fill="url(#linear-gradient-3)"/>
    </g>
  </g>
</svg>
