<svg xmlns="http://www.w3.org/2000/svg" width="40.468" height="65.208" viewBox="0 0 40.468 65.208">
  <g id="Group_3870" data-name="Group 3870" transform="translate(-99.871 -194.733)">
    <g id="Group_3866" data-name="Group 3866">
      <path id="Path_18512" data-name="Path 18512" d="M122.239,259.941l1.09-8.97h2.7l.908,6.788h.012l0,.014h.013l0,.014h.012l0,.014h.013l0,.014h.012l0,.014h.012l0,.014h.012l0,.014h.013l0,.014h.012l0,.014h.013l0,.014h.012l0,.014h.012l0,.014h.012l0,.014h.012l0,.014h.012l0,.014h.013l0,.014h.012l0,.014h.012l0,.014h.013l0,.014h.012l0,.014h.012l0,.014h.012l0,.014h.013l0,.014h.012l0,.014h.013l0,.014h.012l0,.014h.013l0,.014h.012l0,.014h.013l0,.014h.012l0,.014h.013l0,.014h.012l0,.014h.013l0,.014h.012l0,.014h.012l0,.014h.012l0,.014h.013l0,.014h.012l0,.014h.013l0,.014h.012l0,.014h.013l0,.014h.012l0,.014h.013l0,.014h.012l0,.014h.013l0,.014h.012l0,.014h.013l0,.014h.012l0,.014h.013l0,.014h.012l0,.014h.013l0,.014h.012l0,.014h.013l0,.014h.012l0,.014h.012l0,.014h.012l0,.014h.012l0,.014h.012l0,.014h.012l0,.014h.012l0,.014h.012l0,.014h.013l0,.014h.012l0,.014h.012l0,.014h.012l0,.014h.013l0,.014h.012l0,.014h.013l0,.014h.012l0,.014h.013l0,.014h.012l0,.014h.013l0,.014h.012l0,.014h.013l0,.014h.012l0,.014h.012l0,.014h.012l0,.014h.012l0,.014h.012l0,.014h.012l0,.014h.012l0,.014h.012l0,.014h.012l0,.014h.012l0,.014h.012l0,.014h.012l0,.014h.012l0,.014h.012l0,.014h.012l0,.014h.012l0,.015h.012l0,.014h.012l0,.014h.012l0,.014h.013l0,.015h.012l0,.014h.012l0,.014h.012l0,.014h.013l0,.015h.012l0,.014h.012l0,.014h.012l0,.014h.013l0,.014h.012l0,.015h.012l0,.014h.012l0,.014h.013l0,.014h.012l0,.014h.012l0,.014h.012l0,.014h.013l0,.014h.012l0,.014h.012l0,.014h.012l0,.014h.013l0,.014h.012l0,.014h.012l0,.014h.012l0,.014h.013l0,.014h.012l0,.014h.013l0,.014h.012l0,.014h.013l0,.014h.012l0,.014h.013l0,.014h.012l0,.014h.013l0,.014h.012l0,.014h.013l0,.014h.012l0,.014h.013l0,.014h.013l0,.014h.013l0,.014h.012l0,.014h.013l0,.014h.013l0,.014h.013l0,.014h.012l0,.014h.013l0,.014h.013l0,.014h.013l0,.014h.012l0,.014h.012l0,.014H129l0,.014h.012l0,.014h.012l0,.014h.012l0,.014h.013l0,.014h.012l0,.014h.012l0,.014h.012l0,.014h.013l0,.014h11.22l-8.24-54.29h-.012l0-.014h-.012l0-.014h-.012l0-.014h-.012l0-.014h-.012l0-.014h-.012l0-.014H132l0-.014h-.012l0-.014h-.012l0-.014h-.012l0-.014h-.012l0-.014h-.012l0-.014h-.012l0-.014H131.9l0-.014h-.012l0-.014h-.012l0-.014h-.012l0-.014h-.012l0-.014h-.012l0-.014h-.012l0-.014H131.8l0-.014h-.012l0-.014h-.012l0-.014h-.012l0-.014h-.012l0-.014h-.012l0-.014h-.012l0-.015H131.7l0-.014h-.012l0-.014h-.012l0-.014h-.012l0-.015h-.012l0-.014h-.012l0-.014h-.012l0-.014H131.6l0-.015h-.012l0-.014h-.012l0-.014h-.012l0-.014h-.012l0-.014h-.012l0-.015h-.012l0-.014h-.012l0-.014h-.012l0-.014h-.012l0-.015h-.012l0-.014h-.012l0-.014h-.012l0-.014h-.012l0-.014h-.012l0-.014h-.012l0-.014h-.012l0-.014h-.012l0-.014h-.012l0-.014h-.012l0-.014h-.012l0-.014h-.012l0-.014h-.012l0-.014h-.012l0-.014h-.012l0-.014h-.012l0-.014h-.012l0-.014h-.012l0-.014h-.012l0-.014h-.012l0-.014h-.012l0-.014h-.012l0-.014h-.012l0-.014h-.012l0-.014H131.1l0-.014h-.012l0-.014h-.012l0-.014h-.012l0-.014h-.012l0-.014h-.012l0-.014h-.012l0-.014H131l0-.014h-.012l0-.014h-.012l0-.014h-.012l0-.014h-.012l0-.014h-.012l0-.014h-.012l0-.014H130.9l0-.014h-.012l0-.014h-.012l0-.014h-.012l0-.014h-.012l0-.014h-.012l0-.014h-.012l0-.015H130.8l0-.014h-.012l0-.014h-.012l0-.014h-.012l0-.015h-.012l0-.014h-.012l0-.014h-.012l0-.014H130.7l0-.015h-.012l0-.014h-.012l0-.014h-.012l0-.014h-.012l0-.015h-.012l0-.014h-.012l0-.014H130.6l0-.014h-.012l0-.015h-.012l0-.014h-.012l0-.014h-.012l0-.014h-.012l0-.015h-.012l0-.014H130.5l0-.015h-.012l0-.014h-.012l0-.015h-.012l0-.014h-.012l0-.015h-.012l0-.014h-.012l0-.015H130.4l0-.014h-.012l0-.015h-.012l0-.014h-.012l0-.015h-.012l0-.014h-.012l0-.015h-.012l0-.014H130.3l0-.015h-.012l0-.014h-.012l0-.015h-.012l0-.014h-.012l0-.015h-.012l0-.014h-.012l0-.014h-.012l0-.014h-.012l0-.014h-.012l0-.014h-.012l0-.014h-.012l0-.014h-.012l0-.014h-.012l0-.014h-.012l0-.014h-.012l0-.014h-.012l0-.014h-.012l0-.014h-.012l0-.014h-.012l0-.014h-.012l0-.014h-.012l0-.014h-.012l0-.014h-.012l0-.014h-.012l0-.014h-.012l0-.014h-.012l0-.014h-13.57l-7.74,54.29h.017l0,.014h.017l0,.014h.017l0,.014h.017l0,.014h.017l0,.014h.016l0,.014h.017l0,.014h.017l0,.014h.017l0,.014h.017l0,.014h.017l0,.014h.017l0,.014h.017l0,.014h.017l0,.014h.016l0,.014h.017l0,.014h.016l0,.014h.017l0,.014h.016l0,.014h.017l0,.014h.016l0,.014h.017l0,.014h.016l0,.014h.017l0,.014h.017l0,.014h.017l0,.014H109l0,.014h.017l0,.014h.016l0,.014h.017l0,.014h.016l0,.014h.017l0,.014h.016l0,.014h.017l0,.014h.016l0,.014h.017l0,.014h.016l0,.014h.017l0,.014h.016l0,.014h.017l0,.014h.016l0,.014h.017l0,.014h.016l0,.014h.017l0,.014h.017l0,.014h.017l0,.014h.017l0,.014h.017l0,.014h.017l0,.014h.017l0,.014h.017l0,.014h.017l0,.014h.017l0,.014h.017l0,.014h.017l0,.014h.017l0,.014h.017l0,.014h.017l0,.014h.017l0,.014h.017l0,.014h.017l0,.014h.016l0,.014h.017l0,.014h.016l0,.014h.017l0,.014h.016l0,.014h.017l0,.014h.016l0,.014h.017l0,.014h.016l0,.014h.017l0,.014h.016l0,.014h.017l0,.014h.017l0,.014h.017l0,.014h.016l0,.014h.017l0,.014h.016l0,.014h.017l0,.014h.016l0,.014h.017l0,.014h.016l0,.014h.017l0,.014h.016l0,.014h.017l0,.014h.016l0,.014h.017l0,.014h.016l0,.014h.017l0,.014h.016l0,.015h.017l0,.014h.016l0,.014h.017l0,.014h.017l0,.015h.017l0,.014H110l0,.014h.017l0,.014h.017l0,.015h.017l0,.014h.017l0,.014h.017l0,.014h.017l0,.014h.017l0,.015h.016l0,.014h.017l0,.014h.017l0,.014h.016l0,.014h.016l0,.014h.016l0,.014h.017l0,.014h.016l0,.014h.016l0,.014h.016l0,.014h.017l0,.014h.016l0,.014h.016l0,.014h.016l0,.014h.017l0,.014h.016l0,.014h.017l0,.014h.016l0,.014h.017l0,.014h.017l0,.014h.017l0,.014h.016l0,.014h.017l0,.014h.016l0,.014h.017l0,.014h.016l0,.014h.017l0,.014h.017l0,.014h.017l0,.014h.016l0,.014h.017l0,.014h.017l0,.014h.017l0,.014h.016l0,.014h.017l0,.014h.017l0,.014h.017l0,.014h.016l0,.014h.017l0,.014h.017l0,.014h.017l0,.014h.016l0,.014h.017l0,.014h.017l0,.014h.017l0,.014h.016l0,.014h.017l0,.014h.017l0,.014Z" fill="#cb3040"/>
      <path id="Path_18513" data-name="Path 18513" d="M120.058,257.76l1.09-8.97h2.7l.908,6.788h.013l0,.014h.012l0,.014h.013l0,.015h.012l0,.014h.013l0,.014h.012l0,.014h.013l0,.015h.012l0,.014h.012l0,.014h.012l0,.014h.013l0,.015h.012l0,.014h.013l0,.014h.012l0,.014h.013l0,.015h.012l0,.014H125l0,.014h.012l0,.014h.013l0,.015h.012l0,.014h.012l0,.014h.012l0,.014h.012l0,.014h.012l0,.014h.012l0,.014h.013l0,.014h.012l0,.014h.012l0,.014h.012l0,.014h.013l0,.014h.012l0,.014h.012l0,.014h.012l0,.014h.013l0,.014h.012l0,.014h.013l0,.014h.012l0,.014h.012l0,.014h.012l0,.014h.013l0,.014h.012l0,.014h.013l0,.014h.012l0,.014h.013l0,.014h.012l0,.014h.013l0,.014h.012l0,.014h.013l0,.014h.012l0,.014h.013l0,.014h.012l0,.014h.013l0,.014h.012l0,.014h.013l0,.014h.012l0,.014h.013l0,.014h.012l0,.014h.012l0,.014h.012l0,.014h.013l0,.014h.012l0,.014h.013l0,.014h.012l0,.014h.013l0,.014h.012l0,.014h.013l0,.014h.013l0,.014h.013l0,.014h.012l0,.014h.012l0,.014h.013l0,.014h.012l0,.014h.013l0,.014h.012l0,.014h.013l0,.014h.013l0,.014h.013l0,.014h.012l0,.014h.013l0,.014h.013l0,.014h.013l0,.014h.012l0,.014h.013l0,.014h.013l0,.014h.013l0,.014H126l0,.014h.012l0,.014h.013l0,.014h.013l0,.014h.012l0,.014h.013l0,.014h.013l0,.014h.013l0,.014h.012l0,.014h.013l0,.014h.013l0,.014h.013l0,.014h.012l0,.014h.013l0,.014h.013l0,.014h.013l0,.014h.012l0,.014h.013l0,.014h.013l0,.014h.013l0,.014h.013l0,.014h.012l0,.014h.012l0,.014h.013l0,.014h.012l0,.014h.013l0,.014h.012l0,.015h.013l0,.014h.012l0,.015h.012l0,.014h.012l0,.015h.013l0,.014h.012l0,.014h.012l0,.014h.013l0,.015h.012l0,.014h.013l0,.014h.012l0,.014h.013l0,.015h.012l0,.014h.013l0,.014h.012l0,.014h.013l0,.015h.012l0,.014h.013l0,.014h.012l0,.014h.013l0,.015h.012l0,.014h.013l0,.014h.013l0,.014h.012l0,.015h.013l0,.014h.013l0,.014h.012l0,.014h.013l0,.014h.012l0,.014h.013l0,.014h.012l0,.014h.013l0,.014h.012l0,.014h.013l0,.014h.012l0,.014h.013l0,.014h.012l0,.014h.013l0,.014h.012l0,.014h11.22l-8.24-54.29h-.012l0-.014h-.012l0-.014h-.012l0-.014h-.012l0-.014h-.012l0-.014h-.012l0-.014h-.012l0-.014H129.8l0-.014h-.012l0-.014h-.012l0-.014h-.012l0-.014h-.012l0-.014h-.012l0-.014h-.012l0-.014H129.7l0-.014h-.012l0-.015h-.012l0-.014h-.012l0-.014h-.012l0-.014h-.012l0-.015h-.012l0-.014H129.6l0-.014h-.012l0-.014h-.012l0-.015h-.012l0-.014h-.012l0-.014h-.012l0-.014h-.012l0-.014H129.5l0-.015h-.012l0-.014h-.012l0-.014h-.012l0-.014h-.012l0-.015h-.012l0-.014h-.012l0-.014H129.4l0-.014h-.012l0-.014h-.012l0-.014h-.012l0-.014h-.012l0-.014h-.012l0-.014h-.012l0-.014H129.3l0-.014h-.012l0-.014h-.012l0-.014h-.012l0-.014h-.012l0-.014h-.012l0-.014h-.012l0-.014H129.2l0-.014h-.012l0-.014h-.012l0-.014h-.012l0-.014h-.012l0-.014h-.012l0-.014h-.012l0-.014H129.1l0-.014h-.012l0-.014h-.012l0-.014h-.012l0-.014h-.012l0-.014h-.012l0-.014h-.012l0-.014H129l0-.014h-.012l0-.014h-.012l0-.014h-.012l0-.014h-.012l0-.014h-.012l0-.014h-.012l0-.014h-.012l0-.014h-.012l0-.014h-.012l0-.014h-.012l0-.014h-.012l0-.014h-.012l0-.014h-.012l0-.014h-.012l0-.015h-.012l0-.014h-.012l0-.014h-.012l0-.014h-.012l0-.015h-.012l0-.014h-.012l0-.014h-.012l0-.014h-.012l0-.015h-.012l0-.014h-.012l0-.014h-.012l0-.014h-.012l0-.015h-.012l0-.014h-.012l0-.014h-.012l0-.014h-.012l0-.015h-.012l0-.014h-.012l0-.014h-.012l0-.014H128.5l0-.015h-.012l0-.014h-.012l0-.015h-.012l0-.014h-.012l0-.015h-.012l0-.014h-.012l0-.015H128.4l0-.014h-.012l0-.015h-.012l0-.014h-.012l0-.015h-.012l0-.014h-.012l0-.014h-.012l0-.014H128.3l0-.015h-.012l0-.014h-.012l0-.014h-.012l0-.014h-.012l0-.015h-.012l0-.014h-.012l0-.014H128.2l0-.014h-.012l0-.015h-.012l0-.014h-.012l0-.014h-.012l0-.014h-.012l0-.014h-.012l0-.014H128.1l0-.014h-.012l0-.014h-.012l0-.014h-.012l0-.014h-.012l0-.014h-.012l0-.014h-.012l0-.014H128l0-.014h-.012l0-.014h-.012l0-.014h-.012l0-.014h-.012l0-.014h-.012l0-.014h-.012l0-.014H127.9l0-.014h-.012l0-.014h-.012l0-.014h-.012l0-.014h-.012l0-.014h-.012l0-.014h-.012l0-.014H127.8l0-.014h-.012l0-.014h-.012l0-.014h-.012l0-.014h-.012l0-.014h-13.57l-7.74,54.29h.016l0,.014h.017l0,.014h.016l0,.015h.017l0,.014h.016l0,.014h.017l0,.014h.016l0,.015h.017l0,.014h.016l0,.014h.017l0,.014h.017l0,.015h.017l0,.014h.017l0,.014h.017l0,.014h.017l0,.015h.017l0,.014h.017l0,.014h.017l0,.014h.017l0,.015h.017l0,.014h.017l0,.014h.017l0,.014h.017l0,.014h.017l0,.014h.017l0,.014h.017l0,.014h.017l0,.014h.017l0,.014h.017l0,.014h.017l0,.014h.017l0,.014h.016l0,.014h.017l0,.014h.017l0,.014h.017l0,.014h.016l0,.014h.017l0,.014h.017l0,.014h.017l0,.014h.016l0,.014h.017l0,.014h.017l0,.014h.017l0,.014h.016l0,.014h.017l0,.014h.016l0,.014h.017l0,.014h.017l0,.014h.017l0,.014h.016l0,.014h.017l0,.014h.016l0,.014h.017l0,.014h.016l0,.014h.017l0,.014h.016l0,.014h.016l0,.014h.016l0,.014h.017l0,.014h.017l0,.014h.016l0,.014h.017l0,.014h.017l0,.014h.017l0,.014h.017l0,.014h.017l0,.014h.017l0,.014h.017l0,.014h.017l0,.014h.017l0,.014h.017l0,.014h.017l0,.014h.016l0,.014h.017l0,.014h.016l0,.014h.017l0,.014h.017l0,.014h.016l0,.014h.016l0,.014h.017l0,.014h.016l0,.014h.017l0,.014h.016l0,.014h.017l0,.014h.016l0,.014h.016l0,.014h.016l0,.014h.017l0,.014h.016l0,.014h.016l0,.014h.016l0,.014h.017l0,.014h.016l0,.014h.016l0,.014h.016l0,.014h.017l0,.014h.017l0,.014h.017l0,.014h.016l0,.014h.017l0,.014h.016l0,.014h.017l0,.014h.017l0,.014h.017l0,.014h.017l0,.014h.017l0,.014h.016l0,.014h.017l0,.014H108l0,.014h.017l0,.014h.017l0,.014h.017l0,.015h.017l0,.014h.017l0,.015h.017l0,.014h.017l0,.015h.017l0,.014h.016l0,.014h.016l0,.014h.016l0,.015h.017l0,.014h.016l0,.014h.016l0,.014h.016l0,.015h.017l0,.014h.017l0,.014h.016l0,.014h.016l0,.015h.017l0,.014h.016l0,.014h.017l0,.014h.016l0,.015h.017l0,.014h.016l0,.014h.017l0,.014h.016l0,.015h.017l0,.014h.016l0,.014h.017l0,.014h.016l0,.014h.017l0,.014h.017l0,.014h.017l0,.014h.016l0,.014h.016l0,.014h.017l0,.014h.017l0,.014h.016l0,.014h.017l0,.014h.017l0,.014h.017l0,.014Z" fill="#e23e32"/>
      <path id="Path_18514" data-name="Path 18514" d="M117.869,255.571l1.09-8.97h2.7l.908,6.788h.013l0,.014h.012l0,.014h.013l0,.014h.013l0,.014h.012l0,.014h.012l0,.014h.013l0,.014h.012l0,.014h.013l0,.014h.012l0,.014h.013l0,.014h.012l0,.014h.012l0,.015h.012l0,.014h.013l0,.014h.012l0,.014h.012l0,.015h.012l0,.014h.013l0,.014h.012l0,.014h.012l0,.015h.012l0,.014h.013l0,.014h.013l0,.014h.013l0,.015h.012l0,.014h.013l0,.014h.012l0,.014h.012l0,.015H123l0,.014h.013l0,.014h.012l0,.014h.013l0,.015h.012l0,.014h.012l0,.015h.012l0,.014h.012l0,.014h.012l0,.014h.012l0,.014h.012l0,.014h.012l0,.014h.012l0,.014h.012l0,.014h.012l0,.014h.012l0,.014h.012l0,.014h.012l0,.014h.013l0,.014h.012l0,.014h.012l0,.014h.012l0,.014h.013l0,.014h.013l0,.014h.012l0,.014h.012l0,.014h.013l0,.014h.012l0,.014h.013l0,.014h.012l0,.014h.013l0,.014h.012l0,.014h.013l0,.014h.012l0,.014h.012l0,.014h.012l0,.014h.013l0,.014h.012l0,.014h.012l0,.014h.012l0,.014h.013l0,.014h.012l0,.014h.012l0,.014h.013l0,.014h.013l0,.014h.012l0,.014h.012l0,.014h.012l0,.014h.013l0,.014h.012l0,.015h.012l0,.014h.012l0,.014h.013l0,.014h.012l0,.015h.012l0,.014h.012l0,.014h.012l0,.014h.013l0,.015h.012l0,.014h.012l0,.014h.012l0,.014h.013l0,.015h.012l0,.014h.013l0,.014h.012l0,.014h.013l0,.015h.012l0,.014h.012l0,.014h.012l0,.014H124l0,.015h.012l0,.014h.012l0,.015h.013l0,.014h.013l0,.015h.012l0,.014h.012l0,.015h.012l0,.014h.013l0,.015h.012l0,.014h.013l0,.015h.012l0,.014h.013l0,.015h.012l0,.014h.013l0,.015h.012l0,.014h.013l0,.015h.012l0,.014h.013l0,.015h.012l0,.014h.013l0,.015h.013l0,.014h.012l0,.015h.013l0,.014h.012l0,.015h.012l0,.014h.012l0,.015h.012l0,.014h.012l0,.015h.012l0,.014h.012l0,.014h.012l0,.014h.013l0,.014h.012l0,.014h.012l0,.014h.012l0,.014h.012l0,.014h.012l0,.014h.012l0,.014h.012l0,.014h.012l0,.014h.013l0,.014h.012l0,.014h.013l0,.014h.012l0,.014h.013l0,.014h.012l0,.014h.013l0,.014h.012l0,.014h.013l0,.014h.012l0,.014h.012l0,.014h.013l0,.014h11.22l-8.24-54.29h-.012l0-.014H127.7l0-.015h-.012l0-.014h-.012l0-.014h-.012l0-.014h-.012l0-.015h-.012l0-.014h-.012l0-.014H127.6l0-.014h-.012l0-.015h-.012l0-.014h-.012l0-.014h-.012l0-.014h-.012l0-.015h-.012l0-.014H127.5l0-.014h-.012l0-.014h-.012l0-.015h-.012l0-.014h-.012l0-.014h-.012l0-.014h-.012l0-.014H127.4l0-.014h-.012l0-.014h-.012l0-.014h-.012l0-.014h-.012l0-.014h-.012l0-.014h-.012l0-.014H127.3l0-.014h-.012l0-.014h-.012l0-.014h-.012l0-.014h-.012l0-.014h-.012l0-.014h-.012l0-.014H127.2l0-.014h-.012l0-.014h-.012l0-.014h-.012l0-.014h-.012l0-.014h-.012l0-.014h-.012l0-.014H127.1l0-.014h-.012l0-.014h-.012l0-.014h-.012l0-.014h-.012l0-.014h-.012l0-.014h-.012l0-.014h-.012l0-.014h-.012l0-.014h-.012l0-.014h-.012l0-.014h-.012l0-.014h-.012l0-.014h-.012l0-.014h-.012l0-.015h-.012l0-.014h-.012l0-.015h-.012l0-.014h-.012l0-.015h-.012l0-.014h-.012l0-.015h-.012l0-.014h-.012l0-.014h-.012l0-.014h-.012l0-.015h-.012l0-.014h-.012l0-.014h-.012l0-.014h-.012l0-.015h-.012l0-.014h-.012l0-.014h-.012l0-.014h-.012l0-.015h-.012l0-.014H126.6l0-.014h-.012l0-.014h-.012l0-.015h-.012l0-.014h-.012l0-.014h-.012l0-.014h-.012l0-.015H126.5l0-.014h-.012l0-.014h-.012l0-.014h-.012l0-.014h-.012l0-.014h-.012l0-.014h-.012l0-.014H126.4l0-.014h-.012l0-.014h-.012l0-.014h-.012l0-.014h-.012l0-.014h-.012l0-.014h-.012l0-.014H126.3l0-.014h-.012l0-.014h-.012l0-.014h-.012l0-.014h-.012l0-.014h-.012l0-.014h-.012l0-.014H126.2l0-.014h-.012l0-.014h-.012l0-.014h-.012l0-.014h-.012l0-.014h-.012l0-.014h-.012l0-.014H126.1l0-.014h-.012l0-.014h-.012l0-.014h-.012l0-.014h-.012l0-.014h-.012l0-.014h-.012l0-.014H126l0-.014h-.012l0-.014h-.012l0-.014h-.012l0-.014h-.012l0-.014h-.012l0-.014h-.012l0-.014H125.9l0-.014h-.012l0-.014h-.012l0-.014h-.012l0-.014h-.012l0-.014h-.012l0-.014h-.012l0-.015h-.012l0-.014h-.012l0-.014h-.012l0-.014h-.012l0-.015h-.012l0-.014h-.012l0-.014h-.012l0-.014h-.012l0-.015h-.012l0-.014h-.012l0-.014h-.012l0-.014h-.012l0-.014h-.012l0-.014h-.012l0-.014h-.012l0-.014h-.012l0-.014h-.012l0-.015h-.012l0-.014h-13.57l-7.74,54.29h.016l0,.014h.017l0,.014h.017l0,.014h.017l0,.014h.016l0,.014h.017l0,.014h.017l0,.014h.017l0,.014h.016l0,.014h.017l0,.014h.017l0,.014h.017l0,.014h.016l0,.015h.016l0,.014h.017l0,.014h.017l0,.014h.016l0,.015h.017l0,.014h.017l0,.014h.017l0,.014h.016l0,.015h.017l0,.014h.017l0,.014h.017l0,.014h.017l0,.015h.017l0,.014h.017l0,.014h.017l0,.014h.017l0,.015h.017l0,.014h.017l0,.014h.017l0,.014h.017l0,.015h.017l0,.014h.017l0,.015h.017l0,.014h.017l0,.014h.017l0,.014h.017l0,.014h.017l0,.014h.017l0,.014h.017l0,.014h.016l0,.014h.017l0,.014h.017l0,.014h.016l0,.014h.017l0,.014h.017l0,.014h.017l0,.014h.016l0,.014h.017l0,.014h.017l0,.014h.017l0,.014h.016l0,.014h.017l0,.014h.016l0,.014h.017l0,.014h.017l0,.014h.017l0,.014h.016l0,.014h.017l0,.014h.017l0,.014h.016l0,.014h.016l0,.014h.017l0,.014h.017l0,.014h.017l0,.014h.016l0,.014h.017l0,.014h.017l0,.014h.017l0,.014h.016l0,.014h.017l0,.014h.017l0,.014h.017l0,.014h.017l0,.014h.017l0,.014h.017l0,.014h.017l0,.015h.017l0,.014h.017l0,.014h.017l0,.014h.017l0,.015h.017l0,.014h.017l0,.014h.017l0,.014h.017l0,.015h.017l0,.014h.017l0,.014h.017l0,.014h.017l0,.015h.016l0,.014h.017l0,.014h.017l0,.014h.017l0,.015h.017l0,.014h.016l0,.014h.017l0,.014h.017l0,.015h.017l0,.014h.016l0,.015h.017l0,.014h.017l0,.015h.017l0,.014h.016l0,.015h.017l0,.014h.017l0,.015h.017l0,.014h.016l0,.015h.017l0,.014h.017l0,.015h.016l0,.014h.017l0,.015h.017l0,.014h.017l0,.015h.017l0,.014h.017l0,.015h.017l0,.014h.017l0,.015h.017l0,.014h.016l0,.015H106l0,.014h.017l0,.015h.017l0,.014h.017l0,.015h.017l0,.014h.017l0,.015h.017l0,.014h.017l0,.014h.016l0,.014h.017l0,.014h.017l0,.014h.017l0,.014h.016l0,.014h.017l0,.014h.017l0,.014h.017l0,.014h.016l0,.014h.017l0,.014h.017l0,.014h.016l0,.014h.016l0,.014h.017l0,.014h.017l0,.014h.017l0,.014h.016l0,.014h.017l0,.014h.017l0,.014h.017l0,.014h.016l0,.014h.017l0,.014Z" fill="#d35717"/>
      <path id="Path_18515" data-name="Path 18515" d="M115.688,253.389l1.09-8.97h2.7l.908,6.788h.012l0,.014h.012l0,.015h.012l0,.014h.013l0,.015h.012l0,.014h.012l0,.015h.013l0,.014h.013l0,.015h.012l0,.014h.012l0,.015h.012l0,.014h.013l0,.014h.012l0,.014h.013l0,.015h.012l0,.014h.013l0,.014h.012l0,.014h.013l0,.015h.012l0,.014h.013l0,.014h.012l0,.014h.013l0,.015h.012l0,.014h.013l0,.014h.013l0,.014h.012l0,.015h.013l0,.014h.013l0,.014h.013l0,.014h.013l0,.015h.012l0,.014h.013l0,.014h.013l0,.014h.013l0,.014h.012l0,.014h.013l0,.014h.013l0,.014h.013l0,.014h.012l0,.014h.012l0,.014h.013l0,.014h.012l0,.014h.012l0,.014h.012l0,.014h.013l0,.014h.012l0,.014h.013l0,.014h.012l0,.014h.013l0,.014h.012l0,.014h.013l0,.014h.012l0,.014h.013l0,.014h.012l0,.014h.012l0,.014h.013l0,.014h.013l0,.014h.012l0,.014h.013l0,.014h.012l0,.014h.013l0,.014h.012l0,.014h.013l0,.014h.012l0,.014h.013l0,.014h.012l0,.014h.013l0,.014h.012l0,.014h.013l0,.014h.012l0,.014h.013l0,.014h.012l0,.014h.013l0,.014h.012l0,.014h.012l0,.014h.012l0,.014h.013l0,.014h.012l0,.014h.013l0,.014h.012l0,.014h.013l0,.014h.012l0,.014h.013l0,.014h.012l0,.015h.013l0,.014h.012l0,.014h.012l0,.014h.012l0,.015h.012l0,.014h.012l0,.015h.012l0,.014h.013l0,.015h.012l0,.014h.012l0,.015h.012l0,.014h.013l0,.015h.012l0,.014h.013l0,.015h.012l0,.014h.013l0,.014h.012l0,.014h.013l0,.015h.012l0,.014h.012l0,.014h.012l0,.014h.013l0,.015h.012l0,.014h.013l0,.014h.012l0,.014h.013l0,.015h.012l0,.014H122l0,.014h.012l0,.014h.013l0,.015h.012l0,.014h.013l0,.014h.012l0,.014h.013l0,.014h.012l0,.014h.013l0,.014h.012l0,.014h.013l0,.014h.012l0,.014h.012l0,.014h.012l0,.014h.013l0,.014h.012l0,.014h.013l0,.014h.012l0,.014h.012l0,.014h.012l0,.014h.012l0,.014h.012l0,.014h.012l0,.014h.012l0,.014h.012l0,.014h.013l0,.014h.012l0,.014h.013l0,.014h.012l0,.014h.013l0,.014h.012l0,.014h.013l0,.014h.012l0,.014h.013l0,.014h.012l0,.014h.013l0,.014h.012l0,.014h.013l0,.014h.012l0,.014h.013l0,.014h11.22l-8.24-54.29h-.012l0-.014h-.012l0-.014h-.012l0-.015h-.012l0-.014h-.012l0-.015h-.012l0-.014h-.012l0-.015h-.012l0-.014h-.012l0-.015h-.012l0-.014h-.012l0-.014h-.012l0-.014h-.012l0-.014h-.012l0-.014h-.012l0-.014h-.012l0-.014H125.3l0-.014h-.012l0-.014h-.012l0-.014h-.012l0-.014h-.012l0-.014h-.012l0-.014h-.012l0-.014H125.2l0-.014h-.012l0-.014h-.012l0-.014h-.012l0-.014h-.012l0-.014h-.012l0-.014h-.012l0-.014H125.1l0-.014h-.012l0-.014h-.012l0-.014h-.012l0-.014h-.012l0-.014h-.012l0-.014h-.012l0-.014H125l0-.014h-.012l0-.014h-.012l0-.014h-.012l0-.014h-.012l0-.014h-.012l0-.014h-.012l0-.014H124.9l0-.014h-.012l0-.014h-.012l0-.014h-.012l0-.014h-.012l0-.014h-.012l0-.014h-.012l0-.014H124.8l0-.014h-.012l0-.014h-.012l0-.014h-.012l0-.014h-.012l0-.014h-.012l0-.014h-.012l0-.014H124.7l0-.014h-.012l0-.014h-.012l0-.014h-.012l0-.014h-.012l0-.014h-.012l0-.014h-.012l0-.014H124.6l0-.014h-.012l0-.015h-.012l0-.014h-.012l0-.014h-.012l0-.014h-.012l0-.015h-.012l0-.014H124.5l0-.014h-.012l0-.014h-.012l0-.015h-.012l0-.014h-.012l0-.014h-.012l0-.014h-.012l0-.015h-.012l0-.014h-.012l0-.014h-.012l0-.014h-.012l0-.015h-.012l0-.014h-.012l0-.014h-.012l0-.014h-.012l0-.015h-.012l0-.014h-.012l0-.015h-.012l0-.014h-.012l0-.015h-.012l0-.014h-.012l0-.015h-.012l0-.014h-.012l0-.015h-.012l0-.014h-.012l0-.015h-.012l0-.014h-.012l0-.014H124.1l0-.014h-.012l0-.015h-.012l0-.014h-.012l0-.014h-.012l0-.014h-.012l0-.014h-.012l0-.014H124l0-.014h-.012l0-.014h-.012l0-.014h-.012l0-.014h-.012l0-.014h-.012l0-.014h-.012l0-.014H123.9l0-.014h-.012l0-.014h-.012l0-.014h-.012l0-.014h-.012l0-.014h-.012l0-.014h-.012l0-.014H123.8l0-.014h-.012l0-.014h-.012l0-.014h-.012l0-.014h-.012l0-.014h-.012l0-.014h-.012l0-.014H123.7l0-.014h-.012l0-.014h-.012l0-.014h-.012l0-.014h-.012l0-.014h-.012l0-.014h-.012l0-.014H123.6l0-.014h-.012l0-.014h-.012l0-.014h-.012l0-.014h-.012l0-.014h-.012l0-.014h-.012l0-.015H123.5l0-.014h-.012l0-.014h-.012l0-.014h-.012l0-.015h-.012l0-.014h-.012l0-.014h-.012l0-.014H123.4l0-.015h-.012l0-.014h-.012l0-.014H109.8l-7.74,54.29h.017l0,.014h.016l0,.015h.017l0,.014h.017l0,.015h.017l0,.014h.016l0,.015h.017l0,.014h.017l0,.015h.017l0,.014h.016l0,.015h.017l0,.014h.017l0,.014h.017l0,.014h.016l0,.015h.017l0,.014h.017l0,.014h.016l0,.014h.016l0,.015h.017l0,.014h.017l0,.014h.017l0,.014h.016l0,.015h.017l0,.014h.016l0,.014h.017l0,.014h.016l0,.015h.017l0,.014h.016l0,.014h.017l0,.014h.017l0,.015h.017l0,.014h.017l0,.014h.017l0,.014h.017l0,.014h.016l0,.014h.017l0,.014h.017l0,.014h.017l0,.014h.016l0,.014h.017l0,.014h.017l0,.014h.017l0,.014h.016l0,.014h.017l0,.014h.017l0,.014h.016l0,.014h.016l0,.014h.017l0,.014h.017l0,.014h.017l0,.014h.016l0,.014h.017l0,.014h.017l0,.014h.017l0,.014h.016l0,.014h.017l0,.014h.016l0,.014h.017l0,.014h.016l0,.014h.017l0,.014h.016l0,.014h.017l0,.014h.016l0,.014h.016l0,.014H103l0,.014h.017l0,.014h.016l0,.014h.016l0,.014h.016l0,.014h.017l0,.014h.016l0,.014h.016l0,.014h.016l0,.014h.017l0,.014h.016l0,.014h.017l0,.014h.017l0,.014h.017l0,.014h.017l0,.014h.017l0,.014h.017l0,.014h.017l0,.014h.017l0,.014h.017l0,.015h.017l0,.014h.017l0,.014h.017l0,.014h.017l0,.015h.017l0,.014h.016l0,.015h.017l0,.014h.016l0,.015h.017l0,.014h.017l0,.015h.017l0,.014h.016l0,.015h.017l0,.014h.016l0,.015h.017l0,.014h.016l0,.014h.017l0,.014h.016l0,.015h.017l0,.014h.016l0,.014h.017l0,.014h.016l0,.015h.017l0,.014h.016l0,.014h.017l0,.014h.016l0,.015h.017l0,.014h.016l0,.014h.017l0,.014h.017l0,.015h.017l0,.014h.016l0,.014h.017l0,.014h.016l0,.014h.017l0,.014h.017l0,.014h.017l0,.014h.017l0,.014h.017l0,.014h.017l0,.014h.017l0,.014h.017l0,.014h.017l0,.014h.017l0,.014h.017l0,.014h.017l0,.014h.017l0,.014h.017l0,.014h.017l0,.014h.017l0,.014h.017l0,.014h.017l0,.014h.017l0,.014h.017l0,.014h.016l0,.014h.017l0,.014h.016l0,.014h.017l0,.014h.017l0,.014h.017l0,.014h.016l0,.014h.017l0,.014h.016l0,.014h.017l0,.014h.016l0,.014h.017l0,.014h.016l0,.014Z" fill="#e89b19"/>
      <path id="Path_18516" data-name="Path 18516" d="M113.5,251.2l1.09-8.97h2.7l.908,6.788h.013l0,.014h.012l0,.015h.013l0,.014h.012l0,.014h.013l0,.014h.013l0,.015h.012l0,.014h.012l0,.014h.013l0,.014h.012l0,.015h.012l0,.014h.012l0,.014h.012l0,.014h.013l0,.015h.013l0,.014h.012l0,.014h.012l0,.014h.013l0,.015h.012l0,.014h.012l0,.014h.012l0,.014h.013l0,.015h.012l0,.014h.012l0,.015h.012l0,.014h.013l0,.015h.012l0,.014h.012l0,.015h.012l0,.014h.013l0,.015h.012l0,.014h.012l0,.015h.012l0,.014h.013l0,.015h.013l0,.014h.013l0,.015h.012l0,.014h.013l0,.015h.012l0,.014h.013l0,.015h.012l0,.014h.013l0,.015h.012l0,.014h.013l0,.015h.012l0,.014h.013l0,.015h.012l0,.014h.013l0,.015h.012l0,.014h.013l0,.015h.012l0,.014h.012l0,.015h.012l0,.014h.012l0,.015h.013l0,.014h.012l0,.014h.012l0,.014h.012l0,.014h.012l0,.014h.012l0,.014h.012l0,.014h.012l0,.014h.012l0,.014h.013l0,.014h.013l0,.014h.012l0,.014h.012l0,.014h.012l0,.014h.013l0,.014h.012l0,.014h.013l0,.014h.012l0,.014h.013l0,.014h.012l0,.014h.012l0,.014h.012l0,.014h.013l0,.014h.012l0,.014h.012l0,.014h.012l0,.014h.013l0,.014h.012l0,.014h.012l0,.014h.013l0,.014h.013l0,.014h.012l0,.014h.013l0,.014h.012l0,.014h.013l0,.014h.012l0,.014h.013l0,.014h.012l0,.014h.013l0,.014h.012l0,.015h.013l0,.014h.012l0,.014h.013l0,.014h.012l0,.015h.012l0,.014h.012l0,.014h.012l0,.014h.012l0,.015h.012l0,.014h.013l0,.014h.012l0,.014h.013l0,.015h.012l0,.014h.012l0,.015h.012l0,.014h.013l0,.015h.012l0,.014h.012l0,.015h.013l0,.014h.013l0,.015h.012l0,.014h.012l0,.015h.012l0,.014h.013l0,.014h.012l0,.014h.013l0,.015h.012l0,.014h.013l0,.014h.012l0,.014h.013l0,.015h.012l0,.014h.013l0,.014h.012l0,.014h.013l0,.015h.012l0,.014h.013l0,.014h.013l0,.014h.012l0,.015h.013l0,.014h.013l0,.014h.012l0,.014h.013l0,.015h.012l0,.014h.013l0,.014h.012l0,.014h.013l0,.014h.012l0,.014h.013l0,.014h.012l0,.014h.012l0,.014h.012l0,.014h.012l0,.014h.012l0,.014h.012l0,.014h.012l0,.014h.012l0,.014h.013l0,.014H131.6l-8.24-54.29h-.012l0-.014h-.012l0-.014h-.012l0-.014h-.012l0-.014h-.012l0-.014h-.012l0-.014h-.012l0-.014h-.012l0-.014h-.012l0-.014h-.012l0-.014h-.012l0-.014h-.012l0-.014h-.012l0-.014h-.012l0-.014h-.012l0-.014h-.012l0-.014h-.012l0-.014h-.012l0-.014h-.012l0-.014h-.012l0-.014h-.012l0-.014h-.012l0-.014h-.012l0-.014h-.012l0-.014H123l0-.014h-.012l0-.014h-.012l0-.014h-.012l0-.014h-.012l0-.014h-.012l0-.014h-.012l0-.014H122.9l0-.014h-.012l0-.014h-.012l0-.014h-.012l0-.014h-.012l0-.014h-.012l0-.014h-.012l0-.014H122.8l0-.015h-.012l0-.014h-.012l0-.014h-.012l0-.014h-.012l0-.015h-.012l0-.014h-.012l0-.014H122.7l0-.014h-.012l0-.015h-.012l0-.014h-.012l0-.015h-.012l0-.014h-.012l0-.015h-.012l0-.014H122.6l0-.015h-.012l0-.014h-.012l0-.015h-.012l0-.014h-.012l0-.015h-.012l0-.014h-.012l0-.015H122.5l0-.014h-.012l0-.015h-.012l0-.014h-.012l0-.015h-.012l0-.014h-.012l0-.015h-.012l0-.014H122.4l0-.015h-.012l0-.014h-.012l0-.015h-.012l0-.014h-.012l0-.015h-.012l0-.014h-.012l0-.015H122.3l0-.014h-.012l0-.015h-.012l0-.014h-.012l0-.014h-.012l0-.014h-.012l0-.015h-.012l0-.014h-.012l0-.014h-.012l0-.014h-.012l0-.015h-.012l0-.014h-.012l0-.014h-.012l0-.014h-.012l0-.015h-.012l0-.014h-.012l0-.014h-.012l0-.014h-.012l0-.015h-.012l0-.014h-.012l0-.014h-.012l0-.014h-.012l0-.014h-.012l0-.014h-.012l0-.014h-.012l0-.014h-.012l0-.014h-.012l0-.014h-.012l0-.014h-.012l0-.014h-.012l0-.014h-.012l0-.014h-.012l0-.014h-.012l0-.014h-.012l0-.014H121.8l0-.014h-.012l0-.014h-.012l0-.014h-.012l0-.014h-.012l0-.014h-.012l0-.014h-.012l0-.014H121.7l0-.014h-.012l0-.014h-.012l0-.014h-.012l0-.014h-.012l0-.014h-.012l0-.014h-.012l0-.014H121.6l0-.014h-.012l0-.014h-.012l0-.014h-.012l0-.014h-.012l0-.014h-.012l0-.014h-.012l0-.014H121.5l0-.014h-.012l0-.014h-.012l0-.015h-.012l0-.014h-.012l0-.015h-.012l0-.014h-.012l0-.015H121.4l0-.014h-.012l0-.015h-.012l0-.014h-.012l0-.015h-.012l0-.014h-.012l0-.015h-.012l0-.014H121.3l0-.014h-.012l0-.014h-.012l0-.015h-.012l0-.014h-.012l0-.014h-.012l0-.014h-.012l0-.015H121.2l0-.014h-.012l0-.014h-13.57l-7.74,54.29h.017l0,.014H99.9l0,.015h.017l0,.014h.017l0,.014h.017l0,.014h.017l0,.015h.017l0,.014h.017l0,.014H100l0,.014h.017l0,.015h.017l0,.014h.017l0,.014h.017l0,.014h.017l0,.015h.017l0,.014h.017l0,.014h.017l0,.014h.017l0,.015h.017l0,.014h.016l0,.014h.017l0,.014h.017l0,.015h.017l0,.014h.016l0,.015h.016l0,.014h.017l0,.015h.017l0,.014h.016l0,.015h.017l0,.014h.017l0,.015h.017l0,.014h.016l0,.015h.017l0,.014h.017l0,.015h.017l0,.014h.016l0,.015h.017l0,.014h.017l0,.015h.017l0,.014h.016l0,.015h.017l0,.014h.017l0,.015h.017l0,.014h.017l0,.015h.016l0,.014h.017l0,.015h.017l0,.014h.017l0,.015h.017l0,.014h.017l0,.015h.017l0,.014h.017l0,.015h.017l0,.014h.016l0,.015h.017l0,.014h.017l0,.014h.016l0,.014h.017l0,.014h.017l0,.014h.017l0,.014h.016l0,.014h.017l0,.014h.017l0,.014h.017l0,.014h.016l0,.014h.017l0,.014h.017l0,.014h.017l0,.014h.016l0,.014h.017l0,.014h.017l0,.014h.017l0,.014h.017l0,.014h.016l0,.014h.016l0,.014h.017l0,.014h.016l0,.014H101l0,.014h.016l0,.014h.017l0,.014h.016l0,.014h.017l0,.014h.016l0,.014h.017l0,.014h.016l0,.014h.017l0,.014h.016l0,.014h.017l0,.014h.017l0,.014h.017l0,.014h.017l0,.014h.017l0,.014h.017l0,.014h.017l0,.015h.017l0,.014h.017l0,.014h.017l0,.014h.017l0,.015h.017l0,.014h.017l0,.014h.017l0,.014h.017l0,.015h.016l0,.014h.017l0,.014h.017l0,.014h.017l0,.015h.017l0,.014h.016l0,.015h.017l0,.014h.017l0,.015h.017l0,.014h.016l0,.015h.017l0,.014h.017l0,.015h.017l0,.014h.016l0,.015h.017l0,.014h.017l0,.014h.017l0,.014h.016l0,.015h.017l0,.014h.017l0,.014h.016l0,.014h.016l0,.015h.017l0,.014h.017l0,.014h.017l0,.014h.016l0,.015h.017l0,.014h.016l0,.014h.017l0,.014h.016l0,.015h.017l0,.014h.017l0,.014h.017l0,.014h.017l0,.015h.017l0,.014h.017l0,.014h.017l0,.014h.017l0,.014h.017l0,.014h.017l0,.014h.017l0,.014h.017l0,.014h.017l0,.014h.017l0,.014H102l0,.014h.017l0,.014h.016l0,.014h.017l0,.014h.017l0,.014Z" fill="#f2c416"/>
    </g>
    <g id="Group_3869" data-name="Group 3869">
      <g id="Group_3867" data-name="Group 3867">
        <path id="Path_18517" data-name="Path 18517" d="M129.421,249.025H118.2l-1.2-8.971h-4.592l-1.086,8.971H99.872l7.744-54.29h13.569Zm-7.719-4h3.067l-7.023-46.29h-6.661l-6.6,46.29h3.294l1.086-8.971H120.5Zm-1.466-11.115H109.12l3.575-29.26h3.635Zm-6.6-4h2.027l-1.058-7.933Z" fill="#fff"/>
      </g>
      <path id="Path_18518" data-name="Path 18518" d="M119.67,198.057l-.19-1.24-.01-.08H109.35l-7.17,50.29h7.37l1.09-8.97h8.11l.01.08.17,1.24,1.02,7.65h7.15Zm-5.2,8.59h.11l.01.09.7,5.24,2.66,19.93h-6.57Z" fill="#9eccc5"/>
      <g id="Group_3868" data-name="Group 3868">
        <path id="Path_18519" data-name="Path 18519" d="M119.27,233.227l-3.37-25.26h-.07l-.01-.08h-.08l-.01-.08h-.07l-.01-.09h-.07l-.01-.08h-.07l-.01-.08h-.08l-.01-.08h-.07l-.01-.09h-.07l-.01-.08h-.07l-.01-.08h-.08l-.01-.08H115l-.01-.09h-.07l-.01-.08h-.07l-.01-.08h-.08l-.01-.08h-.07l-.01-.08h-.07l.7,5.24,2.66,19.93h-6.48l-.01.09h.09l-.01.08h.1l-.01.08h.09l-.01.08h.09l-.01.09h.09l-.01.08h.1l-.01.08h.09l-.01.08h.09l-.01.08h.09l-.01.09h.1l-.01.08h.09l-.01.08h.09l-.01.08h.09l-.01.09h.1l-.01.08h.09l-.01.08Z" fill="#63ada2"/>
        <path id="Path_18520" data-name="Path 18520" d="M120.07,239.377H120l-.01-.09h-.07l-.01-.08h-.08l-.01-.08h-.07l-.01-.08h-.07l-.01-.09h-.07l-.01-.08h-.08l-.01-.08h-.07l-.01-.08h-.07l-.01-.09h-.07l-.01-.08h-.08l-.01-.08h-.07l-.01-.08h-.07l-.01-.09h-.07l-.01-.08h-.08l-.01-.08h-.07l.17,1.24,1.02,7.65h1.14Zm-.59-42.56-.01-.08H109.35l-7.17,50.29h1.51l6.98-48.97h9Z" fill="#63ada2"/>
      </g>
    </g>
  </g>
</svg>
