<svg xmlns="http://www.w3.org/2000/svg" width="37.149" height="74.941" viewBox="0 0 37.149 74.941">
  <g id="Group_3865" data-name="Group 3865" transform="translate(-381.821 -264.359)">
    <g id="Group_3861" data-name="Group 3861">
      <path id="Path_18503" data-name="Path 18503" d="M418.97,314.111v-23c0-4.95-.991-8.82-2.941-11.5a9.888,9.888,0,0,0-.853-1.019l-.015-.014-.014-.015-.015-.014-.014-.015-.014-.014-.015-.014-.014-.015-.015-.015-.014-.014-.014-.014-.015-.015-.014-.014-.015-.015-.015-.014-.014-.015-.014-.014-.014-.014-.015-.015-.015-.014-.014-.015-.014-.014-.015-.015-.014-.014-.015-.014-.014-.015-.015-.015-.014-.014-.014-.014-.015-.015-.015-.014-.014-.015-.014-.014-.015-.015-.014-.014-.015-.015-.014-.014-.015-.015-.014-.014-.014-.014-.015-.015-.014-.014-.015-.015-.014-.014-.015-.015-.014-.014-.015-.014-.014-.015-.015-.014-.014-.015-.014-.014-.015-.015-.014-.014-.015-.015-.014-.014-.015-.015-.014-.014-.014-.014-.015-.015-.015-.014-.014-.015-.014-.014-.015-.015-.014-.014-.015-.015-.014-.014-.015-.015-.014-.014-.014-.014-.015-.015-.014-.014-.015-.015-.014-.014-.015-.015-.014-.014-.015-.015-.014-.014-.015-.015-.014-.014-.014-.014-.015-.015-.014-.014-.015-.015-.014-.014-.015-.015-.014-.014-.015-.015-.014-.014-.015-.014-.014-.015-.014-.014-.015-.015-.014-.014-.015-.015-.014-.014-.015-.015-.014-.014-.014-.014-.015-.015-.014-.014-.015-.015-.014-.014-.015-.015-.014-.014-.015-.015-.014-.014-.015-.015-.014-.014-.014-.014-.015-.015-.014-.014-.015-.015-.014-.014-.015-.015-.014-.014-.015-.015-.014-.014-.015-.015-.014-.014-.014-.014-.015-.015-.014-.014-.015-.015-.014-.014-.015-.015-.014-.014-.015-.014-.014-.015-.015-.015-.014-.014-.014-.014-.015-.015-.014-.014-.015-.015-.014-.014-.015-.015-.014-.014-.015-.014-.014-.015-.015-.015-.014-.014-.014-.014-.015-.015-.014-.014-.015-.015-.014-.014-.015-.015-.014-.014-.015-.014-.014-.015-.015-.014c-2.107-2.206-5.185-3.326-9.16-3.326-6.06,0-13.29,2.741-13.29,15.83v23c0,5.39.97,9.31,2.96,12a11.3,11.3,0,0,0,.776.938l.014.014.015.014.014.015.015.015.014.014.015.014.014.015.015.014.014.014.014.015.015.015.014.014.015.014.014.015.015.015.014.013.014.015.015.015.015.014.014.014.014.015.015.015.014.014.015.014.014.015.015.015.014.013.014.015.015.015.015.014.013.014.015.015.015.015.014.014.015.014.014.015.015.014.014.014.014.015.015.014.014.015.014.014.015.015.015.015.014.013.014.015.015.015.015.014.014.014.014.015.015.014.014.015.014.014.015.015.015.015.014.013.014.015.015.015.015.014.013.014.015.015.015.014.014.015.015.014.014.015.015.014.014.014.014.015.015.014.015.015.013.014.015.015.015.014.014.015.014.014.015.015.015.014.014.014.014.015.015.015.014.014.014.014.015.015.015.014.014.015.014.014.015.015.015.014.013.014.015.015.015.014.014.015.014.014.015.015.014.014.015.015.014.014.015.015.015.014.013.014.015.015.015.014.014.015.014.014.015.015.015.014.014.014.014.015.015.015.014.014.014.014.015.015.015.014.014.015.014.014.015.015.015.014.013.014.015.015.015.014.014.015.014.014.015.015.014.014.015.015.014.014.015.015.015.014.013.014.015.015.015.014.014.015.014.014.015.015.014.014.015.015.014.014.015.015.014.014.014.014.015.015.015.014.014.015.014.014.015.015.014.014.015.015.014.014.015.014.014.015a11.49,11.49,0,0,0,7.27,3.564l5.987,6.521h0l.014.015h0l.014.015h0l.014.015h0l.014.015h0l.014.015h0l.013.015h0l.014.015h0l.013.015h0l.014.015h0l.014.015h0l.014.015h0l.014.015h0l.014.015h0l.014.015h0l.013.015h0l.014.015h0l.013.015h0l.014.016h0l.014.015h0l.014.015h0l.014.015h0l.014.015h0l.014.015h0l.013.015h0l.014.015h0l.013.015h0l.014.015h0l.014.015h0l.014.015h0l.014.015h0l.014.015h0l.014.015h0l.014.015h0l.014.015h0l.013.015h0l.014.015h0l.013.015h0l.014.015h0l.014.015h0l.014.015h0l.014.015h0l.014.015h0l.014.015h0l.013.015h0l.014.015h0l.013.015h0l.014.016h0l.014.015h0l.014.015h0l.014.015h0l.014.015h0l.014.015h0l.014.015h0l.014.015h0l.013.015h0l.014.015h0l.014.015h0l.014.016h0l.014.015h0l.014.015h0l.014.015h0l.014.015h0l.014.015h0l.013.015h0l.014.015h0l.013.015h0l.014.015h0l.014.015h0l.014.015h0l.014.015h0l.014.015h0l.014.015h0l.013.015h0l.014.015h0l.013.015h0l.014.016h0l.014.015h0l.014.015h0l.014.015h0l.014.015h0l.014.015h0l.014.015h0l.014.015h0l.013.015h0l.014.015h0l.013.015h0l.014.016h0l.014.015h0l.014.015h0l.014.015h0l.014.015h0l.014.015h0l.013.015h0l.014.015h0l.013.015h0l.014.014h0l.014.015h0l.014.015h0l.014.015h0l.014.015h0l.014.015h0l.013.015h0l.014.015h0l.013.015h0l.014.015h0l.014.015h0l.014.015h0l.014.015h0l.014.015h0l.014.015h0l.014.015h0l.014.015h0l.013.015h0l.014.015h0l.013.015h0l.014.015h0l.014.015h0l.014.015h0l.014.015h0l.014.015h0l.014.015h0l.013.015h0l.014.015h0l.013.015h0l.014.016h0l.014.015h0l.014.015h0l.014.015h0l.014.015h0l.014.015h0l.013.015h0l.014.015h0l.013.015h0l.014.015h0l.014.015h0l.014.016h0l.014.015h0l.014.015h0l.014.015h0l.014.015h0l.014.015h0l.013.015h0l.014.015h0l.013.015h0l.014.015h0l.014.015h0l.014.015h0l.014.015h0l.014.015h0l.014.015h0l.013.015,6.74-5.87-4.479-5.24C417.35,325.551,418.97,320.831,418.97,314.111Z" fill="#cb3040"/>
      <path id="Path_18504" data-name="Path 18504" d="M416.788,311.93v-23c0-4.95-.99-8.82-2.94-11.5a9.783,9.783,0,0,0-.854-1.02l-.014-.014-.014-.014-.015-.015-.014-.014-.015-.015-.014-.014-.015-.015-.014-.014-.014-.014-.015-.015-.015-.014-.014-.015-.014-.014-.015-.015-.014-.014-.015-.014-.014-.015-.015-.015-.014-.014-.014-.014-.015-.014-.014-.015-.015-.015-.014-.014-.015-.015-.014-.014-.015-.014-.014-.015-.015-.014-.014-.015-.014-.014-.015-.014-.014-.015-.015-.015-.014-.014-.015-.015-.014-.014-.014-.014-.015-.015-.015-.014-.014-.015-.014-.014-.014-.014-.015-.015-.015-.014-.014-.015-.015-.015-.014-.014-.014-.014-.015-.014-.014-.015-.015-.015-.014-.014-.015-.015-.014-.014-.015-.014-.014-.015-.015-.014-.014-.015-.014-.014-.015-.014-.014-.015-.015-.015-.014-.014-.015-.015-.014-.014-.014-.014-.015-.015-.015-.014-.014-.015-.014-.014-.015-.014-.014-.015-.015-.014-.014-.015-.014-.014-.015-.015-.014-.014-.015-.014-.014-.015-.015-.015-.014-.014-.014-.014-.015-.015-.015-.014-.014-.015-.014-.014-.015-.015-.014-.014-.015-.014-.014-.015-.015-.015-.014-.014-.014-.014-.015-.015-.014-.014-.015-.015-.015-.014-.014-.015-.014-.014-.015-.014-.014-.015-.015-.014-.014-.015-.014-.014-.015-.015-.014-.014-.015-.014-.014-.015-.015-.015-.014-.014-.014-.014-.015-.015-.015-.014-.014-.015-.014-.014-.015-.015-.014-.014-.015-.014-.014-.015-.015-.015-.014-.014-.014-.014-.015-.015-.014-.014-.015-.015-.014-.014-.015-.015-.014-.014-.015-.014-.014-.015-.015-.014-.014-.015-.014-.014-.015-.015-.014-.014-.015-.015-.014-.014-.015-.015-.014-.014-.014-.014-.015-.015-.015-.014-.014-.015-.014-.014-.015-.015-.014-.014-.015-.015-.014-.014-.015-.015c-2.107-2.205-5.185-3.325-9.161-3.325-6.06,0-13.29,2.74-13.29,15.83v23c0,5.39.97,9.31,2.96,12a11.662,11.662,0,0,0,.777.937l.014.014.014.015.015.015.015.014.013.014.015.015.015.014.014.015.014.014.015.015.015.014.014.014.014.015.015.015.014.014.014.014.015.015.015.014.014.015.014.014.015.015.015.014.014.014.014.015.015.015.014.014.014.014.015.015.015.014.014.015.014.014.015.015.015.014.013.014.015.015.015.014.014.015.014.014.015.015.014.014.015.015.014.014.015.015.015.014.013.014.015.015.015.014.014.015.014.014.015.015.014.014.015.015.014.014.015.015.014.014.014.014.015.015.015.014.014.015.014.014.015.015.014.014.015.014.014.015.015.014.014.015.014.014.015.015.014.014.015.015.014.014.015.015.014.014.015.014.014.015.015.014.014.015.014.014.015.015.014.014.015.015.014.014.015.015.014.014.015.014.014.015.015.014.014.015.014.014.015.015.014.014.015.015.014.014.015.014.014.015.015.014.014.015.014.014.015.015.014.014.015.015.014.014.015.015.014.014.015.014.014.015.014.014.015.015.014.014.015.015.014.014.015.015.014.014.015.015.014.013.015.015.014.015.014.014.015.015.014.014.015.015.014.014.015.014.014.015.015.015.014.013.014.015.015.015.014.014.015.015.014.014.015.015.014.014.015.014.014.015.015.014.014.014.014.015.015.015.014.014.015.014.014.015.015.015.014.013.015.015.014.015.015.014.014.014.014.015.015.015a11.49,11.49,0,0,0,7.269,3.564l5.987,6.521h0l.014.014h0l.014.015h0l.014.015h0l.014.015h0l.014.015h0l.014.015h0l.014.015h0l.014.015h0l.013.015h0l.014.015h0l.013.015h0l.014.016h0l.014.015h0l.014.015h0l.014.015h0l.014.015h0l.014.015h0l.013.015h0l.014.015h0l.013.015h0l.014.015h0l.014.015h0l.014.015h0l.014.015h0l.014.015h0l.014.015h0l.014.015h0l.014.015h0l.013.015h0l.014.015h0l.013.015h0l.014.015h0l.014.015h0l.014.015h0l.014.015h0l.014.015h0l.014.015h0l.013.015h0l.014.015h0l.013.015h0l.014.016h0l.014.015h0l.014.015h0l.014.015h0l.014.015h0l.014.015h0l.013.015h0l.014.015h0l.013.015h0l.014.014h0l.014.015h0l.014.016h0l.014.015h0l.014.015h0l.014.015h0l.014.015h0l.014.015h0l.013.015h0l.014.015h0l.013.015h0l.014.015h0l.014.015h0l.014.015h0l.014.015h0l.014.015h0l.014.015h0l.013.015h0l.014.015h0l.013.015h0l.014.016h0l.014.015h0l.014.015h0l.014.015h0l.014.015h0l.014.015h0l.013.015h0l.014.015h0l.013.015h0l.014.014h0l.014.015h0l.014.016h0l.014.015h0l.014.015h0l.014.015h0l.014.015h0l.014.015h0l.013.015h0l.014.015h0l.013.015h0l.014.014h0l.014.015h0l.014.015h0l.014.015h0l.014.015h0l.014.015h0l.013.015h0l.014.015h0l.013.015h0l.014.015h0l.014.015h0l.014.015h0l.014.015h0l.014.015h0l.014.015h0l.013.015h0l.014.015h0l.013.015h0l.014.014h0l.013.015h0l.014.015h0l.014.015h0l.014.015h0l.014.015h0l.014.015h0l.014.015h0l.013.015h0l.014.015h0l.013.015h0l.014.016h0l.014.015h0l.014.015h0l.014.015h0l.014.015h0l.014.015h0l.013.015h0l.014.015h0l.013.015h0l.014.015h0l.013.015h0l.014.015h0l.014.015h0l.014.015h0l.014.015h0l.014.015h0l.014.015h0l.013.015h0l.014.014h0l.013.015h0l.014.015h0l.014.015h0l.014.015h0l.014.015h0l.014.015h0l.014.015h0l.013.015h0l.014.015h0l.013.015h0l.014.016h0l.014.015h0l.014.015h0l.014.015,6.74-5.87-4.48-5.24C415.168,323.37,416.788,318.65,416.788,311.93Z" fill="#e23e32"/>
      <path id="Path_18505" data-name="Path 18505" d="M414.6,309.741v-23c0-4.95-.99-8.82-2.94-11.5a9.79,9.79,0,0,0-.854-1.02l-.014-.014-.014-.014-.015-.015-.014-.014-.015-.015-.014-.014-.015-.015-.014-.014-.015-.015-.014-.014-.015-.015-.014-.014-.014-.014-.015-.015-.014-.014-.015-.015-.014-.014-.015-.015-.014-.014-.015-.014-.014-.015-.015-.015-.014-.014-.014-.014-.015-.015-.014-.014-.015-.015-.014-.014-.015-.015-.014-.014-.015-.014-.014-.015-.015-.015-.014-.014-.014-.014-.015-.015-.014-.014-.015-.015-.014-.014-.015-.015-.014-.014-.015-.014-.014-.015-.015-.014-.014-.015-.014-.014-.015-.015-.014-.014-.015-.014-.014-.015-.015-.015-.014-.014-.014-.014-.015-.015-.014-.014-.015-.015-.014-.014-.015-.015-.014-.014-.015-.015-.014-.014-.015-.015-.014-.014-.014-.014-.015-.015-.014-.014-.015-.015-.014-.014-.015-.015-.014-.014-.015-.014-.014-.015-.015-.014-.014-.015-.014-.014-.015-.015-.014-.014-.015-.014-.014-.015-.015-.015-.014-.014-.014-.014-.015-.015-.015-.015-.014-.014-.014-.014-.015-.015-.014-.014-.015-.015-.014-.014-.015-.015-.014-.014-.014-.014-.015-.015-.014-.014-.015-.015-.014-.014-.015-.015-.014-.014-.015-.014-.014-.015-.015-.015-.014-.014-.014-.014-.015-.014-.014-.015-.015-.014-.014-.015-.015-.015-.014-.014-.014-.014-.015-.015-.015-.015-.014-.014-.014-.014-.014-.014-.015-.015-.015-.015-.014-.014-.015-.015-.014-.014-.014-.014-.015-.015-.014-.014-.015-.015-.014-.014-.014-.014-.015-.015-.015-.014-.014-.015-.015-.015-.014-.014-.014-.014-.015-.014-.014-.015-.015-.015-.014-.014-.014-.014-.015-.015-.014-.014-.015-.015-.015-.014-.014-.015-.014-.014-.014-.014-.015-.015-.015-.015-.014-.014-.014-.014-.015-.015c-2.107-2.2-5.185-3.325-9.161-3.325-6.06,0-13.29,2.74-13.29,15.83v23c0,5.39.97,9.31,2.96,12a11.256,11.256,0,0,0,.777.937l.013.014.015.015.015.014.014.015.014.014.015.015.014.014.015.015.014.014.015.014.014.015.014.014.015.015.015.014.014.015.014.014.015.015.014.014.015.015.014.014.015.014.014.015.014.014.015.015.014.014.015.015.014.014.015.015.014.014.015.015.014.014.015.014.014.015.014.014.015.015.014.014.015.015.014.014.015.014.014.015.015.015.014.014.015.014.014.015.014.014.015.015.014.014.015.015.014.014.015.014.014.015.015.015.014.014.014.014.015.015.014.014.015.015.014.014.015.015.014.014.015.014.014.015.014.014.015.015.014.014.015.015.014.014.015.015.014.014.015.015.014.014.015.014.014.015.014.014.015.015.014.014.015.015.014.014.015.014.014.015.015.015.014.014.014.014.015.015.014.014.015.015.014.014.015.015.014.014.015.014.014.015.015.015.014.013.014.015.015.015.014.014.015.015.014.014.015.015.014.014.015.014.014.015.015.015.014.013.014.015.015.015.014.014.015.014.014.015.015.015.014.014.015.014.014.015.015.014.014.014.014.015.015.015.014.014.015.014.014.015.015.015.014.013.014.015.015.015.015.014.014.014.014.015.015.015.014.014.015.014.014.015.015.015.014.013.014.015.015.015.015.014.013.014.015.015.015.015.014.014.015.014.014.015.015.014.014.014.014.015.015.014.014.015.014.014.015.015.015.015a11.5,11.5,0,0,0,7.269,3.564l5.987,6.521h0l.014.015h0l.014.015h0l.014.015h0l.014.015h0l.013.015h0l.014.016h0l.013.015h0l.014.014h0l.014.015h0l.014.015h0l.014.015h0l.014.015h0l.014.015h0l.013.015h0l.014.015h0l.013.015h0l.014.016h0l.014.015h0l.014.015h0l.014.015h0l.014.015h0l.014.015h0l.014.015h0l.014.015h0l.013.015h0l.014.014h0l.013.015h0l.014.015h0l.014.015h0l.014.015h0l.014.015h0l.014.015h0l.014.015h0l.013.015h0l.014.016h0l.013.015h0l.014.014h0l.014.015h0l.014.015h0l.014.015h0l.014.015h0l.014.015h0l.013.015h0l.014.015h0l.013.015h0l.014.015h0l.014.015h0l.014.015h0l.014.015h0l.014.015h0l.014.015h0l.014.015h0l.014.015h0l.013.015h0l.014.015h0l.013.015h0l.014.015h0l.014.015h0l.014.015h0l.014.015h0l.014.015h0l.014.015h0l.013.015h0l.014.015h0l.013.015h0l.014.014h0l.014.015h0l.014.015h0l.014.015h0l.014.015h0l.014.015h0l.013.015h0l.014.015h0l.013.015h0l.014.015h0l.014.015h0l.014.015h0l.014.015h0l.014.015h0l.014.015h0l.014.015h0l.014.015h0l.013.015h0l.014.015h0l.013.015h0l.014.014h0l.014.015h0l.014.015h0l.014.015h0l.014.015h0l.014.015h0l.013.015h0l.014.015h0l.013.015h0l.014.016h0l.014.015h0l.014.015h0l.014.015h0l.014.015h0l.014.015h0l.013.015h0l.014.015h0l.013.015h0l.014.015h0l.014.015h0l.014.015h0l.014.015h0l.014.015h0l.014.015h0l.014.015h0l.014.015h0l.013.015h0l.014.015h0l.013.015h0l.014.015h0l.014.015h0l.014.015h0l.014.015h0l.014.015h0l.014.015h0l.013.015h0l.014.015h0l.013.015h0l.014.016h0l.014.015h0l.014.015h0l.014.015h0l.014.015h0l.014.015h0l.013.015h0l.014.015h0l.013.015h0l.014.015h0l.014.015h0l.014.015h0l.014.015h0l.014.015h0l.014.015h0l.014.015h0l.014.015h0l.013.015h0l.014.015h0l.013.015h0l.014.015h0l.014.015h0l.014.015h0l.014.015h0l.014.015h0l.014.015h0l.013.015h0l.014.015,6.74-5.87-4.48-5.24C412.979,321.181,414.6,316.461,414.6,309.741Z" fill="#d35717"/>
      <path id="Path_18506" data-name="Path 18506" d="M412.418,307.559v-23c0-4.95-.99-8.82-2.94-11.5a9.9,9.9,0,0,0-.854-1.019l-.014-.014-.015-.015L408.58,272l-.014-.015-.014-.014-.015-.014-.014-.015-.015-.014-.014-.015-.014-.014-.015-.015-.014-.014-.015-.014-.014-.015-.015-.015-.014-.014-.014-.014-.015-.015-.015-.014-.014-.015-.014-.014-.015-.015-.014-.014-.015-.014-.014-.015-.015-.015-.014-.014-.014-.014-.015-.015-.014-.014-.015-.015-.014-.014-.015-.015-.014-.014-.015-.014-.014-.015-.015-.014-.014-.015-.014-.014-.015-.015-.014-.014-.015-.015-.014-.014-.015-.015-.014-.014-.014-.014-.015-.015-.015-.015-.014-.014-.014-.014-.015-.015-.014-.014-.015-.015-.014-.014-.015-.015-.014-.014-.014-.014-.015-.015-.015-.014-.014-.015-.014-.014-.015-.015-.014-.014-.015-.015-.014-.014-.015-.015-.014-.014-.014-.014-.015-.015-.014-.014-.015-.015-.014-.014-.015-.015-.014-.014-.015-.015-.014-.014-.015-.015-.014-.014-.014-.014-.015-.015-.014-.014-.015-.015-.014-.014-.015-.015-.014-.014-.015-.014-.014-.015-.015-.014-.014-.015-.014-.014-.015-.015-.014-.014-.015-.015-.014-.014-.015-.015-.014-.014-.014-.014-.015-.015-.014-.014-.015-.015-.014-.014-.015-.015-.014-.014-.015-.015-.014-.014-.015-.015-.014-.014-.014-.014-.015-.015-.014-.014-.015-.015-.014-.014-.015-.015-.014-.014-.015-.014-.014-.015-.015-.015-.014-.014-.014-.014-.015-.015-.014-.014-.015-.015-.014-.014-.015-.015-.014-.014-.015-.014-.014-.015-.015-.015-.014-.014-.014-.014-.015-.015-.014-.014-.015-.015-.014-.014-.015-.015-.014-.014-.015-.014-.014-.015-.015-.014-.014-.015-.014-.014-.015-.015-.014-.014-.015-.014-.014-.015-.015-.015-.014-.014-.014-.014-.015-.015-.015-.015c-2.107-2.205-5.185-3.324-9.16-3.324-6.06,0-13.29,2.74-13.29,15.83v23c0,5.389.97,9.31,2.96,12a11.448,11.448,0,0,0,.776.937l.014.014.015.015.014.014.015.015.014.014.015.014.014.015.015.015.014.013.014.015.015.015.014.014.015.014.014.015.015.015.014.014.014.014.015.015.015.014.014.014.014.015.015.015.014.014.015.014.014.015.015.015.014.013.014.015.015.015.015.014.014.014.014.015.015.015.014.014.015.014.014.015.015.015.014.013.014.015.015.015.015.014.013.014.015.015.015.015.014.014.015.014.014.015.015.014.014.014.014.015.015.014.014.015.014.014.015.015.015.015.014.013.014.015.015.015.015.014.014.014.014.015.015.014.014.015.015.014.014.015.015.015.014.013.014.015.015.015.015.014.013.014.015.015.015.014.014.015.015.014.014.015.015.014.014.014.014.015.015.014.014.015.014.014.015.015.015.014.014.015.014.014.015.015.015.014.014.014.014.015.015.014.014.015.014.014.015.015.015.014.014.015.014.014.015.015.015.014.013.014.015.015.015.014.014.015.014.014.015.015.015.014.014.014.014.015.015.015.014.014.014.014.015.015.015.014.014.015.014.014.015.015.015.014.014.014.014.015.015.014.014.015.014.014.015.015.015.014.014.015.014.014.015.015.015.014.013.014.015.015.015.014.014.015.014.014.015.015.014.014.015.015.014.014.015.015.014.014.014.014.015.015.015.014.014.015.014.014.015.015.014.014.015.015.014.014.015.015.014.014a11.5,11.5,0,0,0,7.27,3.565l5.987,6.521h0l.014.015h0l.014.015h0l.014.015h0l.014.015h0l.014.015h0l.013.015h0l.014.015h0l.013.015h0l.014.015h0l.014.015h0l.014.015h0l.014.015h0l.014.015h0l.014.015h0l.014.015h0l.014.015h0l.013.015h0l.014.015h0l.013.015h0l.014.015h0l.014.015h0l.014.015h0l.014.015h0l.014.015h0l.014.015h0l.013.015h0l.014.015h0l.013.015h0l.014.016h0l.014.015h0l.014.015h0l.014.015h0l.014.015h0l.014.015h0l.013.015h0l.014.015h0l.013.015h0l.014.015h0l.014.015h0l.014.015h0l.014.015h0l.014.015h0l.014.015h0l.014.015h0l.014.015h0l.013.015h0l.014.015h0l.013.015h0l.014.015h0l.014.015h0l.014.015h0l.014.015h0l.014.015h0l.014.015h0l.013.015h0l.014.015h0l.013.015h0l.014.016h0l.014.015h0l.014.015h0l.014.015h0l.014.015h0l.014.015h0l.013.015h0l.014.015h0l.013.015h0l.014.014h0l.014.015h0l.014.015h0l.014.015h0l.014.015h0l.014.015h0l.014.015h0l.014.015h0l.013.015h0l.014.015h0l.013.015h0l.014.015h0l.014.015h0l.014.015h0l.014.015h0l.014.015h0l.014.015h0l.013.015h0l.014.015h0l.013.015h0l.014.016h0l.014.015h0l.014.015h0l.014.015h0l.014.015h0l.014.015h0l.014.015h0l.014.015h0l.013.015h0l.014.015h0l.013.015h0l.014.015h0l.014.015h0l.014.015h0l.014.015h0l.014.015h0l.014.015h0l.013.015h0l.014.015h0l.013.015h0l.014.015h0l.014.015h0l.014.015h0l.014.015h0l.014.015h0l.014.015h0l.013.015h0l.014.015h0l.013.015h0l.014.015h0l.014.015h0l.014.015h0l.014.015h0l.014.015h0l.014.015h0l.014.015h0l.014.015h0l.013.015h0l.014.015h0l.013.015h0l.014.016h0l.014.015h0l.014.015h0l.014.015h0l.014.015h0l.014.015h0l.013.015h0l.014.015h0l.013.015h0l.014.016h0l.014.015h0l.014.015h0l.014.015h0l.014.015h0l.014.015h0l.013.015h0l.014.015h0l.013.015h0l.014.015h0l.014.015h0l.014.016h0l.014.015h0l.014.015h0l.014.015h0l.014.015,6.74-5.87-4.48-5.24C410.8,319,412.418,314.279,412.418,307.559Z" fill="#e89b19"/>
      <path id="Path_18507" data-name="Path 18507" d="M410.233,305.375v-23c0-4.95-.99-8.82-2.94-11.5a9.79,9.79,0,0,0-.854-1.02l-.014-.014-.014-.014-.015-.015-.014-.014-.015-.015-.014-.014-.015-.015-.014-.014-.015-.014-.014-.015-.015-.015-.014-.014-.014-.014-.015-.015-.014-.014-.015-.015-.014-.014-.015-.015-.014-.014-.015-.014-.014-.015-.015-.015-.014-.014-.014-.014-.015-.015-.014-.014-.015-.015-.014-.014-.015-.015-.014-.014-.015-.014-.014-.015-.015-.014-.014-.015-.014-.014-.015-.015-.014-.014-.015-.014-.014-.015-.015-.015-.014-.014-.014-.014-.015-.015-.015-.014-.014-.015-.014-.014-.015-.015-.014-.014-.015-.014-.014-.015-.015-.015-.014-.014-.014-.014-.015-.015-.014-.014-.015-.015-.014-.014-.015-.015-.014-.014-.015-.014-.014-.015-.015-.014-.014-.015-.014-.014-.015-.015-.014-.014-.015-.015-.014-.014-.015-.015-.014-.014-.014-.014-.015-.015-.015-.014-.014-.015-.014-.014-.015-.015-.014-.014-.015-.014-.014-.015-.015-.015-.014-.014-.014-.014-.015-.014-.014-.015-.015-.015-.014-.014-.015-.015-.014-.014-.015-.014-.014-.015-.015-.014-.014-.015-.014-.014-.015-.014-.014-.015-.015-.015-.014-.014-.015-.015-.014-.014-.014-.014-.015-.015-.015-.015-.014-.014-.014-.014-.014-.014-.015-.015-.015-.015-.014-.014-.015-.015-.014-.014-.014-.014-.015-.014-.014-.015-.015-.015-.014-.014-.014-.014-.015-.015-.015-.014-.014-.015-.015-.014-.014-.015-.014-.014-.015-.015-.014-.014-.015-.015-.014-.014-.014-.014-.015-.015-.014-.014-.015-.015-.015-.015-.014-.014-.014-.014-.015-.014-.014-.015-.015-.015-.014-.014-.014-.014-.015-.015-.014-.014-.015-.014-.014-.015-.015-.015-.014-.014-.014-.014-.015-.015-.015-.014-.014-.015-.014-.014-.015-.015c-2.107-2.2-5.185-3.325-9.161-3.325-6.06,0-13.29,2.74-13.29,15.83v23c0,5.39.97,9.31,2.96,12a11.458,11.458,0,0,0,.777.937l.013.014.015.015.015.014.014.015.014.014.015.015.014.014.015.015.014.014.015.014.015.015.013.014.015.015.015.014.014.015.014.014.015.015.014.014.015.015.014.014.015.015.014.014.014.014.015.015.015.014.014.015.014.014.015.015.014.014.015.015.014.014.015.014.014.015.014.014.015.015.014.014.015.015.014.014.015.015.014.014.015.015.014.014.015.014.014.015.014.014.015.015.014.014.015.015.014.014.015.015.014.014.015.015.014.014.015.014.014.015.014.014.015.015.014.014.015.015.014.014.015.014.014.015.015.014.014.015.014.014.015.015.014.014.015.015.014.014.015.015.014.014.015.014.014.015.014.014.015.015.014.014.015.015.014.014.015.015.014.014.015.015.014.014.015.014.014.015.014.014.015.015.014.014.015.015.014.014.015.014.014.015.015.015.014.013.014.015.015.015.014.014.015.015.014.014.015.015.014.014.015.014.014.015.015.015.014.013.014.015.015.015.014.014.015.015.014.014.015.015.014.014.015.014.014.015.015.015.014.013.014.015.015.015.014.014.015.014.014.015.015.015.014.013.014.015.015.015.015.014.014.014.014.015.015.015.014.014.015.014.014.015.015.015.014.013.014.015.015.015.015.014.014.014.014.015.015.015.014.014.015.014.014.015.015.015.014.013.014.015.015.015.015.014.013.014.015.015.015.015a11.49,11.49,0,0,0,7.269,3.564l5.987,6.521h0l.014.015h0l.014.015h0l.014.015h0l.014.015h0l.013.015h0l.014.015h0l.013.015h0l.014.014h0l.014.015h0l.014.015h0l.014.015h0l.014.015h0l.014.015h0l.013.015h0l.014.015h0l.013.015h0l.014.016h0l.014.015h0l.014.016h0l.014.015h0l.014.015h0l.014.015h0l.014.015h0l.014.015h0l.013.015h0l.014.015h0l.013.015h0l.014.015h0l.014.015h0l.014.015h0l.014.015h0l.014.015h0l.014.015h0l.013.015h0l.014.015h0l.013.015h0l.014.014h0l.014.015h0l.014.015h0l.014.015h0l.014.015h0l.014.015h0l.013.015h0l.014.015h0l.013.015h0l.014.015h0l.013.015h0l.014.016h0l.014.015h0l.014.015h0l.014.015h0l.014.015h0l.014.015h0l.013.015h0l.014.015h0l.013.015h0l.014.015h0l.014.015h0l.014.015h0l.014.015h0l.014.015h0l.014.015h0l.013.015h0l.014.015h0l.013.015h0l.014.015h0l.013.015h0l.014.015h0l.014.015h0l.014.015h0l.014.015h0l.014.015h0l.014.015h0l.013.015h0l.014.015h0l.013.015h0l.014.016h0l.014.015h0l.014.015h0l.014.015h0l.014.015h0l.014.015h0l.013.015h0l.014.015h0l.013.015h0l.014.015h0l.014.015h0l.014.015h0l.014.015h0l.014.015h0l.014.015h0l.014.015h0l.014.015h0l.013.015h0l.014.016h0l.013.015h0l.014.014h0l.014.015h0l.014.015h0l.014.015h0l.014.015h0l.014.015h0l.013.015h0l.014.015h0l.013.015h0l.014.016h0l.014.015h0l.014.015h0l.014.015h0l.014.015h0l.014.015h0l.013.015h0l.014.015h0l.013.015h0l.014.015h0l.014.015h0l.014.015h0l.014.015h0l.014.015h0l.014.015h0l.014.015h0l.014.015h0l.013.015h0l.014.016h0l.013.015h0l.014.015h0l.014.015h0l.014.015h0l.014.015h0l.014.015h0l.014.015h0l.013.015h0l.014.015h0l.013.015h0l.014.015h0l.014.015h0l.014.015h0l.014.015h0l.014.015h0l.014.015h0l.013.015h0l.014.015h0l.013.015h0l.014.014h0l.014.015h0l.014.015h0l.014.015h0l.014.015h0l.014.015h0l.014.015h0l.014.015,6.74-5.87-4.48-5.24C408.613,316.815,410.233,312.1,410.233,305.375Z" fill="#f2c416"/>
    </g>
    <g id="Group_3864" data-name="Group 3864">
      <g id="Group_3862" data-name="Group 3862">
        <path id="Path_18508" data-name="Path 18508" d="M400.983,328.381l-7.966-8.664a11.37,11.37,0,0,1-8.231-4.52c-1.994-2.692-2.964-6.619-2.964-12.006v-23c0-13.083,7.224-15.829,13.286-15.829,4.544,0,7.91,1.46,10,4.338,1.951,2.68,2.94,6.546,2.94,11.491v23c0,6.725-1.616,11.447-4.812,14.082l4.477,5.242Zm-5.875-60.022c-3.986,0-9.286,1.227-9.286,11.829v23c0,4.436.732,7.674,2.179,9.625a7.674,7.674,0,0,0,6.09,2.981l.8.051,6.4,6.959.81-.706-5.116-5.991,2.4-1.1c3.1-1.427,4.666-5.4,4.666-11.814v-23c0-4.081-.731-7.155-2.175-9.137C400.56,269.239,398.345,268.359,395.108,268.359Zm-.143,44.833a4.621,4.621,0,0,1-4.623-3.024,20.489,20.489,0,0,1-.805-6.891v-23.46a14.386,14.386,0,0,1,.982-6.05,4.78,4.78,0,0,1,4.547-2.779,4.538,4.538,0,0,1,4.479,2.885,16.427,16.427,0,0,1,.821,5.973v23.431a21.238,21.238,0,0,1-.781,6.821A4.647,4.647,0,0,1,394.965,313.192Zm.1-38.2c-.648,0-.793.2-.939.505a10.651,10.651,0,0,0-.59,4.324v23.46c0,3.531.337,4.932.538,5.452h0c.1.258.177.462.89.462.691,0,.765-.2.867-.477a17.429,17.429,0,0,0,.534-5.438V279.846a12.665,12.665,0,0,0-.523-4.459C395.749,275.156,395.68,274.988,395.066,274.988Z" fill="#fff"/>
      </g>
      <path id="Path_18509" data-name="Path 18509" d="M406.057,303.187v-23q0-6.795-2.56-10.31a2.026,2.026,0,0,0-.18-.23c-.07-.1-.16-.21-.23-.3-.01-.01-.02-.01-.02-.02l-.02-.02-.02-.02a.01.01,0,0,1-.01-.01l-.03-.03v-.01h-.01v-.01a.01.01,0,0,1-.01-.01l-.04-.04h-.01l-.01-.01v-.01c-.01,0-.01-.01-.02-.02a.217.217,0,0,1-.05-.04v-.01a1.289,1.289,0,0,0-.17-.16.6.6,0,0,0-.08-.08,1.828,1.828,0,0,0-.16-.13,2.093,2.093,0,0,0-.17-.14c-.15-.14-.32-.26-.49-.39s-.34-.24-.53-.35c-.03-.02-.05-.03-.08-.05a5.075,5.075,0,0,0-.61-.32c-.2-.09-.39-.18-.59-.26a6.437,6.437,0,0,0-1.07-.37c-.14-.04-.27-.08-.41-.11-.26-.07-.52-.12-.79-.17s-.54-.08-.82-.11-.55-.05-.84-.07H396c-.29-.01-.59-.02-.89-.02q-11.28,0-11.28,13.83v23q0,7.35,2.57,10.82a9.5,9.5,0,0,0,.76.9.6.6,0,0,0,.08.08.646.646,0,0,1,.08.09l.12.12.01.01c.17.16.35.31.53.45a7.73,7.73,0,0,0,1.26.85,4.091,4.091,0,0,0,.51.26c.1.05.2.1.3.14.02.01.05.02.07.03a4.868,4.868,0,0,0,.53.21,11.242,11.242,0,0,0,2.2.53c.12.02.24.04.37.05.24.03.49.05.75.07l.07.08h.01l.07.08.08.08.96,1.06h.01l5.97,6.5.06-.05,3.71-3.24-4.6-5.4-.08-.09Q406.047,314.132,406.057,303.187Zm-13.15,7.32a.524.524,0,0,1-.1-.11c0-.01-.01-.01-.01-.02a.3.3,0,0,1-.08-.08,2.683,2.683,0,0,1-.34-.47c-.06-.12-.12-.25-.17-.38a19.3,19.3,0,0,1-.67-6.17v-23.46a12.658,12.658,0,0,1,.79-5.19,2.785,2.785,0,0,1,2.74-1.64,3.6,3.6,0,0,1,.47.03,3.067,3.067,0,0,1,.32.05.188.188,0,0,1,.08.02.572.572,0,0,1,.14.04,2.246,2.246,0,0,1,.24.08,2.053,2.053,0,0,1,.54.31.735.735,0,0,1,.19.16.524.524,0,0,1,.11.1.5.5,0,0,1,.07.08c.02.01.04.03.04.04l.03.03.02.02.01.01a3.121,3.121,0,0,1,.32.57.466.466,0,0,1,.05.1,14.821,14.821,0,0,1,.67,5.22v23.43a19.72,19.72,0,0,1-.66,6.13,2.638,2.638,0,0,1-2.74,1.79,3.6,3.6,0,0,1-.58-.04,2.323,2.323,0,0,1-.28-.05,3.51,3.51,0,0,1-.49-.15,2.227,2.227,0,0,1-.67-.42C392.927,310.537,392.917,310.527,392.907,310.507Z" fill="#9eccc5"/>
      <g id="Group_3863" data-name="Group 3863">
        <path id="Path_18510" data-name="Path 18510" d="M399.017,275.947a2.588,2.588,0,0,0-.5-.8,1.137,1.137,0,0,0-.19-.19c-.01-.02-.03-.03-.04-.04a.01.01,0,0,0-.01-.01l-.01-.01c-.01-.01-.03-.02-.04-.03v-.01a.021.021,0,0,0-.02-.02c0-.01-.01-.01-.02-.02a.121.121,0,0,0-.05-.05c-.02-.02-.03-.03-.04-.03l-.01-.01a.138.138,0,0,0-.03-.04l-.02-.02a.117.117,0,0,0-.06-.06l-.02-.02-.03-.03c-.01-.01-.02-.02-.03-.02a.138.138,0,0,0-.03-.04.01.01,0,0,0-.01-.01c-.01-.02-.03-.03-.04-.05h-.01l-.03-.03a.234.234,0,0,0-.07-.07l-.01-.01a.01.01,0,0,0-.01-.01c0-.02-.02-.02-.03-.03s-.01,0-.01-.01l-.02-.02-.03-.03c-.01-.01-.02-.02-.03-.02a.138.138,0,0,0-.03-.04.01.01,0,0,0-.01-.01c-.01-.02-.03-.03-.04-.05h-.01l-.03-.03a.234.234,0,0,0-.07-.07l-.02-.02q0-.015-.03-.03a3.121,3.121,0,0,1,.32.57.466.466,0,0,1,.05.1,14.821,14.821,0,0,1,.67,5.22v23.43a19.72,19.72,0,0,1-.66,6.13,2.638,2.638,0,0,1-2.74,1.79,3.6,3.6,0,0,1-.58-.04,2.323,2.323,0,0,1-.28-.05,3.51,3.51,0,0,1-.49-.15,2.227,2.227,0,0,1-.67-.42.383.383,0,0,0,.09.09.066.066,0,0,0,.04.05l.02.02c.01,0,.01.01.02.01l.01.01.02.02.03.03.01.01a.021.021,0,0,0,.02.02c.01.01.02.03.03.04a.139.139,0,0,0,.04.03.463.463,0,0,0,.07.07c.01,0,.01,0,.02.02a.066.066,0,0,0,.04.05c.01.01.02.02.03.02a.01.01,0,0,0,.01.01.01.01,0,0,0,.01.01.17.17,0,0,0,.06.06.265.265,0,0,0,.05.06c.01.01.01.02.02.01,0,.01.01.01.02.02a.383.383,0,0,0,.09.09.066.066,0,0,0,.04.05l.02.02c.01,0,.01.01.02.01l.01.01.02.02.03.03v.01a.01.01,0,0,1,.01.01c0,.01.01.01.02.01,0,.02.01.03.03.04s.02.03.04.03a.01.01,0,0,0,.01.01c0,.01.01.01.02.02a.17.17,0,0,0,.06.06c0,.01,0,.01.01.02a.1.1,0,0,0,.05.04l.03.03a.17.17,0,0,0,.06.06,2.9,2.9,0,0,0,2.11.74,2.63,2.63,0,0,0,2.74-1.78,19.763,19.763,0,0,0,.66-6.13v-23.43A15.062,15.062,0,0,0,399.017,275.947Z" fill="#63ada2"/>
        <path id="Path_18511" data-name="Path 18511" d="M385.137,304.507v-23q0-13.83,11.29-13.83a10.9,10.9,0,0,1,6.89,1.97c-.07-.1-.16-.21-.23-.3v-.01a.035.035,0,0,1-.02-.01c-.01-.01-.01-.01-.01-.02h-.01l-.02-.02a.01.01,0,0,1-.01-.01l-.01-.02-.01-.01h-.01v-.01h-.01v-.01a.01.01,0,0,1-.01-.01l-.04-.04h-.01l-.01-.01v-.01c-.01,0-.01-.01-.02-.02a.217.217,0,0,1-.05-.04v-.01a1.289,1.289,0,0,0-.17-.16.6.6,0,0,0-.08-.08,1.828,1.828,0,0,0-.16-.13,2.093,2.093,0,0,0-.17-.14c-.15-.14-.32-.26-.49-.39s-.34-.24-.53-.35c-.03-.02-.05-.03-.08-.05a5.075,5.075,0,0,0-.61-.32c-.2-.09-.39-.18-.59-.26a6.437,6.437,0,0,0-1.07-.37c-.14-.04-.27-.08-.41-.11-.26-.07-.52-.12-.79-.17s-.54-.08-.82-.11-.55-.05-.84-.07H396c-.29-.01-.59-.02-.89-.02q-11.28,0-11.28,13.83v23q0,7.35,2.57,10.82a9.5,9.5,0,0,0,.76.9.6.6,0,0,0,.08.08.646.646,0,0,1,.08.09l.12.12.01.01c.17.16.35.31.53.45-.09-.11-.18-.22-.26-.33Q385.137,311.847,385.137,304.507Zm10.14,14.6-.07-.08h-.02l-.07-.08h-.01l-.07-.08h-.01l-.07-.08-.08-.09h-.02l-.07-.08h-.01l-.07-.08h-.01l-.07-.08-.08-.09h-.02l-.07-.08h-.01l-.07-.08h-.01l-.07-.08-.08-.09h-.02l.96,1.06h.01l5.97,6.5.06-.05-5.91-6.44Zm-1.16-1.15.08.08-.07-.08Zm-4.88-1.45a8.427,8.427,0,0,1-1.26-.85A7.73,7.73,0,0,0,389.237,316.507Z" fill="#63ada2"/>
      </g>
    </g>
  </g>
</svg>
