<svg xmlns="http://www.w3.org/2000/svg" width="303.806" height="291.644" viewBox="0 0 303.806 291.644">
  <g id="Group_1968" data-name="Group 1968" transform="translate(-117.023 -60.314)">
    <g id="Group_716" data-name="Group 716" transform="translate(117.023 60.314)">
      <path id="Path_2555" data-name="Path 2555" d="M282.409,72.058H256.173v2.62a131.772,131.772,0,0,0,0,258.258v2.62h26.235a131.749,131.749,0,0,0,0-263.5Z" transform="translate(-110.352 -57.985)" fill="#f67603"/>
      <path id="Path_2556" data-name="Path 2556" d="M283.845,183.356h0a8.193,8.193,0,0,0,8.193,8.193h95.423c.167-2.712.279-5.439.279-8.193s-.113-5.48-.279-8.192H292.038A8.193,8.193,0,0,0,283.845,183.356Z" transform="translate(-83.935 -37.534)" fill="#d0501c"/>
      <path id="Path_2557" data-name="Path 2557" d="M322.774,85.065H268.857a8.193,8.193,0,0,0,0,16.385h77.715A131.93,131.93,0,0,0,322.774,85.065Z" transform="translate(-88.533 -55.405)" fill="#d0501c"/>
      <path id="Path_2558" data-name="Path 2558" d="M371.687,129.375H292.038a8.193,8.193,0,1,0,0,16.385H379.2A130.938,130.938,0,0,0,371.687,129.375Z" transform="translate(-83.935 -46.616)" fill="#d0501c"/>
      <path id="Path_2559" data-name="Path 2559" d="M379.2,220.952H292.038a8.193,8.193,0,1,0,0,16.385h79.649A130.938,130.938,0,0,0,379.2,220.952Z" transform="translate(-83.935 -28.452)" fill="#b23a10"/>
      <path id="Path_2560" data-name="Path 2560" d="M274.652,266.741a8.193,8.193,0,0,0,0,16.385h43.514a131.906,131.906,0,0,0,25.212-16.385Z" transform="translate(-87.383 -19.37)" fill="#b23a10"/>
      <ellipse id="Ellipse_284" data-name="Ellipse 284" cx="126.374" cy="131.613" rx="126.374" ry="131.613" transform="translate(24.823 14.209)" fill="#ffd62c"/>
      <path id="Path_2561" data-name="Path 2561" d="M244.646,323.905l123.04-171.722a130.858,130.858,0,0,0-9.93-23.045L220.84,320.226A131.6,131.6,0,0,0,244.646,323.905Z" transform="translate(-96.432 -46.663)" fill="#feebbd"/>
      <path id="Path_2562" data-name="Path 2562" d="M138.066,213.5a131.215,131.215,0,0,0,5.484,29.252L265.7,72.279c-.552-.03-1.1-.085-1.651-.108a131.626,131.626,0,0,0-27.653,4.1Z" transform="translate(-112.85 -57.962)" fill="#feebbd"/>
      <path id="Path_2563" data-name="Path 2563" d="M147.858,258.7a131.393,131.393,0,0,0,11.806,20.427L302.41,79.9A130.777,130.777,0,0,0,280.3,73.856Z" transform="translate(-110.907 -57.628)" fill="#feebbd"/>
      <circle id="Ellipse_285" data-name="Ellipse 285" cx="103.112" cy="103.112" r="103.112" transform="translate(0 145.822) rotate(-45)" fill="#f67603"/>
      <path id="Path_2564" data-name="Path 2564" d="M152.664,190.312a102.6,102.6,0,0,0,13.062,50.22H327.49V140.092H165.726A102.6,102.6,0,0,0,152.664,190.312Z" transform="translate(-109.954 -44.49)" fill="#d0501c"/>
      <ellipse id="Ellipse_286" data-name="Ellipse 286" cx="95.9" cy="102.833" rx="95.9" ry="102.833" transform="translate(57.133 42.989)" fill="#ffa515"/>
    </g>
    <g id="Group_721" data-name="Group 721" transform="translate(202.137 144.262)">
      <g id="Group_719" data-name="Group 719" transform="translate(7.681 0)">
        <g id="Group_717" data-name="Group 717">
          <path id="Path_2565" data-name="Path 2565" d="M247.258,236.66l.346-7.964V152.007l-.346-7.964q-.519-5.711-2.337-7.7a8.168,8.168,0,0,0-5.194-2.423q-3.376-.43-5.713-.52t-4.068-.26v-2.769H308.2v2.769l-8.137.694q-5.193.692-7.1,2.769t-2.423,7.79l-.348,7.963v60.071q0,19.045-18.263,32.632A66.15,66.15,0,0,1,231.5,258.645q-16.35,0-26.7-7.617t-10.349-21.293a20.024,20.024,0,0,1,6.429-14.888,21.225,21.225,0,0,1,15.293-6.231q10.427,0,16.512,5.885t6.083,15.407q0,8.31-3.982,13.33-4.5,4.674-8.828,9.348,0,1.733,2.423,2.337a25.372,25.372,0,0,0,6.059.606q7.442,0,10.127-5.8A30.778,30.778,0,0,0,247.258,236.66Z" transform="translate(-194.459 -130.367)" fill="#f67603"/>
        </g>
        <g id="Group_718" data-name="Group 718">
          <path id="Path_2566" data-name="Path 2566" d="M247.482,214.654l-.23,5.288a30.778,30.778,0,0,1-2.683,13.069q-2.686,5.8-10.127,5.8a25.374,25.374,0,0,1-6.059-.606q-2.427-.6-2.423-2.337,4.325-4.673,8.828-9.348,3.62-4.566,3.937-11.866H194.492q.59,12.5,10.309,19.656,10.346,7.62,26.7,7.617a66.15,66.15,0,0,0,40.423-13.589,49.4,49.4,0,0,0,12.935-13.684Z" transform="translate(-194.452 -113.649)" fill="none"/>
          <rect id="Rectangle_1135" data-name="Rectangle 1135" width="42.586" height="25.701" transform="translate(53.146 48.38)" fill="none"/>
          <path id="Path_2567" data-name="Path 2567" d="M284.664,144.39q.52-5.714,2.423-7.79t7.1-2.769l8.137-.694v-2.769H224.073v2.769q1.729.176,4.068.26t5.713.52a8.168,8.168,0,0,1,5.194,2.423q1.817,1.993,2.337,7.7l.339,7.78H284.34Z" transform="translate(-188.585 -130.367)" fill="none"/>
          <path id="Path_2568" data-name="Path 2568" d="M281.4,148.8l.023-.53H238.8l.008.184V175.2H281.4Z" transform="translate(-185.664 -126.816)" fill="#b23a10"/>
          <path id="Path_2569" data-name="Path 2569" d="M281.413,200.162v-7.976H238.827v24.249l-.116,2.676h37.374A35.637,35.637,0,0,0,281.413,200.162Z" transform="translate(-185.682 -118.105)" fill="#b23a10"/>
          <path id="Path_2570" data-name="Path 2570" d="M238.776,216.956q0-9.518-6.083-15.407t-16.512-5.885a21.226,21.226,0,0,0-15.293,6.231,20.024,20.024,0,0,0-6.429,14.888q0,.831.04,1.637h44.232C238.752,217.938,238.776,217.457,238.776,216.956Z" transform="translate(-194.459 -117.415)" fill="#b23a10"/>
        </g>
      </g>
      <g id="Group_720" data-name="Group 720" transform="translate(0 0)">
        <path id="Path_2571" data-name="Path 2571" d="M270.073,136.069l2.266-1.7a6.543,6.543,0,0,0-2.057,1.437C270.208,135.885,270.142,135.982,270.073,136.069Z" transform="translate(-171.78 -129.573)" fill="#feebbd"/>
        <path id="Path_2572" data-name="Path 2572" d="M226.282,201.549q-6.086-5.883-16.511-5.885a21.223,21.223,0,0,0-15.293,6.231,20.024,20.024,0,0,0-6.429,14.888q0,10.566,6.185,17.509l36.091-27.085A19.216,19.216,0,0,0,226.282,201.549Z" transform="translate(-188.049 -117.415)" fill="#ffd62c"/>
        <path id="Path_2573" data-name="Path 2573" d="M217.663,130.367v2.769q1.729.176,4.068.26t5.712.52a8.168,8.168,0,0,1,5.194,2.423q1.817,1.993,2.337,7.7l.1,2.212,21.168-15.888Z" transform="translate(-182.175 -130.367)" fill="#ffd62c"/>
        <path id="Path_2574" data-name="Path 2574" d="M277,133.83l8.137-.694v-2.769h-6.787l-6.39,4.8A17.266,17.266,0,0,1,277,133.83Z" transform="translate(-171.405 -130.367)" fill="#ffd62c"/>
        <path id="Path_2575" data-name="Path 2575" d="M274.984,151.278l.348-7.963c.326-3.591,1.067-6.091,2.215-7.527L232.4,169.671v41.253l42.586-31.961Z" transform="translate(-179.253 -129.292)" fill="#ffd62c"/>
        <path id="Path_2576" data-name="Path 2576" d="M233.963,237.423q-2.685,5.8-10.127,5.8a25.367,25.367,0,0,1-6.059-.606c-1.466-.364-2.258-1.041-2.394-2.024l-6.151,4.616a57.2,57.2,0,0,0,11.661,1.13,66.15,66.15,0,0,0,40.423-13.589q18.261-13.589,18.263-32.632v-7.7l-42.938,32.226A30.645,30.645,0,0,1,233.963,237.423Z" transform="translate(-183.847 -118.06)" fill="#ffd62c"/>
        <path id="Path_2577" data-name="Path 2577" d="M277.8,136.6a6.544,6.544,0,0,1,2.058-1.437l6.39-4.8H253.357L232.19,146.255l.249,5.752v18.74l45.148-33.883C277.656,136.776,277.722,136.679,277.8,136.6Z" transform="translate(-179.294 -130.367)" fill="#feebbd"/>
        <path id="Path_2578" data-name="Path 2578" d="M232.456,203.778v16.7l-.346,7.964c0,.1-.006.189-.006.285L275.042,196.5V171.817Z" transform="translate(-179.311 -122.146)" fill="#feebbd"/>
        <path id="Path_2579" data-name="Path 2579" d="M218.532,237.724q4.325-4.674,8.828-9.348,3.98-5.019,3.982-13.33A22.564,22.564,0,0,0,229.3,205.3L193.21,232.382a26.819,26.819,0,0,0,4.164,3.784,38.074,38.074,0,0,0,15.036,6.487l6.151-4.616A2.194,2.194,0,0,1,218.532,237.724Z" transform="translate(-187.025 -115.505)" fill="#feebbd"/>
      </g>
    </g>
  </g>
</svg>
