<svg id="Group_2585" data-name="Group 2585" xmlns="http://www.w3.org/2000/svg" xmlns:xlink="http://www.w3.org/1999/xlink" width="83.837" height="80.025" viewBox="0 0 83.837 80.025">
  <defs>
    <radialGradient id="radial-gradient" cx="0.17" cy="1.012" r="1.096" gradientTransform="translate(0.023) scale(0.954 1)" gradientUnits="objectBoundingBox">
      <stop offset="0.355" stop-color="#ffc200"/>
      <stop offset="0.508" stop-color="#ffbc06"/>
      <stop offset="0.725" stop-color="#ffae18"/>
      <stop offset="0.978" stop-color="#ff9736"/>
      <stop offset="1" stop-color="#ff953a"/>
    </radialGradient>
    <radialGradient id="radial-gradient-2" cx="0.09" cy="1.284" r="1.584" gradientTransform="translate(0.023) scale(0.955 1)" xlink:href="#radial-gradient"/>
  </defs>
  <path id="Path_14391" data-name="Path 14391" d="M155.959,218.612c.368,2.529-1.2,3.655-3.481,2.508l-18.933-9.539a10.511,10.511,0,0,0-8.3-.035l-19.016,9.373c-2.293,1.125-3.842-.014-3.46-2.529L106,197.428a10.535,10.535,0,0,0-2.536-7.9L88.669,174.333c-1.779-1.827-1.174-3.655,1.341-4.071l20.927-3.4A10.547,10.547,0,0,0,117.669,162l9.88-18.759c1.188-2.265,3.113-2.251,4.287.014l9.706,18.849a10.537,10.537,0,0,0,6.7,4.905l20.9,3.592c2.515.431,3.1,2.279,1.306,4.085L155.521,189.75a10.539,10.539,0,0,0-2.605,7.879Z" transform="translate(-87.647 -141.546)" fill="url(#radial-gradient)"/>
  <path id="Path_14392" data-name="Path 14392" d="M129.689,142.6c.4,0,.855.417,1.223,1.139l9.706,18.85a11.521,11.521,0,0,0,7.448,5.454l20.892,3.592c.792.139,1.341.438,1.452.813s-.139.938-.709,1.508l-14.924,15.063a11.512,11.512,0,0,0-2.883,8.768l3.036,20.976a2.038,2.038,0,0,1-.222,1.549.7.7,0,0,1-.584.222,2.714,2.714,0,0,1-1.174-.334l-18.933-9.539a10.66,10.66,0,0,0-4.669-.987,10.529,10.529,0,0,0-4.565.952l-19.016,9.366a2.893,2.893,0,0,1-1.167.333.7.7,0,0,1-.591-.229,2.043,2.043,0,0,1-.215-1.549l3.224-20.948a11.486,11.486,0,0,0-2.814-8.8L89.412,173.613c-.556-.584-.827-1.146-.695-1.515s.667-.681,1.459-.806l20.927-3.418a11.5,11.5,0,0,0,7.49-5.385l9.873-18.766c.375-.709.834-1.126,1.223-1.126m0-1.049c-.771,0-1.549.57-2.14,1.7L117.669,162a10.547,10.547,0,0,1-6.732,4.857l-20.927,3.4c-2.515.417-3.12,2.244-1.341,4.071l14.792,15.195a10.535,10.535,0,0,1,2.536,7.9l-3.231,20.962c-.285,1.862.493,2.967,1.834,2.967a3.712,3.712,0,0,0,1.626-.438l19.016-9.373a10.552,10.552,0,0,1,8.3.035l18.933,9.539a3.757,3.757,0,0,0,1.647.452c1.327,0,2.1-1.1,1.834-2.96l-3.043-20.983a10.539,10.539,0,0,1,2.605-7.879l14.924-15.063c1.792-1.806,1.209-3.654-1.306-4.085l-20.9-3.592a10.537,10.537,0,0,1-6.7-4.905l-9.706-18.849c-.591-1.139-1.369-1.709-2.147-1.709Z" transform="translate(-87.647 -141.549)" opacity="0.5" fill="url(#radial-gradient-2)" style="mix-blend-mode: multiply;isolation: isolate"/>
</svg>
