<svg id="Group_2588" data-name="Group 2588" xmlns="http://www.w3.org/2000/svg" xmlns:xlink="http://www.w3.org/1999/xlink" width="83.838" height="80.026" viewBox="0 0 83.838 80.026">
  <defs>
    <radialGradient id="radial-gradient" cx="0.17" cy="1.012" r="1.096" gradientTransform="translate(0.023) scale(0.954 1)" gradientUnits="objectBoundingBox">
      <stop offset="0.355" stop-color="#ffc200"/>
      <stop offset="0.508" stop-color="#ffbc06"/>
      <stop offset="0.725" stop-color="#ffae18"/>
      <stop offset="0.978" stop-color="#ff9736"/>
      <stop offset="1" stop-color="#ff953a"/>
    </radialGradient>
    <radialGradient id="radial-gradient-2" cx="0.09" cy="1.284" r="1.584" gradientTransform="translate(0.023) scale(0.955 1)" xlink:href="#radial-gradient"/>
    <radialGradient id="radial-gradient-3" cx="-0.669" cy="1.012" r="1.099" gradientTransform="translate(-0.456) scale(1.913 1)" gradientUnits="objectBoundingBox">
      <stop offset="0.355" stop-color="#dbdbdb"/>
      <stop offset="0.549" stop-color="#d4d4d4"/>
      <stop offset="0.823" stop-color="#c2c2c2"/>
      <stop offset="0.995" stop-color="#b3b3b3"/>
    </radialGradient>
    <radialGradient id="radial-gradient-4" cx="-0.829" cy="1.284" r="1.585" gradientTransform="translate(-0.459) scale(1.918 1)" xlink:href="#radial-gradient-3"/>
  </defs>
  <g id="Group_2586" data-name="Group 2586" transform="translate(0 0)">
    <path id="Path_14393" data-name="Path 14393" d="M171.724,218.612c.368,2.529-1.2,3.655-3.474,2.508l-18.94-9.539a10.511,10.511,0,0,0-8.3-.035l-19.016,9.373c-2.286,1.125-3.842-.014-3.453-2.529l3.224-20.962a10.5,10.5,0,0,0-2.529-7.9l-14.8-15.195c-1.779-1.827-1.174-3.655,1.341-4.071l20.927-3.4A10.543,10.543,0,0,0,133.441,162l9.873-18.759c1.188-2.265,3.12-2.251,4.287.014l9.713,18.849a10.5,10.5,0,0,0,6.7,4.905L184.9,170.6c2.515.431,3.1,2.279,1.306,4.085L171.286,189.75a10.534,10.534,0,0,0-2.6,7.879Z" transform="translate(-103.412 -141.546)" fill="url(#radial-gradient)"/>
    <path id="Path_14394" data-name="Path 14394" d="M145.461,142.6c.389,0,.848.417,1.216,1.139l9.706,18.85a11.538,11.538,0,0,0,7.448,5.454l20.892,3.592c.8.139,1.341.438,1.459.813s-.146.938-.716,1.508l-14.917,15.063a11.49,11.49,0,0,0-2.89,8.768l3.036,20.976a2.038,2.038,0,0,1-.222,1.549.7.7,0,0,1-.584.222,2.714,2.714,0,0,1-1.174-.334l-18.933-9.539a10.638,10.638,0,0,0-4.669-.987,10.475,10.475,0,0,0-4.558.952l-19.016,9.366a2.892,2.892,0,0,1-1.174.333.7.7,0,0,1-.591-.229,2.047,2.047,0,0,1-.208-1.549l3.217-20.948a11.481,11.481,0,0,0-2.807-8.8l-14.8-15.188c-.556-.584-.82-1.146-.695-1.515s.667-.681,1.459-.806l20.927-3.418a11.485,11.485,0,0,0,7.49-5.385l9.873-18.766c.375-.709.834-1.126,1.23-1.126m0-1.049a2.634,2.634,0,0,0-2.147,1.7L133.441,162a10.543,10.543,0,0,1-6.739,4.857l-20.927,3.4c-2.515.417-3.12,2.244-1.341,4.071l14.8,15.195a10.5,10.5,0,0,1,2.529,7.9l-3.224,20.962c-.285,1.862.486,2.967,1.827,2.967a3.688,3.688,0,0,0,1.626-.438l19.016-9.373a10.552,10.552,0,0,1,8.3.035l18.94,9.539a3.706,3.706,0,0,0,1.64.452c1.334,0,2.105-1.1,1.834-2.96l-3.036-20.983a10.534,10.534,0,0,1,2.6-7.879L186.21,174.69c1.793-1.806,1.209-3.654-1.306-4.085l-20.892-3.592a10.5,10.5,0,0,1-6.7-4.905L147.6,143.258c-.591-1.139-1.362-1.709-2.14-1.709Z" transform="translate(-103.412 -141.549)" opacity="0.5" fill="url(#radial-gradient-2)" style="mix-blend-mode: multiply;isolation: isolate"/>
  </g>
  <g id="Group_2587" data-name="Group 2587" transform="translate(42.125 0.042)">
    <path id="Path_14395" data-name="Path 14395" d="M150.148,174.482c1.793-1.806,1.209-3.654-1.306-4.085L127.949,166.8a10.5,10.5,0,0,1-6.7-4.905l-9.713-18.849a2.291,2.291,0,0,0-2.064-1.466v68.992a9.294,9.294,0,0,1,3.773.8l18.94,9.539c2.279,1.147,3.842.021,3.474-2.508l-3.036-20.983a10.534,10.534,0,0,1,2.6-7.879Z" transform="translate(-109.475 -141.382)" fill="url(#radial-gradient-3)"/>
    <path id="Path_14396" data-name="Path 14396" d="M150.148,174.655c1.793-1.806,1.209-3.654-1.306-4.085l-20.892-3.592a10.5,10.5,0,0,1-6.7-4.905l-9.713-18.849a2.592,2.592,0,0,0-2.064-1.668V142.6c.375.049.8.438,1.139,1.1l9.706,18.85a11.538,11.538,0,0,0,7.448,5.454l20.892,3.592c.8.139,1.341.438,1.459.813s-.146.938-.716,1.508l-14.917,15.063a11.49,11.49,0,0,0-2.89,8.768l3.036,20.976a2.038,2.038,0,0,1-.222,1.549.7.7,0,0,1-.584.222,2.714,2.714,0,0,1-1.174-.334l-18.933-9.539a10.442,10.442,0,0,0-4.245-.938v1.035a9.414,9.414,0,0,1,3.773.827l18.94,9.539a3.706,3.706,0,0,0,1.64.452c1.334,0,2.105-1.1,1.834-2.96L132.625,197.6a10.534,10.534,0,0,1,2.6-7.879Z" transform="translate(-109.475 -141.555)" opacity="0.5" fill="url(#radial-gradient-4)" style="mix-blend-mode: multiply;isolation: isolate"/>
  </g>
</svg>
