<svg id="Group_296" data-name="Group 296" xmlns="http://www.w3.org/2000/svg" width="28.854" height="29.245" viewBox="0 0 28.854 29.245">
  <path id="Path_508" data-name="Path 508" d="M872.866,457.042a6.147,6.147,0,0,0-4.378,10.462,6.1,6.1,0,0,0,4.332,1.832h.048a6.148,6.148,0,0,0,.044-12.3Zm-4.743,2.775a5.828,5.828,0,0,1,4.706-2.455,12.045,12.045,0,0,1-.8,3.657,12.867,12.867,0,0,0-3.908-.671Zm-.734,5.359a5.846,5.846,0,0,1-.352-2.03,5.772,5.772,0,0,1,.352-1.929Zm.734.981V461.08a12.161,12.161,0,0,1,3.621.616A11.978,11.978,0,0,1,868.123,466.157Zm1.13.026a12.478,12.478,0,0,0,3.184-4.233,11.686,11.686,0,0,1,2.379,1.292A9.689,9.689,0,0,1,869.253,466.183Zm7.84-7a9.624,9.624,0,0,1-1.793,3.5,12.537,12.537,0,0,0-2.582-1.414,12.677,12.677,0,0,0,.841-3.87A5.809,5.809,0,0,1,877.093,459.185Z" transform="translate(-856.675 -446.98)" fill="none"/>
  <path id="Path_509" data-name="Path 509" d="M862.329,462.436a11.52,11.52,0,0,0-1.508.933A9.7,9.7,0,0,0,863.1,465.1a10,10,0,0,1-.186-1.979c0-.075.005-.149.008-.224A1.459,1.459,0,0,1,862.329,462.436Z" transform="translate(-856.675 -446.98)" fill="#81c7d4"/>
  <path id="Path_510" data-name="Path 510" d="M861.835,457.321l-2.261,0a1.464,1.464,0,0,1-1.323,1.138,9.589,9.589,0,0,0,2.076,4.362,12.4,12.4,0,0,1,1.709-1.061,1.519,1.519,0,0,1-.022-.225,1.458,1.458,0,0,1,.408-1.012A12.772,12.772,0,0,1,861.835,457.321Z" transform="translate(-856.675 -446.98)" fill="#81c7d4"/>
  <path id="Path_511" data-name="Path 511" d="M863.069,460.134a1.474,1.474,0,0,1,.354-.06,9.846,9.846,0,0,1,1.446-2.754h-2.3A12.014,12.014,0,0,0,863.069,460.134Z" transform="translate(-856.675 -446.98)" fill="#81c7d4"/>
  <path id="Path_512" data-name="Path 512" d="M867.389,461.217a5.772,5.772,0,0,0-.352,1.929,5.846,5.846,0,0,0,.352,2.03Z" transform="translate(-856.675 -446.98)" fill="#81c7d4"/>
  <path id="Path_513" data-name="Path 513" d="M860.485,450.214a11.89,11.89,0,0,0,2.318,1.439,12.627,12.627,0,0,1,3.32-4.593A9.677,9.677,0,0,0,860.485,450.214Z" transform="translate(-856.675 -446.98)" fill="#81c7d4"/>
  <path id="Path_514" data-name="Path 514" d="M862.546,456.588l2.929,0a9.983,9.983,0,0,1,1.914-1.63v-1.44a12.673,12.673,0,0,1-4.177-.886A12.09,12.09,0,0,0,862.546,456.588Z" transform="translate(-856.675 -446.98)" fill="#81c7d4"/>
  <path id="Path_515" data-name="Path 515" d="M858.142,455.535a1.464,1.464,0,0,1,1.4,1.054h2.268a12.825,12.825,0,0,1,.724-4.25,12.705,12.705,0,0,1-2.515-1.556,9.568,9.568,0,0,0-1.89,4.754Z" transform="translate(-856.675 -446.98)" fill="#81c7d4"/>
  <path id="Path_516" data-name="Path 516" d="M869.253,466.183a9.689,9.689,0,0,0,5.563-2.941,11.686,11.686,0,0,0-2.379-1.292A12.478,12.478,0,0,1,869.253,466.183Z" transform="translate(-856.675 -446.98)" fill="#81c7d4"/>
  <path id="Path_517" data-name="Path 517" d="M872.718,461.273a12.537,12.537,0,0,1,2.582,1.414,9.624,9.624,0,0,0,1.793-3.5,5.809,5.809,0,0,0-3.534-1.782A12.677,12.677,0,0,1,872.718,461.273Z" transform="translate(-856.675 -446.98)" fill="#81c7d4"/>
  <path id="Path_518" data-name="Path 518" d="M877.2,454.432a9.613,9.613,0,0,0-1.595-3.5,12.785,12.785,0,0,1-1.65,1.06,1.425,1.425,0,0,1-.232,1.42A9.753,9.753,0,0,1,877.2,454.432Z" transform="translate(-856.675 -446.98)" fill="#81c7d4"/>
  <path id="Path_519" data-name="Path 519" d="M867.389,452.782v-5.8a11.932,11.932,0,0,0-3.913,4.964A11.916,11.916,0,0,0,867.389,452.782Z" transform="translate(-856.675 -446.98)" fill="#81c7d4"/>
  <path id="Path_520" data-name="Path 520" d="M868.123,447.064v5.727a11.905,11.905,0,0,0,3-.441,1.454,1.454,0,0,1,.537-.99A11.965,11.965,0,0,0,868.123,447.064Z" transform="translate(-856.675 -446.98)" fill="#81c7d4"/>
  <path id="Path_521" data-name="Path 521" d="M872.327,451.055a1.516,1.516,0,0,1,.253-.025,1.45,1.45,0,0,1,.949.357,12.084,12.084,0,0,0,1.622-1.033,9.638,9.638,0,0,0-5.9-3.316A12.63,12.63,0,0,1,872.327,451.055Z" transform="translate(-856.675 -446.98)" fill="#81c7d4"/>
  <path id="Path_522" data-name="Path 522" d="M868.123,454.52a9.717,9.717,0,0,1,3.344-1.075,1.458,1.458,0,0,1-.232-.361,12.59,12.59,0,0,1-3.112.441Z" transform="translate(-856.675 -446.98)" fill="#81c7d4"/>
  <path id="Path_523" data-name="Path 523" d="M868.123,466.157a11.978,11.978,0,0,0,3.621-4.461,12.161,12.161,0,0,0-3.621-.616Z" transform="translate(-856.675 -446.98)" fill="#81c7d4"/>
  <path id="Path_524" data-name="Path 524" d="M868.123,459.817v.531a12.867,12.867,0,0,1,3.908.671,12.045,12.045,0,0,0,.8-3.657A5.828,5.828,0,0,0,868.123,459.817Z" transform="translate(-856.675 -446.98)" fill="#81c7d4"/>
  <path id="Path_525" data-name="Path 525" d="M872.58,451.03a1.516,1.516,0,0,0-.253.025,1.472,1.472,0,0,0-1.2,1.3,1.432,1.432,0,0,0-.015.147,1.473,1.473,0,0,0,.124.587,1.458,1.458,0,0,0,.232.361,9.906,9.906,0,0,1,1.273-.086h.074c.306,0,.609.02.907.05a1.469,1.469,0,0,0-1.141-2.38Z" transform="translate(-856.675 -446.98)" fill="#dfdfdf"/>
  <path id="Path_526" data-name="Path 526" d="M858.142,455.535h-.011a1.468,1.468,0,0,0,.011,2.936l.109-.011a1.464,1.464,0,0,0,1.323-1.138,1.536,1.536,0,0,0,.037-.32,1.5,1.5,0,0,0-1.469-1.468Z" transform="translate(-856.675 -446.98)" fill="#616e7d"/>
  <path id="Path_527" data-name="Path 527" d="M862.014,461.537a1.519,1.519,0,0,0,.022.225,1.486,1.486,0,0,0,.884,1.13,9.752,9.752,0,0,1,.5-2.818,1.5,1.5,0,0,0-1,.451A1.458,1.458,0,0,0,862.014,461.537Z" transform="translate(-856.675 -446.98)" fill="#dfdfdf"/>
  <path id="Path_528" data-name="Path 528" d="M885.529,473.475l-4.934-4.934a9.5,9.5,0,0,0-7.783-14.864h-.072a9.511,9.511,0,0,0-.069,19.022h.072a9.458,9.458,0,0,0,4.983-1.413l4.94,4.938-.28-.281,2.828-2.785Zm-12.661-4.138h-.048a6.147,6.147,0,0,1-6.1-6.192,6.165,6.165,0,0,1,6.147-6.1h.046a6.148,6.148,0,0,1-.044,12.3Z" transform="translate(-856.675 -446.98)" fill="#616e7d"/>
</svg>
