<svg xmlns="http://www.w3.org/2000/svg" width="33.763" height="28.897" viewBox="0 0 33.763 28.897">
  <g id="Group_263" data-name="Group 263" transform="translate(0.5)">
    <path id="Path_462" data-name="Path 462" d="M914.939,147.095a2.049,2.049,0,0,0,1.437.6h28.7a2.031,2.031,0,0,0,2.032-2.032V128.853H914.344v16.805A2.049,2.049,0,0,0,914.939,147.095Zm25.572-16.878H945.2v4.172h-4.688Zm0,5.325H945.2v4.172h-4.688Zm-6.067-5.325h4.691v4.172h-4.691Zm0,5.325h4.691v4.172h-4.691Zm0,5.326h4.691v4.172h-4.691Zm-6.064-10.651h4.69v4.172h-4.69Zm0,5.325h4.69v4.172h-4.69Zm0,5.326h4.69v4.172h-4.69Zm-6.065-10.651h4.69v4.172h-4.69Zm0,5.325h4.69v4.172h-4.69Zm0,5.326h4.69v4.172h-4.69Zm-6.065-5.326h4.69v4.172h-4.69Zm0,5.326h4.69v4.172h-4.69Z" transform="translate(-914.344 -118.793)" fill="#616e7d"/>
    <path id="Union_3" data-name="Union 3" d="M0,6.985V2.031A2.03,2.03,0,0,1,2.032,0H5.48V2.66a.9.9,0,0,0,.9.9h1.9a.9.9,0,0,0,.9-.9V0h14.42V2.66a.9.9,0,0,0,.9.9h1.894a.9.9,0,0,0,.9-.9V0H30.73a2.03,2.03,0,0,1,2.032,2.031V6.985Z" transform="translate(0 2.341)" fill="#81c7d4" stroke="rgba(0,0,0,0)" stroke-miterlimit="10" stroke-width="1"/>
    <path id="Path_464" data-name="Path 464" d="M921.866,121.989h1.9v-5h-1.9v5Z" transform="translate(-915.487 -116.989)" fill="#616e7d"/>
    <path id="Path_465" data-name="Path 465" d="M943.225,121.989h1.895v-5h-1.895v5Z" transform="translate(-918.734 -116.989)" fill="#616e7d"/>
    <rect id="Rectangle_60" data-name="Rectangle 60" width="4.691" height="4.172" transform="translate(7.972 11.423)" fill="#81c7d4"/>
    <rect id="Rectangle_61" data-name="Rectangle 61" width="4.69" height="4.172" transform="translate(14.036 11.423)" fill="#81c7d4"/>
    <rect id="Rectangle_62" data-name="Rectangle 62" width="4.691" height="4.172" transform="translate(20.101 11.423)" fill="#81c7d4"/>
    <rect id="Rectangle_63" data-name="Rectangle 63" width="4.689" height="4.172" transform="translate(26.167 11.423)" fill="#81c7d4"/>
    <rect id="Rectangle_64" data-name="Rectangle 64" width="4.69" height="4.172" transform="translate(1.907 16.749)" fill="#81c7d4"/>
    <rect id="Rectangle_65" data-name="Rectangle 65" width="4.691" height="4.172" transform="translate(7.972 16.749)" fill="#81c7d4"/>
    <rect id="Rectangle_66" data-name="Rectangle 66" width="4.69" height="4.172" transform="translate(14.036 16.749)" fill="#81c7d4"/>
    <rect id="Rectangle_67" data-name="Rectangle 67" width="4.691" height="4.172" transform="translate(20.101 16.749)" fill="#81c7d4"/>
    <rect id="Rectangle_68" data-name="Rectangle 68" width="4.689" height="4.172" transform="translate(26.167 16.749)" fill="#81c7d4"/>
    <rect id="Rectangle_69" data-name="Rectangle 69" width="4.69" height="4.172" transform="translate(1.907 22.075)" fill="#81c7d4"/>
    <rect id="Rectangle_70" data-name="Rectangle 70" width="4.691" height="4.172" transform="translate(7.972 22.075)" fill="#81c7d4"/>
    <rect id="Rectangle_71" data-name="Rectangle 71" width="4.69" height="4.172" transform="translate(14.036 22.075)" fill="#81c7d4"/>
    <rect id="Rectangle_72" data-name="Rectangle 72" width="4.691" height="4.172" transform="translate(20.101 22.075)" fill="#81c7d4"/>
  </g>
</svg>
