<svg id="Group_257" data-name="Group 257" xmlns="http://www.w3.org/2000/svg" width="37.763" height="29.356" viewBox="0 0 37.763 29.356">
  <path id="Path_438" data-name="Path 438" d="M450,121.3l-.087,0a.3.3,0,0,0-.271.326l.1,1.092a.3.3,0,0,0,.219.257,6.526,6.526,0,0,1,4.154,3.313.292.292,0,0,0,.286.156l1.111-.1a.3.3,0,0,0,.248-.42A8.178,8.178,0,0,0,450,121.3Z" transform="translate(-421.129 -118.13)" fill="#81c7d4"/>
  <path id="Path_439" data-name="Path 439" d="M450.07,117.8h-.065a.3.3,0,0,0-.271.325l.1,1.076a.3.3,0,0,0,.249.263,9.189,9.189,0,0,1,7.17,5.8.3.3,0,0,0,.3.188l1.078-.1a.3.3,0,0,0,.255-.4A10.891,10.891,0,0,0,450.07,117.8Z" transform="translate(-421.138 -117.795)" fill="#616e7d"/>
  <path id="Path_440" data-name="Path 440" d="M421.868,149.9h1.223a2.329,2.329,0,0,0,2.287-1.893l.5-1.469h-6.334v1.036A2.327,2.327,0,0,0,421.868,149.9Z" transform="translate(-418.246 -120.548)" fill="#616e7d"/>
  <path id="Path_441" data-name="Path 441" d="M448.884,149.9h1.222a2.326,2.326,0,0,0,2.326-2.327v-1.036H446.1l.5,1.469A2.33,2.33,0,0,0,448.884,149.9Z" transform="translate(-420.789 -120.548)" fill="#616e7d"/>
  <path id="Path_442" data-name="Path 442" d="M425.875,146.489l.17-.5h-6.5v.5Z" transform="translate(-418.246 -120.495)" fill="#fff"/>
  <path id="Path_443" data-name="Path 443" d="M426.045,145.855l.418-1.234h-6.922v1.234Z" transform="translate(-418.246 -120.364)" fill="#81c7d4"/>
  <path id="Path_444" data-name="Path 444" d="M426.326,142.807l1.17-3.451a7.012,7.012,0,0,0,1.909-1.03,1.982,1.982,0,0,1,1.2-.41h7.952a1.984,1.984,0,0,1,1.2.41,7.029,7.029,0,0,0,1.91,1.03l1.169,3.451h6.921v-6.026a7.038,7.038,0,0,0-10.512-9.244,1.276,1.276,0,0,1-.863.326h-7.6a1.278,1.278,0,0,1-.864-.326,7.038,7.038,0,0,0-10.513,9.244v6.026Zm18.2-6.144a1.622,1.622,0,1,1,1.621-1.622A1.623,1.623,0,0,1,444.522,136.663Zm3.016-6.26a1.621,1.621,0,1,1-1.622,1.621A1.62,1.62,0,0,1,447.539,130.4Zm-3.016-3.017a1.622,1.622,0,1,1-1.622,1.621A1.62,1.62,0,0,1,444.522,127.387Zm-3.016,3.017a1.621,1.621,0,1,1-1.622,1.621A1.622,1.622,0,0,1,441.507,130.4ZM425.1,127a5.692,5.692,0,1,1-5.693,5.692A5.691,5.691,0,0,1,425.1,127Z" transform="translate(-418.109 -118.55)" fill="#616e7d"/>
  <path id="Path_445" data-name="Path 445" d="M452.37,145.855v-1.234h-6.922l.418,1.234Z" transform="translate(-420.727 -120.364)" fill="#81c7d4"/>
  <path id="Path_446" data-name="Path 446" d="M452.414,146.489v-.5h-6.5l.171.5Z" transform="translate(-420.771 -120.495)" fill="#fff"/>
  <path id="Path_447" data-name="Path 447" d="M419.541,132.827a5.692,5.692,0,1,0,5.693-5.692A5.692,5.692,0,0,0,419.541,132.827Zm9.668-1.3v2.606h-2.672V136.8h-2.606V134.13h-2.673v-2.606h2.673v-2.673h2.606v2.673Z" transform="translate(-418.246 -118.69)" fill="#81c7d4"/>
  <path id="Path_448" data-name="Path 448" d="M426.719,136.984v-2.673h2.672v-2.605h-2.672v-2.673h-2.606v2.673H421.44v2.605h2.673v2.673Z" transform="translate(-418.428 -118.871)" fill="#fff"/>
  <path id="Path_449" data-name="Path 449" d="M445.526,129.189a1.622,1.622,0,1,0,1.622-1.621A1.623,1.623,0,0,0,445.526,129.189Z" transform="translate(-420.735 -118.731)" fill="#81c7d4"/>
  <path id="Path_450" data-name="Path 450" d="M445.526,135.861a1.622,1.622,0,1,0,1.622-1.622A1.623,1.623,0,0,0,445.526,135.861Z" transform="translate(-420.735 -119.37)" fill="#81c7d4"/>
  <path id="Path_451" data-name="Path 451" d="M442.191,132.525a1.622,1.622,0,1,0,1.622-1.621A1.622,1.622,0,0,0,442.191,132.525Z" transform="translate(-420.415 -119.051)" fill="#81c7d4"/>
  <path id="Path_452" data-name="Path 452" d="M448.862,132.525a1.622,1.622,0,1,0,1.622-1.621A1.622,1.622,0,0,0,448.862,132.525Z" transform="translate(-421.054 -119.051)" fill="#81c7d4"/>
</svg>
