<svg xmlns="http://www.w3.org/2000/svg" xmlns:xlink="http://www.w3.org/1999/xlink" width="68.724" height="88.655" viewBox="0 0 68.724 88.655">
  <defs>
    <linearGradient id="linear-gradient" x1="0.593" y1="0.117" x2="0.43" y2="1.012" gradientUnits="objectBoundingBox">
      <stop offset="0" stop-color="#3c0289"/>
      <stop offset="0.489" stop-color="#4172da"/>
      <stop offset="0.936" stop-color="#80c3ff"/>
    </linearGradient>
    <linearGradient id="linear-gradient-2" x1="0.123" y1="1.706" x2="0.675" y2="-0.06" gradientUnits="objectBoundingBox">
      <stop offset="0" stop-color="#4172da"/>
      <stop offset="0.822" stop-color="#8becef"/>
    </linearGradient>
    <linearGradient id="linear-gradient-3" x1="-6.706" y1="-2.019" x2="-7.443" y2="-3.284" gradientUnits="objectBoundingBox">
      <stop offset="0.131" stop-color="#c74ece"/>
      <stop offset="1" stop-color="#efc0d5"/>
    </linearGradient>
    <linearGradient id="linear-gradient-4" x1="-4.493" y1="-1.066" x2="-5.231" y2="-2.331" xlink:href="#linear-gradient-3"/>
  </defs>
  <g id="Group_2528" data-name="Group 2528" transform="translate(-375.408 -58.679)">
    <g id="Group_2495" data-name="Group 2495">
      <path id="Path_14328" data-name="Path 14328" d="M413.413,143.9a11.92,11.92,0,0,1-3.57-8.489v-9.094H389.767a2.761,2.761,0,0,1-.809-.068l-.674-.134a11.931,11.931,0,0,1-9.9-11.655,12.442,12.442,0,0,1,1.347-5.794l15.426-42.508a12.382,12.382,0,0,1,11.453-7.478,11.841,11.841,0,0,1,11.858,11.654,10.248,10.248,0,0,1-1.078,4.649L405.53,102.131h4.313a12.311,12.311,0,0,1,3.906-8.017,12.183,12.183,0,0,1,8.353-3.166,11.7,11.7,0,0,1,8.084,3.233,12.2,12.2,0,0,1,3.639,8.085,12.115,12.115,0,0,1,10.307,11.991,12.092,12.092,0,0,1-2.963,7.949,11,11,0,0,1-7.344,3.975v9.229a12.081,12.081,0,0,1-3.435,8.489,11.765,11.765,0,0,1-8.354,3.435A12.051,12.051,0,0,1,413.413,143.9Z" fill="url(#linear-gradient)"/>
    </g>
    <g id="Group_2497" data-name="Group 2497">
      <g id="Group_2496" data-name="Group 2496">
        <path id="Path_14329" data-name="Path 14329" d="M398.366,70.041a.375.375,0,0,0,0-.75.375.375,0,0,0,0,.75Z" fill="#fff"/>
      </g>
    </g>
    <g id="Group_2499" data-name="Group 2499">
      <g id="Group_2498" data-name="Group 2498">
        <path id="Path_14330" data-name="Path 14330" d="M405.7,73.374a.375.375,0,0,0,0-.75.375.375,0,0,0,0,.75Z" fill="#fff"/>
      </g>
    </g>
    <g id="Group_2501" data-name="Group 2501">
      <g id="Group_2500" data-name="Group 2500">
        <path id="Path_14331" data-name="Path 14331" d="M408.366,66.708a.375.375,0,0,0,0-.75.375.375,0,0,0,0,.75Z" fill="#fff"/>
      </g>
    </g>
    <g id="Group_2503" data-name="Group 2503">
      <g id="Group_2502" data-name="Group 2502">
        <path id="Path_14332" data-name="Path 14332" d="M403.7,63.374a.375.375,0,0,0,0-.75.375.375,0,0,0,0,.75Z" fill="#fff"/>
      </g>
    </g>
    <g id="Group_2505" data-name="Group 2505">
      <g id="Group_2504" data-name="Group 2504">
        <path id="Path_14333" data-name="Path 14333" d="M407.032,84.708a.375.375,0,0,0,0-.75.375.375,0,0,0,0,.75Z" fill="#fff"/>
      </g>
    </g>
    <g id="Group_2507" data-name="Group 2507">
      <g id="Group_2506" data-name="Group 2506">
        <path id="Path_14334" data-name="Path 14334" d="M397.7,90.708a.375.375,0,0,0,0-.75.375.375,0,0,0,0,.75Z" fill="#fff"/>
      </g>
    </g>
    <g id="Group_2509" data-name="Group 2509">
      <g id="Group_2508" data-name="Group 2508">
        <path id="Path_14335" data-name="Path 14335" d="M397.032,82.041a.375.375,0,0,0,0-.75.375.375,0,0,0,0,.75Z" fill="#fff"/>
      </g>
    </g>
    <g id="Group_2511" data-name="Group 2511">
      <g id="Group_2510" data-name="Group 2510">
        <path id="Path_14336" data-name="Path 14336" d="M383.7,110.708a.375.375,0,0,0,0-.75.375.375,0,0,0,0,.75Z" fill="#fff"/>
      </g>
    </g>
    <g id="Group_2513" data-name="Group 2513">
      <g id="Group_2512" data-name="Group 2512">
        <path id="Path_14337" data-name="Path 14337" d="M401.032,114.708a.375.375,0,0,0,0-.75.375.375,0,0,0,0,.75Z" fill="#fff"/>
      </g>
    </g>
    <g id="Group_2515" data-name="Group 2515">
      <g id="Group_2514" data-name="Group 2514">
        <path id="Path_14338" data-name="Path 14338" d="M391.032,100.708a.375.375,0,0,0,0-.75.375.375,0,0,0,0,.75Z" fill="#fff"/>
      </g>
    </g>
    <g id="Group_2516" data-name="Group 2516" opacity="0.2">
      <path id="Path_14339" data-name="Path 14339" d="M439.845,120.407c-3.563-2.912-8.235-1.46-12.247.021-6.021,2.223-12.146,4.5-17.219,8.434-.181.14-.358.287-.536.43v6.149c1.154-.5,2.316-.98,3.5-1.395,1.036-.364,2.086-.68,3.145-.96a3.025,3.025,0,0,1,2.553,5.361c-2.11,1.564-4.312,3.018-6.553,4.425a11.542,11.542,0,0,0,.924,1.027,12.051,12.051,0,0,0,8.623,3.435,11.765,11.765,0,0,0,8.354-3.435,12.081,12.081,0,0,0,3.435-8.489v-9.229a11,11,0,0,0,7.344-3.975c.049-.056.092-.118.14-.175A7.494,7.494,0,0,0,439.845,120.407Z" fill="#fff"/>
      <path id="Path_14340" data-name="Path 14340" d="M395.155,66.157l-8.644,23.82c8.972-4.333,18.348-8.685,28.235-8.947l2.642-6.048a10.248,10.248,0,0,0,1.078-4.649,11.841,11.841,0,0,0-11.858-11.654A12.382,12.382,0,0,0,395.155,66.157Z" fill="#fff"/>
      <path id="Path_14341" data-name="Path 14341" d="M422.1,90.948c-.282,0-.557.018-.833.035a17.55,17.55,0,0,1-7.581,7.1,30.218,30.218,0,0,1-3.334,1.456,12.42,12.42,0,0,0-.511,2.6H405.53l.53-1.214c-1.436.4-2.884.78-4.322,1.169q-7.721,2.088-15.237,4.853a33.074,33.074,0,0,0-7.517,3.59,13,13,0,0,0-.6,3.93A11.353,11.353,0,0,0,379.791,120a12.683,12.683,0,0,0,5.952-1.05c8.873-3.259,17.077-8.217,26.088-11.071a2.056,2.056,0,0,1,1.984.084,1.737,1.737,0,0,1,.427,1.385c-.172,4.249-4.936,6.469-8.749,8.351a43.427,43.427,0,0,0-11.83,8.617h8.561c7.852-6.268,16.454-11.574,24.249-17.921a85.206,85.206,0,0,0,7.3-6.642,12.131,12.131,0,0,0-3.584-7.572A11.7,11.7,0,0,0,422.1,90.948Z" fill="#fff"/>
    </g>
    <g id="Group_2518" data-name="Group 2518">
      <g id="Group_2517" data-name="Group 2517">
        <path id="Path_14342" data-name="Path 14342" d="M421.032,116.708a.375.375,0,0,0,0-.75.375.375,0,0,0,0,.75Z" fill="#fff"/>
      </g>
    </g>
    <g id="Group_2520" data-name="Group 2520">
      <g id="Group_2519" data-name="Group 2519">
        <path id="Path_14343" data-name="Path 14343" d="M422.366,104.041a.375.375,0,0,0,0-.75.375.375,0,0,0,0,.75Z" fill="#fff"/>
      </g>
    </g>
    <g id="Group_2522" data-name="Group 2522">
      <g id="Group_2521" data-name="Group 2521">
        <path id="Path_14344" data-name="Path 14344" d="M437.032,113.374a.375.375,0,0,0,0-.75.375.375,0,0,0,0,.75Z" fill="#fff"/>
      </g>
    </g>
    <g id="Group_2524" data-name="Group 2524">
      <g id="Group_2523" data-name="Group 2523">
        <path id="Path_14345" data-name="Path 14345" d="M420.366,134.041a.375.375,0,0,0,0-.75.375.375,0,0,0,0,.75Z" fill="#fff"/>
      </g>
    </g>
    <path id="Path_14346" data-name="Path 14346" d="M400.735,104.356l1.5.856-1.53.8-.856,1.5-.8-1.53-1.5-.856,1.53-.8.856-1.5Z" fill="#fff" fill-rule="evenodd"/>
    <path id="Path_14347" data-name="Path 14347" d="M404.31,76.738l.872.5-.89.465-.5.872-.465-.89-.872-.5.89-.465.5-.872Z" fill="#fff" fill-rule="evenodd"/>
    <path id="Path_14348" data-name="Path 14348" d="M427.147,99.162l.872.5-.89.465-.5.872-.465-.89-.872-.5.89-.465.5-.872Z" fill="#fff" fill-rule="evenodd"/>
    <path id="Path_14349" data-name="Path 14349" d="M387.6,117.792l.872.5-.89.465-.5.872-.465-.89-.872-.5.89-.465.5-.872Z" fill="#fff" fill-rule="evenodd"/>
    <path id="Path_14350" data-name="Path 14350" d="M391.347,87.675l.872.5-.89.466-.5.872-.465-.89-.872-.5.89-.465.5-.872Z" fill="#fff" fill-rule="evenodd"/>
    <path id="Path_14351" data-name="Path 14351" d="M413.813,67.573l.872.5-.89.465-.5.872-.466-.89-.872-.5.89-.465.5-.872Z" fill="#fff" fill-rule="evenodd"/>
    <g id="Group_2525" data-name="Group 2525">
      <path id="Path_14352" data-name="Path 14352" d="M430.536,116.93a6.794,6.794,0,1,1-4.989-8.211A6.794,6.794,0,0,1,430.536,116.93Z" fill="url(#linear-gradient-2)"/>
      <path id="Path_14353" data-name="Path 14353" d="M430.69,114.646a6.551,6.551,0,0,1,.034.716c2.562,1.1,4.127,2.234,3.93,3.041-.329,1.348-5.436,1.26-11.406-.2s-10.543-3.732-10.214-5.08c.2-.8,2.077-1.09,4.814-.893a6.366,6.366,0,0,1,.351-.626c-4.244-.5-7.283-.2-7.56.934-.4,1.647,5.184,4.426,12.477,6.206s13.531,1.889,13.933.241C437.327,117.847,434.732,116.164,430.69,114.646Z" fill="#f6e070" opacity="0.7"/>
      <path id="Path_14354" data-name="Path 14354" d="M430.724,115.342c0,.214-.013.43-.035.646,1.391.72,2.191,1.421,2.062,1.95-.271,1.111-4.479,1.038-9.4-.163s-8.687-3.075-8.416-4.186c.128-.522,1.133-.78,2.668-.784a6.246,6.246,0,0,1,.253-.593c-2.782-.2-4.7.086-4.894.9-.331,1.357,4.271,3.646,10.28,5.113s11.149,1.556,11.48.2C434.924,117.6,433.329,116.451,430.724,115.342Z" fill="#f2cc33" opacity="0.6"/>
    </g>
    <g id="Group_2526" data-name="Group 2526">
      <path id="Path_14355" data-name="Path 14355" d="M387.58,64.441a11.108,11.108,0,1,1-7.107,14.01A11.108,11.108,0,0,1,387.58,64.441Z" fill-rule="evenodd" fill="url(#linear-gradient-3)"/>
    </g>
    <g id="Group_2527" data-name="Group 2527" opacity="0.2">
      <path id="Path_14356" data-name="Path 14356" d="M386.178,60.152a15.62,15.62,0,1,1-9.993,19.7A15.621,15.621,0,0,1,386.178,60.152Z" fill-rule="evenodd" fill="url(#linear-gradient-4)"/>
    </g>
  </g>
</svg>
