<svg xmlns="http://www.w3.org/2000/svg" width="207.974" height="234.912" viewBox="0 0 207.974 234.912">
  <g id="Group_731" data-name="Group 731" transform="translate(120.238 -26.088)">
    <path id="Path_2605" data-name="Path 2605" d="M-41.61,26.088A24.886,24.886,0,0,0-66.495,50.973,24.886,24.886,0,0,0-41.61,75.859,24.886,24.886,0,0,0-16.724,50.973,24.886,24.886,0,0,0-41.61,26.088Zm0,37.747A12.861,12.861,0,0,1-54.471,50.973,12.861,12.861,0,0,1-41.61,38.112,12.861,12.861,0,0,1-28.748,50.973,12.861,12.861,0,0,1-41.61,63.835Z" transform="translate(25.359 0)" fill="#fbae17"/>
    <path id="Path_2606" data-name="Path 2606" d="M-43.6,30.315A18.663,18.663,0,0,0-62.268,48.978,18.664,18.664,0,0,0-43.6,67.643,18.666,18.666,0,0,0-24.94,48.978,18.664,18.664,0,0,0-43.6,30.315Zm0,31.524A12.86,12.86,0,0,1-56.466,48.978,12.861,12.861,0,0,1-43.6,36.117,12.862,12.862,0,0,1-30.742,48.978,12.861,12.861,0,0,1-43.6,61.839Z" transform="translate(27.354 1.995)" fill="#f58a1f"/>
    <circle id="Ellipse_291" data-name="Ellipse 291" cx="32.154" cy="32.154" r="32.154" transform="translate(-48.405 196.692)" fill="#ffd200"/>
    <path id="Path_2607" data-name="Path 2607" d="M-17.434,174.151A32.154,32.154,0,0,0-49.588,142v64.309A32.155,32.155,0,0,0-17.434,174.151Z" transform="translate(33.337 54.693)" fill="#fbae17"/>
    <path id="Path_2608" data-name="Path 2608" d="M-20.2,43V203.08h-91.672s14.367-34.863,12.314-73.53S-92.716,43-20.2,43Z" transform="translate(3.948 7.978)" fill="#ffd200"/>
    <rect id="Rectangle_1137" data-name="Rectangle 1137" width="103.987" height="17.787" transform="translate(-120.238 211.058)" fill="#fbae17"/>
    <path id="Path_2609" data-name="Path 2609" d="M-49.588,43V203.08H42.085s-14.367-34.863-12.315-73.53S22.929,43-49.588,43Z" transform="translate(33.337 7.978)" fill="#fbae17"/>
    <rect id="Rectangle_1138" data-name="Rectangle 1138" width="103.987" height="17.787" transform="translate(-16.251 211.058)" fill="#f58a1f"/>
  </g>
</svg>
