<svg xmlns="http://www.w3.org/2000/svg" width="27.342" height="19.713" viewBox="0 0 27.342 19.713">
  <g id="jcb_1_" data-name="jcb (1)" transform="translate(0 -69.2)">
    <path id="Path_732" data-name="Path 732" d="M3.748,69.2A3.54,3.54,0,0,0,0,72.948V79.74A2.028,2.028,0,0,0,2.029,81.2a1.8,1.8,0,0,0,1.9-1.764v-3.44h3v3.4c0,1.9-2.425,2.866-4.189,2.866a4.538,4.538,0,0,1-2.69-.838v7.5H4.807A3.816,3.816,0,0,0,8.423,85.3V69.2Z" fill="#1174ce"/>
    <path id="Path_733" data-name="Path 733" d="M0,72.948V79.74A2.028,2.028,0,0,0,2.029,81.2a1.8,1.8,0,0,0,1.9-1.764v-3.44h3v3.4c0,1.9-2.425,2.866-4.189,2.866a4.538,4.538,0,0,1-2.69-.838v7.5H4.807A3.816,3.816,0,0,0,8.423,85.3V69.2" fill="#0f549d"/>
    <path id="Path_734" data-name="Path 734" d="M6.88,192.4v3.4c0,1.9-2.425,2.866-4.189,2.866A4.538,4.538,0,0,1,0,197.824v7.5H4.763a3.816,3.816,0,0,0,3.616-3.616" transform="translate(0 -116.409)" fill="#02375e"/>
    <path id="Path_735" data-name="Path 735" d="M370.4,250.429h2.073a1.014,1.014,0,1,0,0-2.029H370.4Z" transform="translate(-349.982 -169.322)" fill="#146643"/>
    <path id="Path_736" data-name="Path 736" d="M347.793,69.2a3.506,3.506,0,0,0-3.749,3.7v3.087H349.6a1.455,1.455,0,1,1,0,2.911,1.494,1.494,0,0,1,1.588,1.411,1.468,1.468,0,0,1-1.588,1.411H344v7.188h4.763a3.816,3.816,0,0,0,3.616-3.616V69.2Z" transform="translate(-325.037)" fill="#1bcc38"/>
    <path id="Path_737" data-name="Path 737" d="M344,72.948v3.043h5.557a1.455,1.455,0,1,1,0,2.911,1.5,1.5,0,0,1,1.588,1.411,1.468,1.468,0,0,1-1.588,1.411H344v7.188h4.763a3.816,3.816,0,0,0,3.616-3.616V69.2" transform="translate(-325.037)" fill="#329947"/>
    <g id="Group_552" data-name="Group 552" transform="translate(18.963 76.609)">
      <path id="Path_738" data-name="Path 738" d="M351.012,218.8a1.468,1.468,0,0,1-1.455,1.455,1.5,1.5,0,0,1,1.588,1.411,1.468,1.468,0,0,1-1.588,1.411H344v7.188h4.763a3.816,3.816,0,0,0,3.616-3.616" transform="translate(-344 -217.962)" fill="#146643"/>
      <path id="Path_739" data-name="Path 739" d="M373.443,204.614a1.057,1.057,0,0,0-1.014-1.014H370.4v1.984h2.073A.979.979,0,0,0,373.443,204.614Z" transform="translate(-368.945 -203.6)" fill="#146643"/>
    </g>
    <path id="Path_740" data-name="Path 740" d="M174.948,69.2a3.506,3.506,0,0,0-3.748,3.7V76.7a3.007,3.007,0,0,1,1.9-.75h5.027v1.058a15.688,15.688,0,0,0-2.911-.4,2.249,2.249,0,0,0,0,4.5,14.834,14.834,0,0,0,2.911-.353v.97H173.1a2.7,2.7,0,0,1-1.9-.75v7.938h4.763a3.816,3.816,0,0,0,3.616-3.616V69.2Z" transform="translate(-161.763)" fill="#e20e37"/>
    <path id="Path_741" data-name="Path 741" d="M171.2,72.948v3.793a3.007,3.007,0,0,1,1.9-.75h5.027V77.05a15.687,15.687,0,0,0-2.911-.4,2.249,2.249,0,0,0,0,4.5,14.833,14.833,0,0,0,2.911-.353v.926H173.1a2.7,2.7,0,0,1-1.9-.75v7.938h4.763a3.816,3.816,0,0,0,3.616-3.616V69.2" transform="translate(-161.763)" fill="#b41f36"/>
    <path id="Path_742" data-name="Path 742" d="M178.124,192.4v1.058a15.687,15.687,0,0,0-2.911-.4,2.249,2.249,0,0,0,0,4.5,14.832,14.832,0,0,0,2.911-.353v.926H173.1a2.7,2.7,0,0,1-1.9-.75v7.938h4.763a3.816,3.816,0,0,0,3.616-3.616" transform="translate(-161.763 -116.409)" fill="#720a1e"/>
  </g>
</svg>
