<svg xmlns="http://www.w3.org/2000/svg" width="39.052" height="23.431" viewBox="0 0 39.052 23.431">
  <g id="mastercard" transform="translate(0 -100.8)">
    <path id="Path_699" data-name="Path 699" d="M225.031,112.515a11.715,11.715,0,0,1-23.431,0h0a11.715,11.715,0,1,1,23.431,0Z" transform="translate(-185.979 0)" fill="#ffb600"/>
    <path id="Path_700" data-name="Path 700" d="M213.315,100.8a11.746,11.746,0,0,1,11.715,11.715h0a11.715,11.715,0,0,1-23.431,0" transform="translate(-185.979)" fill="#f7981d"/>
    <path id="Path_701" data-name="Path 701" d="M352.8,100.8a11.746,11.746,0,0,1,11.715,11.715h0A11.706,11.706,0,0,1,352.8,124.231" transform="translate(-325.464)" fill="#ff8500"/>
    <path id="Path_702" data-name="Path 702" d="M11.592,100.8a11.716,11.716,0,0,0,.124,23.431,11.852,11.852,0,0,0,7.872-3.037h0a11.138,11.138,0,0,0,1.178-1.24H18.348a14.3,14.3,0,0,1-.868-1.178h4.153a7.94,7.94,0,0,0,.682-1.24H16.8a7.388,7.388,0,0,1-.5-1.24h6.447a12.308,12.308,0,0,0,.62-3.719,16,16,0,0,0-.248-2.479h-7.19a9.062,9.062,0,0,1,.31-1.24h6.447a7.388,7.388,0,0,0-.5-1.24H16.736a12.3,12.3,0,0,1,.682-1.24h4.153a5.9,5.9,0,0,0-.93-1.24H18.348a10.566,10.566,0,0,1,1.178-1.178,11.438,11.438,0,0,0-7.872-3.037C11.653,100.8,11.653,100.8,11.592,100.8Z" fill="#ff5050"/>
    <path id="Path_703" data-name="Path 703" d="M0,113.991a11.706,11.706,0,0,0,11.715,11.715,11.852,11.852,0,0,0,7.872-3.037h0a11.14,11.14,0,0,0,1.178-1.24H18.348a14.3,14.3,0,0,1-.868-1.178h4.153a7.941,7.941,0,0,0,.682-1.24H16.8a7.388,7.388,0,0,1-.5-1.24h6.447a12.308,12.308,0,0,0,.62-3.719,16,16,0,0,0-.248-2.479h-7.19a9.062,9.062,0,0,1,.31-1.24h6.447a7.388,7.388,0,0,0-.5-1.24H16.736a12.292,12.292,0,0,1,.682-1.24h4.153a5.9,5.9,0,0,0-.93-1.24H18.348a10.564,10.564,0,0,1,1.178-1.178,11.438,11.438,0,0,0-7.872-3.037h-.062" transform="translate(0 -1.476)" fill="#e52836"/>
    <path id="Path_704" data-name="Path 704" d="M149.724,125.707a11.852,11.852,0,0,0,7.872-3.037h0a11.136,11.136,0,0,0,1.178-1.24h-2.417a14.3,14.3,0,0,1-.868-1.178h4.153a7.943,7.943,0,0,0,.682-1.24h-5.517a7.388,7.388,0,0,1-.5-1.24h6.447a12.308,12.308,0,0,0,.62-3.719,16,16,0,0,0-.248-2.479h-7.19a9.065,9.065,0,0,1,.31-1.24H160.7a7.387,7.387,0,0,0-.5-1.24h-5.455a12.3,12.3,0,0,1,.682-1.24h4.153a5.9,5.9,0,0,0-.93-1.24h-2.294a10.561,10.561,0,0,1,1.178-1.178,11.438,11.438,0,0,0-7.872-3.037H149.6" transform="translate(-138.008 -1.476)" fill="#cb2026"/>
    <g id="Group_549" data-name="Group 549" transform="translate(1.116 109.478)">
      <path id="Path_705" data-name="Path 705" d="M183.4,225.455l.186-1.054a2.684,2.684,0,0,1-.31.062c-.434,0-.5-.248-.434-.372l.372-2.17h.682l.186-1.178h-.62l.124-.744h-1.24s-.744,4.091-.744,4.587a.93.93,0,0,0,.992,1.054A1.9,1.9,0,0,0,183.4,225.455Z" transform="translate(-168.645 -219.442)" fill="#fff"/>
      <path id="Path_706" data-name="Path 706" d="M210.4,231.5a1.972,1.972,0,0,0,2.17,2.17,3.218,3.218,0,0,0,1.3-.186l.248-1.178a3.716,3.716,0,0,1-1.3.31c-1.364,0-1.116-.992-1.116-.992h2.541a8.038,8.038,0,0,0,.186-1.116,1.679,1.679,0,0,0-1.8-1.8C211.33,228.583,210.4,229.946,210.4,231.5Zm2.17-1.8c.682,0,.558.806.558.868h-1.364C211.764,230.5,211.888,229.7,212.57,229.7Z" transform="translate(-195.213 -227.467)" fill="#fff"/>
      <path id="Path_707" data-name="Path 707" d="M299.409,218.813l.248-1.364a3.046,3.046,0,0,1-1.054.31c-.868,0-1.24-.682-1.24-1.426,0-1.488.744-2.294,1.612-2.294a2.07,2.07,0,0,1,1.116.372l.186-1.3a4.358,4.358,0,0,0-1.426-.31c-1.426,0-2.851,1.24-2.851,3.6,0,1.55.744,2.6,2.232,2.6A5.563,5.563,0,0,0,299.409,218.813Z" transform="translate(-274.181 -212.8)" fill="#fff"/>
      <path id="Path_708" data-name="Path 708" d="M88.755,227.2a4.39,4.39,0,0,0-1.488.248l-.186,1.054a3.664,3.664,0,0,1,1.364-.248c.434,0,.806.062.806.434,0,.248-.062.31-.062.31h-.558c-1.054,0-2.232.434-2.232,1.86,0,1.116.744,1.364,1.178,1.364a1.863,1.863,0,0,0,1.3-.558l-.062.5h1.116l.5-3.409A1.469,1.469,0,0,0,88.755,227.2ZM89,229.989c0,.186-.124,1.178-.868,1.178a.484.484,0,0,1-.5-.5c0-.31.186-.744,1.116-.744A.977.977,0,0,0,89,229.989Z" transform="translate(-80.821 -226.084)" fill="#fff"/>
      <path id="Path_709" data-name="Path 709" d="M136.626,231.483a1.589,1.589,0,0,0,1.86-1.612c0-1.55-1.488-1.24-1.488-1.86,0-.31.248-.434.682-.434.186,0,.868.062.868.062l.186-1.116a4.708,4.708,0,0,0-1.178-.124c-.93,0-1.86.372-1.86,1.612,0,1.426,1.55,1.3,1.55,1.86,0,.372-.434.434-.744.434a4.053,4.053,0,0,1-1.116-.186l-.186,1.116C135.262,231.359,135.572,231.483,136.626,231.483Z" transform="translate(-125.84 -225.346)" fill="#fff"/>
      <path id="Path_710" data-name="Path 710" d="M430.733,214.4l-.248,1.674a1.719,1.719,0,0,0-1.178-.62c-1.116,0-2.108,1.364-2.108,2.975,0,.992.5,2.046,1.55,2.046a1.655,1.655,0,0,0,1.178-.5l-.062.434h1.24l.93-5.951Zm-.558,3.285c0,.682-.31,1.55-.992,1.55-.434,0-.682-.372-.682-.992,0-.992.434-1.612.992-1.612C429.927,216.632,430.175,216.941,430.175,217.685Z" transform="translate(-395.215 -214.276)" fill="#fff"/>
      <path id="Path_711" data-name="Path 711" d="M15.578,220.351l.744-4.463.124,4.463h.868l1.612-4.463-.682,4.463h1.3l.992-5.951H18.491l-1.24,3.657-.062-3.657h-1.8l-.992,5.951Z" transform="translate(-14.4 -214.276)" fill="#fff"/>
      <path id="Path_712" data-name="Path 712" d="M261.364,233.635c.372-2.046.434-3.719,1.3-3.409a4.865,4.865,0,0,1,.434-1.426h-.248c-.558,0-.992.744-.992.744l.124-.682h-1.178L260,233.7h1.364Z" transform="translate(-240.97 -227.56)" fill="#fff"/>
      <path id="Path_713" data-name="Path 713" d="M348.755,227.2a4.39,4.39,0,0,0-1.488.248l-.186,1.054a3.664,3.664,0,0,1,1.364-.248c.434,0,.806.062.806.434,0,.248-.062.31-.062.31h-.558c-1.054,0-2.232.434-2.232,1.86,0,1.116.744,1.364,1.178,1.364a1.863,1.863,0,0,0,1.3-.558l-.062.5h1.116l.5-3.409A1.447,1.447,0,0,0,348.755,227.2Zm.31,2.789c0,.186-.124,1.178-.868,1.178a.484.484,0,0,1-.5-.5c0-.31.186-.744,1.116-.744C349,229.989,349,229.989,349.065,229.989Z" transform="translate(-320.676 -226.084)" fill="#fff"/>
      <path id="Path_714" data-name="Path 714" d="M395.764,233.635c.372-2.046.434-3.719,1.3-3.409a4.864,4.864,0,0,1,.434-1.426h-.248c-.558,0-.992.744-.992.744l.124-.682h-1.178L394.4,233.7h1.364Z" transform="translate(-364.956 -227.56)" fill="#fff"/>
    </g>
    <g id="Group_550" data-name="Group 550" transform="translate(1.116 109.478)">
      <path id="Path_715" data-name="Path 715" d="M180,224.587a.93.93,0,0,0,.992,1.054,2.36,2.36,0,0,0,.93-.186l.186-1.054a2.685,2.685,0,0,1-.31.062c-.434,0-.5-.248-.434-.372l.372-2.17h.682l.186-1.178h-.62l.124-.744" transform="translate(-167.169 -219.442)" fill="#dce5e5"/>
      <path id="Path_716" data-name="Path 716" d="M218.4,231.5c0,1.736.558,2.17,1.55,2.17a3.218,3.218,0,0,0,1.3-.186l.248-1.178a3.716,3.716,0,0,1-1.3.31c-1.364,0-1.116-.992-1.116-.992h2.541a8.038,8.038,0,0,0,.186-1.116,1.679,1.679,0,0,0-1.8-1.8C218.71,228.583,218.4,229.946,218.4,231.5Zm1.55-1.8c.682,0,.806.806.806.868h-1.612C219.144,230.5,219.268,229.7,219.95,229.7Z" transform="translate(-202.593 -227.467)" fill="#dce5e5"/>
      <path id="Path_717" data-name="Path 717" d="M306.789,218.813l.248-1.364a3.046,3.046,0,0,1-1.054.31c-.868,0-1.24-.682-1.24-1.426,0-1.488.744-2.294,1.612-2.294a2.07,2.07,0,0,1,1.116.372l.186-1.3a4.358,4.358,0,0,0-1.426-.31c-1.426,0-2.232,1.24-2.232,3.6,0,1.55.124,2.6,1.612,2.6A5.562,5.562,0,0,0,306.789,218.813Z" transform="translate(-281.561 -212.8)" fill="#dce5e5"/>
      <path id="Path_718" data-name="Path 718" d="M87.082,230.04a3.664,3.664,0,0,1,1.364-.248c.434,0,.806.062.806.434,0,.248-.062.31-.062.31h-.558c-1.054,0-2.232.434-2.232,1.86,0,1.116.744,1.364,1.178,1.364a1.863,1.863,0,0,0,1.3-.558l-.062.5h1.116l.5-3.409c0-1.426-1.24-1.488-1.736-1.488m.93,2.665a2.029,2.029,0,0,1-1.488,1.178.484.484,0,0,1-.5-.5c0-.31.186-.744,1.116-.744A5.063,5.063,0,0,0,89.623,231.465Z" transform="translate(-80.821 -227.56)" fill="#dce5e5"/>
      <path id="Path_719" data-name="Path 719" d="M136,231.359a5.247,5.247,0,0,0,1.426.124,1.589,1.589,0,0,0,1.86-1.612c0-1.55-1.488-1.24-1.488-1.86,0-.31.248-.434.682-.434.186,0,.868.062.868.062l.186-1.116a4.708,4.708,0,0,0-1.178-.124c-.93,0-1.24.372-1.24,1.612,0,1.426.93,1.3.93,1.86,0,.372-.434.434-.744.434" transform="translate(-126.578 -225.346)" fill="#dce5e5"/>
      <path id="Path_720" data-name="Path 720" d="M437.812,216.812a1.719,1.719,0,0,0-1.178-.62c-1.116,0-1.488,1.364-1.488,2.975,0,.992-.124,2.046.93,2.046a1.655,1.655,0,0,0,1.178-.5l-.062.434h1.24l.93-5.951m-1.612,3.223c0,.682-.558,1.55-1.24,1.55-.434,0-.682-.372-.682-.992,0-.992.434-1.612.992-1.612A.947.947,0,0,1,437.75,218.423Z" transform="translate(-402.541 -215.014)" fill="#dce5e5"/>
      <path id="Path_721" data-name="Path 721" d="M15.578,220.351l.744-4.463.124,4.463h.868l1.612-4.463-.682,4.463h1.3l.992-5.951h-1.55l-1.736,3.657-.062-3.657h-.682L14.4,220.351Z" transform="translate(-14.4 -214.276)" fill="#dce5e5"/>
      <path id="Path_722" data-name="Path 722" d="M260.8,233.635h1.3c.372-2.046.434-3.719,1.3-3.409a4.864,4.864,0,0,1,.434-1.426h-.248c-.558,0-.992.744-.992.744l.124-.682" transform="translate(-241.708 -227.56)" fill="#dce5e5"/>
      <path id="Path_723" data-name="Path 723" d="M347.082,230.04a3.665,3.665,0,0,1,1.364-.248c.434,0,.806.062.806.434,0,.248-.062.31-.062.31h-.558c-1.054,0-2.232.434-2.232,1.86,0,1.116.744,1.364,1.178,1.364a1.862,1.862,0,0,0,1.3-.558l-.062.5h1.116l.5-3.409c0-1.426-1.24-1.488-1.736-1.488m.93,2.665a2.029,2.029,0,0,1-1.488,1.178.484.484,0,0,1-.5-.5c0-.31.186-.744,1.116-.744A5.453,5.453,0,0,0,349.623,231.465Z" transform="translate(-320.676 -227.56)" fill="#dce5e5"/>
      <path id="Path_724" data-name="Path 724" d="M395.2,233.635h1.3c.372-2.046.434-3.719,1.3-3.409a4.865,4.865,0,0,1,.434-1.426h-.248c-.558,0-.992.744-.992.744l.124-.682" transform="translate(-365.694 -227.56)" fill="#dce5e5"/>
    </g>
  </g>
</svg>
