<svg xmlns="http://www.w3.org/2000/svg" width="64.092" height="19.431" viewBox="0 0 64.092 19.431">
  <g id="visa" transform="translate(0 -175.6)">
    <path id="Path_684" data-name="Path 684" d="M184.8,198.712l3.255-18.312h5.087l-3.154,18.312Z" transform="translate(-161.3 -4.19)" fill="#3c58bf"/>
    <path id="Path_685" data-name="Path 685" d="M184.8,198.712l4.171-18.312h4.171l-3.154,18.312Z" transform="translate(-161.3 -4.19)" fill="#293688"/>
    <path id="Path_686" data-name="Path 686" d="M263.565,176.414a12.9,12.9,0,0,0-4.68-.814c-5.087,0-8.749,2.543-8.749,6.206,0,2.747,2.543,4.171,4.578,5.087s2.645,1.526,2.645,2.34c0,1.221-1.628,1.831-3.052,1.831a11.058,11.058,0,0,1-4.883-1.017l-.712-.305L248,193.912a16.5,16.5,0,0,0,5.8,1.017c5.392,0,8.952-2.543,8.952-6.409,0-2.136-1.323-3.764-4.375-5.087-1.831-.916-2.95-1.424-2.95-2.34,0-.814.916-1.628,2.95-1.628a9.331,9.331,0,0,1,3.866.712l.509.2.814-3.968Z" transform="translate(-216.463 0)" fill="#3c58bf"/>
    <path id="Path_687" data-name="Path 687" d="M263.565,176.414a12.9,12.9,0,0,0-4.68-.814c-5.087,0-7.833,2.543-7.833,6.206,0,2.747,1.628,4.171,3.662,5.087s2.645,1.526,2.645,2.34c0,1.221-1.628,1.831-3.052,1.831a11.058,11.058,0,0,1-4.883-1.017l-.712-.305L248,193.912a16.5,16.5,0,0,0,5.8,1.017c5.392,0,8.952-2.543,8.952-6.409,0-2.136-1.323-3.764-4.375-5.087-1.831-.916-2.95-1.424-2.95-2.34,0-.814.916-1.628,2.95-1.628a9.331,9.331,0,0,1,3.866.712l.509.2.814-3.968Z" transform="translate(-216.463 0)" fill="#293688"/>
    <path id="Path_688" data-name="Path 688" d="M368.675,180.4c-1.221,0-2.136.1-2.645,1.323l-7.63,16.989h5.494l1.017-3.052h6.511l.61,3.052h4.883L372.643,180.4Zm-2.34,12.208c.305-.916,2.035-5.392,2.035-5.392s.407-1.119.712-1.831l.305,1.729s1.017,4.578,1.221,5.6h-4.273Z" transform="translate(-312.824 -4.19)" fill="#3c58bf"/>
    <path id="Path_689" data-name="Path 689" d="M369.9,180.4c-1.221,0-2.136.1-2.645,1.323L358.4,198.712h5.494l1.017-3.052h6.511l.61,3.052h4.883L372.643,180.4Zm-3.561,12.208c.407-1.017,2.035-5.392,2.035-5.392s.407-1.119.712-1.831l.305,1.729s1.017,4.578,1.221,5.6h-4.273Z" transform="translate(-312.824 -4.19)" fill="#293688"/>
    <path id="Path_690" data-name="Path 690" d="M58.83,193.917l-.509-2.645a14.747,14.747,0,0,0-7.121-8.037l4.578,16.277h5.494l8.24-18.312H64.018Z" transform="translate(-44.689 -4.888)" fill="#3c58bf"/>
    <path id="Path_691" data-name="Path 691" d="M58.83,193.917l-.509-2.645a14.747,14.747,0,0,0-7.121-8.037l4.578,16.277h5.494l8.24-18.312H65.036Z" transform="translate(-44.689 -4.888)" fill="#293688"/>
    <path id="Path_692" data-name="Path 692" d="M0,180.4l.916.2c6.511,1.526,10.987,5.392,12.717,9.97L11.8,181.926c-.305-1.221-1.221-1.526-2.34-1.526Z" transform="translate(0 -4.19)" fill="#ffbc00"/>
    <path id="Path_693" data-name="Path 693" d="M0,180.4H0c6.511,1.526,11.9,5.494,13.632,10.072L11.9,183.249a2.483,2.483,0,0,0-2.442-1.933Z" transform="translate(0 -4.19)" fill="#f7981d"/>
    <path id="Path_694" data-name="Path 694" d="M0,180.4H0c6.511,1.526,11.9,5.494,13.632,10.072L12.411,186.5c-.305-1.221-.712-2.442-2.136-2.95Z" transform="translate(0 -4.19)" fill="#ed7c00"/>
    <g id="Group_548" data-name="Group 548" transform="translate(6.613 178.245)">
      <path id="Path_695" data-name="Path 695" d="M64.615,206.573l-3.459-3.459-1.628,3.866-.407-2.543A14.747,14.747,0,0,0,52,196.4l4.578,16.277h5.494Z" transform="translate(-52 -196.4)" fill="#051244"/>
      <path id="Path_696" data-name="Path 696" d="M189.988,293.676l-4.374-4.476-.814,4.476Z" transform="translate(-167.912 -277.399)" fill="#051244"/>
      <path id="Path_697" data-name="Path 697" d="M256.851,274.8h0c.407.407.61.712.509,1.119,0,1.221-1.628,1.831-3.052,1.831a11.057,11.057,0,0,1-4.883-1.017l-.712-.305L248,280.6a16.5,16.5,0,0,0,5.8,1.017c3.255,0,5.9-.916,7.426-2.543Z" transform="translate(-223.075 -264.83)" fill="#051244"/>
      <path id="Path_698" data-name="Path 698" d="M364,232.927h4.781l1.017-3.052h6.511l.61,3.052H381.8l-1.729-7.426-6.1-5.9.305,1.628s1.017,4.578,1.221,5.6h-4.273c.407-1.017,2.035-5.392,2.035-5.392s.407-1.119.712-1.831" transform="translate(-324.324 -216.65)" fill="#051244"/>
    </g>
  </g>
</svg>
